<svg width="24" height="24" viewBox="0 0 24 24" fill="none" xmlns="http://www.w3.org/2000/svg">
<path d="M0 2.5C0 1.11929 1.11929 0 2.5 0H21.5C22.8807 0 24 1.11929 24 2.5V21.5C24 22.8807 22.8807 24 21.5 24H2.5C1.11929 24 0 22.8807 0 21.5V2.5Z" fill="#EC3213"/>
<path d="M11.9162 10.5752L12.8036 9.03757C12.8935 8.88175 12.9408 8.70502 12.9408 8.52513C12.9408 8.34524 12.8935 8.16852 12.8036 8.01272C12.7136 7.85691 12.5843 7.72751 12.4285 7.63752C12.2727 7.54752 12.0961 7.50009 11.9162 7.5C11.7362 7.50001 11.5595 7.54737 11.4036 7.63733C11.2478 7.72729 11.1184 7.85669 11.0284 8.01251C10.9384 8.16832 10.891 8.34508 10.891 8.52501C10.891 8.70495 10.9383 8.88172 11.0282 9.03757L11.9162 10.5752ZM11.9162 10.5752L13.9078 14.439M11.9162 10.5752L9.94187 14.439M9.94187 14.439H7.9658C7.82153 14.439 7.67867 14.4674 7.54538 14.5226C7.41209 14.5778 7.29098 14.6587 7.18896 14.7608C7.08695 14.8628 7.00603 14.9839 6.95082 15.1172C6.89561 15.2505 6.86719 15.3933 6.86719 15.5376C6.86719 16.6424 8.31517 17.0556 8.89855 16.1176L9.94187 14.439ZM9.94187 14.439H13.9078M13.9078 14.439H15.8844C16.0285 14.439 16.1713 14.4674 16.3044 14.5226C16.4376 14.5779 16.5585 14.6588 16.6604 14.7609C16.7622 14.8629 16.8429 14.9841 16.8978 15.1174C16.9528 15.2506 16.9809 15.3934 16.9806 15.5376C16.9806 16.6424 15.5331 17.0556 14.9497 16.1176L13.9078 14.439Z" stroke="white" stroke-width="1.15" stroke-miterlimit="10"/>
</svg>
