<svg width="20" height="20" viewBox="0 0 20 20" fill="none" xmlns="http://www.w3.org/2000/svg">
<path fill-rule="evenodd" clip-rule="evenodd" d="M13.2757 7.63671L11.25 1.25L9.22432 7.63671L3.75 10L9.22432 12.3633L11.25 18.75L13.2757 12.3633L18.75 10L13.2757 7.63671ZM15.5962 10L12.2566 8.55827L11.25 5.38457L10.2434 8.55827L6.90379 10L10.2434 11.4417L11.25 14.6154L12.2566 11.4417L15.5962 10Z" fill="#0F0F0F"/>
<path fill-rule="evenodd" clip-rule="evenodd" d="M6.30023 14.781L5.625 12.5L4.94977 14.781L3.125 15.625L4.94977 16.469L5.625 18.75L6.30023 16.469L8.125 15.625L6.30023 14.781Z" fill="#0F0F0F"/>
<path fill-rule="evenodd" clip-rule="evenodd" d="M4.42523 3.53097L3.75 1.25L3.07477 3.53097L1.25 4.375L3.07477 5.21903L3.75 7.5L4.42523 5.21903L6.25 4.375L4.42523 3.53097Z" fill="#0F0F0F"/>
</svg>
