<svg xmlns="http://www.w3.org/2000/svg" width="24" height="24" viewBox="0 0 24 24">
  <g class="ic-lock">
    <path fill-rule="evenodd" d="M7.5 7.5h9a4.5 4.5 0 1 0-9 0ZM6 7.5v.029c-.588.036-1.006.116-1.362.298a3 3 0 0 0-1.311 1.311C3 9.78 3 10.62 3 12.3v5.4c0 1.68 0 2.52.327 3.162a3 3 0 0 0 1.311 1.311c.642.327 1.482.327 3.162.327h8.4c1.68 0 2.52 0 3.162-.327a3 3 0 0 0 1.311-1.311C21 20.22 21 19.38 21 17.7v-5.4c0-1.68 0-2.52-.327-3.162a3 3 0 0 0-1.311-1.311c-.356-.182-.774-.262-1.362-.298V7.5a6 6 0 0 0-12 0Zm-.048 1.536C6.377 9 6.935 9 7.8 9h8.4c.865 0 1.423.001 1.848.036.408.033.559.09.633.127a1.5 1.5 0 0 1 .655.656c.038.074.095.225.128.633.035.425.036.983.036 1.848v5.4c0 .865-.001 1.423-.036 1.848-.033.408-.09.559-.127.633a1.5 1.5 0 0 1-.656.655c-.074.038-.225.095-.633.128-.425.035-.983.036-1.848.036H7.8c-.865 0-1.423-.001-1.848-.036-.408-.033-.559-.09-.633-.127a1.5 1.5 0 0 1-.656-.656c-.037-.074-.094-.225-.127-.633-.035-.425-.036-.983-.036-1.848v-5.4c0-.865.001-1.423.036-1.848.033-.408.09-.559.127-.633a1.5 1.5 0 0 1 .656-.656c.074-.037.225-.094.633-.127ZM13.5 13.5a1.5 1.5 0 0 1-.794 1.324l.654 2.617a.45.45 0 0 1-.436.559h-1.848a.45.45 0 0 1-.436-.56l.654-2.616A1.5 1.5 0 1 1 13.5 13.5Z" class="Icon"/>
  </g>
</svg>
