<svg width="24" height="24" viewBox="0 0 24 24" fill="none" xmlns="http://www.w3.org/2000/svg">
<g id="ic-brand-proton-vpn-filled">
<path id="Icon" fill-rule="evenodd" clip-rule="evenodd" d="M1.81375 5.82257C0.855557 4.11024 2.24544 2.03417 4.19369 2.26763L20.389 4.20836C22.1449 4.41879 23.0779 6.39159 22.1265 7.88241L13.9414 20.7085C13.0262 22.1426 10.9119 22.0814 10.0812 20.5969L1.81375 5.82257ZM4.01522 3.75698C3.28462 3.66943 2.76342 4.44796 3.12274 5.09008L3.53283 5.82293L16.4552 7.55932C17.2845 7.67075 17.7137 8.60926 17.2556 9.30946L10.9107 19.0075L11.3902 19.8644C11.6671 20.3592 12.3719 20.3796 12.6769 19.9016L20.8621 7.07548C21.2189 6.51642 20.869 5.77662 20.2105 5.69771L4.01522 3.75698Z" fill="#0F0F0F"/>
</g>
</svg>
