<svg xmlns="http://www.w3.org/2000/svg" width="24" height="24" viewBox="0 0 24 24">
  <g class="ic-brand-paypal">
    <path fill-rule="evenodd" d="M18.787 5.245A5.254 5.254 0 0 0 13.725 1.5H5.25a1.75 1.75 0 0 0-1.751 1.487L1.535 18.735a1.749 1.749 0 0 0 1.752 2.1H6.79c-.009.43.14.846.42 1.172.35.34.827.517 1.314.49h5.131l.876-5.249h.963A7.002 7.002 0 0 0 22.5 10.25a5.25 5.25 0 0 0-3.713-5.004Zm-1.506 1.504c0 2.9-2.353 5.25-5.254 5.25H9.504l.596-5.25h7.18Zm-8.915-.192-1.401 12.44H3.287L5.25 3.25h8.475A3.504 3.504 0 0 1 16.79 5H10.1a1.75 1.75 0 0 0-1.734 1.557Zm7.128 8.941h-2.452l-.875 5.25H8.524l.788-7h2.644a7.003 7.003 0 0 0 7.006-6.526 3.5 3.5 0 0 1 1.822 3.027 5.247 5.247 0 0 1-1.552 3.724 5.257 5.257 0 0 1-3.738 1.525Z" class="Icon"/>
  </g>
</svg>
