<svg width="24" height="24" viewBox="0 0 24 24" fill="none" xmlns="http://www.w3.org/2000/svg">
<g id="ic-brand-proton-pass-filled">
<path id="Icon" fill-rule="evenodd" clip-rule="evenodd" d="M20.3596 10.4627L13.5373 3.64039C12.6883 2.79138 11.3117 2.79138 10.4627 3.64039L17.4575 10.6562C18.1922 11.3909 18.1922 12.6054 17.4575 13.34L10.4627 20.3596C11.3117 21.2086 12.6883 21.2086 13.5373 20.3596L20.3596 13.5373C21.2086 12.6883 21.2086 11.3117 20.3596 10.4627ZM14.5975 2.5802C13.1629 1.14565 10.8371 1.14566 9.40253 2.5802L2.58019 9.40254C1.14565 10.8371 1.14565 13.1629 2.58019 14.5975L9.40253 21.4198C10.8371 22.8544 13.1629 22.8544 14.5975 21.4198L21.4198 14.5975C22.8544 13.1629 22.8544 10.8371 21.4198 9.40253L14.5975 2.5802Z" fill="#0F0F0F"/>
</g>
</svg>
