<svg width="20" height="20" viewBox="0 0 20 20" fill="none" xmlns="http://www.w3.org/2000/svg">
<path fill-rule="evenodd" clip-rule="evenodd" d="M3.75 1.25H16.25C17.6307 1.25 18.75 2.36929 18.75 3.75V16.25C18.75 17.6307 17.6307 18.75 16.25 18.75H3.75C2.36929 18.75 1.25 17.6307 1.25 16.25V3.75C1.25 2.36929 2.36929 1.25 3.75 1.25ZM0 3.75C0 1.67893 1.67893 0 3.75 0H16.25C18.3211 0 20 1.67893 20 3.75V16.25C20 18.3211 18.3211 20 16.25 20H3.75C1.67893 20 0 18.3211 0 16.25V3.75ZM14.0519 5.01085L4.5007 7.68597C4.00316 7.82532 3.88894 8.46047 4.28941 8.86094L6.84305 11.4146L10.1101 9.48801C10.3658 9.28918 10.7373 9.66072 10.5385 9.91635L8.61051 13.182L11.1655 15.7371C11.566 16.1375 12.2012 16.0233 12.3405 15.5258L15.0156 5.97454C15.1701 5.423 14.6035 4.85638 14.0519 5.01085Z" fill="#747088"/>
</svg>
