<svg width="24" height="24" viewBox="0 0 24 24" fill="none" xmlns="http://www.w3.org/2000/svg">
<path d="M0 2.5C0 1.11929 1.11929 0 2.5 0H21.5C22.8807 0 24 1.11929 24 2.5V21.5C24 22.8807 22.8807 24 21.5 24H2.5C1.11929 24 0 22.8807 0 21.5V2.5Z" fill="#DADBE0"/>
<path fill-rule="evenodd" clip-rule="evenodd" d="M11.7251 2C11.3109 2 10.9751 2.33579 10.9751 2.75C10.9751 3.16421 11.3109 3.5 11.7251 3.5H12.2711C12.6853 3.5 13.0211 3.16421 13.0211 2.75C13.0211 2.33579 12.6853 2 12.2711 2H11.7251ZM11.7251 4C11.3109 4 10.9751 4.33579 10.9751 4.75C10.9751 5.16421 11.3109 5.5 11.7251 5.5H12.2711C12.6853 5.5 13.0211 5.16421 13.0211 4.75C13.0211 4.33579 12.6853 4 12.2711 4H11.7251ZM10.9751 6.75C10.9751 6.33579 11.3109 6 11.7251 6H12.2711C12.6853 6 13.0211 6.33579 13.0211 6.75C13.0211 7.16421 12.6853 7.5 12.2711 7.5H11.7251C11.3109 7.5 10.9751 7.16421 10.9751 6.75ZM11.7251 8C11.3109 8 10.9751 8.33579 10.9751 8.75C10.9751 9.16421 11.3109 9.5 11.7251 9.5H12.2711C12.6853 9.5 13.0211 9.16421 13.0211 8.75C13.0211 8.33579 12.6853 8 12.2711 8H11.7251ZM10.9751 10.75C10.9751 10.3358 11.3109 10 11.7251 10H12.2711C12.6853 10 13.0211 10.3358 13.0211 10.75C13.0211 11.1642 12.6853 11.5 12.2711 11.5H11.7251C11.3109 11.5 10.9751 11.1642 10.9751 10.75ZM11.1794 12H12.8161C12.8161 12.6712 13.4166 14.4053 14.0204 15.9795C14.5728 17.4194 13.5278 19 11.9856 19C10.4362 19 9.39089 17.4059 9.95573 15.9631C10.5703 14.3933 11.1794 12.6689 11.1794 12ZM10.9746 16.75C10.9746 16.3358 11.3104 16 11.7246 16H12.2706C12.6848 16 13.0206 16.3358 13.0206 16.75C13.0206 17.1642 12.6848 17.5 12.2706 17.5H11.7246C11.3104 17.5 10.9746 17.1642 10.9746 16.75Z" fill="#3A3F4A"/>
</svg>
