<svg width="126" height="32" viewBox="0 0 126 32" fill="none" xmlns="http://www.w3.org/2000/svg">
<g clip-path="url(#clip0_6622_73480)">
<path d="M3.85444e-08 23.3003V31.504H5.74213V23.6561C5.74213 22.8925 6.0446 22.1601 6.58303 21.6202C7.12146 21.0802 7.85174 20.7769 8.61319 20.7769H14.5008C17.2481 20.7769 19.8829 19.6824 21.8255 17.7343C23.7681 15.7862 24.8595 13.144 24.8595 10.3889C24.8595 7.63387 23.7681 4.99165 21.8255 3.04353C19.8829 1.09541 17.2481 0.000976563 14.5008 0.000976562H3.85444e-08V10.2556H5.74213V5.42016H14.1123C15.412 5.42016 16.6586 5.93789 17.5777 6.85948C18.4968 7.78108 19.0133 9.03107 19.0135 10.3345C19.0135 10.98 18.8868 11.6191 18.6404 12.2154C18.3941 12.8118 18.0331 13.3536 17.578 13.81C17.1228 14.2664 16.5825 14.6285 15.9879 14.8755C15.3932 15.1225 14.7559 15.2496 14.1123 15.2496H8.02716C6.97295 15.2496 5.92906 15.4579 4.95511 15.8625C3.98116 16.2671 3.09623 16.8601 2.35083 17.6077C1.60543 18.3552 1.01416 19.2428 0.6108 20.2195C0.207443 21.1963 -0.000103265 22.2431 3.85444e-08 23.3003Z" fill="#6D4AFF"/>
<path d="M8.61162 20.7759C6.32768 20.7759 4.13727 21.6857 2.52228 23.3053C0.907291 24.9249 0 27.1215 0 29.4119V31.503H5.74213V23.6551C5.74213 22.8917 6.0444 22.1596 6.58249 21.6197C7.12058 21.0798 7.85044 20.7763 8.61162 20.7759Z" fill="url(#paint0_linear_6622_73480)"/>
<path d="M25.7468 31.5043V19.0062C25.7468 13.9073 28.7162 9.84643 34.6557 9.84643C35.6091 9.8325 36.5604 9.9385 37.4875 10.162V15.3051C36.8118 15.2601 36.2289 15.2601 35.9575 15.2601C32.8112 15.2601 31.4582 16.7044 31.4582 19.6372V31.5034L25.7468 31.5043Z" fill="#6D4AFF"/>
<path d="M39.199 20.9007C39.199 14.6288 43.9233 9.84619 50.4929 9.84619C57.0626 9.84619 61.786 14.6288 61.786 20.9007C61.786 27.1726 57.0618 32.001 50.4929 32.001C43.9241 32.001 39.199 27.171 39.199 20.9007ZM56.1619 20.9007C56.1619 17.336 53.777 14.8094 50.4929 14.8094C47.2089 14.8094 44.8232 17.3337 44.8232 20.9007C44.8232 24.5103 47.2081 26.992 50.4929 26.992C53.7777 26.992 56.1619 24.5103 56.1619 20.9007Z" fill="#6D4AFF"/>
<path d="M80.0507 20.9007C80.0507 14.6288 84.775 9.84619 91.3446 9.84619C97.9142 9.84619 102.638 14.6288 102.638 20.9007C102.638 27.1726 97.9134 32.001 91.3446 32.001C84.7757 32.001 80.0507 27.171 80.0507 20.9007ZM97.0135 20.9007C97.0135 17.336 94.6286 14.8094 91.3446 14.8094C88.0605 14.8094 85.6748 17.3337 85.6748 20.9007C85.6748 24.5103 88.0598 26.992 91.3446 26.992C94.6294 26.992 97.0151 24.5103 97.0151 20.9007H97.0135Z" fill="#6D4AFF"/>
<path d="M105.609 31.504V19.4572C105.609 13.8621 109.163 9.84619 115.507 9.84619C121.806 9.84619 125.361 13.8621 125.361 19.4572V31.504H119.695V19.9084C119.695 16.7949 118.299 14.8544 115.51 14.8544C112.721 14.8544 111.326 16.7949 111.326 19.9084V31.504H105.609Z" fill="#6D4AFF"/>
<path d="M78.3431 14.8544H72.1793V22.7536C72.1793 25.5058 73.1688 26.7687 76.0037 26.7687C76.2735 26.7687 76.9476 26.7687 77.8035 26.7237V31.3714C76.6338 31.687 75.601 31.8676 74.4738 31.8676C69.7047 31.8676 66.4647 28.9797 66.4647 23.5203V14.8544H62.6403V10.2974H63.5936C64.355 10.2974 65.0853 9.99402 65.6238 9.45406C66.1622 8.91411 66.4647 8.18179 66.4647 7.41818V3.12305H72.1793V10.3013H78.3431V14.8544Z" fill="#6D4AFF"/>
</g>
<defs>
<linearGradient id="paint0_linear_6622_73480" x1="4.30581" y1="29.9514" x2="4.30581" y2="17.8967" gradientUnits="userSpaceOnUse">
<stop stop-color="#6D4BFD"/>
<stop offset="1" stop-color="#1C0554"/>
</linearGradient>
<clipPath id="clip0_6622_73480">
<rect width="125.361" height="32" fill="white"/>
</clipPath>
</defs>
</svg>
