<svg width="126" height="32" viewBox="0 0 126 32" fill="none" xmlns="http://www.w3.org/2000/svg">
<g clip-path="url(#clip0_6622_73498)">
<path d="M3.85444e-08 23.3001V31.5038H5.74213V23.6558C5.74213 22.8922 6.0446 22.1599 6.58303 21.6199C7.12146 21.08 7.85174 20.7766 8.61319 20.7766H14.5008C17.2481 20.7766 19.8829 19.6822 21.8255 17.7341C23.7681 15.786 24.8595 13.1437 24.8595 10.3887C24.8595 7.63363 23.7681 4.99141 21.8255 3.04329C19.8829 1.09517 17.2481 0.000732422 14.5008 0.000732422H3.85444e-08V10.2554H5.74213V5.41991H14.1123C15.412 5.41991 16.6586 5.93764 17.5777 6.85924C18.4968 7.78083 19.0133 9.03082 19.0135 10.3343C19.0135 10.9797 18.8868 11.6189 18.6404 12.2152C18.3941 12.8115 18.0331 13.3534 17.578 13.8098C17.1228 14.2662 16.5825 14.6282 15.9879 14.8752C15.3932 15.1223 14.7559 15.2494 14.1123 15.2494H8.02716C6.97295 15.2494 5.92906 15.4576 4.95511 15.8622C3.98116 16.2668 3.09623 16.8598 2.35083 17.6074C1.60543 18.355 1.01416 19.2425 0.6108 20.2193C0.207443 21.196 -0.000103265 22.2429 3.85444e-08 23.3001Z" fill="#8A6EFF"/>
<path d="M8.61162 20.7759C6.32768 20.7759 4.13727 21.6857 2.52228 23.3053C0.907291 24.9249 0 27.1215 0 29.4119V31.503H5.74213V23.6551C5.74213 22.8917 6.0444 22.1596 6.58249 21.6197C7.12058 21.0798 7.85044 20.7763 8.61162 20.7759Z" fill="url(#paint0_linear_6622_73498)"/>
<path d="M25.7468 31.5038V19.0057C25.7468 13.9068 28.7162 9.84594 34.6557 9.84594C35.6091 9.83201 36.5604 9.93801 37.4875 10.1615V15.3046C36.8118 15.2596 36.2289 15.2596 35.9575 15.2596C32.8112 15.2596 31.4582 16.7039 31.4582 19.6368V31.503L25.7468 31.5038Z" fill="#8A6EFF"/>
<path d="M39.199 20.9005C39.199 14.6286 43.9233 9.84595 50.4929 9.84595C57.0626 9.84595 61.786 14.6286 61.786 20.9005C61.786 27.1724 57.0618 32.0007 50.4929 32.0007C43.9241 32.0007 39.199 27.1708 39.199 20.9005ZM56.1619 20.9005C56.1619 17.3358 53.777 14.8092 50.4929 14.8092C47.2089 14.8092 44.8232 17.3334 44.8232 20.9005C44.8232 24.5101 47.2081 26.9917 50.4929 26.9917C53.7777 26.9917 56.1619 24.5101 56.1619 20.9005Z" fill="#8A6EFF"/>
<path d="M80.0507 20.9005C80.0507 14.6286 84.775 9.84595 91.3446 9.84595C97.9142 9.84595 102.638 14.6286 102.638 20.9005C102.638 27.1724 97.9134 32.0007 91.3446 32.0007C84.7757 32.0007 80.0507 27.1708 80.0507 20.9005ZM97.0135 20.9005C97.0135 17.3358 94.6286 14.8092 91.3446 14.8092C88.0605 14.8092 85.6748 17.3334 85.6748 20.9005C85.6748 24.5101 88.0598 26.9917 91.3446 26.9917C94.6294 26.9917 97.0151 24.5101 97.0151 20.9005H97.0135Z" fill="#8A6EFF"/>
<path d="M105.609 31.5038V19.4569C105.609 13.8618 109.163 9.84595 115.507 9.84595C121.806 9.84595 125.361 13.8618 125.361 19.4569V31.5038H119.695V19.9081C119.695 16.7946 118.299 14.8542 115.51 14.8542C112.721 14.8542 111.326 16.7946 111.326 19.9081V31.5038H105.609Z" fill="#8A6EFF"/>
<path d="M78.3431 14.8541H72.1793V22.7533C72.1793 25.5055 73.1688 26.7684 76.0037 26.7684C76.2735 26.7684 76.9476 26.7684 77.8035 26.7235V31.3712C76.6338 31.6867 75.601 31.8673 74.4738 31.8673C69.7047 31.8673 66.4647 28.9795 66.4647 23.5201V14.8541H62.6403V10.2971H63.5936C64.355 10.2971 65.0853 9.99377 65.6238 9.45382C66.1622 8.91387 66.4647 8.18154 66.4647 7.41793V3.1228H72.1793V10.301H78.3431V14.8541Z" fill="#8A6EFF"/>
</g>
<defs>
<linearGradient id="paint0_linear_6622_73498" x1="4.30581" y1="29.9514" x2="4.30581" y2="17.8967" gradientUnits="userSpaceOnUse">
<stop stop-color="#6D4BFD"/>
<stop offset="1" stop-color="#1C0554"/>
</linearGradient>
<clipPath id="clip0_6622_73498">
<rect width="125.361" height="32" fill="white"/>
</clipPath>
</defs>
</svg>
