<svg width="24" height="24" viewBox="0 0 24 24" fill="none" xmlns="http://www.w3.org/2000/svg">
<path d="M0 2.5C0 1.11929 1.11929 0 2.5 0H21.5C22.8807 0 24 1.11929 24 2.5V21.5C24 22.8807 22.8807 24 21.5 24H2.5C1.11929 24 0 22.8807 0 21.5V2.5Z" fill="#DADBE0"/>
<path fill-rule="evenodd" clip-rule="evenodd" d="M7.625 6.3125V6.89937C6.60546 7.25972 5.875 8.23206 5.875 9.375V15.5C5.875 16.9497 7.05025 18.125 8.5 18.125H15.5C16.9497 18.125 18.125 16.9497 18.125 15.5V9.375C18.125 8.23206 17.3945 7.25972 16.375 6.89937V6.3125C16.375 6.07088 16.1791 5.875 15.9375 5.875C15.6959 5.875 15.5 6.07088 15.5 6.3125V6.75H8.5V6.3125C8.5 6.07088 8.30412 5.875 8.0625 5.875C7.82088 5.875 7.625 6.07088 7.625 6.3125ZM15.5 7.625H8.5C7.5335 7.625 6.75 8.4085 6.75 9.375L17.25 9.375C17.25 8.4085 16.4665 7.625 15.5 7.625ZM6.75 15.5V10.25H17.25V15.5C17.25 16.4665 16.4665 17.25 15.5 17.25H8.5C7.5335 17.25 6.75 16.4665 6.75 15.5ZM8.9375 12.875C8.69588 12.875 8.5 12.6791 8.5 12.4375C8.5 12.1959 8.69588 12 8.9375 12C9.17912 12 9.375 12.1959 9.375 12.4375C9.375 12.6791 9.17912 12.875 8.9375 12.875ZM7.625 12.4375C7.625 11.7126 8.21263 11.125 8.9375 11.125C9.66237 11.125 10.25 11.7126 10.25 12.4375C10.25 13.1624 9.66237 13.75 8.9375 13.75C8.21263 13.75 7.625 13.1624 7.625 12.4375Z" fill="#3A3F4A"/>
</svg>
