<svg width="24" height="24" viewBox="0 0 24 24" fill="none" xmlns="http://www.w3.org/2000/svg">
<path fill-rule="evenodd" clip-rule="evenodd" d="M8.12132 21H15.8787L16.6626 20.2161L17.689 21.311L16.9393 22.0607C16.658 22.342 16.2765 22.5 15.8787 22.5H8.12132C7.7235 22.5 7.34196 22.342 7.06066 22.0607L1.93934 16.9393C1.65803 16.658 1.5 16.2765 1.5 15.8787V8.12132C1.5 7.7235 1.65804 7.34196 1.93934 7.06066L3.17291 5.82709L4.19936 6.92196L3 8.12132L3 15.8787L8.12132 21ZM11.9122 17.1C12.4241 17.1 12.8504 16.7337 12.9434 16.2489L11.7802 15.0082C11.2626 15.0731 10.8622 15.5148 10.8622 16.05C10.8622 16.6299 11.3323 17.1 11.9122 17.1ZM19.6937 19.3063L21.541 21.2306C21.8279 21.5294 21.8182 22.0042 21.5194 22.291C21.2206 22.5779 20.7458 22.5682 20.459 22.2694L2.45896 3.5194C2.1721 3.22059 2.18179 2.74582 2.4806 2.45896C2.77941 2.17211 3.25418 2.1818 3.54104 2.48061L4.99983 4.00017L7.06066 1.93934C7.34197 1.65803 7.7235 1.5 8.12132 1.5H15.8787C16.2765 1.5 16.658 1.65804 16.9393 1.93934L22.0607 7.06066C22.342 7.34197 22.5 7.7235 22.5 8.12132V15.8787C22.5 16.2765 22.342 16.658 22.0607 16.9393L19.6937 19.3063ZM18.6547 18.224L21 15.8787V8.12132L15.8787 3L8.12132 3L6.03884 5.08248L10.8207 10.0635L10.5111 7.58723C10.4058 6.74443 11.0629 6 11.9123 6C12.7617 6 13.4188 6.74443 13.3135 7.58723L12.7524 12.0758L18.6547 18.224Z" fill="#0C0C14"/>
</svg>
