<svg width="24" height="24" viewBox="0 0 24 24" fill="none" xmlns="http://www.w3.org/2000/svg">
<g id="ic-arrow-up-big-line">
<path id="Icon" fill-rule="evenodd" clip-rule="evenodd" d="M9.75 9.81727V8.31727H8.25H7.22563L12 3.25299L16.7744 8.31727H15.75H14.25V9.81727V18.0343H9.75L9.75 9.81727ZM15.75 9.81727V11.3173V18.5968C15.75 19.1145 15.3303 19.5343 14.8125 19.5343H9.1875C8.66973 19.5343 8.25 19.1145 8.25 18.5968L8.25 11.3173V9.81727H6.75H5.92227C5.10029 9.81727 4.67626 8.83476 5.24012 8.23667L11.3178 1.78988C11.6879 1.39735 12.3121 1.39735 12.6821 1.78988L18.7599 8.23667C19.3237 8.83476 18.8997 9.81727 18.0777 9.81727H17.25H15.75ZM5.25 21.0009C4.83579 21.0009 4.5 21.3367 4.5 21.7509C4.5 22.1651 4.83579 22.5009 5.25 22.5009H18.75C19.1642 22.5009 19.5 22.1651 19.5 21.7509C19.5 21.3367 19.1642 21.0009 18.75 21.0009H5.25Z" fill="#0F0F0F"/>
</g>
</svg>
