<svg xmlns="http://www.w3.org/2000/svg" width="24" height="24" viewBox="0 0 24 24">
  <g class="ic-switch-on">
    <path fill-rule="evenodd" d="M6 3c0-.828.682-1.5 1.523-1.5h8.374c.84 0 1.522.672 1.522 1.5v8.031l4.913 7.605c.396.614.052 1.394-.608 1.575l-3.86 2.153c-.16.089-.34.136-.525.136H7.066C6.477 22.5 6 22.03 6 21.45v-10.2h.012A1.476 1.476 0 0 1 6 11.059V3Zm1.523 11.191v6.697l2.833-1.58-2.833-5.117Zm4.235 6.059-1.345.75h6.806l1.345-.75h-6.806Zm8.842-1.5-4.465-6.913a1.483 1.483 0 0 1-.238-.806V3H7.523v8.059l4.258 7.69h8.82ZM12.09 6c.42 0 .762.336.762.75V9c0 .414-.341.75-.762.75a.756.756 0 0 1-.76-.75V6.75c0-.414.34-.75.76-.75Zm1.918 8.936c-.15-.064-.223-.034-.242-.023-.02.01-.082.058-.101.218-.02.161.016.387.152.619.136.232.316.375.468.439.15.064.223.034.242.023.02-.01.082-.058.101-.218a1.017 1.017 0 0 0-.152-.619 1.04 1.04 0 0 0-.468-.44Zm.599-1.38a2.55 2.55 0 0 1 1.188 1.069c.284.486.408 1.035.345 1.548-.063.513-.324 1.038-.851 1.338-.528.3-1.12.26-1.602.058a2.55 2.55 0 0 1-1.189-1.069 2.494 2.494 0 0 1-.345-1.548c.063-.513.324-1.038.852-1.338.527-.3 1.12-.26 1.602-.058Z" class="Icon"/>
  </g>
</svg>
