<svg width="249" height="141" viewBox="0 0 249 141" fill="none" xmlns="http://www.w3.org/2000/svg">
<path d="M188.832 58.7494H144.807C143.254 58.7494 142.008 57.4622 142.008 55.902V28.3054C142.008 26.7452 143.273 25.458 144.807 25.458H188.813C190.366 25.458 191.613 26.7452 191.613 28.3054V55.902C191.632 57.4817 190.366 58.7494 188.832 58.7494Z" fill="url(#paint0_linear_26090_8888)"/>
<path d="M165.002 44.6267C166.042 45.4902 167.563 45.4902 168.603 44.6267L190.827 26.2063C190.326 25.7458 189.652 25.458 188.921 25.458H144.703C143.972 25.458 143.298 25.7458 142.797 26.2063L165.002 44.6267Z" fill="url(#paint1_linear_26090_8888)"/>
<path d="M186.102 116.194C196.129 116.194 204.258 107.944 204.258 97.9166C204.258 87.8891 196.129 79.6388 186.102 79.6388C176.074 79.6388 167.945 87.8891 167.945 97.9166C167.945 107.944 176.074 116.194 186.102 116.194Z" fill="url(#paint2_linear_26090_8888)"/>
<path d="M193.981 104.999C193.851 104.384 193.436 103.88 192.867 103.629L190.025 102.396C189.839 102.318 189.635 102.338 189.463 102.457L187.772 103.623C187.772 103.623 185.299 102.597 183.808 100.407C182.317 98.2171 182.258 95.5252 182.258 95.5252L183.957 94.3528C184.121 94.2395 184.221 94.0492 184.215 93.8464L184.084 90.7303C184.057 90.1055 183.741 89.5344 183.217 89.191C182.574 88.7603 181.735 88.7684 181.095 89.2102L179.749 90.1391C179.453 90.3431 179.233 90.6405 179.105 90.9839C177.261 96.3737 181.126 102.245 181.126 102.245C181.126 102.245 185.164 107.998 190.823 108.21C191.184 108.228 191.534 108.121 191.837 107.911L193.192 106.976C193.832 106.535 194.148 105.758 193.981 104.999Z" fill="white"/>
<path d="M149.438 116.194H97.1902V44.3887H149.438C152.675 44.3887 155.298 47.0292 155.298 50.2873V110.296C155.276 113.554 152.654 116.194 149.438 116.194Z" fill="url(#paint3_linear_26090_8888)"/>
<path d="M148.74 115.065H136.535V45.623H148.74C151.49 45.623 153.733 47.859 153.733 50.6486V110.039C153.711 112.808 151.49 115.065 148.74 115.065Z" fill="white"/>
<path d="M144.319 116.194H92.071V44.3887H144.319C147.556 44.3887 150.179 47.0292 150.179 50.2873V110.296C150.179 113.554 147.556 116.194 144.319 116.194Z" fill="url(#paint4_linear_26090_8888)"/>
<path d="M99.1573 44.3887H92.071V116.194H99.1573V44.3887Z" fill="url(#paint5_linear_26090_8888)"/>
<path d="M122.089 77.9348C124.479 77.9348 126.417 75.9841 126.417 73.5777C126.417 71.1714 124.479 69.2207 122.089 69.2207C119.699 69.2207 117.761 71.1714 117.761 73.5777C117.761 75.9841 119.699 77.9348 122.089 77.9348Z" fill="white"/>
<path d="M116.08 90.1504C113.511 90.1504 111.791 87.3689 113.047 85.0931C114.805 81.9031 118.206 79.7246 122.09 79.7246C125.973 79.7246 129.374 81.8837 131.132 85.0931C132.388 87.3494 130.668 90.1504 128.099 90.1504H116.08Z" fill="white"/>
<path d="M77.6355 115.914C82.7515 115.914 86.8987 111.739 86.8987 106.589C86.8987 101.439 82.7515 97.2637 77.6355 97.2637C72.5196 97.2637 68.3723 101.439 68.3723 106.589C68.3723 111.739 72.5196 115.914 77.6355 115.914Z" stroke="#C2BFBC" stroke-width="1.8425" stroke-miterlimit="10"/>
<path d="M63.2437 107.308C63.2437 105.87 64.392 104.714 65.821 104.714C67.2501 104.714 68.3984 105.87 68.3984 107.308" stroke="#C2BFBC" stroke-width="1.8425" stroke-miterlimit="10"/>
<path d="M86.8728 106.589H98.9431C101.112 106.589 102.873 108.361 102.873 110.545V115.914" stroke="#C2BFBC" stroke-width="1.8425" stroke-miterlimit="10" stroke-linecap="round"/>
<path d="M44.7422 106.589H56.8124C58.9815 106.589 60.7423 108.361 60.7423 110.545V115.914" stroke="#EAE8E5" stroke-width="1.8425" stroke-miterlimit="10" stroke-linecap="round"/>
<path d="M54.0054 115.914C59.1213 115.914 63.2686 111.739 63.2686 106.589C63.2686 101.439 59.1213 97.2637 54.0054 97.2637C48.8895 97.2637 44.7422 101.439 44.7422 106.589C44.7422 111.739 48.8895 115.914 54.0054 115.914Z" stroke="#C2BFBC" stroke-width="1.8425" stroke-miterlimit="10"/>
<path d="M50.2163 44.3887C41.8212 44.3887 35.0156 51.1943 35.0156 59.5894C35.0156 67.9845 41.8212 74.7901 50.2163 74.7901H53.8862L67.2367 85.5137V74.7901C73.7938 74.7901 79.1094 69.4745 79.1094 62.9174V59.5894C79.1094 51.1943 72.3038 44.3887 63.9087 44.3887H50.2163Z" fill="url(#paint6_linear_26090_8888)"/>
<ellipse cx="49.2812" cy="60.7083" rx="1.94531" ry="1.95833" fill="white"/>
<ellipse cx="57.0625" cy="60.7083" rx="1.94531" ry="1.95833" fill="white"/>
<ellipse cx="64.8438" cy="60.7083" rx="1.94531" ry="1.95833" fill="white"/>
<defs>
<linearGradient id="paint0_linear_26090_8888" x1="166.81" y1="25.458" x2="166.81" y2="55.8122" gradientUnits="userSpaceOnUse">
<stop stop-color="#EAE8E5"/>
<stop offset="1" stop-color="#F5F4F2"/>
</linearGradient>
<linearGradient id="paint1_linear_26090_8888" x1="166.812" y1="20.8886" x2="166.812" y2="38.1872" gradientUnits="userSpaceOnUse">
<stop stop-color="#F5F4F2"/>
<stop offset="1" stop-color="white"/>
</linearGradient>
<linearGradient id="paint2_linear_26090_8888" x1="186.102" y1="79.6388" x2="186.102" y2="116.194" gradientUnits="userSpaceOnUse">
<stop stop-color="#2AF091"/>
<stop offset="1" stop-color="#00C5A1"/>
</linearGradient>
<linearGradient id="paint3_linear_26090_8888" x1="126.244" y1="44.3887" x2="126.244" y2="116.194" gradientUnits="userSpaceOnUse">
<stop stop-color="#FF9A61"/>
<stop offset="1" stop-color="#E36425"/>
</linearGradient>
<linearGradient id="paint4_linear_26090_8888" x1="121.125" y1="44.3887" x2="121.125" y2="116.194" gradientUnits="userSpaceOnUse">
<stop stop-color="#FFB341"/>
<stop offset="1" stop-color="#EE7C3E"/>
</linearGradient>
<linearGradient id="paint5_linear_26090_8888" x1="95.6142" y1="44.3887" x2="95.6142" y2="116.194" gradientUnits="userSpaceOnUse">
<stop stop-color="#614B37"/>
<stop offset="1" stop-color="#651B30"/>
</linearGradient>
<linearGradient id="paint6_linear_26090_8888" x1="59.1824" y1="30.5485" x2="69.9414" y2="83.4535" gradientUnits="userSpaceOnUse">
<stop stop-color="#ECAAFF"/>
<stop offset="1" stop-color="#6A48F6"/>
</linearGradient>
</defs>
</svg>
