<svg xmlns="http://www.w3.org/2000/svg" width="24" height="24" viewBox="0 0 24 24">
  <g class="ic-fingerprint">
    <g class="Icon">
      <path fill-rule="evenodd" d="M12.306 3.015A9.494 9.494 0 0 0 2.28 13.263a.75.75 0 1 1-1.496.116 10.994 10.994 0 0 1 11.633-11.86l.025.002.483.06c5.426.336 9.803 4.676 10.255 10.107v.013l.06.9v.003c.152 2.078-1.537 3.779-3.547 3.701h-.013a3.46 3.46 0 0 1-3.08-2.385l-.004-.014-.602-1.932v-.004a4.326 4.326 0 0 0-4.673-3.039c-2.064.26-3.698 1.97-3.8 4.004v.01c-.11 1.76.322 4.21 2.124 7.24a.75.75 0 0 1-1.29.767c-1.93-3.249-2.462-5.992-2.332-8.096.142-2.794 2.361-5.068 5.113-5.413h.002a5.826 5.826 0 0 1 6.289 4.086v.001l.6 1.923a1.959 1.959 0 0 0 1.73 1.353 1.943 1.943 0 0 0 1.987-2.094v-.006l-.06-.9c-.394-4.704-4.194-8.45-8.873-8.729l-.025-.001-.48-.06ZM11.108 4.42c4.032-.33 7.793 2.253 8.914 6.221a.75.75 0 0 1-1.444.408c-.926-3.279-4.031-5.406-7.348-5.133h-.002c-3.423.272-6.152 3-6.48 6.45l-.002.022-.003.021v.003l-.003.018a6.973 6.973 0 0 0-.04.443c-.018.316-.027.776.012 1.34a12.01 12.01 0 0 0 1.112 4.285.75.75 0 0 1-1.356.64 13.51 13.51 0 0 1-1.253-4.82 12.195 12.195 0 0 1-.012-1.531 8.486 8.486 0 0 1 .05-.556l.003-.025C3.66 8.054 6.95 4.75 11.108 4.419Z"/>
      <path fill-rule="evenodd" d="M11.427 12.077c.704-.297 1.57.102 1.817.902Zm1.817.902.056.217c.394 1.543 1.309 5.122 4.23 8.47a.75.75 0 1 0 1.13-.986c-2.682-3.075-3.523-6.357-3.91-7.87l-.058-.224-.003-.013-.004-.013c-.482-1.608-2.26-2.532-3.841-1.865C9.454 11.282 9 12.534 9 13.5c-.002.87.246 1.865.58 2.825.34.973.788 1.968 1.23 2.856a40.41 40.41 0 0 0 1.731 3.112l.03.049.009.013.003.005.634-.401-.634.401a.75.75 0 0 0 1.267-.803l-.001-.002-.007-.011-.027-.044a34.896 34.896 0 0 1-.492-.821c-.32-.55-.746-1.314-1.17-2.167a23.61 23.61 0 0 1-1.156-2.68c-.315-.904-.498-1.71-.497-2.33 0-.535.235-1.132.927-1.424"/>
    </g>
  </g>
</svg>
