<svg xmlns="http://www.w3.org/2000/svg" width="24" height="24" viewBox="0 0 24 24">
  <g class="ic-sliders">
    <g class="Icon">
      <path fill-rule="evenodd" d="M19.406 3.75a3 3 0 0 0-5.812 0H2.25a.75.75 0 1 0 0 1.5h11.344a3 3 0 0 0 5.812 0h2.344a.75.75 0 0 0 0-1.5h-2.344ZM18 4.5a1.5 1.5 0 1 1-3 0 1.5 1.5 0 0 1 3 0Z"/>
      <path fill-rule="evenodd" d="M2.25 18.75a.75.75 0 0 0 0 1.5h11.344a3 3 0 0 0 5.812 0h2.344a.75.75 0 0 0 0-1.5h-2.344a3 3 0 0 0-5.812 0H2.25ZM16.5 18a1.5 1.5 0 1 1 0 3 1.5 1.5 0 0 1 0-3Z"/>
      <path fill-rule="evenodd" d="M4.594 11.25H2.25a.75.75 0 0 0-.74.633L1.5 12a.748.748 0 0 0 .637.741l.113.009h2.344a3 3 0 0 0 5.812 0H21.75c.122 0 .237-.03.338-.082l.062-.035a.75.75 0 0 0-.4-1.383H10.406a3 3 0 0 0-5.812 0ZM9 12a1.5 1.5 0 1 0-3 0 1.5 1.5 0 0 0 3 0Z"/>
    </g>
  </g>
</svg>
