<svg width="24" height="24" viewBox="0 0 24 24" fill="none" xmlns="http://www.w3.org/2000/svg">
<path d="M0 2.5C0 1.11929 1.11929 0 2.5 0H21.5C22.8807 0 24 1.11929 24 2.5V21.5C24 22.8807 22.8807 24 21.5 24H2.5C1.11929 24 0 22.8807 0 21.5V2.5Z" fill="#24B0FF"/>
<path d="M6.3999 7.79997C6.3999 7.41338 6.7133 7.09998 7.0999 7.09998H16.8999C17.2865 7.09998 17.5999 7.41338 17.5999 7.79998V12.7H6.3999V7.79997Z" fill="white"/>
<path d="M11.2998 14.8H12.6998V17.6H11.2998V14.8Z" fill="white"/>
<rect x="14.7998" y="17.6" width="0.7" height="5.6" rx="0.35" transform="rotate(90 14.7998 17.6)" fill="white"/>
<rect x="17.6001" y="13.4" width="0.700001" height="11.2" rx="0.35" transform="rotate(90 17.6001 13.4)" fill="white"/>
</svg>
