<svg xmlns="http://www.w3.org/2000/svg" width="24" height="24" viewBox="0 0 24 24">
  <g class="ic-trash">
    <path fill-rule="evenodd" d="M9.75 1.5a.75.75 0 0 0-.67.415L7.785 4.5H3A.75.75 0 0 0 3 6h1.533l.653 14.352A2.25 2.25 0 0 0 7.433 22.5h9.134a2.25 2.25 0 0 0 2.247-2.148L19.467 6H21a.75.75 0 0 0 0-1.5h-4.787l-1.292-2.585a.75.75 0 0 0-.671-.415h-4.5Zm4.787 3-.75-1.5h-3.574l-.75 1.5h5.074ZM6.034 6h11.93l-.65 14.284a.75.75 0 0 1-.748.716H7.433a.75.75 0 0 1-.749-.716L6.034 6ZM10.5 9A.75.75 0 0 0 9 9v9a.75.75 0 0 0 1.5 0V9ZM15 9a.75.75 0 0 0-1.5 0v9a.75.75 0 0 0 1.5 0V9Z" class="Icon"/>
  </g>
</svg>
