<svg xmlns="http://www.w3.org/2000/svg" width="24" height="24" viewBox="0 0 24 24">
  <g class="ic-user-arrow-right">
    <path fill-rule="evenodd" d="M12 10.5a3 3 0 1 0 0-6 3 3 0 0 0 0 6Zm0 1.5a4.5 4.5 0 1 0 0-9 4.5 4.5 0 0 0 0 9Zm-3.746 3a2.25 2.25 0 0 0-1.8.9l-1.8 2.4a.75.75 0 0 0 .6 1.2H13.5V21H5.254c-1.854 0-2.912-2.117-1.8-3.6l1.8-2.4a3.75 3.75 0 0 1 3-1.5H13.5V15H8.254Zm10.042 5.776a.75.75 0 0 0 1.06.008l2.83-2.786a1.05 1.05 0 0 0 0-1.496l-2.83-2.786a.75.75 0 0 0-1.052 1.068l1.742 1.716h-5.784a.75.75 0 0 0 0 1.5h5.784l-1.742 1.716a.75.75 0 0 0-.008 1.06Z" class="Icon"/>
  </g>
</svg>
