<svg xmlns="http://www.w3.org/2000/svg" width="24" height="24" viewBox="0 0 24 24">
  <g class="ic-power-off">
    <path fill-rule="evenodd" d="M12.75 2.25a.75.75 0 0 0-1.5 0v10.5a.75.75 0 0 0 1.5 0V2.25ZM7.745 5.895a.75.75 0 1 0-.767-1.29C4.15 6.289 2.25 9.356 2.25 12.866c0 5.33 4.374 9.635 9.75 9.635s9.75-4.304 9.75-9.634c0-3.51-1.9-6.578-4.728-8.26a.75.75 0 0 0-.767 1.289c2.399 1.426 3.995 4.017 3.995 6.97C20.25 17.35 16.566 21 12 21s-8.25-3.651-8.25-8.134c0-2.954 1.597-5.545 3.995-6.971Z" class="Icon"/>
  </g>
</svg>
