<svg xmlns="http://www.w3.org/2000/svg" width="24" height="24" viewBox="0 0 24 24">
  <g class="ic-folder-open">
    <path fill-rule="evenodd" d="M3 5.25a.75.75 0 0 1 .75-.75h3.961a.75.75 0 0 1 .477.171l2.502 2.064c.188.155.424.24.668.24h7.392a.75.75 0 0 1 .75.75V9.75H8.85a2.25 2.25 0 0 0-1.985 1.191L3 18.187V5.25Zm9 14.25H4l4.188-7.853a.75.75 0 0 1 .662-.397h13.4l-4.4 8.25H12ZM3.98 21h-.23a2.25 2.25 0 0 1-2.25-2.25V5.25A2.25 2.25 0 0 1 3.75 3h3.961a2.25 2.25 0 0 1 1.432.514l2.376 1.961h7.231A2.25 2.25 0 0 1 21 7.725V9.75h1.875c.85 0 1.392.905.993 1.654l-4.694 8.802A1.5 1.5 0 0 1 17.85 21H3.98Z" class="Icon"/>
  </g>
</svg>
