<svg xmlns="http://www.w3.org/2000/svg" width="24" height="24" viewBox="0 0 24 24">
  <g class="ic-bookmark-filled">
    <path d="M3 5.1c0-1.26 0-1.89.245-2.371a2.25 2.25 0 0 1 .984-.984C4.709 1.5 5.339 1.5 6.6 1.5h10.8c1.26 0 1.89 0 2.372.245.423.216.767.56.983.984C21 3.209 21 3.839 21 5.1v14.786c0 1.29 0 1.936-.255 2.235a1.07 1.07 0 0 1-.894.37c-.391-.031-.848-.488-1.76-1.4L12.34 15.34c-.118-.118-.178-.178-.246-.2a.301.301 0 0 0-.186 0c-.068.022-.128.082-.246.2L5.91 21.092c-.913.912-1.369 1.369-1.76 1.4a1.07 1.07 0 0 1-.894-.37C3 21.82 3 21.177 3 19.886V5.1Z" class="Icon"/>
  </g>
</svg>
