<svg xmlns="http://www.w3.org/2000/svg" width="24" height="24" viewBox="0 0 24 24">
  <g class="ic-broom">
    <path fill-rule="evenodd" d="M19.5 22.5H7.8a.3.3 0 0 1-.3-.3v-1.9c0-.015-.02-.021-.027-.009l-.006.008-.82 1.23-.447.671-.11.166a.298.298 0 0 1-.25.134H3V12a3 3 0 0 1 3-3h3V3a1.5 1.5 0 0 1 1.5-1.5h3A1.5 1.5 0 0 1 15 3v6h3a3 3 0 0 1 3 3v10.5h-1.5Zm0-1.5H9v-.7c0-1.5-1.944-2.088-2.776-.84L5.197 21H4.5v-6h15v6Zm0-7.5h-15V12A1.5 1.5 0 0 1 6 10.5h4.5V3h3v7.5H18a1.5 1.5 0 0 1 1.5 1.5v1.5Z" class="Icon"/>
  </g>
</svg>
