<svg width="14" height="14" viewBox="0 0 14 14" fill="none" xmlns="http://www.w3.org/2000/svg">
<path fill-rule="evenodd" clip-rule="evenodd" d="M6.25244 1.11998C6.73534 0.944381 7.26466 0.944381 7.74756 1.11998L11.962 2.65251C12.1349 2.71538 12.25 2.8797 12.25 3.06367V7.98595C12.25 9.42686 11.4629 10.7527 10.198 11.4427L7.2095 13.0727C7.07891 13.144 6.92109 13.144 6.7905 13.0727L3.80202 11.4427C2.53706 10.7527 1.75 9.42686 1.75 7.98595V3.06367C1.75 2.8797 1.86509 2.71538 2.03799 2.65251L6.25244 1.11998ZM9.49686 5.55985C9.66771 5.38899 9.66771 5.11198 9.49686 4.94113C9.326 4.77027 9.049 4.77027 8.87814 4.94113L6.125 7.69427L5.12186 6.69113C4.951 6.52028 4.674 6.52028 4.50314 6.69113C4.33229 6.86198 4.33229 7.13899 4.50314 7.30985L5.81564 8.62235C5.9865 8.7932 6.2635 8.7932 6.43436 8.62235L9.49686 5.55985Z" fill="#0F0F0F"/>
</svg>
