<svg width="24" height="24" viewBox="0 0 24 24" fill="none" xmlns="http://www.w3.org/2000/svg">
<path fill-rule="evenodd" clip-rule="evenodd" d="M10.7185 1.91913C11.5463 1.6181 12.4537 1.6181 13.2815 1.91913L20.5063 4.54632C20.8027 4.6541 21 4.93579 21 5.25117V13.6894C21 16.1595 19.6508 18.4323 17.4823 19.6152L12.3591 22.4096C12.1353 22.5317 11.8647 22.5317 11.6409 22.4096L6.51775 19.6152C4.34924 18.4323 3 16.1595 3 13.6894V5.25117C3 4.93579 3.1973 4.6541 3.49369 4.54632L10.7185 1.91913ZM16.2803 9.53033C16.5732 9.23744 16.5732 8.76256 16.2803 8.46967C15.9874 8.17678 15.5126 8.17678 15.2197 8.46967L10.5 13.1893L8.78033 11.4697C8.48744 11.1768 8.01256 11.1768 7.71967 11.4697C7.42678 11.7626 7.42678 12.2374 7.71967 12.5303L9.96967 14.7803C10.2626 15.0732 10.7374 15.0732 11.0303 14.7803L16.2803 9.53033Z" fill="#0C0C14"/>
</svg>
