<svg xmlns="http://www.w3.org/2000/svg" width="24" height="24" viewBox="0 0 24 24">
  <g class="ic-grid-2">
    <path fill-rule="evenodd" d="M6.45 3H6.3c-.865 0-1.423.001-1.848.036-.408.033-.559.09-.633.127a1.5 1.5 0 0 0-.656.656c-.037.074-.094.225-.127.633C3 4.877 3 5.435 3 6.3v.15c0 .865.001 1.423.036 1.848.033.408.09.559.127.633a1.5 1.5 0 0 0 .656.656c.074.037.225.094.633.127.425.035.983.036 1.848.036h.15c.865 0 1.423-.001 1.848-.036.408-.033.559-.09.633-.127a1.5 1.5 0 0 0 .656-.656c.037-.074.094-.225.127-.633.035-.425.036-.983.036-1.848V6.3c0-.865-.001-1.423-.036-1.848-.033-.408-.09-.559-.127-.633a1.5 1.5 0 0 0-.656-.656c-.074-.037-.225-.094-.633-.127C7.873 3 7.315 3 6.45 3Zm-4.623.138C1.5 3.78 1.5 4.62 1.5 6.3v.15c0 1.68 0 2.52.327 3.162a3 3 0 0 0 1.311 1.311c.642.327 1.482.327 3.162.327h.15c1.68 0 2.52 0 3.162-.327a3 3 0 0 0 1.311-1.311c.327-.642.327-1.482.327-3.162V6.3c0-1.68 0-2.52-.327-3.162a3 3 0 0 0-1.311-1.311C8.97 1.5 8.13 1.5 6.45 1.5H6.3c-1.68 0-2.52 0-3.162.327a3 3 0 0 0-1.311 1.311ZM17.55 3h.15c.865 0 1.423.001 1.848.036.408.033.559.09.633.127a1.5 1.5 0 0 1 .655.656c.038.074.095.225.128.633C21 4.877 21 5.435 21 6.3v.15c0 .865-.001 1.423-.036 1.848-.033.408-.09.559-.127.633a1.5 1.5 0 0 1-.656.656c-.074.037-.225.094-.633.127-.425.035-.983.036-1.848.036h-.15c-.865 0-1.423-.001-1.848-.036-.408-.033-.559-.09-.633-.127a1.5 1.5 0 0 1-.655-.656c-.038-.074-.095-.225-.128-.633-.035-.425-.036-.983-.036-1.848V6.3c0-.865.001-1.423.036-1.848.033-.408.09-.559.128-.633a1.5 1.5 0 0 1 .655-.656c.074-.037.225-.094.633-.127C16.127 3 16.685 3 17.55 3Zm-4.8 3.3c0-1.68 0-2.52.327-3.162a3 3 0 0 1 1.311-1.311C15.03 1.5 15.87 1.5 17.55 1.5h.15c1.68 0 2.52 0 3.162.327a3 3 0 0 1 1.311 1.311c.327.642.327 1.482.327 3.162v.15c0 1.68 0 2.52-.327 3.162a3 3 0 0 1-1.311 1.311c-.642.327-1.482.327-3.162.327h-.15c-1.68 0-2.52 0-3.162-.327a3 3 0 0 1-1.311-1.311c-.327-.642-.327-1.482-.327-3.162V6.3Zm4.8 7.95h.15c.865 0 1.423.001 1.848.036.408.033.559.09.633.128a1.5 1.5 0 0 1 .655.655c.038.074.095.225.128.633.035.425.036.983.036 1.848v.15c0 .865-.001 1.423-.036 1.848-.033.408-.09.559-.127.633a1.5 1.5 0 0 1-.656.655c-.074.038-.225.095-.633.128-.425.035-.983.036-1.848.036h-.15c-.865 0-1.423-.001-1.848-.036-.408-.033-.559-.09-.633-.127a1.5 1.5 0 0 1-.655-.656c-.038-.074-.095-.225-.128-.633-.035-.425-.036-.983-.036-1.848v-.15c0-.865.001-1.423.036-1.848.033-.408.09-.559.128-.633a1.5 1.5 0 0 1 .655-.655c.074-.038.225-.095.633-.128.425-.035.983-.036 1.848-.036Zm-4.8 3.3c0-1.68 0-2.52.327-3.162a3 3 0 0 1 1.311-1.311c.642-.327 1.482-.327 3.162-.327h.15c1.68 0 2.52 0 3.162.327a3 3 0 0 1 1.311 1.311c.327.642.327 1.482.327 3.162v.15c0 1.68 0 2.52-.327 3.162a3 3 0 0 1-1.311 1.311c-.642.327-1.482.327-3.162.327h-.15c-1.68 0-2.52 0-3.162-.327a3 3 0 0 1-1.311-1.311c-.327-.642-.327-1.482-.327-3.162v-.15Zm-6.45-3.3h.15c.865 0 1.423.001 1.848.036.408.033.559.09.633.128a1.5 1.5 0 0 1 .656.655c.037.074.094.225.127.633.035.425.036.983.036 1.848v.15c0 .865-.001 1.423-.036 1.848-.033.408-.09.559-.127.633a1.5 1.5 0 0 1-.656.655c-.074.038-.225.095-.633.128C7.873 21 7.315 21 6.45 21H6.3c-.865 0-1.423-.001-1.848-.036-.408-.033-.559-.09-.633-.127a1.5 1.5 0 0 1-.656-.656c-.037-.074-.094-.225-.127-.633C3 19.123 3 18.565 3 17.7v-.15c0-.865.001-1.423.036-1.848.033-.408.09-.559.127-.633a1.5 1.5 0 0 1 .656-.655c.074-.038.225-.095.633-.128.425-.035.983-.036 1.848-.036Zm-4.8 3.3c0-1.68 0-2.52.327-3.162a3 3 0 0 1 1.311-1.311c.642-.327 1.482-.327 3.162-.327h.15c1.68 0 2.52 0 3.162.327a3 3 0 0 1 1.311 1.311c.327.642.327 1.482.327 3.162v.15c0 1.68 0 2.52-.327 3.162a3 3 0 0 1-1.311 1.311c-.642.327-1.482.327-3.162.327H6.3c-1.68 0-2.52 0-3.162-.327a3 3 0 0 1-1.311-1.311C1.5 20.22 1.5 19.38 1.5 17.7v-.15Z" class="Icon"/>
  </g>
</svg>
