<svg xmlns="http://www.w3.org/2000/svg" width="24" height="24" viewBox="0 0 24 24">
  <g class="ic-gift">
    <path fill-rule="evenodd" d="M11.25 5.25A2.25 2.25 0 1 0 9 7.5h2.25V5.25Zm-6 0c0 .844.279 1.623.75 2.25H3A1.5 1.5 0 0 0 1.5 9v3A1.5 1.5 0 0 0 3 13.5v6a3 3 0 0 0 3 3h12a3 3 0 0 0 3-3v-6a1.5 1.5 0 0 0 1.5-1.5V9A1.5 1.5 0 0 0 21 7.5h-3A3.75 3.75 0 0 0 12 3a3.75 3.75 0 0 0-6.75 2.25ZM3 9h8.236v3H3V9Zm8.236 4.5H4.5v6A1.5 1.5 0 0 0 6 21h5.236v-7.5Zm1.5 7.5v-7.5H19.5v6A1.5 1.5 0 0 1 18 21h-5.264Zm0-9V9H21v3h-8.264Zm4.514-6.75A2.25 2.25 0 0 1 15 7.5h-2.25V5.25a2.25 2.25 0 0 1 4.5 0Z" class="Icon"/>
  </g>
</svg>
