<svg xmlns="http://www.w3.org/2000/svg" width="24" height="24" viewBox="0 0 24 24">
  <g class="ic-arrow-in-to-rectangle">
    <path fill-rule="evenodd" d="M11.25 1.5h8.25a3 3 0 0 1 3 3v15a3 3 0 0 1-3 3h-8.25a3 3 0 0 1-3-3V18h1.5v1.5a1.5 1.5 0 0 0 1.5 1.5h8.25a1.5 1.5 0 0 0 1.5-1.5v-15A1.5 1.5 0 0 0 19.5 3h-8.25a1.5 1.5 0 0 0-1.5 1.5V6h-1.5V4.5a3 3 0 0 1 3-3ZM9.97 7.72a.75.75 0 0 1 1.06 0l3.538 3.538a1.049 1.049 0 0 1 0 1.485L11.03 16.28a.75.75 0 1 1-1.06-1.06l2.47-2.47H2.25a.75.75 0 0 1 0-1.5h10.19L9.97 8.78a.75.75 0 0 1 0-1.06Z" class="Icon"/>
  </g>
</svg>
