<svg xmlns="http://www.w3.org/2000/svg" width="24" height="24" viewBox="0 0 24 24">
  <g class="ic-earth-filled">
    <path fill-rule="evenodd" d="M12 22.5c5.799 0 10.5-4.701 10.5-10.5S17.799 1.5 12 1.5 1.5 6.201 1.5 12 6.201 22.5 12 22.5Zm8.997-10.284L21 12c0-2.144-.75-4.113-2.002-5.66a1.466 1.466 0 0 0-.465.144l-.87.434a1.5 1.5 0 0 0-.752 1.816l.814 2.44c.17.51.6.891 1.129.997l1.102.22c.378.076.747.002 1.041-.175Zm-17.993.039.362.482a3 3 0 0 0 2.988 1.142l.54-.108a1.5 1.5 0 0 1 1.736 1.06L9.536 18a1.475 1.475 0 0 0 2.85-.047l.223-.891a1.5 1.5 0 0 1 .623-.885l1.437-.957a1.5 1.5 0 0 0 .51-.577l.088-.177a1.5 1.5 0 0 0-.281-1.732l-1.047-1.046a1.5 1.5 0 0 0-1.06-.439h-1.34a1.5 1.5 0 0 1-.557-.107l-1.935-.774a1.099 1.099 0 0 1 .408-2.119h1.551a1.033 1.033 0 0 0 .73-1.763l-.956-.956a.75.75 0 0 1 .408-1.27l2.383-.398a.812.812 0 0 0 .65-.587 9 9 0 0 0-11.218 8.978Z" class="Icon"/>
  </g>
</svg>
