<svg xmlns="http://www.w3.org/2000/svg" width="24" height="24" viewBox="0 0 24 24">
  <g class="ic-eraser">
    <path fill-rule="evenodd" d="M16.321 3.441 20.56 7.68a1.5 1.5 0 0 1 0 2.12l-2.404 2.405-6.36-6.359L14.2 3.441a1.5 1.5 0 0 1 2.121 0Zm-5.586 3.465L4.94 12.701a1.5 1.5 0 0 0 0 2.121l4.237 4.238a1.5 1.5 0 0 0 2.122 0l5.795-5.795-6.359-6.359Zm7.91 6.93-5.668 5.666h8.773a.75.75 0 0 1 0 1.5H2.25a.75.75 0 0 1 0-1.5h5.249l-3.62-3.62a3 3 0 0 1 0-4.242l9.26-9.26a3 3 0 0 1 4.243 0l4.238 4.238a3 3 0 0 1 0 4.242l-2.895 2.895a.726.726 0 0 1-.08.08Z" class="Icon"/>
  </g>
</svg>
