<svg xmlns="http://www.w3.org/2000/svg" width="24" height="24" viewBox="0 0 24 24">
  <g class="ic-paper-clip-vertical">
    <path fill-rule="evenodd" d="M13.486 6.327c.033-1.818-1.376-3.234-3.131-3.2-1.78.033-3.279 1.543-3.313 3.384l-.171 9.33c-.052 2.85 2.161 5.085 4.929 5.032 2.793-.053 5.127-2.414 5.18-5.285l.15-8.21a.811.811 0 0 1 .825-.799.812.812 0 0 1 .795.828l-.151 8.21c-.068 3.725-3.084 6.812-6.768 6.882-3.71.07-6.649-2.94-6.58-6.688l.172-9.33c.05-2.694 2.229-4.93 4.901-4.98 2.697-.051 4.831 2.14 4.781 4.856l-.171 9.33c-.03 1.664-1.374 3.048-3.035 3.08-1.685.032-3.014-1.34-2.983-3.025l.151-8.211a.811.811 0 0 1 .825-.798.812.812 0 0 1 .795.828l-.151 8.21c-.014.788.589 1.384 1.333 1.37.768-.014 1.43-.673 1.445-1.483l.172-9.33Z" class="Icon"/>
  </g>
</svg>
