<svg xmlns="http://www.w3.org/2000/svg" width="24" height="24" viewBox="0 0 24 24">
  <g class="ic-rocket">
    <path fill-rule="evenodd" d="M15.136 8.238a12.9 12.9 0 0 1 .614 3.93V18h-7.5v-5.832c0-1.345.21-2.67.614-3.93.044.008.09.012.136.012h6a.756.756 0 0 0 .136-.012Zm-.58-1.488A13.032 13.032 0 0 0 12 3.064 13.032 13.032 0 0 0 9.443 6.75h5.114ZM15.75 19.5H3v-2.25a5.252 5.252 0 0 1 3.75-5.033v-.049a14.46 14.46 0 0 1 4.305-10.28 1.347 1.347 0 0 1 1.89 0 14.46 14.46 0 0 1 4.305 10.28v.05A5.252 5.252 0 0 1 21 17.25v2.25h-5.25Zm1.5-1.5h2.25v-.75a3.75 3.75 0 0 0-2.25-3.438V18ZM4.5 17.25a3.75 3.75 0 0 1 2.25-3.438V18H4.5v-.75ZM12.75 12a.75.75 0 1 1-1.5 0 .75.75 0 0 1 1.5 0Zm1.5 0a2.25 2.25 0 1 1-4.5 0 2.25 2.25 0 0 1 4.5 0Zm-6 9.75A.75.75 0 0 1 9 21h6a.75.75 0 0 1 0 1.5H9a.75.75 0 0 1-.75-.75Z" class="Icon"/>
  </g>
</svg>
