<svg xmlns="http://www.w3.org/2000/svg" width="24" height="24" viewBox="0 0 24 24">
  <g class="ic-pin-slash-filled">
    <g class="Icon">
      <path d="m15.754 5.99-.215-1.197a.6.6 0 0 1 .152-.517l1.66-1.77a.6.6 0 0 0-.438-1.01h-9.83a.6.6 0 0 0-.438 1.01l1.66 1.77a.6.6 0 0 1 .152.517l-1.463 8.15a.645.645 0 0 1-.36.464c-.83.4-3.116 1.68-3.56 3.843-.084.406.26.746.674.746L15.754 5.991Z"/>
      <path d="M2.734 21.131a.75.75 0 0 0 1.074 1.048l4.182-4.183h3.258v5.25a.75.75 0 0 0 1.5 0v-5.25h7.5c.414 0 .758-.34.674-.746-.445-2.162-2.73-3.443-3.56-3.843a.645.645 0 0 1-.36-.463l-.603-3.357 5.44-5.44a.75.75 0 0 0-1.06-1.06L2.748 21.118a.878.878 0 0 1-.014.013Z"/>
    </g>
  </g>
</svg>
