<svg xmlns="http://www.w3.org/2000/svg" width="24" height="24" viewBox="0 0 24 24">
  <g class="ic-backspace">
    <path fill-rule="evenodd" d="M8.278 3a3.75 3.75 0 0 0-3.033 1.544L.143 11.56a.75.75 0 0 0 0 .882l5.102 7.015A3.75 3.75 0 0 0 8.278 21H23.25a.75.75 0 0 0 .75-.75V3.75a.75.75 0 0 0-.75-.75H8.278Zm-1.82 2.427a2.25 2.25 0 0 1 1.82-.927H22.5v15H8.278a2.25 2.25 0 0 1-1.82-.927L1.678 12l4.78-6.573ZM11.78 8.47a.75.75 0 1 0-1.06 1.06L13.19 12l-2.47 2.47a.75.75 0 1 0 1.06 1.06l2.47-2.47 2.47 2.47a.75.75 0 1 0 1.06-1.06L15.31 12l2.47-2.47a.75.75 0 0 0-1.06-1.06l-2.47 2.47-2.47-2.47Z" class="Icon"/>
  </g>
</svg>
