<svg xmlns="http://www.w3.org/2000/svg" width="24" height="24" viewBox="0 0 24 24">
  <g class="ic-folder-arrow-in">
    <path fill-rule="evenodd" d="M1.5 6a3 3 0 0 1 3-3H9a3 3 0 0 1 1.8.6L13 5.25h6.5a3 3 0 0 1 3 3V18a3 3 0 0 1-3 3h-15a3 3 0 0 1-3-3v-3H3v3a1.5 1.5 0 0 0 1.5 1.5h15A1.5 1.5 0 0 0 21 18V8.25a1.5 1.5 0 0 0-1.5-1.5H13a1.5 1.5 0 0 1-.9-.3L9.9 4.8a1.5 1.5 0 0 0-.9-.3H4.5A1.5 1.5 0 0 0 3 6v4.5H1.5V6Zm10.19 7.5H1.5V12h10.19l-1.72-1.72a.75.75 0 1 1 1.06-1.06l2.788 2.787c.41.41.41 1.075 0 1.486L11.03 16.28a.75.75 0 1 1-1.06-1.06l1.72-1.72Z" class="Icon"/>
  </g>
</svg>
