<svg width="190" height="117" viewBox="0 0 190 117" fill="none" xmlns="http://www.w3.org/2000/svg">
<path d="M114.277 95.6001H101V12.6001H114.277C117.438 12.6001 120 15.1436 120 18.2819V89.9183C119.979 93.0566 117.417 95.6001 114.277 95.6001Z" fill="url(#paint0_linear_25649_167465)"/>
<path d="M118 89.8382C118 91.9158 116.069 93.6001 113.687 93.6001H99V14.6001H113.687C116.069 14.6001 118 16.2844 118 18.362V89.8382Z" fill="white"/>
<path d="M107.363 95.6001H45V12.6001H107.363C110.476 12.6001 113 15.1436 113 18.2819V89.9183C113 93.0566 110.476 95.6001 107.363 95.6001Z" fill="url(#paint1_linear_25649_167465)"/>
<path d="M53 12.6001H45V95.6001H53V12.6001Z" fill="url(#paint2_linear_25649_167465)"/>
<mask id="mask0_25649_167465" style="mask-type:alpha" maskUnits="userSpaceOnUse" x="45" y="13" width="65" height="59">
<rect width="64.0848" height="58.9286" transform="matrix(-1 0 0 1 109.085 13)" fill="#C4C4C4"/>
</mask>
<g mask="url(#mask0_25649_167465)">
<g opacity="0.3" filter="url(#filter0_f_25649_167465)">
<path d="M70.0444 -4.31006L44.9998 13.0002V53.8819L47.8363 52.2551C61.5726 44.3769 70.0444 29.7518 70.0444 13.9166V-4.31006Z" fill="#221548"/>
</g>
</g>
<path d="M69 20C69 8.95431 60.0457 0 49 0C37.9543 0 29 8.95431 29 20C29 31.0457 37.9543 40 49 40C60.0457 40 69 31.0457 69 20Z" fill="url(#paint3_linear_25649_167465)"/>
<path d="M54.3892 13.9129C51.1969 11.0853 46.3119 11.1987 43.2554 14.2532C41.7338 15.7738 40.9419 17.7454 40.8788 19.7382C40.8646 20.1866 40.4894 20.5385 40.0407 20.5244C39.5921 20.5102 39.2399 20.1352 39.2541 19.6868C39.3298 17.2976 40.2807 14.9286 42.106 13.1045C45.8038 9.40913 51.7319 9.3011 55.5601 12.7804V11.1513C55.5601 10.7026 55.9239 10.3388 56.3726 10.3388C56.8213 10.3388 57.1851 10.7026 57.1851 11.1513V14.4004C57.1851 15.0287 56.6758 15.5379 56.0476 15.5379H52.7961C52.3474 15.5379 51.9836 15.1742 51.9836 14.7254C51.9836 14.2767 52.3474 13.9129 52.7961 13.9129H54.3892Z" fill="white"/>
<path d="M58.7565 19.8996C58.752 19.4511 58.3846 19.0911 57.9357 19.0955C57.4868 19.1 57.1266 19.4672 57.131 19.9158C57.152 22.023 56.3587 24.1341 54.7507 25.741C51.6942 28.7955 46.809 28.9089 43.6168 26.081H44.9938C45.4425 26.081 45.8063 25.7172 45.8063 25.2685C45.8063 24.8198 45.4425 24.456 44.9938 24.456H41.7423C41.1141 24.456 40.6048 24.9653 40.6048 25.5935L40.6048 28.8426C40.6048 29.2914 40.9686 29.6551 41.4173 29.6551C41.8661 29.6551 42.2298 29.2914 42.2298 28.8426L42.2298 27.0112C46.0478 30.6959 52.132 30.6553 55.9001 26.8896C57.8294 24.9616 58.7816 22.4253 58.7565 19.8996Z" fill="white"/>
<path d="M79.9997 53.009C82.7783 53.009 85.0308 50.6789 85.0308 47.8045C85.0308 44.9302 82.7783 42.6001 79.9997 42.6001C77.2211 42.6001 74.9685 44.9302 74.9685 47.8045C74.9685 50.6789 77.2211 53.009 79.9997 53.009Z" fill="white"/>
<path d="M73.0148 67.6001C70.0275 67.6001 68.0286 64.2776 69.4885 61.5592C71.5324 57.7489 75.4854 55.1466 80 55.1466C84.5146 55.1466 88.4676 57.7256 90.5115 61.5592C91.9714 64.2544 89.9725 67.6001 86.9852 67.6001H73.0148Z" fill="white"/>
<path fill-rule="evenodd" clip-rule="evenodd" d="M93.1738 65.121H96.2223C98.2691 65.121 99.6388 62.9049 98.6385 61.1197C97.238 58.5804 94.5294 56.8721 91.4361 56.8721C90.65 56.8721 89.8889 56.9834 89.1677 57.1908C90.7736 58.2898 92.1105 59.7543 93.0555 61.4677C93.7313 62.6739 93.6955 64.0094 93.1738 65.121ZM94.8831 52.0088C94.8831 53.9127 93.3397 55.4561 91.4358 55.4561C89.5319 55.4561 87.9885 53.9127 87.9885 52.0088C87.9885 50.1049 89.5319 48.5615 91.4358 48.5615C93.3397 48.5615 94.8831 50.1049 94.8831 52.0088Z" fill="white"/>
<path opacity="0.45" d="M36.3834 53.5227C38.8042 53.5227 40.7667 51.6092 40.7667 49.2489C40.7667 46.8885 38.8042 44.9751 36.3834 44.9751C33.9625 44.9751 32 46.8885 32 49.2489C32 51.6092 33.9625 53.5227 36.3834 53.5227Z" fill="#D2D4DC"/>
<path opacity="0.45" d="M137.383 92.5227C139.804 92.5227 141.767 90.6092 141.767 88.2489C141.767 85.8885 139.804 83.9751 137.383 83.9751C134.962 83.9751 133 85.8885 133 88.2489C133 90.6092 134.962 92.5227 137.383 92.5227Z" fill="#D2D4DC"/>
<path opacity="0.45" d="M28.0535 76.201L21.0401 73.6756L17.8124 72.51L16.6169 69.3629L14.0268 62.5249L11.4366 69.3629L10.2411 72.51L7.01338 73.6756L0 76.201L7.01338 78.7264L10.2411 79.892L11.4366 83.039L14.0268 89.8771L16.6169 83.039L17.8124 79.892L21.0401 78.7264L28.0535 76.201Z" fill="#D2D4DC"/>
<path opacity="0.45" d="M160.054 57.2762L153.04 54.7508L149.812 53.5852L148.617 50.4381L146.027 43.6001L143.437 50.4381L142.241 53.5852L139.013 54.7508L132 57.2762L139.013 59.8016L142.241 60.9672L143.437 64.1142L146.027 70.9523L148.617 64.1142L149.812 60.9672L153.04 59.8016L160.054 57.2762Z" fill="#D2D4DC"/>
<defs>
<filter id="filter0_f_25649_167465" x="32.4774" y="-16.8324" width="50.0893" height="83.2365" filterUnits="userSpaceOnUse" color-interpolation-filters="sRGB">
<feFlood flood-opacity="0" result="BackgroundImageFix"/>
<feBlend mode="normal" in="SourceGraphic" in2="BackgroundImageFix" result="shape"/>
<feGaussianBlur stdDeviation="6.26116" result="effect1_foregroundBlur_25649_167465"/>
</filter>
<linearGradient id="paint0_linear_25649_167465" x1="110.5" y1="12.6001" x2="110.5" y2="100.63" gradientUnits="userSpaceOnUse">
<stop stop-color="#FF9A61"/>
<stop offset="1" stop-color="#E36425"/>
</linearGradient>
<linearGradient id="paint1_linear_25649_167465" x1="79.1907" y1="12.6001" x2="79.1907" y2="100.63" gradientUnits="userSpaceOnUse">
<stop stop-color="#FFB341"/>
<stop offset="1" stop-color="#EE7C3E"/>
</linearGradient>
<linearGradient id="paint2_linear_25649_167465" x1="49" y1="12.6001" x2="49" y2="100.63" gradientUnits="userSpaceOnUse">
<stop stop-color="#614B37"/>
<stop offset="1" stop-color="#651B30"/>
</linearGradient>
<linearGradient id="paint3_linear_25649_167465" x1="29" y1="20" x2="69" y2="20" gradientUnits="userSpaceOnUse">
<stop stop-color="#2AF091"/>
<stop offset="1" stop-color="#00C5A1"/>
</linearGradient>
</defs>
</svg>
