<svg width="172" height="104" viewBox="0 0 172 104" fill="none" xmlns="http://www.w3.org/2000/svg">
<path d="M123.824 104H110.841V16.9268H123.824C126.915 16.9268 129.42 19.4426 129.42 22.5468V98.3799C129.4 101.484 126.895 104 123.824 104Z" fill="url(#paint0_linear_26090_10656)"/>
<path d="M127.562 98.4022C127.562 100.463 125.674 102.134 123.344 102.134H108.983V18.7925H123.344C125.674 18.7925 127.562 20.4632 127.562 22.5242V98.4022Z" fill="white"/>
<path d="M118.25 104H56.3408V16.9268H118.25C121.341 16.9268 123.847 19.4426 123.847 22.5468V98.3799C123.847 101.484 121.341 104 118.25 104Z" fill="url(#paint1_linear_26090_10656)"/>
<path d="M93.683 57.8646C96.3888 57.8646 98.5823 55.6618 98.5823 52.9445C98.5823 50.2272 96.3888 48.0244 93.683 48.0244C90.9772 48.0244 88.7837 50.2272 88.7837 52.9445C88.7837 55.6618 90.9772 57.8646 93.683 57.8646Z" fill="white"/>
<path d="M86.8812 71.6586C83.9723 71.6586 82.0257 68.5176 83.4474 65.9477C85.4377 62.3455 89.2871 59.8855 93.6833 59.8855C98.0795 59.8855 101.929 62.3236 103.919 65.9477C105.341 68.4956 103.394 71.6586 100.485 71.6586H86.8812Z" fill="white"/>
<path d="M62.534 16.9268H56.3408V104H62.534V16.9268Z" fill="url(#paint2_linear_26090_10656)"/>
<mask id="mask0_26090_10656" style="mask-type:alpha" maskUnits="userSpaceOnUse" x="56" y="16" width="54" height="50">
<rect width="52.9185" height="48.8676" transform="matrix(-1 0 0 1 109.259 16.9268)" fill="#C4C4C4"/>
</mask>
<g mask="url(#mask0_26090_10656)">
<g opacity="0.3" filter="url(#filter0_f_26090_10656)">
<path d="M77.0212 2.57227L56.3404 16.9271V50.829L71.6545 42.0086C74.9749 40.0962 77.0212 36.556 77.0212 32.7242V2.57227Z" fill="#221548"/>
</g>
</g>
<path d="M76.1592 20.1818C76.1592 10.1403 68.0189 2 57.9774 2L57.1819 2C47.1404 2 39.0001 10.1403 39.0001 20.1818L39.0001 21.1352C39.0001 31.1768 47.1404 39.3171 57.1819 39.3171L57.9774 39.3171C68.0189 39.3171 76.1592 31.1768 76.1592 21.1353L76.1592 20.1818Z" fill="url(#paint3_linear_26090_10656)"/>
<path d="M63.2466 14.7302C60.0162 11.8567 55.0729 11.9719 51.98 15.076C50.4402 16.6213 49.6388 18.625 49.5749 20.6501C49.5606 21.1058 49.1809 21.4634 48.7269 21.449C48.2729 21.4346 47.9165 21.0535 47.9308 20.5979C48.0074 18.1699 48.9698 15.7624 50.8168 13.9087C54.5587 10.1533 60.5576 10.0435 64.4315 13.5793V11.9238C64.4315 11.4678 64.7996 11.0981 65.2537 11.0981C65.7078 11.0981 66.0759 11.4678 66.0759 11.9238V15.2257C66.0759 15.8641 65.5605 16.3816 64.9248 16.3816H61.6345C61.1805 16.3816 60.8123 16.012 60.8123 15.5559C60.8123 15.0999 61.1805 14.7302 61.6345 14.7302H63.2466Z" fill="white"/>
<path d="M67.666 20.8142C67.6615 20.3583 67.2897 19.9924 66.8354 19.997C66.3812 20.0015 66.0167 20.3747 66.0212 20.8306C66.0424 22.972 65.2396 25.1173 63.6124 26.7503C60.5194 29.8545 55.5759 29.9697 52.3456 27.0959H53.7391C54.1932 27.0959 54.5613 26.7262 54.5613 26.2702C54.5613 25.8142 54.1932 25.4445 53.7391 25.4445H50.4488C49.8131 25.4445 49.2977 25.9621 49.2977 26.6005L49.2977 29.9024C49.2977 30.3584 49.6658 30.7281 50.1199 30.7281C50.574 30.7281 50.9421 30.3584 50.9421 29.9024L50.9421 28.0412C54.8057 31.7857 60.9625 31.7445 64.7756 27.9177C66.7279 25.9583 67.6915 23.3808 67.666 20.8142Z" fill="white"/>
<path opacity="0.45" d="M146.395 98.4264C148.981 98.4264 151.078 96.3535 151.078 93.7964C151.078 91.2394 148.981 89.1665 146.395 89.1665C143.808 89.1665 141.712 91.2394 141.712 93.7964C141.712 96.3535 143.808 98.4264 146.395 98.4264Z" fill="#D2D4DC"/>
<path opacity="0.45" d="M171.684 64.9823L164.191 62.2464L160.742 60.9837L159.465 57.5744L156.698 50.1665L153.93 57.5744L152.653 60.9837L149.205 62.2464L141.712 64.9823L149.205 67.7181L152.653 68.9808L153.93 72.3902L156.698 79.798L159.465 72.3902L160.742 68.9808L164.191 67.7181L171.684 64.9823Z" fill="#D2D4DC"/>
<defs>
<filter id="filter0_f_26090_10656" x="53.3046" y="-0.463449" width="26.7523" height="54.3283" filterUnits="userSpaceOnUse" color-interpolation-filters="sRGB">
<feFlood flood-opacity="0" result="BackgroundImageFix"/>
<feBlend mode="normal" in="SourceGraphic" in2="BackgroundImageFix" result="shape"/>
<feGaussianBlur stdDeviation="1.51786" result="effect1_foregroundBlur_26090_10656"/>
</filter>
<linearGradient id="paint0_linear_26090_10656" x1="120.131" y1="16.9268" x2="120.131" y2="104" gradientUnits="userSpaceOnUse">
<stop stop-color="#FF9A61"/>
<stop offset="1" stop-color="#E36425"/>
</linearGradient>
<linearGradient id="paint1_linear_26090_10656" x1="90.283" y1="16.9268" x2="90.283" y2="104" gradientUnits="userSpaceOnUse">
<stop stop-color="#FFB341"/>
<stop offset="1" stop-color="#EE7C3E"/>
</linearGradient>
<linearGradient id="paint2_linear_26090_10656" x1="59.4374" y1="16.9268" x2="59.4374" y2="104" gradientUnits="userSpaceOnUse">
<stop stop-color="#614B37"/>
<stop offset="1" stop-color="#651B30"/>
</linearGradient>
<linearGradient id="paint3_linear_26090_10656" x1="41.8585" y1="-9.12335" x2="54.4627" y2="35.7011" gradientUnits="userSpaceOnUse">
<stop stop-color="#4CFED3"/>
<stop offset="1" stop-color="#00C1FE"/>
</linearGradient>
</defs>
</svg>
