<svg width="25" height="24" viewBox="0 0 25 24" fill="none" xmlns="http://www.w3.org/2000/svg">
<g id="ic-circles-lock">
<g id="Icon">
<path fill-rule="evenodd" clip-rule="evenodd" d="M3 0.75C1.75736 0.75 0.75 1.75736 0.75 3C0.75 4.24264 1.75736 5.25 3 5.25C4.24264 5.25 5.25 4.24264 5.25 3C5.25 1.75736 4.24264 0.75 3 0.75ZM2.25 3C2.25 3.41421 2.58579 3.75 3 3.75C3.41421 3.75 3.75 3.41421 3.75 3C3.75 2.58579 3.41421 2.25 3 2.25C2.58579 2.25 2.25 2.58579 2.25 3Z" fill="#0F0F0F"/>
<path fill-rule="evenodd" clip-rule="evenodd" d="M12 0.75C10.7574 0.75 9.75 1.75736 9.75 3C9.75 4.24264 10.7574 5.25 12 5.25C13.2426 5.25 14.25 4.24264 14.25 3C14.25 1.75736 13.2426 0.75 12 0.75ZM11.25 3C11.25 3.41421 11.5858 3.75 12 3.75C12.4142 3.75 12.75 3.41421 12.75 3C12.75 2.58579 12.4142 2.25 12 2.25C11.5858 2.25 11.25 2.58579 11.25 3Z" fill="#0F0F0F"/>
<path fill-rule="evenodd" clip-rule="evenodd" d="M18.75 3C18.75 1.75736 19.7574 0.75 21 0.75C22.2426 0.75 23.25 1.75736 23.25 3C23.25 4.24264 22.2426 5.25 21 5.25C19.7574 5.25 18.75 4.24264 18.75 3ZM21 3.75C20.5858 3.75 20.25 3.41421 20.25 3C20.25 2.58579 20.5858 2.25 21 2.25C21.4142 2.25 21.75 2.58579 21.75 3C21.75 3.41421 21.4142 3.75 21 3.75Z" fill="#0F0F0F"/>
<path fill-rule="evenodd" clip-rule="evenodd" d="M3 9.75C1.75736 9.75 0.75 10.7574 0.75 12C0.75 13.2426 1.75736 14.25 3 14.25C4.24264 14.25 5.25 13.2426 5.25 12C5.25 10.7574 4.24264 9.75 3 9.75ZM2.25 12C2.25 12.4142 2.58579 12.75 3 12.75C3.41421 12.75 3.75 12.4142 3.75 12C3.75 11.5858 3.41421 11.25 3 11.25C2.58579 11.25 2.25 11.5858 2.25 12Z" fill="#0F0F0F"/>
<path fill-rule="evenodd" clip-rule="evenodd" d="M9.75 12C9.75 10.7574 10.7574 9.75 12 9.75C13.2426 9.75 14.25 10.7574 14.25 12C14.25 13.2426 13.2426 14.25 12 14.25C10.7574 14.25 9.75 13.2426 9.75 12ZM12 12.75C11.5858 12.75 11.25 12.4142 11.25 12C11.25 11.5858 11.5858 11.25 12 11.25C12.4142 11.25 12.75 11.5858 12.75 12C12.75 12.4142 12.4142 12.75 12 12.75Z" fill="#0F0F0F"/>
<path fill-rule="evenodd" clip-rule="evenodd" d="M3 18.75C1.75736 18.75 0.75 19.7574 0.75 21C0.75 22.2426 1.75736 23.25 3 23.25C4.24264 23.25 5.25 22.2426 5.25 21C5.25 19.7574 4.24264 18.75 3 18.75ZM2.25 21C2.25 21.4142 2.58579 21.75 3 21.75C3.41421 21.75 3.75 21.4142 3.75 21C3.75 20.5858 3.41421 20.25 3 20.25C2.58579 20.25 2.25 20.5858 2.25 21Z" fill="#0F0F0F"/>
<path fill-rule="evenodd" clip-rule="evenodd" d="M16.8462 16.077V16.8567C16.2194 17.0734 15.7692 17.6688 15.7692 18.3693V21.4C15.7692 22.2837 16.4856 23 17.3692 23H22.4769C23.3606 23 24.0769 22.2837 24.0769 21.4V18.3693C24.0769 17.6688 23.6268 17.0734 23 16.8567V16.077C23 14.3776 21.6224 13 19.9231 13C18.2237 13 16.8462 14.3776 16.8462 16.077ZM19.9231 15C19.3283 15 18.8462 15.4822 18.8462 16.077V16.7693H21V16.077C21 15.4822 20.5179 15 19.9231 15Z" fill="#0F0F0F"/>
</g>
</g>
</svg>
