<svg xmlns="http://www.w3.org/2000/svg" width="24" height="24" viewBox="0 0 24 24">
  <g class="ic-pen-square">
    <path fill-rule="evenodd" d="m19.773 3 1.228 1.228-9.882 9.882a1.5 1.5 0 0 1-.778.412l-1.068.205.206-1.068a1.5 1.5 0 0 1 .412-.777L19.773 3Zm2.288.167-1.227-1.228a1.5 1.5 0 0 0-2.122 0L8.83 11.821a3 3 0 0 0-.824 1.555L7.59 15.53a.75.75 0 0 0 .878.878l2.156-.414a3 3 0 0 0 1.554-.825l9.882-9.882a1.5 1.5 0 0 0 0-2.121ZM3 6.75A2.25 2.25 0 0 1 5.25 4.5h8.84V3H5.25A3.75 3.75 0 0 0 1.5 6.75v11.998a3.75 3.75 0 0 0 3.75 3.75h11.834a3.75 3.75 0 0 0 3.75-3.75v-8.84h-1.5v8.84a2.25 2.25 0 0 1-2.25 2.25H5.25A2.25 2.25 0 0 1 3 18.748V6.75Z" class="Icon"/>
  </g>
</svg>
