<svg xmlns="http://www.w3.org/2000/svg" width="24" height="24" viewBox="0 0 24 24">
  <g class="ic-arrows-rotate">
    <g class="Icon">
      <path d="M16.975 6.382a7.507 7.507 0 0 0-10.277.314 7.467 7.467 0 0 0-2.194 5.063.75.75 0 0 1-1.5-.048 8.966 8.966 0 0 1 2.633-6.076 9.008 9.008 0 0 1 12.419-.299V3.832a.75.75 0 0 1 1.5 0v3c0 .58-.47 1.05-1.05 1.05h-3.001a.75.75 0 1 1 0-1.5h1.47Z"/>
      <path d="M21.006 11.908a.75.75 0 0 0-1.5.015A7.47 7.47 0 0 1 17.31 17.3a7.507 7.507 0 0 1-10.278.314h1.272a.75.75 0 0 0 0-1.5H5.3c-.58 0-1.05.47-1.05 1.05v2.999a.75.75 0 0 0 1.5 0v-1.69a9.008 9.008 0 0 0 12.619-.113 8.97 8.97 0 0 0 2.636-6.452Z"/>
    </g>
  </g>
</svg>
