<svg width="48" height="50" viewBox="0 0 48 50" fill="none" xmlns="http://www.w3.org/2000/svg">
<path d="M3.39001 7.82496C3.39001 4.03076 6.46582 0.954956 10.26 0.954956H27.9481C29.7183 0.954956 31.4202 1.63829 32.6989 2.86247L42.4909 12.2368C43.8445 13.5327 44.61 15.3253 44.61 17.1993V42.175C44.61 45.9692 41.5342 49.045 37.74 49.045H10.26C6.46582 49.045 3.39001 45.9692 3.39001 42.175V7.82496Z" fill="#DADBE0"/>
<path d="M44.4742 15.84H35.45C32.2881 15.84 29.725 13.2768 29.725 10.115V1.18872C30.8322 1.48522 31.8572 2.05667 32.6989 2.86246L42.4908 12.2368C43.5121 13.2146 44.1987 14.4751 44.4742 15.84Z" fill="#EBECF0"/>
<path d="M44.61 17.5574H35.45C31.3396 17.5574 28.0075 14.2253 28.0075 10.1149V0.9552C28.5922 0.960253 29.169 1.03981 29.725 1.18871V10.1149C29.725 13.2768 32.2882 15.8399 35.45 15.8399H44.4742C44.5639 16.2841 44.61 16.7392 44.61 17.1993V17.5574Z" fill="#BABBC5"/>
<path fill-rule="evenodd" clip-rule="evenodd" d="M29.2583 25.4942C28.0279 24.3084 26.0229 24.3084 24.7925 25.4942L18.6501 31.4139C16.7555 33.2399 16.7555 36.1894 18.6501 38.0154C20.559 39.8551 23.664 39.8551 25.5729 38.0154L30.9782 32.806C31.2475 32.5465 31.6761 32.5545 31.9356 32.824C32.195 33.0934 32.187 33.5223 31.9176 33.7818L26.5124 38.9912C24.0791 41.3363 20.144 41.3363 17.7107 38.9912C15.2631 36.6323 15.2631 32.797 17.7107 30.4382L23.853 24.5184C25.6079 22.8272 28.4429 22.8272 30.1978 24.5184C31.9669 26.2234 31.9669 28.9986 30.1978 30.7036L24.0554 36.6233C22.979 37.6606 21.244 37.6606 20.1676 36.6233C19.077 35.5722 19.077 33.8571 20.1676 32.806L25.5729 27.5967C25.8422 27.3371 26.2708 27.3452 26.5303 27.6146C26.7897 27.8841 26.7817 28.3129 26.5124 28.5725L21.1071 33.7818C20.5694 34.3 20.5694 35.1293 21.1071 35.6475C21.659 36.1794 22.564 36.1794 23.116 35.6475L29.2583 29.7278C30.4745 28.5557 30.4745 26.6663 29.2583 25.4942Z" fill="#3A3F4A"/>
</svg>
