<svg width="48" height="50" viewBox="0 0 48 50" fill="none" xmlns="http://www.w3.org/2000/svg">
<path d="M3.38989 7.825C3.38989 4.03081 6.4657 0.955002 10.2599 0.955002H27.948C29.7182 0.955002 31.4201 1.63833 32.6988 2.86251L42.4907 12.2369C43.8444 13.5328 44.6099 15.3254 44.6099 17.1993V42.175C44.6099 45.9692 41.5341 49.045 37.7399 49.045H10.2599C6.4657 49.045 3.38989 45.9692 3.38989 42.175V7.825Z" fill="#EC3213"/>
<path d="M44.4743 15.84H35.4501C32.2883 15.84 29.7251 13.2768 29.7251 10.115V1.18877C30.8323 1.48526 31.8573 2.05672 32.699 2.86251L42.491 12.2369C43.5123 13.2146 44.1988 14.4751 44.4743 15.84Z" fill="#FF7733"/>
<path d="M44.6101 17.5575H35.4501C31.3397 17.5575 28.0076 14.2254 28.0076 10.115V0.955246C28.5922 0.960299 29.169 1.03985 29.7251 1.18876V10.115C29.7251 13.2768 32.2882 15.84 35.4501 15.84H44.4743C44.5639 16.2841 44.6101 16.7393 44.6101 17.1993V17.5575Z" fill="#C21000"/>
<path d="M23.826 25.9259L25.4336 23.1406C25.5964 22.8583 25.6822 22.5382 25.6821 22.2123C25.6821 21.8864 25.5964 21.5663 25.4335 21.2841C25.2705 21.0019 25.0362 20.7675 24.7541 20.6044C24.4719 20.4414 24.1518 20.3555 23.826 20.3553C23.5 20.3553 23.1798 20.4411 22.8975 20.6041C22.6153 20.7671 22.3808 21.0015 22.2178 21.2837C22.0548 21.566 21.969 21.8862 21.9689 22.2121C21.9689 22.5381 22.0546 22.8583 22.2175 23.1406L23.826 25.9259ZM23.826 25.9259L27.4338 32.9251M23.826 25.9259L20.2496 32.9251M20.2496 32.9251H16.67C16.4087 32.9251 16.1499 32.9765 15.9085 33.0765C15.667 33.1765 15.4476 33.3231 15.2628 33.5079C15.078 33.6927 14.9314 33.9121 14.8314 34.1536C14.7314 34.395 14.6799 34.6538 14.6799 34.9151C14.6799 36.9165 17.3029 37.665 18.3597 35.9659L20.2496 32.9251ZM20.2496 32.9251H27.4338M27.4338 32.9251H31.0143C31.2754 32.9251 31.534 32.9766 31.7752 33.0766C32.0164 33.1767 32.2355 33.3233 32.4199 33.5082C32.6044 33.693 32.7506 33.9125 32.8501 34.1539C32.9496 34.3953 33.0006 34.654 33 34.9151C33 36.9165 30.3779 37.665 29.3212 35.9659L27.4338 32.9251Z" stroke="white" stroke-width="1.58208" stroke-miterlimit="10"/>
</svg>
