<svg xmlns="http://www.w3.org/2000/svg" width="24" height="24" viewBox="0 0 24 24">
  <g class="ic-arrows-switch">
    <path fill-rule="evenodd" d="M18.6 1.716a.75.75 0 0 0-1.054 1.068l2.498 2.466H5.142a2.25 2.25 0 0 0-2.25 2.25v2.25h1.5V7.5a.75.75 0 0 1 .75-.75h14.902l-2.498 2.466a.75.75 0 0 0 1.054 1.068l3.582-3.537a1.05 1.05 0 0 0 0-1.494L18.6 1.716Zm1.002 11.034v3.75a.75.75 0 0 1-.75.75H3.95l2.498-2.466a.75.75 0 0 0-1.054-1.068l-3.582 3.537a1.05 1.05 0 0 0 0 1.494l3.582 3.537a.75.75 0 0 0 1.054-1.068L3.95 18.75h14.902a2.25 2.25 0 0 0 2.25-2.25v-3.75h-1.5Z" class="Icon"/>
  </g>
</svg>
