<svg xmlns="http://www.w3.org/2000/svg" width="24" height="24" viewBox="0 0 24 24">
  <g class="ic-filing-cabinet">
    <path fill-rule="evenodd" d="M6 3h12a1.5 1.5 0 0 1 1.5 1.5v6.75h-15V4.5A1.5 1.5 0 0 1 6 3Zm-3 9V4.5a3 3 0 0 1 3-3h12a3 3 0 0 1 3 3v15a3 3 0 0 1-3 3H6a3 3 0 0 1-3-3V12Zm16.5.75v6.75A1.5 1.5 0 0 1 18 21H6a1.5 1.5 0 0 1-1.5-1.5v-6.75h15Zm-3-5.25A1.5 1.5 0 0 1 15 9H9a1.5 1.5 0 0 1-1.5-1.5v-.75a.75.75 0 0 1 1.5 0v.75h6v-.75a.75.75 0 0 1 1.5 0v.75ZM15 18a1.5 1.5 0 0 0 1.5-1.5v-.75a.75.75 0 0 0-1.5 0v.75H9v-.75a.75.75 0 0 0-1.5 0v.75A1.5 1.5 0 0 0 9 18h6Z" class="Icon"/>
  </g>
</svg>
