<svg xmlns="http://www.w3.org/2000/svg" width="24" height="24" viewBox="0 0 24 24">
  <g class="ic-question-circle-filled">
    <path fill-rule="evenodd" d="M12 22.5c5.799 0 10.5-4.701 10.5-10.5S17.799 1.5 12 1.5 1.5 6.201 1.5 12 6.201 22.5 12 22.5Zm0-14.777a2.25 2.25 0 0 0-2.25 2.25.75.75 0 1 1-1.5 0A3.75 3.75 0 0 1 12 6.223h.222A3.528 3.528 0 0 1 15.75 9.75c0 .848-.4 1.647-1.078 2.156l-1.022.767a2.25 2.25 0 0 0-.9 1.8.75.75 0 0 1-1.5 0 3.75 3.75 0 0 1 1.5-3l1.022-.767c.301-.226.478-.58.478-.956 0-1.12-.908-2.027-2.028-2.027H12Zm-.75 9.527a.75.75 0 0 1 .75-.75h.015a.75.75 0 1 1 0 1.5H12a.75.75 0 0 1-.75-.75Z" class="Icon"/>
  </g>
</svg>
