<svg xmlns="http://www.w3.org/2000/svg" width="24" height="24" viewBox="0 0 24 24">
  <g class="ic-pen">
    <path fill-rule="evenodd" d="m20.235 5.964-2.206-2.196a.056.056 0 0 0-.02-.013.068.068 0 0 0-.025-.005.068.068 0 0 0-.025.005.056.056 0 0 0-.02.013L4.816 16.837c-.231.23-.386.525-.445.844l-.437 2.368 2.332-.48a1.61 1.61 0 0 0 .819-.439l13.15-13.095a.047.047 0 0 0 0-.07Zm-1.148-3.26a1.564 1.564 0 0 0-2.206 0L3.757 15.775a3.102 3.102 0 0 0-.862 1.635l-.632 3.424a.778.778 0 0 0 .925.9l3.38-.694a3.124 3.124 0 0 0 1.574-.846L21.293 7.098c.61-.607.61-1.59 0-2.197l-2.206-2.196Z" class="Icon"/>
  </g>
</svg>
