<svg width="24" height="24" viewBox="0 0 24 24" fill="none" xmlns="http://www.w3.org/2000/svg">
<path d="M0 2.5C0 1.11929 1.11929 0 2.5 0H21.5C22.8807 0 24 1.11929 24 2.5V21.5C24 22.8807 22.8807 24 21.5 24H2.5C1.11929 24 0 22.8807 0 21.5V2.5Z" fill="#DADBE0"/>
<path fill-rule="evenodd" clip-rule="evenodd" d="M11.569 16.6102C11.7441 16.7471 12 16.6223 12 16.4001V7.60066C12 7.37842 11.7441 7.2537 11.569 7.3906L8.21224 10.0157V10.0157H6.26667C6.11939 10.0157 6 10.1351 6 10.2824V13.7184C6 13.8656 6.11939 13.985 6.26667 13.985H8.21224L11.569 16.6102Z" fill="#3A3F4A"/>
<path fill-rule="evenodd" clip-rule="evenodd" d="M17.1982 12.0068C17.1982 9.86192 15.4635 8.13636 13.3333 8.13636V7.3335C15.9047 7.3335 18 9.41689 18 12.0068C18 14.5983 15.9031 16.6668 13.3333 16.6668V15.864C15.4652 15.864 17.1982 14.15 17.1982 12.0068Z" fill="#3A3F4A"/>
<path fill-rule="evenodd" clip-rule="evenodd" d="M15.0654 12.0001C15.0654 11.0459 14.2922 10.2722 13.3334 10.2722V9.46936C14.7326 9.46936 15.8671 10.6002 15.8671 12.0001C15.8671 13.3968 14.7359 14.5441 13.3334 14.5441V13.7412C14.289 13.7412 15.0654 12.9575 15.0654 12.0001Z" fill="#3A3F4A"/>
</svg>
