<svg xmlns="http://www.w3.org/2000/svg" width="24" height="24" viewBox="0 0 24 24">
  <g class="ic-shield">
    <path fill-rule="evenodd" d="M4.605 5.585c-.241 2.675-.115 5.49.88 8.104 1.006 2.642 2.938 5.184 6.516 7.202 3.577-2.018 5.508-4.56 6.514-7.201.995-2.616 1.12-5.43.88-8.105L12 3.043 4.605 5.585ZM3.66 4.324l8.098-2.784a.746.746 0 0 1 .485 0l8.097 2.784a.743.743 0 0 1 .499.623c.627 5.876-.255 13.038-8.494 17.467a.733.733 0 0 1-.689 0c-8.24-4.429-9.122-11.591-8.495-17.467a.743.743 0 0 1 .499-.623Z" class="Icon"/>
  </g>
</svg>
