<svg width="24" height="24" viewBox="0 0 24 24" fill="none" xmlns="http://www.w3.org/2000/svg">
<g id="ic-lines-horizontal">
<path id="Icon" fill-rule="evenodd" clip-rule="evenodd" d="M20.25 9L3.75 9C3.33579 9 3 9.33579 3 9.75C3 10.1642 3.33579 10.5 3.75 10.5L20.25 10.5C20.6642 10.5 21 10.1642 21 9.75C21 9.33579 20.6642 9 20.25 9ZM20.25 13.5L3.75 13.5C3.33579 13.5 3 13.8358 3 14.25C3 14.6642 3.33579 15 3.75 15L20.25 15C20.6642 15 21 14.6642 21 14.25C21 13.8358 20.6642 13.5 20.25 13.5Z" fill="#0F0F0F"/>
</g>
</svg>
