<svg width="65" height="64" viewBox="0 0 65 64" fill="none" xmlns="http://www.w3.org/2000/svg">
<path d="M0.5 32C0.5 14.3269 14.8269 0 32.5 0C50.1731 0 64.5 14.3269 64.5 32C64.5 49.6731 50.1731 64 32.5 64C14.8269 64 0.5 49.6731 0.5 32Z" fill="#F4F5F8"/>
<path fill-rule="evenodd" clip-rule="evenodd" d="M18.5433 33.2919C18.597 32.9292 18.7006 32.5747 18.8516 32.2387C18.8571 32.2265 18.8626 32.2144 18.8682 32.2023L23.4275 22.3238C24.0813 20.9072 25.4991 20 27.0593 20H37.9407C39.5009 20 40.9187 20.9072 41.5725 22.3238L46.1318 32.2023C46.1374 32.2144 46.1429 32.2265 46.1484 32.2387C46.2994 32.5747 46.403 32.9292 46.4567 33.2919C46.4855 33.4856 46.5 33.6817 46.5 33.8785V40C46.5 42.2091 44.7091 44 42.5 44H22.5C20.2909 44 18.5 42.2091 18.5 40V33.8785C18.5 33.6817 18.5145 33.4856 18.5433 33.2919ZM44.5 34V40C44.5 41.1046 43.6046 42 42.5 42H22.5C21.3954 42 20.5 41.1046 20.5 40V34H25.6716C25.9368 34 26.1911 34.1054 26.3787 34.2929L28.2071 36.1213C28.7697 36.6839 29.5328 37 30.3284 37H34.6716C35.4672 37 36.2303 36.6839 36.7929 36.1213L38.6213 34.2929C38.8089 34.1054 39.0632 34 39.3284 34H44.5ZM43.8357 32H39.3284C38.5328 32 37.7697 32.3161 37.2071 32.8787L35.3787 34.7071C35.1911 34.8946 34.9368 35 34.6716 35H30.3284C30.0632 35 29.8089 34.8946 29.6213 34.7071L27.7929 32.8787C27.2303 32.3161 26.4672 32 25.6716 32H21.1643L25.2434 23.1619C25.5703 22.4536 26.2792 22 27.0593 22H37.9407C38.7208 22 39.4297 22.4536 39.7566 23.1619L43.8357 32Z" fill="#C8CBD0"/>
</svg>
