<svg xmlns="http://www.w3.org/2000/svg" width="24" height="24" viewBox="0 0 24 24">
  <g class="ic-file-shapes">
    <path fill-rule="evenodd" d="M19.5 19.5A1.5 1.5 0 0 1 18 21H6a1.5 1.5 0 0 1-1.5-1.5v-15A1.5 1.5 0 0 1 6 3h7.5v3.75A2.25 2.25 0 0 0 15.75 9h3.75v10.5Zm-.621-12L15 3.621V6.75c0 .414.336.75.75.75h3.129ZM3 4.5a3 3 0 0 1 3-3h7.757a3 3 0 0 1 2.122.879L20.12 6.62A3 3 0 0 1 21 8.743V19.5a3 3 0 0 1-3 3H6a3 3 0 0 1-3-3v-15Zm5.25 11.25v1.5h1.5v-1.5h-1.5Zm-.75-1.5a.75.75 0 0 0-.75.75v3c0 .414.336.75.75.75h3a.75.75 0 0 0 .75-.75v-3a.75.75 0 0 0-.75-.75h-3ZM15.75 12a.75.75 0 1 1-1.5 0 .75.75 0 0 1 1.5 0Zm1.5 0a2.25 2.25 0 1 1-4.5 0 2.25 2.25 0 0 1 4.5 0Z" class="Icon"/>
  </g>
</svg>
