<svg width="24" height="24" viewBox="0 0 24 24" fill="none" xmlns="http://www.w3.org/2000/svg">
<g id="ic-arrow-rotate-right">
<path id="Icon" fill-rule="evenodd" clip-rule="evenodd" d="M10.7197 1.71978C11.0126 1.42689 11.4875 1.4269 11.7803 1.7198L13.8182 3.75773C14.2282 4.16778 14.2282 4.8326 13.8182 5.24265L13.8182 5.24266L11.7803 7.28046C11.4874 7.57335 11.0126 7.57334 10.7197 7.28044C10.4268 6.98755 10.4268 6.51267 10.7197 6.21978L11.6827 5.25678C7.68774 5.42304 4.5 8.71435 4.5 12.7502C4.5 16.8923 7.85786 20.2502 12 20.2502C16.1421 20.2502 19.5 16.8923 19.5 12.7502C19.5 10.5102 18.519 8.50036 16.9607 7.12499C16.6502 6.85089 16.6206 6.37694 16.8947 6.06639C17.1688 5.75584 17.6428 5.72629 17.9533 6.00038C19.8205 7.64841 21 10.062 21 12.7502C21 17.7208 16.9706 21.7502 12 21.7502C7.02944 21.7502 3 17.7208 3 12.7502C3 7.88188 6.86536 3.91637 11.6945 3.75528L10.7197 2.78044C10.4268 2.48754 10.4268 2.01267 10.7197 1.71978ZM12.7571 4.81796L12.7575 4.81838L12.7575 4.81839C12.7574 4.81825 12.7572 4.81811 12.7571 4.81796Z" fill="#0F0F0F"/>
</g>
</svg>
