<svg xmlns="http://www.w3.org/2000/svg" width="24" height="24" viewBox="0 0 24 24">
  <g class="ic-clock-rotate-left">
    <path fill-rule="evenodd" d="M11.944 3.75c-4.204 0-7.672 3.101-8.227 7.12l.775-.77a.755.755 0 0 1 1.064 0 .745.745 0 0 1 0 1.057l-1.921 1.91a1.058 1.058 0 0 1-1.49 0l-1.92-1.91a.745.745 0 0 1 0-1.057.755.755 0 0 1 1.063 0l.903.898C2.696 6.08 6.873 2.25 11.944 2.25c5.41 0 9.803 4.361 9.803 9.75s-4.393 9.75-9.803 9.75a9.803 9.803 0 0 1-7.001-2.925l1.068-1.053a8.303 8.303 0 0 0 5.933 2.478c4.59 0 8.303-3.698 8.303-8.25s-3.713-8.25-8.303-8.25Zm1.731 11.029a.755.755 0 0 0 1.064 0 .745.745 0 0 0 0-1.058l-2.043-2.03V7.5a.75.75 0 0 0-.752-.748.75.75 0 0 0-.753.748V12c0 .198.08.389.22.529l2.264 2.25Z" class="Icon"/>
  </g>
</svg>
