<svg width="20" height="20" viewBox="0 0 20 20" fill="none" xmlns="http://www.w3.org/2000/svg">
<path fill-rule="evenodd" clip-rule="evenodd" d="M6.76777 17.5H13.2322L13.8855 16.8467L14.7409 17.7591L14.1161 18.3839C13.8817 18.6183 13.5638 18.75 13.2322 18.75H6.76777C6.43625 18.75 6.1183 18.6183 5.88388 18.3839L1.61612 14.1161C1.3817 13.8817 1.25 13.5638 1.25 13.2322V6.76777C1.25 6.43625 1.3817 6.1183 1.61612 5.88388L2.64409 4.85591L3.49947 5.7683L2.5 6.76777L2.5 13.2322L6.76777 17.5ZM9.92684 14.25C10.3534 14.25 10.7087 13.9448 10.7862 13.5408L9.81686 12.5068C9.38552 12.5609 9.05184 12.929 9.05184 13.375C9.05184 13.8582 9.44359 14.25 9.92684 14.25ZM16.4114 16.0886L17.9509 17.6922C18.1899 17.9412 18.1818 18.3368 17.9328 18.5759C17.6838 18.8149 17.2882 18.8068 17.0491 18.5578L2.04913 2.93284C1.81008 2.68383 1.81816 2.28818 2.06717 2.04914C2.31617 1.81009 2.71182 1.81816 2.95087 2.06717L4.16652 3.33348L5.88388 1.61612C6.1183 1.3817 6.43625 1.25 6.76777 1.25H13.2322C13.5638 1.25 13.8817 1.3817 14.1161 1.61612L18.3839 5.88388C18.6183 6.1183 18.75 6.43625 18.75 6.76777V13.2322C18.75 13.5638 18.6183 13.8817 18.3839 14.1161L16.4114 16.0886ZM15.5456 15.1867L17.5 13.2322V6.76777L13.2322 2.5L6.76777 2.5L5.03237 4.2354L9.01721 8.38628L8.75926 6.3227C8.67147 5.62036 9.21911 5 9.92691 5C10.6347 5 11.1824 5.62036 11.0946 6.3227L10.627 10.0632L15.5456 15.1867Z" fill="#0C0C14"/>
</svg>
