<svg xmlns="http://www.w3.org/2000/svg" width="24" height="24" viewBox="0 0 24 24">
  <g class="ic-mailbox">
    <path fill-rule="evenodd" d="M6.75 3A6.75 6.75 0 0 0 0 9.75V20.1a.9.9 0 0 0 .9.9h22.2a.9.9 0 0 0 .9-.9V9.75A6.75 6.75 0 0 0 17.25 3H6.75Zm4.243 1.5h6.257c2.9 0 5.25 2.35 5.25 5.25v9.75h-9V9.75c0-2.12-.978-4.013-2.507-5.25ZM12 19.5V9.75a5.25 5.25 0 1 0-10.5 0v9.75H12ZM14.25 9a.75.75 0 0 1 .75-.75h5.25A.75.75 0 0 1 21 9v3a.75.75 0 0 1-.75.75H18a.75.75 0 0 1-.75-.75V9.75H15a.75.75 0 0 1-.75-.75Zm4.5.75v1.5h.75v-1.5h-.75Zm-15-1.5a.75.75 0 0 0 0 1.5H9a.75.75 0 0 0 0-1.5H3.75Z" class="Icon"/>
  </g>
</svg>
