<svg width="24" height="24" viewBox="0 0 24 24" fill="none" xmlns="http://www.w3.org/2000/svg">
<path fill-rule="evenodd" clip-rule="evenodd" d="M10.7185 1.91779C11.5463 1.61676 12.4537 1.61676 13.2815 1.91779L20.5063 4.54498C20.8027 4.65276 21 4.93445 21 5.24983V13.688C21 16.1582 19.6508 18.431 17.4823 19.6138L12.3591 22.4082C12.1353 22.5304 11.8647 22.5304 11.6409 22.4082L6.51775 19.6138C4.34924 18.431 3 16.1582 3 13.688V5.24983C3 4.93445 3.1973 4.65276 3.49369 4.54498L10.7185 1.91779ZM12.7689 3.32748C12.2722 3.14686 11.7278 3.14686 11.2311 3.32748L4.5 5.77515V13.688C4.5 15.6092 5.54941 17.377 7.23603 18.297L12 20.8955L16.764 18.297C18.4506 17.377 19.5 15.6092 19.5 13.688V5.77515L12.7689 3.32748Z" fill="#0F0F0F"/>
<path d="M12.3 11.2498L15.75 11.2498L10.5 18.7498L11.7 12.7498L8.25002 12.7498L13.5 5.24982L12.3 11.2498Z" fill="#0F0F0F"/>
</svg>
