<svg xmlns="http://www.w3.org/2000/svg" width="24" height="24" viewBox="0 0 24 24">
  <g class="ic-magic-wand">
    <path fill-rule="evenodd" d="m10.935.213-.402 1.006a.565.565 0 0 1-.314.314l-1.006.402a.339.339 0 0 0 0 .63l1.006.402a.565.565 0 0 1 .314.314l.402 1.006a.339.339 0 0 0 .63 0l.402-1.006a.565.565 0 0 1 .314-.314l1.006-.402a.339.339 0 0 0 0-.63l-1.006-.402a.565.565 0 0 1-.314-.314L11.565.213a.339.339 0 0 0-.63 0ZM17.69 2.25a1.5 1.5 0 0 1 2.122 0l2.121 2.121a1.5 1.5 0 0 1 0 2.122L7.082 21.342a1.5 1.5 0 0 1-2.12 0L2.84 19.22a1.5 1.5 0 0 1 0-2.122L17.69 2.25Zm1.061 1.06-2.725 2.726 2.152 2.09 2.694-2.694-2.121-2.121ZM3.9 18.16 14.965 7.096l2.152 2.09L6.022 20.282 3.901 18.16ZM5.16 6.05l-1.765.757a1.002 1.002 0 0 1-.79 0L.84 6.05a.601.601 0 0 0-.79.79l.757 1.765c.108.252.108.538 0 .79L.05 11.16a.601.601 0 0 0 .79.79l1.765-.757c.252-.108.538-.108.79 0l1.765.757a.601.601 0 0 0 .79-.79l-.757-1.765a1.002 1.002 0 0 1 0-.79L5.95 6.84a.601.601 0 0 0-.79-.79Zm12.395 10.981.67-1.676a.565.565 0 0 1 1.05 0l.67 1.676c.095.24.285.429.524.524l1.676.67c.473.19.473.86 0 1.05l-1.676.67a.942.942 0 0 0-.524.524l-.67 1.676a.565.565 0 0 1-1.05 0l-.67-1.676a.942.942 0 0 0-.524-.524l-1.676-.67a.565.565 0 0 1 0-1.05l1.676-.67a.942.942 0 0 0 .524-.524Z" class="Icon"/>
  </g>
</svg>
