<svg xmlns="http://www.w3.org/2000/svg" width="24" height="24" viewBox="0 0 24 24">
  <g class="ic-arrows-swap-right">
    <path fill-rule="evenodd" d="M19.28 1.72a.75.75 0 1 0-1.06 1.06l1.72 1.72h-2.508a3.75 3.75 0 0 0-3.2 1.795l-2.607 4.267-2.608-4.267a3.75 3.75 0 0 0-3.2-1.795H2.25a.75.75 0 0 0 0 1.5h3.567a2.25 2.25 0 0 1 1.92 1.077l3.24 5.302.016.026 3.24 5.3a3.75 3.75 0 0 0 3.2 1.795h2.506l-1.72 1.72a.75.75 0 1 0 1.061 1.06l3-3a.75.75 0 0 0 0-1.06l-3-3a.75.75 0 1 0-1.06 1.06L19.94 18h-2.508a2.25 2.25 0 0 1-1.92-1.077L12.505 12l3.009-4.923A2.25 2.25 0 0 1 17.433 6h2.506l-1.72 1.72a.75.75 0 0 0 1.061 1.06l3-3a.75.75 0 0 0 0-1.06l-3-3ZM9.18 14.562a.75.75 0 0 1 1.28.782l-.258.422-1.185 1.94a3.75 3.75 0 0 1-3.2 1.794H2.25a.75.75 0 0 1 0-1.5h3.567a2.25 2.25 0 0 0 1.92-1.077l1.186-1.94.257-.421Z" class="Icon"/>
  </g>
</svg>
