<svg xmlns="http://www.w3.org/2000/svg" width="24" height="24" viewBox="0 0 24 24">
  <g class="ic-window-terminal">
    <path fill-rule="evenodd" d="M4.5 4.5h15A1.5 1.5 0 0 1 21 6v.75H3V6a1.5 1.5 0 0 1 1.5-1.5Zm-3 3.75V6a3 3 0 0 1 3-3h15a3 3 0 0 1 3 3v12a3 3 0 0 1-3 3h-15a3 3 0 0 1-3-3V8.25Zm1.5 0h18V18a1.5 1.5 0 0 1-1.5 1.5h-15A1.5 1.5 0 0 1 3 18V8.25Zm9.75 9H18a.75.75 0 0 0 0-1.5h-5.25a.75.75 0 0 0 0 1.5ZM6.22 9.97a.75.75 0 0 1 1.06 0l2.788 2.787c.41.41.41 1.075 0 1.486L7.28 17.03a.75.75 0 0 1-1.06-1.06l2.47-2.47-2.47-2.47a.75.75 0 0 1 0-1.06Z" class="Icon"/>
  </g>
</svg>
