<svg xmlns="http://www.w3.org/2000/svg" width="24" height="24" viewBox="0 0 24 24">
  <g class="ic-list-numbers">
    <path fill-rule="evenodd" d="M1.541 5.25a.75.75 0 0 1 .75-.75h1.497a.75.75 0 0 1 .75.75v4.5h.747a.75.75 0 0 1 0 1.5H2.29a.75.75 0 0 1 0-1.5h.747V6H2.29a.75.75 0 0 1-.75-.75Zm6.736 0a.75.75 0 0 1 .75-.75h11.226a.75.75 0 0 1 0 1.5H9.027a.75.75 0 0 1-.75-.75Zm11.976 7.5H9.027a.75.75 0 0 1 0-1.5h11.226a.75.75 0 0 1 0 1.5ZM9.027 18a.75.75 0 0 0 0 1.5h11.226a.75.75 0 0 0 0-1.5H9.027Zm-5.963-3.205a.512.512 0 0 1 .85-.202.518.518 0 0 1 .037.689l-.007.008-.007.01-2.245 2.993a.75.75 0 0 0 .6 1.2h2.994a.75.75 0 0 0 0-1.5H3.792l1.34-1.785a2.018 2.018 0 0 0-.157-2.674c-1.06-1.062-2.862-.634-3.335.787l-.101.307a.75.75 0 1 0 1.423.473l.102-.306Z" class="Icon"/>
  </g>
</svg>
