<svg xmlns="http://www.w3.org/2000/svg" width="24" height="24" viewBox="0 0 24 24">
  <g class="ic-paint-roller">
    <path fill-rule="evenodd" d="M3 4.5A1.5 1.5 0 0 1 4.5 3h12.75a1.5 1.5 0 0 1 1.5 1.5v3a1.5 1.5 0 0 1-1.5 1.5H4.5A1.5 1.5 0 0 1 3 7.5v-3Zm1.5-3a3 3 0 0 0-3 3v3a3 3 0 0 0 3 3h12.75a3 3 0 0 0 3-3V6a.75.75 0 0 1 .75.75v3.75a.75.75 0 0 1-.75.75H13.5a2.25 2.25 0 0 0-2.25 2.25v.75a1.5 1.5 0 0 0-1.5 1.5V21a1.5 1.5 0 0 0 1.5 1.5h1.5a1.5 1.5 0 0 0 1.5-1.5v-5.25a1.5 1.5 0 0 0-1.5-1.5v-.75a.75.75 0 0 1 .75-.75h6.75a2.25 2.25 0 0 0 2.25-2.25V6.75a2.25 2.25 0 0 0-2.25-2.25 3 3 0 0 0-3-3H4.5ZM12 15.75h-.75V21h1.5v-5.25H12Z" class="Icon"/>
  </g>
</svg>
