<svg width="24" height="24" viewBox="0 0 24 24" fill="none" xmlns="http://www.w3.org/2000/svg">
<path d="M0 2.5C0 1.11929 1.11929 0 2.5 0H21.5C22.8807 0 24 1.11929 24 2.5V21.5C24 22.8807 22.8807 24 21.5 24H2.5C1.11929 24 0 22.8807 0 21.5V2.5Z" fill="#FFA733"/>
<path d="M15.1198 6.75261L8.31234 13.5601C8.21316 13.6593 8.13778 13.7823 8.11067 13.9204L7.73147 15.4421C7.6961 15.5885 7.82304 15.7155 7.97742 15.688L9.49908 15.3088C9.62933 15.2738 9.76024 15.2064 9.85942 15.1072L16.6669 8.29969C16.8818 8.08481 16.8805 7.75291 16.6821 7.55457L15.865 6.73739C15.6666 6.53905 15.3264 6.54599 15.1198 6.75261Z" fill="white"/>
<path d="M6.3999 17.25C6.3999 17.0567 6.5566 16.9 6.7499 16.9H16.5499C16.7432 16.9 16.8999 17.0567 16.8999 17.25C16.8999 17.4433 16.7432 17.6 16.5499 17.6H6.7499C6.5566 17.6 6.3999 17.4433 6.3999 17.25Z" fill="white"/>
</svg>
