<svg xmlns="http://www.w3.org/2000/svg" width="24" height="24" viewBox="0 0 24 24">
  <g class="ic-printer">
    <path fill-rule="evenodd" d="M6.75 3.74a.75.75 0 0 1 .75-.749h6.205a.75.75 0 0 1 .481.175L17.05 5.56a.75.75 0 0 1 .268.575v.776H6.75v-3.17Zm-1.5 3.172V3.741A2.25 2.25 0 0 1 7.5 1.492h6.205c.528 0 1.04.186 1.444.525l2.864 2.395a2.25 2.25 0 0 1 .805 1.724v.776h.982a2.7 2.7 0 0 1 2.7 2.698v7.226a2.699 2.699 0 0 1-2.7 2.698h-1.05v2.21a1.5 1.5 0 0 1-1.5 1.498H6.75a1.5 1.5 0 0 1-1.5-1.499v-2.209H4.2a2.7 2.7 0 0 1-2.7-2.698V9.61a2.699 2.699 0 0 1 2.7-2.698h1.05ZM19.8 18.035h-1.05v-3.708H5.25v3.708H4.2A1.2 1.2 0 0 1 3 16.836V9.61a1.2 1.2 0 0 1 1.2-1.2h15.6a1.2 1.2 0 0 1 1.2 1.2v7.226a1.2 1.2 0 0 1-1.2 1.2ZM6.75 21.743h10.5v-5.916H6.75v5.916Zm12-10.374c0 .41-.336.742-.75.742a.746.746 0 0 1-.75-.742c0-.41.336-.741.75-.741s.75.332.75.741Zm-3.75.742c.414 0 .75-.332.75-.742a.746.746 0 0 0-.75-.741.746.746 0 0 0-.75.741c0 .41.336.742.75.742Z" class="Icon"/>
  </g>
</svg>
