<svg xmlns="http://www.w3.org/2000/svg" width="24" height="24" viewBox="0 0 24 24">
  <g class="ic-shield-half-filled">
    <path fill-rule="evenodd" d="M5.486 13.69c-.996-2.616-1.122-5.43-.88-8.105L12 3.043l7.394 2.542c.24 2.675.115 5.49-.88 8.105-1.006 2.64-2.937 5.183-6.514 7.201-3.578-2.018-5.51-4.56-6.515-7.202Zm6.272-12.15L3.66 4.324a.743.743 0 0 0-.499.623c-.627 5.876.256 13.038 8.495 17.467a.733.733 0 0 0 .688 0c8.24-4.429 9.122-11.591 8.495-17.467a.743.743 0 0 0-.499-.623L12.243 1.54a.746.746 0 0 0-.485 0Zm.08 2.96A.467.467 0 0 1 12 4.47V19.5a.458.458 0 0 1-.229-.062C6.278 16.275 5.582 11.158 6 6.962a.525.525 0 0 1 .333-.445L11.839 4.5Z" class="Icon"/>
  </g>
</svg>
