<svg xmlns="http://www.w3.org/2000/svg" width="24" height="24" viewBox="0 0 24 24">
  <g class="ic-brand-proton-vpn">
    <path fill-rule="evenodd" d="M1.814 5.823c-.958-1.712.432-3.788 2.38-3.555l16.196 1.94c1.756.211 2.689 2.184 1.737 3.675l-8.185 12.826c-.915 1.434-3.03 1.373-3.86-.112L1.814 5.823Zm2.202-2.066a.9.9 0 0 0-.893 1.334l.41.732L16.457 7.56c.83.111 1.258 1.05.8 1.75l-6.345 9.698.48.857a.75.75 0 0 0 1.287.037l8.185-12.826a.9.9 0 0 0-.652-1.378L4.016 3.758Z" class="Icon"/>
  </g>
</svg>
