<svg xmlns="http://www.w3.org/2000/svg" width="24" height="24" viewBox="0 0 24 24">
  <g class="ic-envelope-dot">
    <path fill-rule="evenodd" d="M20.25 10.5a3.75 3.75 0 1 0 0-7.5 3.75 3.75 0 0 0 0 7.5ZM6.3 4.5h9.205a5.23 5.23 0 0 0-.452 1.5H6.3c-.865 0-1.423.001-1.848.036-.408.033-.559.09-.633.127a1.5 1.5 0 0 0-.656.656c-.037.074-.094.225-.127.633a6.88 6.88 0 0 0-.01.13l8.58 5.28a.75.75 0 0 0 .787 0l4.052-2.494c.37.387.797.72 1.27.98l-4.536 2.79a2.25 2.25 0 0 1-2.358 0L3 9.327V16.2c0 .865.001 1.423.036 1.848.033.408.09.559.127.633a1.5 1.5 0 0 0 .656.655c.074.038.225.095.633.128.425.035.983.036 1.848.036h11.4c.865 0 1.423-.001 1.848-.036.408-.033.559-.09.633-.127a1.5 1.5 0 0 0 .655-.656c.038-.074.095-.225.128-.633.035-.425.036-.983.036-1.848v-4.253a5.212 5.212 0 0 0 1.5-.452V16.2c0 1.68 0 2.52-.327 3.162a3 3 0 0 1-1.311 1.311C20.22 21 19.38 21 17.7 21H6.3c-1.68 0-2.52 0-3.162-.327a3 3 0 0 1-1.311-1.311C1.5 18.72 1.5 17.88 1.5 16.2V9.3c0-1.68 0-2.52.327-3.162a3 3 0 0 1 1.311-1.311C3.78 4.5 4.62 4.5 6.3 4.5Z" class="Icon"/>
  </g>
</svg>
