<svg xmlns="http://www.w3.org/2000/svg" width="24" height="24" viewBox="0 0 24 24">
  <g class="ic-brand-wireguard">
    <g class="Icon">
      <path d="M14.335 4.224a.094.094 0 0 0-.037.115.093.093 0 0 0 .025.035.14.14 0 0 0 .194.052c.041-.02.082-.043.127-.067l.06-.032-.052-.046-.098-.082c-.083-.069-.152-.026-.22.025Z"/>
      <path fill-rule="evenodd" d="M12 22.5c5.799 0 10.5-4.701 10.5-10.5S17.799 1.5 12 1.5 1.5 6.201 1.5 12 6.201 22.5 12 22.5Zm3.124-17.37c.203.008.405.01.607.01l.458.006c.088.006.176.018.263.037-.08.122-.17.237-.268.343-.127.118-.27.234-.453.054-.036-.036-.114-.035-.183-.034h-.04l-.226-.004c-.278-.004-.556-.01-.832.001-.306.01-.61.041-.912.093-.056.01-.14.198-.115.267.062.164.151.344.283.448.254.2.515.39.777.579.243.176.487.352.723.537.478.373.922.78 1.193 1.343.352.732.363 1.5.21 2.27-.253 1.288-.905 2.354-1.96 3.129-.313.23-.68.386-1.047.542-.131.056-.262.112-.39.171-.224.103-.45.198-.676.293-.208.088-.417.176-.623.27-.774.351-1.208 1.191-1.08 2.064.117.802.82 1.47 1.625 1.608.966.166 1.963-.462 2.2-1.444.265-1.104-.335-2.09-1.458-2.388l-.1-.026-.102-.026c.097-.044.19-.083.278-.12.188-.08.359-.153.521-.242.418-.23.829-.474 1.23-.73.12-.076.183-.076.284.011.772.668 1.233 1.498 1.362 2.517.214 1.685-.584 3.234-2.089 4.027-2.328 1.228-5.177-.17-5.692-2.75-.44-2.212 1.12-4.218 2.998-4.605.808-.166 1.547-.502 2.121-1.124.37-.402.55-.746.611-.902.114-.29.172-.6.172-.914a2.138 2.138 0 0 0-.187-.783c-.196-.447-.947-1.158-1.133-1.308l-1.77-1.384c-.061-.052-.132-.048-.284-.038-.18.013-.643.038-.842-.014.078-.059.22-.13.367-.205.16-.08.325-.163.423-.238-.386-.26-.808-.282-1.226-.304a4.39 4.39 0 0 1-.602-.059c.139-.258.826-.656 1.217-.7a5.751 5.751 0 0 0-.107-.65c-.024-.088-.122-.173-.207-.223a7.205 7.205 0 0 0-.461-.241l-.206-.102c.214-.138.462-.215.716-.222.241-.009.482.015.717.07.426.097.766.034 1.105-.256l-.245-.096a7.775 7.775 0 0 1-1.292-.614c.213.03.424.075.634.12.453.098.904.196 1.373.133l.017-.094-1.594-.37c.95-.088 1.835-.102 2.672.306.084.04.168.078.252.116.155.07.31.14.457.225a.753.753 0 0 1 .193.191c.027.033.053.066.082.097.022.024.043.052.065.079.046.059.092.118.152.15.335.178.704.185 1.079.176l.008-.126c.378.118.803.554.803.872h-.412c-.475 0-.95 0-1.424.004a.32.32 0 0 0-.133.045.765.765 0 0 1-.062.029c.02.011.039.026.058.04.042.03.084.062.127.063Zm-.733 4.67c-.907-1.744-3.33-2.453-5.226-1.293-2.438 1.49-2.294 4.917-.062 6.282.172.105.25.093.362-.06a4.02 4.02 0 0 1 1.298-1.128c.083-.047.168-.091.265-.142l.153-.08c-1.11-.193-1.703-.7-1.772-1.482-.074-.842.337-1.527 1.087-1.812a1.69 1.69 0 0 1 2.23 1.225c.05.228.051.464.003.692-.09.482-.377.831-.736 1.139 1.22-.286 2.107-.957 2.483-2.155.11-.346.087-.855-.085-1.186Zm-7.636 7.374c.248-.085.49-.17.74-.233.251-.063.508-.107.774-.152.119-.02.24-.04.363-.063.034-.59.237-1.157.584-1.635-1.198-.127-2.615.987-2.794 2.196l.333-.113Z"/>
    </g>
  </g>
</svg>
