<svg xmlns="http://www.w3.org/2000/svg" width="24" height="24" viewBox="0 0 24 24">
  <g class="ic-storage">
    <path fill-rule="evenodd" d="M6 5.25c0-.265.112-.526.4-.799.298-.283.759-.55 1.363-.775C8.968 3.225 10.562 3 12 3c1.438 0 3.031.225 4.237.676.604.226 1.065.492 1.364.775.287.273.399.534.399.799s-.112.526-.4.799c-.298.283-.759.55-1.363.775-1.205.451-2.799.676-4.237.676-1.438 0-3.032-.225-4.237-.676-.604-.226-1.065-.492-1.364-.775C6.112 5.776 6 5.515 6 5.25Zm-1.5 0c0-.77.357-1.403.866-1.886.499-.473 1.163-.828 1.871-1.093C8.657 1.74 10.438 1.5 12 1.5c1.562 0 3.344.24 4.763.77.708.266 1.372.62 1.87 1.094.51.483.867 1.115.867 1.886V18c0 1.43-1.027 2.568-2.354 3.307-1.35.752-3.169 1.193-5.146 1.193-1.977 0-3.796-.441-5.146-1.193C5.527 20.568 4.5 19.43 4.5 18V5.25ZM6 12.126v2.124c0 .265.112.526.4.799.298.283.759.55 1.363.775 1.205.451 2.799.676 4.237.676 1.438 0 3.031-.225 4.237-.676.604-.226 1.065-.492 1.364-.775.287-.273.399-.534.399-.799v-2.124c-.376.24-.798.439-1.237.603-1.42.531-3.201.771-4.763.771-1.562 0-3.343-.24-4.763-.77A6.621 6.621 0 0 1 6 12.125ZM18 9.75c0 .265-.112.526-.4.799-.298.283-.759.55-1.363.775-1.205.451-2.799.676-4.237.676-1.438 0-3.032-.225-4.237-.676-.604-.226-1.065-.492-1.364-.775C6.112 10.276 6 10.015 6 9.75V7.626c.376.24.798.439 1.237.603C8.657 8.76 10.438 9 12 9c1.562 0 3.344-.24 4.763-.77A6.663 6.663 0 0 0 18 7.626V9.75Zm0 6.876c-.376.24-.798.439-1.237.603-1.42.531-3.201.771-4.763.771-1.562 0-3.343-.24-4.763-.77A6.621 6.621 0 0 1 6 16.625V18c0 .642.473 1.378 1.584 1.996C8.67 20.602 10.227 21 12 21c1.773 0 3.33-.398 4.416-1.004C17.527 19.378 18 18.642 18 18v-1.374Z" class="Icon"/>
  </g>
</svg>
