<svg xmlns="http://www.w3.org/2000/svg" width="24" height="24" viewBox="0 0 24 24">
  <g class="ic-phone">
    <path fill-rule="evenodd" d="M5.497 3.003 3.813 4.687c-.668.667-.927 1.497-.766 2.207 1.502 6.604 7.455 12.557 14.06 14.059.709.16 1.539-.098 2.207-.766l1.683-1.684.002-.002.001-.005v-.004l-.001-.001-.002-.002-3.043-3.043a.01.01 0 0 0-.013-.002l-2.414 1.492c-.89.55-2.04.416-2.78-.324l-5.23-5.23a2.255 2.255 0 0 1-.374-2.697l1.45-2.59a.01.01 0 0 0-.002-.012l-3.08-3.08-.002-.002m15.49 15.49ZM5.497 3.004l.002-.002Zm.002-.002Zm0 0Zm11.274 19.414C9.607 20.785 3.214 14.394 1.585 7.227c-.299-1.314.215-2.649 1.167-3.601l1.684-1.684a1.51 1.51 0 0 1 2.136 0l3.08 3.08a1.51 1.51 0 0 1 .25 1.806l-1.45 2.59a.755.755 0 0 0 .125.903l5.23 5.23a.755.755 0 0 0 .932.109l2.414-1.492a1.51 1.51 0 0 1 1.862.217l3.043 3.043c.59.59.59 1.546 0 2.136l-1.684 1.684c-.952.952-2.287 1.466-3.6 1.167Z" class="Icon"/>
  </g>
</svg>
