<svg xmlns="http://www.w3.org/2000/svg" width="24" height="24" viewBox="0 0 24 24">
  <g class="ic-arrow-down-arrow-up">
    <path fill-rule="evenodd" d="M6.75 1.5a.75.75 0 0 1 .75.75v17.69l3.22-3.22a.75.75 0 1 1 1.06 1.06l-4.5 4.5a.75.75 0 0 1-1.06 0l-4.5-4.5a.75.75 0 0 1 1.06-1.06L6 19.94V2.25a.75.75 0 0 1 .75-.75Zm10.5 0a.75.75 0 0 1 .53.22l4.5 4.5a.75.75 0 0 1-1.06 1.06L18 4.06v17.66a.75.75 0 1 1-1.5 0V4.06l-3.22 3.22a.75.75 0 1 1-1.06-1.06l4.5-4.5a.75.75 0 0 1 .53-.22Z" class="Icon"/>
  </g>
</svg>
