<svg width="24" height="24" viewBox="0 0 24 24" fill="none" xmlns="http://www.w3.org/2000/svg">
<path d="M0 2.5C0 1.11929 1.11929 0 2.5 0H21.5C22.8807 0 24 1.11929 24 2.5V21.5C24 22.8807 22.8807 24 21.5 24H2.5C1.11929 24 0 22.8807 0 21.5V2.5Z" fill="#DADBE0"/>
<path fill-rule="evenodd" clip-rule="evenodd" d="M9.47384 7.39691C9.39546 7.21662 9.21759 7.10001 9.021 7.10001C8.82441 7.10001 8.64655 7.21662 8.56816 7.39691L5.04108 15.5092C4.93234 15.7593 5.04693 16.0502 5.29703 16.1589C5.54713 16.2677 5.83802 16.1531 5.94676 15.903L7.19786 13.0254L10.8441 13.0254L12.0952 15.903C12.204 16.1531 12.4949 16.2677 12.745 16.1589C12.9951 16.0502 13.1097 15.7593 13.0009 15.5092L9.47384 7.39691ZM10.4148 12.0379L9.021 8.83222L7.62725 12.0379H10.4148ZM17.9038 13.5898C17.9038 14.4079 17.2406 15.0712 16.4225 15.0712C15.6043 15.0712 14.9411 14.4079 14.9411 13.5898C14.9411 12.7717 15.6043 12.1084 16.4225 12.1084C17.2406 12.1084 17.9038 12.7717 17.9038 13.5898ZM16.4225 11.1208C16.9783 11.1208 17.4912 11.3045 17.9038 11.6145C17.9039 11.3418 18.125 11.1208 18.3976 11.1208C18.6704 11.1208 18.8914 11.3419 18.8914 11.6146V13.5898V15.565C18.8914 15.8377 18.6704 16.0588 18.3976 16.0588C18.125 16.0588 17.9039 15.8378 17.9038 15.5652C17.4912 15.8751 16.9783 16.0588 16.4225 16.0588C15.0589 16.0588 13.9535 14.9534 13.9535 13.5898C13.9535 12.2262 15.0589 11.1208 16.4225 11.1208Z" fill="#3A3F4A"/>
</svg>
