<svg width="24" height="24" viewBox="0 0 24 24" fill="none" xmlns="http://www.w3.org/2000/svg">
<path d="M0 2.5C0 1.11929 1.11929 0 2.5 0H21.5C22.8807 0 24 1.11929 24 2.5V21.5C24 22.8807 22.8807 24 21.5 24H2.5C1.11929 24 0 22.8807 0 21.5V2.5Z" fill="#DADBE0"/>
<path d="M17.0616 15.9692C17.5756 15.9692 17.873 15.4191 17.5714 15.0261L14.0397 10.4242C13.8889 10.2277 13.5788 10.2277 13.428 10.4242L10.8596 13.7708L9.4316 11.9101C9.2808 11.7136 8.97068 11.7136 8.81988 11.9101L6.42849 15.0261C6.12691 15.4191 6.42427 15.9692 6.93826 15.9692H17.0616Z" fill="#3A3F4A"/>
<path d="M11.4307 9.13847C11.4307 9.76723 10.921 10.2769 10.2923 10.2769C9.66352 10.2769 9.15381 9.76723 9.15381 9.13847C9.15381 8.50971 9.66352 8 10.2923 8C10.921 8 11.4307 8.50971 11.4307 9.13847Z" fill="#3A3F4A"/>
</svg>
