<svg xmlns="http://www.w3.org/2000/svg" width="24" height="24" viewBox="0 0 24 24">
  <g class="ic-user">
    <path fill-rule="evenodd" d="M15 7.5a3 3 0 1 1-6 0 3 3 0 0 1 6 0Zm1.5 0a4.5 4.5 0 1 1-9 0 4.5 4.5 0 0 1 9 0ZM5.783 16.47A3.138 3.138 0 0 1 8.461 15h7.078c1.11 0 2.123.569 2.678 1.47l1.173 1.908c.273.444-.014 1.122-.7 1.122H5.31c-.686 0-.973-.678-.7-1.122l1.173-1.907Zm-1.277-.785C5.339 14.329 6.84 13.5 8.46 13.5h7.078c1.62 0 3.122.83 3.955 2.185l1.174 1.907c.922 1.5-.185 3.408-1.978 3.408H5.31c-1.793 0-2.9-1.908-1.978-3.408l1.174-1.907Z" class="Icon"/>
  </g>
</svg>
