<svg xmlns="http://www.w3.org/2000/svg" width="24" height="24" viewBox="0 0 24 24">
  <g class="ic-card-identity">
    <path fill-rule="evenodd" d="M19.5 6h-15A1.5 1.5 0 0 0 3 7.5v9A1.5 1.5 0 0 0 4.5 18h15a1.5 1.5 0 0 0 1.5-1.5v-9A1.5 1.5 0 0 0 19.5 6Zm-15-1.5a3 3 0 0 0-3 3v9a3 3 0 0 0 3 3h15a3 3 0 0 0 3-3v-9a3 3 0 0 0-3-3h-15Zm3.75 6a.75.75 0 1 0 0-1.5.75.75 0 0 0 0 1.5Zm0 1.5a2.25 2.25 0 1 0 0-4.5 2.25 2.25 0 0 0 0 4.5ZM6 15a.75.75 0 0 1 .75-.75h3a.75.75 0 0 1 .75.75v.75a.75.75 0 0 0 1.5 0V15a2.25 2.25 0 0 0-2.25-2.25h-3A2.25 2.25 0 0 0 4.5 15v.75a.75.75 0 0 0 1.5 0V15Zm7.5-4.5a.75.75 0 0 1 .75-.75H18a.75.75 0 0 1 0 1.5h-3.75a.75.75 0 0 1-.75-.75Zm.75 2.25a.75.75 0 0 0 0 1.5H18a.75.75 0 0 0 0-1.5h-3.75Z" class="Icon"/>
  </g>
</svg>
