<svg xmlns="http://www.w3.org/2000/svg" width="24" height="24" viewBox="0 0 24 24">
  <g class="ic-clock-paper-plane">
    <path fill-rule="evenodd" d="M10.5 1.5a9 9 0 0 0 0 18 .75.75 0 0 1 0 1.5C4.701 21 0 16.299 0 10.5S4.701 0 10.5 0 21 4.701 21 10.5c0 1.126-.177 2.212-.507 3.23a.75.75 0 1 1-1.427-.46 8.994 8.994 0 0 0 .434-2.77 9 9 0 0 0-9-9Zm4.48 12.573 8.646 4.322a.677.677 0 0 1 0 1.211l-8.646 4.322a.677.677 0 0 1-.98-.606V20.11l3.672-.84c.322-.036.322-.503 0-.539L14 17.888v-3.21c0-.503.53-.83.98-.605ZM11.25 5.25a.75.75 0 0 0-1.5 0v5.25c0 .199.079.39.22.53l2.25 2.25a.75.75 0 1 0 1.06-1.06l-2.03-2.03V5.25Z" class="Icon"/>
  </g>
</svg>
