<svg xmlns="http://www.w3.org/2000/svg" width="24" height="24" viewBox="0 0 24 24">
  <g class="ic-swipe-left">
    <path fill-rule="evenodd" d="M6.666 3.743a8.681 8.681 0 0 1 11.195-.377.75.75 0 1 0 .928-1.178c-3.944-3.11-9.472-2.836-13.088.405a2.256 2.256 0 0 0-3.149 3.038l5.61 9.728-1.726-.264a2.132 2.132 0 0 0-.751 4.2l7.025 1.448c.21.043.393.175.5.361l.009.014 1.132 1.783a.75.75 0 1 0 1.266-.804l-1.116-1.757a2.254 2.254 0 0 0-1.488-1.067l-7.025-1.448a.633.633 0 0 1 .222-1.247l2.649.404a1.05 1.05 0 0 0 1.068-1.564L3.851 4.882a.756.756 0 0 1 .276-1.032.752.752 0 0 1 1.029.276l2.42 4.196a2.253 2.253 0 0 0 2.57 1.041l3.325-.952 2.713-.642a.752.752 0 0 1 .825.357l3.172 5.501a.757.757 0 0 1 .023.713l-.488.988a2.256 2.256 0 0 0 .069 2.126l.01.018 2.077 3.18a.75.75 0 0 0 1.256-.82l-2.052-3.142a.756.756 0 0 1-.015-.698l.488-.988a2.256 2.256 0 0 0-.068-2.126l-3.173-5.501a2.253 2.253 0 0 0-2.47-1.068l-2.747.65-3.357.962a.752.752 0 0 1-.86-.348l-2.208-3.83Z" class="Icon"/>
  </g>
</svg>
