<svg xmlns="http://www.w3.org/2000/svg" width="24" height="24" viewBox="0 0 24 24">
  <g class="ic-paper-clip">
    <path fill-rule="evenodd" d="M18.31 4.193c-1.476-1.423-3.882-1.423-5.359 0l-7.37 7.104c-2.274 2.19-2.274 5.73 0 7.921 2.29 2.208 6.016 2.208 8.306 0l6.487-6.25a.812.812 0 1 1 1.127 1.17l-6.486 6.251c-2.92 2.814-7.642 2.814-10.562 0a7.08 7.08 0 0 1 0-10.263l7.37-7.104c2.107-2.03 5.508-2.03 7.614 0a5.12 5.12 0 0 1 0 7.422l-7.37 7.104a3.38 3.38 0 0 1-4.666 0 3.163 3.163 0 0 1 0-4.58l6.486-6.252a.812.812 0 1 1 1.128 1.17l-6.487 6.252a1.537 1.537 0 0 0 0 2.239 1.757 1.757 0 0 0 2.411 0l7.371-7.104a3.495 3.495 0 0 0 0-5.08Z" class="Icon"/>
  </g>
</svg>
