<svg xmlns="http://www.w3.org/2000/svg" width="24" height="24" viewBox="0 0 24 24">
  <g class="ic-file-arrow-out">
    <path fill-rule="evenodd" d="M6.75 3A2.25 2.25 0 0 0 4.5 5.25v13.5A2.25 2.25 0 0 0 6.75 21H18v1.5H6.75A3.75 3.75 0 0 1 3 18.75V5.25A3.75 3.75 0 0 1 6.75 1.5h7.007a3.75 3.75 0 0 1 2.652 1.098l3.493 3.493A3.75 3.75 0 0 1 21 8.743V12h-1.5V9h-3.75a2.25 2.25 0 0 1-2.25-2.25V3H6.75Zm12.091 4.152c.107.107.202.224.285.348H15.75a.75.75 0 0 1-.75-.75V3.374c.124.083.241.178.348.285l3.493 3.493Zm.999 6.568a.75.75 0 0 1 1.06 0l2.788 2.787c.41.41.41 1.075 0 1.485L20.9 20.78a.75.75 0 0 1-1.06-1.06L21.56 18h-6.44a.75.75 0 0 1 0-1.5h6.44l-1.72-1.72a.75.75 0 0 1 0-1.06Z" class="Icon"/>
  </g>
</svg>
