<svg width="48" height="50" viewBox="0 0 48 50" fill="none" xmlns="http://www.w3.org/2000/svg">
<path d="M3.39001 7.825C3.39001 4.03081 6.46582 0.955002 10.26 0.955002H27.9481C29.7183 0.955002 31.4202 1.63833 32.6989 2.86251L42.4909 12.2369C43.8445 13.5328 44.61 15.3254 44.61 17.1993V42.175C44.61 45.9692 41.5342 49.045 37.74 49.045H10.26C6.46582 49.045 3.39001 45.9692 3.39001 42.175V7.825Z" fill="#DADBE0"/>
<path d="M44.4742 15.84H35.45C32.2881 15.84 29.725 13.2768 29.725 10.115V1.18877C30.8322 1.48526 31.8572 2.05672 32.6989 2.86251L42.4908 12.2369C43.5121 13.2146 44.1987 14.4751 44.4742 15.84Z" fill="#EBECF0"/>
<path d="M44.61 17.5575H35.45C31.3396 17.5575 28.0075 14.2254 28.0075 10.115V0.955246C28.5922 0.960299 29.169 1.03985 29.725 1.18876V10.115C29.725 13.2768 32.2882 15.84 35.45 15.84H44.4742C44.5639 16.2841 44.61 16.7393 44.61 17.1993V17.5575Z" fill="#BABBC5"/>
<path d="M34.6707 37.9009C35.7542 37.9009 36.3811 36.7412 35.7453 35.9128L28.3 26.2116C27.9821 25.7973 27.3284 25.7973 27.0105 26.2116L21.5961 33.2665L18.5857 29.3439C18.2678 28.9297 17.614 28.9297 17.2961 29.3439L12.2548 35.9128C11.619 36.7412 12.2459 37.9009 13.3295 37.9009H34.6707Z" fill="#3A3F4A"/>
<path d="M22.8 23.5006C22.8 24.8261 21.7255 25.9006 20.4 25.9006C19.0745 25.9006 18 24.8261 18 23.5006C18 22.1751 19.0745 21.1006 20.4 21.1006C21.7255 21.1006 22.8 22.1751 22.8 23.5006Z" fill="#3A3F4A"/>
</svg>
