<svg width="24" height="24" viewBox="0 0 24 24" fill="none" xmlns="http://www.w3.org/2000/svg">
<path d="M0 2.5C0 1.11929 1.11929 0 2.5 0H21.5C22.8807 0 24 1.11929 24 2.5V21.5C24 22.8807 22.8807 24 21.5 24H2.5C1.11929 24 0 22.8807 0 21.5V2.5Z" fill="#29A349"/>
<path d="M16.8999 9.34739C16.8999 9.09305 16.6937 8.88687 16.4394 8.88687H9.8078V6.86055C9.8078 6.60621 9.60161 6.40002 9.34727 6.40002C9.09293 6.40002 8.88674 6.60621 8.88674 6.86055V8.88687H6.86043C6.60609 8.88687 6.3999 9.09305 6.3999 9.34739C6.3999 9.60173 6.60609 9.80792 6.86043 9.80792H8.88674V16.4395C8.88674 16.6938 9.09293 16.9 9.34727 16.9C9.60161 16.9 9.8078 16.6938 9.8078 16.4395V9.80792H16.4394C16.6937 9.80792 16.8999 9.60173 16.8999 9.34739Z" fill="white"/>
</svg>
