<svg xmlns="http://www.w3.org/2000/svg" width="24" height="24" viewBox="0 0 24 24">
  <g class="ic-wrench">
    <path fill-rule="evenodd" d="M10.74 3.518a6.89 6.89 0 0 1 7.561-1.473.765.765 0 0 1 .243 1.246l-3.185 3.185.361 1.804 1.804.36 3.185-3.184a.766.766 0 0 1 1.246.243 6.89 6.89 0 0 1-7.688 9.447l-6.234 6.233a3.827 3.827 0 0 1-5.412-5.412l6.233-6.234a6.883 6.883 0 0 1 1.886-6.215Zm5.816-.404A5.352 5.352 0 0 0 11.823 4.6a5.355 5.355 0 0 0-1.388 5.177.766.766 0 0 1-.198.739l-6.534 6.533a2.296 2.296 0 0 0 3.248 3.248l6.533-6.534a.766.766 0 0 1 .74-.198 5.355 5.355 0 0 0 5.176-1.388 5.352 5.352 0 0 0 1.486-4.733l-2.569 2.569a.765.765 0 0 1-.691.209l-2.706-.541a.765.765 0 0 1-.6-.6l-.542-2.707a.765.765 0 0 1 .21-.691l2.568-2.569Z" class="Icon"/>
  </g>
</svg>
