<svg width="24" height="24" viewBox="0 0 24 24" fill="none" xmlns="http://www.w3.org/2000/svg">
<path d="M0 2.5C0 1.11929 1.11929 0 2.5 0H21.5C22.8807 0 24 1.11929 24 2.5V21.5C24 22.8807 22.8807 24 21.5 24H2.5C1.11929 24 0 22.8807 0 21.5V2.5Z" fill="#DADBE0"/>
<path fill-rule="evenodd" clip-rule="evenodd" d="M15.3921 8.92181C14.7154 8.26961 13.6126 8.26961 12.9359 8.92181L9.55758 12.1777C8.51553 13.1819 8.51553 14.8042 9.55758 15.8085C10.6075 16.8203 12.3152 16.8203 13.3651 15.8085L16.338 12.9433C16.4861 12.8006 16.7219 12.805 16.8646 12.9532C17.0072 13.1014 17.0028 13.3372 16.8547 13.48L13.8818 16.3451C12.5435 17.635 10.3792 17.635 9.04087 16.3451C7.69471 15.0478 7.69471 12.9383 9.04087 11.641L12.4192 8.38514C13.3843 7.45495 14.9436 7.45495 15.9088 8.38514C16.8818 9.32287 16.8818 10.8492 15.9088 11.787L12.5305 15.0428C11.9385 15.6134 10.9842 15.6134 10.3922 15.0428C9.79234 14.4647 9.79234 13.5214 10.3922 12.9433L13.3651 10.0782C13.5132 9.93542 13.749 9.93983 13.8917 10.088C14.0343 10.2362 14.0299 10.4721 13.8818 10.6148L10.9089 13.48C10.6132 13.765 10.6132 14.2211 10.9089 14.5061C11.2125 14.7987 11.7102 14.7987 12.0138 14.5061L15.3921 11.2503C16.061 10.6056 16.061 9.56645 15.3921 8.92181Z" fill="#3A3F4A"/>
</svg>
