<svg xmlns="http://www.w3.org/2000/svg" width="24" height="24" viewBox="0 0 24 24">
  <g class="ic-arrow-over-square">
    <path fill-rule="evenodd" d="m17.03 2.78-.97.97h.547c1.547 0 2.967.531 4.028 1.416C21.766 6.109 22.5 7.468 22.5 9A.75.75 0 1 1 21 9c0-1.031-.491-1.986-1.326-2.682-.784-.654-1.862-1.068-3.067-1.068h-.289l.712.712a.75.75 0 0 1-1.06 1.061l-1.91-1.91a1.05 1.05 0 0 1 0-1.484l1.91-1.91a.75.75 0 1 1 1.06 1.061ZM3.75 7.5A2.25 2.25 0 0 0 1.5 9.75v10.5a2.25 2.25 0 0 0 2.25 2.25h10.5a2.25 2.25 0 0 0 2.25-2.25V9.75a2.25 2.25 0 0 0-2.25-2.25H3.75ZM3 9.75A.75.75 0 0 1 3.75 9h10.5a.75.75 0 0 1 .75.75v10.5a.75.75 0 0 1-.75.75H3.75a.75.75 0 0 1-.75-.75V9.75Z" class="Icon"/>
  </g>
</svg>
