<svg xmlns="http://www.w3.org/2000/svg" width="24" height="24" viewBox="0 0 24 24">
  <g class="ic-info-circle">
    <path fill-rule="evenodd" d="M12 21a9 9 0 1 0 0-18 9 9 0 0 0 0 18Zm0 1.5c5.799 0 10.5-4.701 10.5-10.5S17.799 1.5 12 1.5 1.5 6.201 1.5 12 6.201 22.5 12 22.5Zm2.625-6c0 .456-.37.825-.825.825h-3a.825.825 0 0 1 0-1.65h.675v-4.35h-.225a.825.825 0 0 1 0-1.65h1.05a.825.825 0 0 1 .825.825v5.175h.675c.456 0 .825.37.825.825ZM12 8.1A1.05 1.05 0 1 0 12 6a1.05 1.05 0 0 0 0 2.1Z" class="Icon"/>
  </g>
</svg>
