<svg xmlns="http://www.w3.org/2000/svg" width="24" height="24" viewBox="0 0 24 24">
  <g class="ic-lightbulb">
    <path fill-rule="evenodd" d="M16.537 12.927a6 6 0 1 0-9.074 0c.795.917 1.69 2.125 2.083 3.573h4.908c.393-1.448 1.288-2.656 2.083-3.573ZM8.25 18c0-1.55-.906-2.92-1.92-4.091a7.5 7.5 0 1 1 11.341 0C16.656 15.079 15.75 16.45 15.75 18v.75c0 1.233-.454 2.196-1.194 2.842-.723.631-1.66.908-2.556.908-.896 0-1.832-.277-2.556-.908-.74-.646-1.194-1.61-1.194-2.842V18Zm1.5.75V18h4.5v.75c0 .838-.296 1.375-.68 1.712-.402.35-.966.538-1.57.538-.604 0-1.168-.188-1.57-.538-.384-.337-.68-.874-.68-1.712ZM9 8.25A2.25 2.25 0 0 1 11.25 6a.75.75 0 0 0 0-1.5A3.75 3.75 0 0 0 7.5 8.25a.75.75 0 0 0 1.5 0Z" class="Icon"/>
  </g>
</svg>
