<svg xmlns="http://www.w3.org/2000/svg" width="24" height="24" viewBox="0 0 24 24">
  <g class="ic-calendar-today">
    <path fill-rule="evenodd" d="M4.5 2.25v1.006a4.502 4.502 0 0 0-3 4.244V18A4.5 4.5 0 0 0 6 22.5h12a4.5 4.5 0 0 0 4.5-4.5V7.5a4.502 4.502 0 0 0-3-4.244V2.25a.75.75 0 0 0-1.5 0V3H6v-.75a.75.75 0 0 0-1.5 0ZM18 4.5H6a3 3 0 0 0-3 3h18a3 3 0 0 0-3-3ZM3 18V9h18v9a3 3 0 0 1-3 3H6a3 3 0 0 1-3-3Zm3.75-4.5a.75.75 0 1 1 0-1.5.75.75 0 0 1 0 1.5Zm-2.25-.75a2.25 2.25 0 1 1 4.5 0 2.25 2.25 0 0 1-4.5 0Z" class="Icon"/>
  </g>
</svg>
