<svg xmlns="http://www.w3.org/2000/svg" width="24" height="24" viewBox="0 0 24 24">
  <g class="ic-brand-firefox">
    <path d="M9.128 7.39c.007 0 .004 0 0 0ZM6.596 6.124c.007 0 .004 0 0 0Zm15.148 1.954c-.457-1.099-1.383-2.285-2.11-2.66.592 1.159.934 2.322 1.065 3.19l.002.018c-1.189-2.963-3.205-4.158-4.851-6.76-.083-.132-.167-.263-.248-.402a3.193 3.193 0 0 1-.116-.218 1.912 1.912 0 0 1-.163-.434.027.027 0 0 0-.017-.01.035.035 0 0 0-.02 0c-.002 0-.004.002-.005.003-.003 0-.006.003-.008.004a.078.078 0 0 1 .004-.006c-2.337 1.37-3.307 3.767-3.556 5.293a5.602 5.602 0 0 0-2.083.531.269.269 0 0 0-.133.334.264.264 0 0 0 .358.154 5.064 5.064 0 0 1 1.815-.473l.061-.005a5.147 5.147 0 0 1 1.769.2l.085.027a5.263 5.263 0 0 1 .557.207c.072.032.144.066.215.101.032.016.065.032.097.05a5.255 5.255 0 0 1 .333.19 5.382 5.382 0 0 1 1.839 1.902c-.561-.394-1.567-.784-2.535-.615 3.782 1.89 2.766 8.4-2.474 8.155a4.667 4.667 0 0 1-1.368-.264 5.813 5.813 0 0 1-.486-.21c-1.284-.664-2.344-1.918-2.477-3.441 0 0 .485-1.809 3.475-1.809.323 0 1.248-.902 1.265-1.163-.004-.086-1.834-.813-2.548-1.516-.38-.376-.562-.557-.722-.693a3.136 3.136 0 0 0-.272-.206 4.87 4.87 0 0 1-.03-2.57c-1.08.493-1.92 1.27-2.53 1.957h-.006c-.417-.528-.387-2.27-.363-2.634-.005-.022-.311.16-.351.187a7.665 7.665 0 0 0-1.028.88 9.21 9.21 0 0 0-.982 1.177v.002-.002a8.874 8.874 0 0 0-1.41 3.186c-.003.011-.1.44-.172.969l-.034.247a7.048 7.048 0 0 0-.062.602l-.002.031c-.008.117-.015.233-.02.35l-.002.054C1.5 17.794 6.207 22.5 12.014 22.5c5.2 0 9.518-3.775 10.364-8.733.018-.135.032-.27.048-.406.209-1.803-.024-3.698-.682-5.283Z" class="Icon"/>
  </g>
</svg>
