<svg xmlns="http://www.w3.org/2000/svg" width="24" height="24" viewBox="0 0 24 24">
  <g class="ic-globe">
    <path fill-rule="evenodd" d="M10.682 3.096c.182-.027.367-.048.553-.064v8.22l-4.462.008c.185-2.978 1.488-5.906 3.909-8.164ZM5.27 11.263a13.53 13.53 0 0 1 2.612-7.268 9.003 9.003 0 0 0-4.854 7.272l2.242-.004Zm-2.239 1.505 2.24-.005a13.531 13.531 0 0 0 2.612 7.243 9.004 9.004 0 0 1-4.852-7.239Zm3.743-.008 4.46-.008v8.216a9.024 9.024 0 0 1-.552-.064c-2.416-2.253-3.718-5.172-3.908-8.144Zm5.96-.011v8.221a8.99 8.99 0 0 0 .628-.073c2.416-2.257 3.717-5.181 3.902-8.157l-4.53.009Zm6.032-.011a13.529 13.529 0 0 1-2.589 7.236 9.003 9.003 0 0 0 4.793-7.24l-2.204.004Zm2.2-1.505-2.201.005a13.528 13.528 0 0 0-2.588-7.212 9.003 9.003 0 0 1 4.79 7.207Zm-3.703.007-4.528.009v-8.22c.21.018.42.042.627.074 2.41 2.252 3.711 5.169 3.9 8.137ZM10.01 1.688l-.004-.003L10 1.69C5.158 2.624 1.5 6.885 1.5 12c0 5.116 3.658 9.377 8.502 10.31l.005.004.002-.003a10.557 10.557 0 0 0 4.014-.006l.008.01.017-.015c4.819-.953 8.452-5.202 8.452-10.3 0-5.098-3.634-9.348-8.452-10.3l-.016-.015-.009.01a10.554 10.554 0 0 0-4.013-.007Z" class="Icon"/>
  </g>
</svg>
