<svg xmlns="http://www.w3.org/2000/svg" width="24" height="24" viewBox="0 0 24 24">
  <g class="ic-calendar-week">
    <path fill-rule="evenodd" d="M16.5 4.5h-9V2.25a.75.75 0 0 0-1.5 0V4.5A4.5 4.5 0 0 0 1.5 9v9A4.5 4.5 0 0 0 6 22.5h12a4.5 4.5 0 0 0 4.5-4.5V9A4.5 4.5 0 0 0 18 4.5V2.25a.75.75 0 0 0-1.5 0V4.5ZM6 6h3v15H6V6Zm4.5 15h3V6h-3v15Zm-6-14.599V20.6A2.999 2.999 0 0 1 3 18V9a3 3 0 0 1 1.5-2.599ZM15 21V6h3v15h-3Zm4.5-.401A2.999 2.999 0 0 0 21 18V9a3 3 0 0 0-1.5-2.599V20.6Z" class="Icon"/>
  </g>
</svg>
