<svg width="48" height="50" viewBox="0 0 48 50" fill="none" xmlns="http://www.w3.org/2000/svg">
<path d="M3.38989 7.82499C3.38989 4.03079 6.4657 0.954987 10.2599 0.954987H27.948C29.7182 0.954987 31.4201 1.63832 32.6988 2.8625L42.4907 12.2368C43.8444 13.5327 44.6099 15.3254 44.6099 17.1993V42.175C44.6099 45.9692 41.5341 49.045 37.7399 49.045H10.2599C6.4657 49.045 3.38989 45.9692 3.38989 42.175V7.82499Z" fill="#F47425"/>
<path d="M44.4743 15.84H35.4501C32.2883 15.84 29.7251 13.2768 29.7251 10.115V1.18875C30.8323 1.48525 31.8573 2.05671 32.699 2.86249L42.491 12.2368C43.5123 13.2146 44.1988 14.4751 44.4743 15.84Z" fill="#FCA73E"/>
<path d="M44.6101 17.5575H35.4501C31.3397 17.5575 28.0076 14.2254 28.0076 10.115V0.955231C28.5922 0.960284 29.169 1.03984 29.7251 1.18874V10.115C29.7251 13.2768 32.2882 15.84 35.4501 15.84H44.4743C44.5639 16.2841 44.6101 16.7393 44.6101 17.1993V17.5575Z" fill="#DE4F12"/>
<path d="M23.491 23C19.3409 23 16 26.367 16 30.491C16 34.615 19.3409 37.9821 23.491 37.9821C27.615 37.9821 30.9821 34.6411 30.9821 30.491H23.491V23Z" fill="white"/>
<path d="M24.5088 22V29.491H31.9998C31.9998 25.3409 28.6589 22 24.5088 22Z" fill="white"/>
</svg>
