<svg width="129" height="128" viewBox="0 0 129 128" fill="none" xmlns="http://www.w3.org/2000/svg">
<g clip-path="url(#clip0_8635_130242)">
<g filter="url(#filter0_f_8635_130242)">
<ellipse cx="64.5" cy="113" rx="52" ry="3" fill="black" fill-opacity="0.95"/>
</g>
<path fill-rule="evenodd" clip-rule="evenodd" d="M14.4459 39.1854C13.3641 39.0824 12.398 39.862 12.2702 40.9412L3.89707 111.647C3.68578 113.432 5.07956 115 6.87626 115H62.5C62.5 115.552 62.9477 116 63.5 116H66.5C67.0523 116 67.5 115.552 67.5 115H122.168C123.949 115 125.338 113.457 125.151 111.686L117.707 40.9695C117.593 39.8787 116.621 39.0838 115.529 39.1878L65 44.0001L14.4459 39.1854Z" fill="url(#paint0_linear_8635_130242)"/>
<path d="M13.3245 41.6014C13.3859 41.0412 13.4166 40.7611 13.5492 40.5597C13.6659 40.3826 13.8359 40.2471 14.0346 40.173C14.2605 40.0886 14.5404 40.1212 15.1001 40.1864L65 46L108.482 40.2024C109.015 40.1313 109.282 40.0957 109.503 40.1703C109.698 40.2359 109.867 40.3598 109.989 40.5251C110.127 40.7129 110.174 40.9779 110.269 41.5079L122.665 111.119C122.78 111.766 122.838 112.089 122.746 112.341C122.666 112.562 122.51 112.748 122.307 112.866C122.074 113 121.746 113 121.09 113H9.06984C7.83409 113 7.21622 113 6.76531 112.751C6.3693 112.533 6.05899 112.187 5.88503 111.769C5.68696 111.294 5.75427 110.68 5.88889 109.451L13.3245 41.6014Z" fill="#232533"/>
<path d="M15.5 31.5L57.8834 36.2093C60.4 36.4889 61.6583 36.6287 62.6079 37.2092C63.4444 37.7206 64.1121 38.4665 64.5279 39.3544C65 40.3623 65 41.6283 65 44.1603V113C62.6752 112.336 60.2786 111.955 57.8624 111.865L7.5 110L15.5 31.5Z" fill="url(#paint1_linear_8635_130242)"/>
<path d="M114 41L74.1576 37.714C71.1521 37.4662 69.6494 37.3422 68.4903 37.851C67.4719 38.2981 66.6316 39.0719 66.1024 40.0501C65.5 41.1635 65.5 42.6713 65.5 45.687V113C70.1257 111.348 75.02 110.577 79.9296 110.727L121.5 112L114 41Z" fill="url(#paint2_linear_8635_130242)"/>
<path d="M115.5 38.5L83.5 34.5L77.3388 33.5009C70.8696 32.4518 65 37.4463 65 44V108V113C67.4307 108.746 72.1456 106.331 77.018 106.844L88 108L123.5 111L115.5 38.5Z" fill="url(#paint3_linear_8635_130242)"/>
<path d="M13 26L58.6557 35.6579C60.9176 36.1364 62.0486 36.3757 62.8936 36.9753C63.6389 37.5042 64.225 38.2273 64.5882 39.0659C65 40.0167 65 41.1727 65 43.4847V113L61.5 112L4 100.5L13 26Z" fill="url(#paint4_linear_8635_130242)"/>
<path d="M21.5 13L48.4585 27.8736C54.4778 31.1946 57.4875 32.8551 59.6795 35.224C61.6187 37.3197 63.0867 39.8062 63.9848 42.5165C65 45.5801 65 49.0174 65 55.8921V113L63.345 111.621C62.8423 111.202 62.591 110.992 62.3202 110.813C62.0797 110.653 61.828 110.511 61.567 110.387C61.2733 110.248 60.9641 110.141 60.3459 109.926L13 93.5L21.5 13Z" fill="url(#paint5_linear_8635_130242)"/>
<path d="M32 5L50 23L59.4088 31.7816C61.4692 33.7046 62.4995 34.6662 63.2376 35.808C63.892 36.8201 64.3755 37.9328 64.6689 39.1017C65 40.4204 65 41.8297 65 44.6481V110V113C64.5581 112.116 64.3371 111.674 64.0735 111.265C63.5915 110.515 63.0009 109.842 62.3211 109.266C61.9493 108.952 61.54 108.675 60.7213 108.121L45.75 98L24.5 82.5L32 5Z" fill="url(#paint6_linear_8635_130242)"/>
<path d="M91.5099 59.8036C93.3876 59.8221 94.9226 58.538 94.9384 56.9354C94.9542 55.3328 93.4448 54.0186 91.5671 54.0001C89.6895 53.9816 88.1545 55.2658 88.1387 56.8683C88.1229 58.4709 89.6322 59.7851 91.5099 59.8036Z" fill="#B6A4FF"/>
<path d="M86.7169 67.953C84.6889 67.933 83.3356 66.0359 84.3641 64.5695C85.7571 62.4449 88.4557 60.9951 91.5573 61.0256C94.6589 61.0562 97.2693 62.5075 98.6792 64.7107C99.6782 66.2479 98.2882 68.0671 96.2603 68.0471L86.7169 67.953Z" fill="#B6A4FF"/>
<rect x="79.6172" y="75.7803" width="23" height="2" rx="1" transform="rotate(1.10054 79.6172 75.7803)" fill="#666A80"/>
<rect x="81.5215" y="80.8174" width="19" height="2" rx="1" transform="rotate(1.10054 81.5215 80.8174)" fill="#666A80"/>
<rect x="79.4258" y="85.7783" width="23" height="2" rx="1" transform="rotate(1.10054 79.4258 85.7783)" fill="#666A80"/>
<path d="M91.5927 50.751C99.0549 50.815 104.8 55.8087 104.75 61.6143C104.7 67.4199 98.8704 72.3142 91.4082 72.2502C83.9459 72.1861 78.2011 67.1925 78.2509 61.3869C78.3007 55.5813 84.1304 50.6869 91.5927 50.751Z" stroke="#666A80" stroke-width="1.5"/>
</g>
<defs>
<filter id="filter0_f_8635_130242" x="0.5" y="98" width="128" height="30" filterUnits="userSpaceOnUse" color-interpolation-filters="sRGB">
<feFlood flood-opacity="0" result="BackgroundImageFix"/>
<feBlend mode="normal" in="SourceGraphic" in2="BackgroundImageFix" result="shape"/>
<feGaussianBlur stdDeviation="6" result="effect1_foregroundBlur_8635_130242"/>
</filter>
<linearGradient id="paint0_linear_8635_130242" x1="118.5" y1="37.5" x2="-18.4999" y2="131.5" gradientUnits="userSpaceOnUse">
<stop stop-color="#4D5166"/>
<stop offset="1" stop-color="#232533"/>
</linearGradient>
<linearGradient id="paint1_linear_8635_130242" x1="-35" y1="44" x2="110.562" y2="54.9302" gradientUnits="userSpaceOnUse">
<stop stop-color="#666A80"/>
<stop offset="1" stop-color="#232533"/>
</linearGradient>
<linearGradient id="paint2_linear_8635_130242" x1="165.5" y1="44" x2="19.9381" y2="54.9302" gradientUnits="userSpaceOnUse">
<stop stop-color="#666A80"/>
<stop offset="1" stop-color="#232533"/>
</linearGradient>
<linearGradient id="paint3_linear_8635_130242" x1="71" y1="81" x2="65.5" y2="81" gradientUnits="userSpaceOnUse">
<stop stop-color="#9598A6"/>
<stop offset="1" stop-color="#878A99"/>
</linearGradient>
<linearGradient id="paint4_linear_8635_130242" x1="-6" y1="33" x2="74.2886" y2="85.6448" gradientUnits="userSpaceOnUse">
<stop stop-color="#777B8C"/>
<stop offset="1" stop-color="#4D5166"/>
</linearGradient>
<linearGradient id="paint5_linear_8635_130242" x1="15.5" y1="22" x2="111.078" y2="94.8649" gradientUnits="userSpaceOnUse">
<stop stop-color="#878A99"/>
<stop offset="1" stop-color="#666A80"/>
</linearGradient>
<linearGradient id="paint6_linear_8635_130242" x1="53.5" y1="66" x2="64.0089" y2="66.4737" gradientUnits="userSpaceOnUse">
<stop stop-color="#9598A6"/>
<stop offset="1" stop-color="#878A99"/>
</linearGradient>
<clipPath id="clip0_8635_130242">
<rect width="128" height="128" fill="white" transform="translate(0.5)"/>
</clipPath>
</defs>
</svg>
