<svg xmlns="http://www.w3.org/2000/svg" width="24" height="24" viewBox="0 0 24 24">
  <g class="ic-heart">
    <path fill-rule="evenodd" d="M10.792 5.854a4.538 4.538 0 0 0-6.47 0 4.668 4.668 0 0 0-.097 6.446L12 20.658l7.775-8.358a4.668 4.668 0 0 0-.096-6.446 4.538 4.538 0 0 0-6.47 0l-.685.693a.735.735 0 0 1-1.048 0l-.684-.693Zm-7.518-1.06a6.007 6.007 0 0 1 8.565 0l.161.163.16-.162a6.007 6.007 0 0 1 8.566 0c2.315 2.341 2.371 6.12.128 8.532l-8.315 8.937a.737.737 0 0 1-1.078 0l-8.315-8.937C.903 10.915.96 7.137 3.274 4.795Z" class="Icon"/>
  </g>
</svg>
