<svg xmlns="http://www.w3.org/2000/svg" width="24" height="24" viewBox="0 0 24 24">
  <g class="ic-switch-off">
    <path fill-rule="evenodd" d="M7.538 1.5h-.472C6.477 1.5 6 1.97 6 2.55v10.2h.012a1.476 1.476 0 0 0-.012.191V21c0 .828.682 1.5 1.523 1.5h8.374c.84 0 1.522-.672 1.522-1.5v-8.031l4.913-7.605c.396-.614.052-1.394-.608-1.575l-3.86-2.153a1.078 1.078 0 0 0-.525-.136H7.538Zm11.026 2.25L17.219 3h-6.806l1.345.75h6.806Zm-8.208.942-2.833-1.58v6.697l2.833-5.117ZM20.6 5.25h-8.819l-4.258 7.691M20.6 5.251l-4.465 6.912c-.156.24-.238.52-.238.806V21H7.523v-8.059m-.034-.018-.322-.173Zm8.069-5.297c.35.23.444.695.211 1.04l-1.523 2.25a.768.768 0 0 1-1.055.208.743.743 0 0 1-.212-1.04l1.523-2.25a.768.768 0 0 1 1.056-.208ZM12.09 16.5a.756.756 0 0 0-.76.75c0 .414.34.75.76.75s.762-.336.762-.75-.341-.75-.762-.75Zm-2.284.75c0-1.243 1.023-2.25 2.284-2.25 1.262 0 2.284 1.007 2.284 2.25s-1.022 2.25-2.284 2.25c-1.261 0-2.284-1.007-2.284-2.25Z" class="Icon"/>
  </g>
</svg>
