<svg fill="none" height="156" viewBox="0 0 375 156" width="375" xmlns="http://www.w3.org/2000/svg" xmlns:xlink="http://www.w3.org/1999/xlink"><linearGradient id="a" gradientUnits="userSpaceOnUse" x1="187.5" x2="187.5" y1="0" y2="156"><stop offset="0" stop-color="#372580"/><stop offset="1" stop-color="#1b1340"/></linearGradient><radialGradient id="b" cx="0" cy="0" gradientTransform="matrix(153.00022978 153.00022978 -113.49770945 113.49770945 92 38.5)" gradientUnits="userSpaceOnUse" r="1"><stop offset=".190338" stop-color="#6e4bff"/><stop offset=".604207" stop-color="#ff4bad"/><stop offset="1" stop-color="#22d7ff"/></radialGradient><linearGradient id="c" gradientUnits="userSpaceOnUse" x1="144.682" x2="125.006" y1="89.9381" y2="21.5877"><stop offset="0" stop-color="#e3d9ff"/><stop offset="1" stop-color="#7341ff"/></linearGradient><radialGradient id="d" cx="0" cy="0" gradientTransform="matrix(58.6419 0 0 54.9974 172.734 68.8056)" gradientUnits="userSpaceOnUse" r="1"><stop offset=".5561" stop-color="#6d4aff"/><stop offset=".9944" stop-color="#aa8eff"/></radialGradient><linearGradient id="e" gradientUnits="userSpaceOnUse" x1="200.307" x2="155.35" y1="132.304" y2="34.929"><stop offset=".271" stop-color="#e3d9ff"/><stop offset="1" stop-color="#7341ff"/></linearGradient><path d="m0 0h375v156h-375z" fill="#e5e5e5"/><path d="m0 0h375v156h-375z" fill="url(#a)"/><path d="m98 75.2c0-17.9217 0-26.8825 3.488-33.7277 3.068-6.0212 7.963-10.9166 13.984-13.9845 6.845-3.4878 15.806-3.4878 33.728-3.4878h85.6c17.922 0 26.883 0 33.728 3.4878 6.021 3.0679 10.916 7.9633 13.984 13.9845 3.488 6.8452 3.488 15.806 3.488 33.7277v5.6c0 17.9217 0 26.883-3.488 33.728-3.068 6.021-7.963 10.916-13.984 13.984-6.845 3.488-15.806 3.488-33.728 3.488h-85.6c-17.922 0-26.883 0-33.728-3.488-6.021-3.068-10.916-7.963-13.984-13.984-3.488-6.845-3.488-15.8063-3.488-33.728z" fill="url(#b)"/><path d="m257 75c1.657 0 3 1.3431 3 3v2c0 1.6569-1.343 3-3 3h-30c-1.657 0-3-1.3431-3-3v-2c0-1.6569 1.343-3 3-3z" fill="#fff"/><path d="m246 94c0 1.6569-1.343 3-3 3h-2c-1.657 0-3-1.3431-3-3v-30c0-1.6569 1.343-3 3-3h2c1.657 0 3 1.3431 3 3z" fill="#fff"/><path d="m104 56.6667c0-14.7276 11.939-26.6667 26.667-26.6667h42.666c14.728 0 26.667 11.9391 26.667 26.6667v42.6666c0 14.7277-11.939 26.6667-26.667 26.6667h-42.666c-14.728 0-26.667-11.939-26.667-26.6667z" fill="#fff"/><path clip-rule="evenodd" d="m159.92 71.5181.004.0026-16.305 18.0983-20.952-23.0625v-9.9481c0-1.1424 1.331-1.7674 2.21-1.0376l23.246 19.3047c2.248 1.8667 5.507 1.8667 7.755 0z" fill="url(#c)" fill-rule="evenodd"/><path d="m168.762 64.1755-8.842 7.3427.004.0026-11.707 10.3411c-1.994 1.7615-4.975 1.8059-7.021.1045l-18.529-15.4098v29.565c0 3.3518 2.717 5.8784 6.069 5.8784h40.026l4.191-18.817z" fill="url(#d)"/><g clip-rule="evenodd" fill-rule="evenodd"><path d="m168.762 64.1829v37.8171h6.503c3.352 0 6.069-2.7174 6.069-6.069v-39.3226c0-1.1424-1.332-1.7675-2.21-1.0375z" fill="url(#e)"/><path d="m309.5 100c.46 0 .833-.3731.833-.8333v-3.8333h3.834c.46 0 .833-.3731.833-.8334v-1c0-.4602-.373-.8333-.833-.8333h-3.834v-3.8334c0-.4602-.373-.8333-.833-.8333h-1c-.46 0-.833.3731-.833.8333v3.8334h-3.834c-.46 0-.833.3731-.833.8333v1c0 .4603.373.8334.833.8334h3.834v3.8333c0 .4602.373.8333.833.8333z" fill="#625ac1"/><path d="m332.056 71c.46 0 .833-.3731.833-.8333v-2.2778h2.278c.46 0 .833-.3731.833-.8333v-.1111c0-.4603-.373-.8334-.833-.8334h-2.278v-2.2778c0-.4602-.373-.8333-.833-.8333h-.112c-.46 0-.833.3731-.833.8333v2.2778h-2.278c-.46 0-.833.3731-.833.8334v.1111c0 .4602.373.8333.833.8333h2.278v2.2778c0 .4602.373.8333.833.8333z" fill="#3e3693"/><path d="m74.7778 67c.4602 0 .8333-.3731.8333-.8333v-3.0556h3.0556c.4602 0 .8333-.3731.8333-.8333v-.5556c0-.4602-.3731-.8333-.8333-.8333h-3.0556v-3.0556c0-.4602-.3731-.8333-.8333-.8333h-.5556c-.4602 0-.8333.3731-.8333.8333v3.0556h-3.0556c-.4602 0-.8333.3731-.8333.8333v.5556c0 .4602.3731.8333.8333.8333h3.0556v3.0556c0 .4602.3731.8333.8333.8333z" fill="#3e3693"/></g></svg>