<svg width="48" height="48" viewBox="0 0 48 48" fill="none" xmlns="http://www.w3.org/2000/svg">
<path fill-rule="evenodd" clip-rule="evenodd" d="M5.71428 10.2153L24 3L42.2857 10.2153C42.8676 10.4449 43.25 11.0068 43.25 11.6324V17.6335C43.25 22.9768 41.8561 28.2276 39.2059 32.8674C35.9006 38.6543 30.5235 42.9723 24.1595 44.9504L24 45L23.8405 44.9504C17.4765 42.9723 12.0994 38.6543 8.79405 32.8674C6.14391 28.2276 4.75 22.9768 4.75 17.6335V11.6324C4.75 11.0068 5.1324 10.4449 5.71428 10.2153Z" fill="url(#paint0_linear_18573_97396)"/>
<path d="M17 28.7919V34H20.6557V29.0178C20.6557 28.533 20.8482 28.0681 21.191 27.7253C21.5338 27.3825 21.9987 27.1899 22.4835 27.1899H26.2318C27.0978 27.1899 27.9553 27.0194 28.7554 26.6879C29.5555 26.3565 30.2825 25.8707 30.8948 25.2584C31.5072 24.646 31.9929 23.919 32.3242 23.1189C32.6556 22.3188 32.8261 21.4612 32.826 20.5952V20.5952C32.8262 19.7292 32.6557 18.8716 32.3244 18.0714C31.993 17.2713 31.5073 16.5442 30.895 15.9318C30.2826 15.3193 29.5557 14.8335 28.7556 14.502C27.9554 14.1706 27.0979 14 26.2318 14H17V20.5101H20.6557V17.4403H25.9844C26.8119 17.4403 27.6055 17.769 28.1907 18.3541C28.7758 18.9391 29.1046 19.7327 29.1048 20.5602V20.5602C29.1048 21.3877 28.776 22.1814 28.1908 22.7666C27.6057 23.3518 26.812 23.6805 25.9844 23.6805H22.1099C21.4387 23.6802 20.774 23.8123 20.1538 24.0691C19.5336 24.3259 18.9701 24.7024 18.4955 25.1771C18.021 25.6518 17.6446 26.2154 17.388 26.8357C17.1314 27.4559 16.9995 28.1207 17 28.7919V28.7919Z" fill="white"/>
<path d="M44.0106 0.331308L43.3849 1.89558C43.2957 2.11879 43.1188 2.29565 42.8956 2.38494L41.3313 3.01065C40.8896 3.18735 40.8896 3.81265 41.3313 3.98935L42.8956 4.61506C43.1188 4.70435 43.2957 4.88121 43.3849 5.10441L44.0106 6.66869C44.1873 7.11044 44.8127 7.11044 44.9894 6.66869L45.6151 5.10441C45.7043 4.88121 45.8812 4.70435 46.1044 4.61506L47.6687 3.98935C48.1104 3.81265 48.1104 3.18734 47.6687 3.01065L46.1044 2.38494C45.8812 2.29565 45.7043 2.11879 45.6151 1.89558L44.9894 0.331307C44.8127 -0.110436 44.1873 -0.110435 44.0106 0.331308Z" fill="#EDEEF1"/>
<path d="M5 40C6.10457 40 7 39.1046 7 38C7 36.8954 6.10457 36 5 36C3.89543 36 3 36.8954 3 38C3 39.1046 3.89543 40 5 40Z" fill="#EDEEF1"/>
<defs>
<linearGradient id="paint0_linear_18573_97396" x1="49.25" y1="37" x2="7.48897" y2="-5.98929" gradientUnits="userSpaceOnUse">
<stop stop-color="#6D4AFF"/>
<stop offset="1" stop-color="#B896FF"/>
</linearGradient>
</defs>
</svg>
