<svg width="48" height="50" viewBox="0 0 48 50" fill="none" xmlns="http://www.w3.org/2000/svg">
<path d="M3.39001 7.82502C3.39001 4.03082 6.46582 0.955017 10.26 0.955017H27.9481C29.7183 0.955017 31.4202 1.63835 32.6989 2.86253L42.4909 12.2369C43.8445 13.5328 44.61 15.3254 44.61 17.1994V42.175C44.61 45.9692 41.5342 49.045 37.74 49.045H10.26C6.46582 49.045 3.39001 45.9692 3.39001 42.175V7.82502Z" fill="#DADBE0"/>
<path d="M44.4742 15.84H35.45C32.2881 15.84 29.725 13.2768 29.725 10.115V1.18878C30.8322 1.48528 31.8572 2.05674 32.6989 2.86252L42.4908 12.2369C43.5121 13.2146 44.1987 14.4751 44.4742 15.84Z" fill="#EBECF0"/>
<path d="M44.61 17.5575H35.45C31.3396 17.5575 28.0075 14.2254 28.0075 10.115V0.955261C28.5922 0.960314 29.169 1.03987 29.725 1.18877V10.115C29.725 13.2768 32.2882 15.84 35.45 15.84H44.4742C44.5639 16.2841 44.61 16.7393 44.61 17.1993V17.5575Z" fill="#BABBC5"/>
<path d="M31.0629 26.383C32.3124 27.1134 32.3124 28.8551 31.0629 29.5855L20.8966 35.7094C19.5903 36.4959 18 35.597 18 34.0801V21.8884C18 20.4277 19.6471 19.5288 20.8966 20.2591L31.0629 26.383Z" fill="#3A3F4A"/>
</svg>
