<svg xmlns="http://www.w3.org/2000/svg" width="24" height="24" viewBox="0 0 24 24">
  <g class="ic-checkmark-triple">
    <path fill-rule="evenodd" d="M18.154 1.718a.75.75 0 0 1 .003 1.061L11.61 9.362a1.05 1.05 0 0 1-1.492-.003L6.59 5.779a.75.75 0 0 1 1.068-1.054l3.21 3.257 6.224-6.26a.75.75 0 0 1 1.06-.004Zm-.003 12.753c.295.29.3.766.009 1.061l-6.543 6.654a1.05 1.05 0 0 1-1.504-.006l-3.527-3.651a.75.75 0 0 1 1.078-1.043l3.207 3.319 6.22-6.325a.75.75 0 0 1 1.06-.009Zm.007-4.94a.75.75 0 0 0-1.066-1.055L10.87 14.77l-3.208-3.29a.75.75 0 1 0-1.074 1.048l3.528 3.618a1.05 1.05 0 0 0 1.498.005l6.544-6.62Z" class="Icon"/>
  </g>
</svg>
