<svg xmlns="http://www.w3.org/2000/svg" width="24" height="24" viewBox="0 0 24 24">
  <g class="ic-forward">
    <path fill-rule="evenodd" d="M12.47 3.063a.75.75 0 0 1 .809.135l8.978 8.25a.75.75 0 0 1 0 1.104l-8.978 8.25a.75.75 0 0 1-1.258-.552v-4.53c-1.61.016-5.796.518-9.1 4.947a.769.769 0 0 1-1.137.104.762.762 0 0 1-.238-.486c-.024-.26-.135-1.664.11-3.383.242-1.706.848-3.823 2.337-5.414 1.342-1.435 3.185-2.22 4.784-2.656a17.35 17.35 0 0 1 3.244-.549V3.75a.75.75 0 0 1 .449-.687Zm1.051 2.395V8.7a1.06 1.06 0 0 1-1.014 1.058c-.554.023-1.873.122-3.335.521-1.473.402-3.012 1.088-4.084 2.233-1.185 1.267-1.724 3.028-1.947 4.601-.057.395-.092.771-.113 1.117 3.873-3.989 8.33-4.06 9.518-4 .576.03.975.51.975 1.035v3.277L20.641 12l-7.12-6.542Z" class="Icon"/>
  </g>
</svg>
