<svg xmlns="http://www.w3.org/2000/svg" width="24" height="24" viewBox="0 0 24 24">
  <g class="ic-cog-wheel">
    <g class="Icon">
      <path fill-rule="evenodd" d="m1.919 14.065 1.676.532c.297.094.528.323.648.61.12.289.12.617-.025.894l-.814 1.566a.6.6 0 0 0 .107.701l2.118 2.119a.6.6 0 0 0 .701.108l1.565-.815c.277-.144.605-.146.894-.025.286.12.515.351.608.647l.532 1.68a.6.6 0 0 0 .572.418h2.985a.6.6 0 0 0 .572-.419l.532-1.679c.093-.296.322-.527.608-.647.289-.12.617-.12.894.025l1.565.815a.6.6 0 0 0 .701-.108l2.117-2.119a.6.6 0 0 0 .108-.7l-.816-1.57a1.048 1.048 0 0 1-.025-.888 1.05 1.05 0 0 1 .65-.607l1.686-.523a.6.6 0 0 0 .422-.573V10.52a.6.6 0 0 0-.419-.572l-1.676-.532a1.059 1.059 0 0 1-.648-.61c-.12-.289-.12-.617.025-.894l.814-1.566a.6.6 0 0 0-.108-.701l-2.117-2.119a.6.6 0 0 0-.701-.108l-1.566.815a1.052 1.052 0 0 1-.892.025 1.055 1.055 0 0 1-.608-.647l-.533-1.691a.6.6 0 0 0-.572-.42h-2.985a.6.6 0 0 0-.572.419l-.532 1.68a1.057 1.057 0 0 1-.608.646c-.289.12-.617.12-.894-.025l-1.564-.815a.6.6 0 0 0-.7.107L3.513 5.63a.6.6 0 0 0-.11.702L4.218 7.9c.144.277.146.605.025.894-.12.287-.351.516-.648.61l-1.676.532a.6.6 0 0 0-.419.572v2.986a.6.6 0 0 0 .419.572ZM21 11.18l-1.049-.333a2.558 2.558 0 0 1-1.578-1.462 2.555 2.555 0 0 1 .078-2.164l.51-.981-1.184-1.186-.98.51a2.551 2.551 0 0 1-2.164.08 2.554 2.554 0 0 1-1.46-1.581L12.84 3h-1.666l-.333 1.051c-.24.76-.81 1.306-1.46 1.578a2.554 2.554 0 0 1-2.165-.079l-.98-.51L5.04 6.226l.509.98c.37.71.352 1.508.078 2.164a2.558 2.558 0 0 1-1.578 1.462L3 11.165v1.67l1.049.332c.76.241 1.307.812 1.578 1.462a2.555 2.555 0 0 1-.078 2.165l-.51.98 1.184 1.186.979-.51a2.554 2.554 0 0 1 2.165-.079c.65.272 1.22.819 1.46 1.578L11.16 21h1.667l.333-1.051c.24-.76.81-1.306 1.46-1.578a2.554 2.554 0 0 1 2.165.079l.979.51 1.184-1.186-.512-.984a2.548 2.548 0 0 1-.078-2.158 2.55 2.55 0 0 1 1.59-1.462L21 12.844v-1.665Z"/>
      <path fill-rule="evenodd" d="M12 9a3 3 0 1 0 0 6 3 3 0 0 0 0-6Zm-4.5 3a4.5 4.5 0 1 1 9 0 4.5 4.5 0 0 1-9 0Z"/>
    </g>
  </g>
</svg>
