<svg xmlns="http://www.w3.org/2000/svg" width="24" height="24" viewBox="0 0 24 24">
  <g class="ic-file-arrow-in-up">
    <path fill-rule="evenodd" d="M6.75 3A2.25 2.25 0 0 0 4.5 5.25v13.5A2.25 2.25 0 0 0 6.75 21H9v1.5H6.75A3.75 3.75 0 0 1 3 18.75V5.25A3.75 3.75 0 0 1 6.75 1.5h7.007a3.75 3.75 0 0 1 2.652 1.098l3.493 3.493A3.75 3.75 0 0 1 21 8.743V18.75a3.75 3.75 0 0 1-3.75 3.75H15V21h2.25a2.25 2.25 0 0 0 2.25-2.25V9h-3.75a2.25 2.25 0 0 1-2.25-2.25V3H6.75Zm8.25.374V6.75c0 .414.336.75.75.75h3.376a2.249 2.249 0 0 0-.285-.348l-3.493-3.493A2.25 2.25 0 0 0 15 3.374Zm-3.742 7.558a1.05 1.05 0 0 1 1.485 0l2.787 2.788a.75.75 0 0 1-1.06 1.06l-1.72-1.72v8.69a.75.75 0 0 1-1.5 0v-8.69l-1.72 1.72a.75.75 0 1 1-1.06-1.06l2.787-2.788Z" class="Icon"/>
  </g>
</svg>
