<svg width="375" height="160" viewBox="0 0 375 160" fill="none" xmlns="http://www.w3.org/2000/svg">
<mask id="mask0_25198_36011" style="mask-type:alpha" maskUnits="userSpaceOnUse" x="0" y="0" width="375" height="160">
<path d="M0 8C0 3.58172 3.58172 0 8 0H367C371.418 0 375 3.58172 375 8V160H0V8Z" fill="#F5F4F2"/>
</mask>
<g mask="url(#mask0_25198_36011)">
<path d="M144 61C144 52.1634 151.163 45 160 45H216C224.837 45 232 52.1634 232 61V186C232 194.837 224.837 202 216 202H160C151.163 202 144 194.837 144 186V61Z" fill="url(#paint0_linear_25198_36011)"/>
<rect x="148" y="49" width="80" height="148" rx="12.56" fill="#E0DBD0"/>
<mask id="mask1_25198_36011" style="mask-type:alpha" maskUnits="userSpaceOnUse" x="148" y="49" width="80" height="149">
<rect x="148" y="49" width="80" height="148.467" rx="12.56" fill="#E0DBD0"/>
</mask>
<g mask="url(#mask1_25198_36011)">
<path fill-rule="evenodd" clip-rule="evenodd" d="M245.759 66H136.995C137.017 60.1443 137.194 56.9198 138.593 54.4229C139.725 52.4019 141.393 50.7333 143.414 49.6014C146.274 48 150.088 48 157.715 48H225.039C232.666 48 236.48 48 239.34 49.6014C241.361 50.7333 243.029 52.4019 244.161 54.4229C245.56 56.9198 245.737 60.1443 245.759 66Z" fill="white"/>
</g>
<path d="M170.84 48.47H204.97L201.934 53.3283C201.169 54.5524 199.827 55.2961 198.383 55.2961H177.426C175.983 55.2961 174.641 54.5524 173.876 53.3283L170.84 48.47Z" fill="#585472"/>
<g opacity="0.9">
<path d="M150 78.6315C150 76.5588 150 75.5224 150.435 74.7454C150.743 74.1962 151.196 73.7427 151.745 73.4352C152.522 73 153.559 73 155.632 73H219.368C221.441 73 222.478 73 223.255 73.4352C223.804 73.7427 224.257 74.1962 224.565 74.7454C225 75.5224 225 76.5588 225 78.6315V129.368C225 131.441 225 132.478 224.565 133.255C224.257 133.804 223.804 134.257 223.255 134.565C222.478 135 221.441 135 219.368 135H155.632C153.559 135 152.522 135 151.745 134.565C151.196 134.257 150.743 133.804 150.435 133.255C150 132.478 150 131.441 150 129.368V78.6315Z" fill="white"/>
<rect x="153.774" y="77.2661" width="8.53261" height="8.53261" rx="1.70652" fill="#D8D3CF"/>
<path d="M167 81.5C167 80.6716 167.672 80 168.5 80H180.5C181.328 80 182 80.6716 182 81.5C182 82.3284 181.328 83 180.5 83H168.5C167.672 83 167 82.3284 167 81.5Z" fill="#D8D3CF"/>
<rect x="154" y="98" width="50" height="17" rx="2" fill="#F5F4F2"/>
<rect x="211" y="80" width="10" height="3" rx="1.5" fill="#D8D3CF"/>
<path opacity="0.5" d="M150 90H225V91H150V90Z" fill="#D8D3CF"/>
</g>
<g filter="url(#filter0_dd_25198_36011)">
<path d="M140 78.6315C140 76.5588 140 75.5224 140.435 74.7454C140.743 74.1962 141.196 73.7427 141.745 73.4352C142.522 73 143.559 73 145.632 73H209.368C211.441 73 212.478 73 213.255 73.4352C213.804 73.7427 214.257 74.1962 214.565 74.7454C215 75.5224 215 76.5588 215 78.6315V129.368C215 131.441 215 132.478 214.565 133.255C214.257 133.804 213.804 134.257 213.255 134.565C212.478 135 211.441 135 209.368 135H145.632C143.559 135 142.522 135 141.745 134.565C141.196 134.257 140.743 133.804 140.435 133.255C140 132.478 140 131.441 140 129.368V78.6315Z" fill="white"/>
<rect x="143.774" y="77.2661" width="8.53261" height="8.53261" rx="1.70652" fill="#D8D3CF"/>
<path d="M157 81.5C157 80.6716 157.672 80 158.5 80H181.5C182.328 80 183 80.6716 183 81.5C183 82.3284 182.328 83 181.5 83H158.5C157.672 83 157 82.3284 157 81.5Z" fill="#D8D3CF"/>
<rect x="144" y="97" width="20" height="3" rx="1.5" fill="#D8D3CF"/>
<path d="M144 106.5C144 105.672 144.672 105 145.5 105H171.5C172.328 105 173 105.672 173 106.5C173 107.328 172.328 108 171.5 108H145.5C144.672 108 144 107.328 144 106.5Z" fill="#D8D3CF"/>
<path d="M178 105.921C178 105.412 178.412 105 178.921 105H191.5C192.328 105 193 105.672 193 106.5C193 107.328 192.328 108 191.5 108H178.921C178.412 108 178 107.588 178 107.079V105.921Z" fill="#D8D3CF"/>
<rect x="201" y="80" width="10" height="3" rx="1.5" fill="#D8D3CF"/>
<path opacity="0.5" d="M140 90H215V91H140V90Z" fill="#D8D3CF"/>
</g>
<g filter="url(#filter1_dd_25198_36011)">
<path d="M126.165 85.5286C125.805 83.4874 125.625 82.4668 125.918 81.6259C126.126 81.0317 126.494 80.5064 126.981 80.1082C127.671 79.5447 128.691 79.3647 130.733 79.0048L193.501 67.937C195.542 67.577 196.563 67.3971 197.404 67.6907C197.998 67.8982 198.523 68.266 198.922 68.7535C199.485 69.4432 199.665 70.4638 200.025 72.505L208.836 122.471C209.195 124.512 209.375 125.533 209.082 126.374C208.874 126.968 208.506 127.493 208.019 127.892C207.329 128.455 206.309 128.635 204.267 128.995L141.499 140.063C139.458 140.423 138.437 140.603 137.596 140.309C137.002 140.102 136.477 139.734 136.078 139.246C135.515 138.557 135.335 137.536 134.975 135.495L126.165 85.5286Z" fill="white"/>
<rect x="129.645" y="83.5286" width="8.53261" height="8.53261" rx="1.70652" transform="rotate(-10 129.645 83.5286)" fill="#D8D3CF"/>
<path d="M143.404 85.4015C143.261 84.5857 143.805 83.8077 144.621 83.6638L167.272 79.6699C168.088 79.5261 168.866 80.0708 169.009 80.8867C169.153 81.7025 168.608 82.4805 167.793 82.6244L145.142 86.6183C144.326 86.7621 143.548 86.2174 143.404 85.4015Z" fill="#D8D3CF"/>
<rect x="133.293" y="102.923" width="20" height="3" rx="1.5" transform="rotate(-10 133.293 102.923)" fill="#D8D3CF"/>
<path d="M134.943 112.279C134.799 111.463 135.344 110.685 136.16 110.541L161.765 106.027C162.581 105.883 163.359 106.427 163.503 107.243C163.646 108.059 163.102 108.837 162.286 108.981L136.681 113.496C135.865 113.64 135.087 113.095 134.943 112.279Z" fill="#D8D3CF"/>
<path d="M168.326 105.805C168.238 105.304 168.572 104.826 169.073 104.738L181.461 102.554C182.277 102.41 183.055 102.954 183.199 103.77C183.343 104.586 182.798 105.364 181.982 105.508L169.594 107.692C169.093 107.781 168.615 107.446 168.527 106.945L168.326 105.805Z" fill="#D8D3CF"/>
<rect x="186.475" y="76.2838" width="10" height="3" rx="1.5" transform="rotate(-10 186.475 76.2838)" fill="#D8D3CF"/>
<path opacity="0.5" d="M128.139 96.7244L201.999 83.7008L202.173 84.6856L128.312 97.7092L128.139 96.7244Z" fill="#D8D3CF"/>
</g>
<path opacity="0.45" d="M130.327 60.7667C132.747 60.7667 134.71 58.8042 134.71 56.3834C134.71 53.9625 132.747 52 130.327 52C127.906 52 125.943 53.9625 125.943 56.3834C125.943 58.8042 127.906 60.7667 130.327 60.7667Z" fill="#D2D4DC"/>
<path opacity="0.45" d="M246.383 135.767C248.804 135.767 250.767 133.804 250.767 131.383C250.767 128.962 248.804 127 246.383 127C243.962 127 242 128.962 242 131.383C242 133.804 243.962 135.767 246.383 135.767Z" fill="#D2D4DC"/>
<path opacity="0.45" d="M118.054 82.684L111.04 80.0938L107.812 78.8984L106.617 75.6706L104.027 68.6572L101.437 75.6706L100.241 78.8984L97.0134 80.0938L90 82.684L97.0134 85.2742L100.241 86.4696L101.437 89.6974L104.027 96.7107L106.617 89.6974L107.812 86.4696L111.04 85.2742L118.054 82.684Z" fill="#D2D4DC"/>
<path opacity="0.45" d="M278.054 112.684L271.04 110.094L267.812 108.898L266.617 105.671L264.027 98.6572L261.437 105.671L260.241 108.898L257.013 110.094L250 112.684L257.013 115.274L260.241 116.47L261.437 119.697L264.027 126.711L266.617 119.697L267.812 116.47L271.04 115.274L278.054 112.684Z" fill="#D2D4DC"/>
</g>
<defs>
<filter id="filter0_dd_25198_36011" x="132" y="69" width="91" height="78" filterUnits="userSpaceOnUse" color-interpolation-filters="sRGB">
<feFlood flood-opacity="0" result="BackgroundImageFix"/>
<feColorMatrix in="SourceAlpha" type="matrix" values="0 0 0 0 0 0 0 0 0 0 0 0 0 0 0 0 0 0 127 0" result="hardAlpha"/>
<feOffset/>
<feGaussianBlur stdDeviation="0.5"/>
<feColorMatrix type="matrix" values="0 0 0 0 0 0 0 0 0 0 0 0 0 0 0 0 0 0 0.05 0"/>
<feBlend mode="normal" in2="BackgroundImageFix" result="effect1_dropShadow_25198_36011"/>
<feColorMatrix in="SourceAlpha" type="matrix" values="0 0 0 0 0 0 0 0 0 0 0 0 0 0 0 0 0 0 127 0" result="hardAlpha"/>
<feOffset dy="4"/>
<feGaussianBlur stdDeviation="4"/>
<feColorMatrix type="matrix" values="0 0 0 0 0 0 0 0 0 0 0 0 0 0 0 0 0 0 0.1 0"/>
<feBlend mode="normal" in2="effect1_dropShadow_25198_36011" result="effect2_dropShadow_25198_36011"/>
<feBlend mode="normal" in="SourceGraphic" in2="effect2_dropShadow_25198_36011" result="shape"/>
</filter>
<filter id="filter1_dd_25198_36011" x="117.771" y="63.5438" width="99.4572" height="88.9121" filterUnits="userSpaceOnUse" color-interpolation-filters="sRGB">
<feFlood flood-opacity="0" result="BackgroundImageFix"/>
<feColorMatrix in="SourceAlpha" type="matrix" values="0 0 0 0 0 0 0 0 0 0 0 0 0 0 0 0 0 0 127 0" result="hardAlpha"/>
<feOffset/>
<feGaussianBlur stdDeviation="0.5"/>
<feColorMatrix type="matrix" values="0 0 0 0 0 0 0 0 0 0 0 0 0 0 0 0 0 0 0.05 0"/>
<feBlend mode="normal" in2="BackgroundImageFix" result="effect1_dropShadow_25198_36011"/>
<feColorMatrix in="SourceAlpha" type="matrix" values="0 0 0 0 0 0 0 0 0 0 0 0 0 0 0 0 0 0 127 0" result="hardAlpha"/>
<feOffset dy="4"/>
<feGaussianBlur stdDeviation="4"/>
<feColorMatrix type="matrix" values="0 0 0 0 0 0 0 0 0 0 0 0 0 0 0 0 0 0 0.1 0"/>
<feBlend mode="normal" in2="effect1_dropShadow_25198_36011" result="effect2_dropShadow_25198_36011"/>
<feBlend mode="normal" in="SourceGraphic" in2="effect2_dropShadow_25198_36011" result="shape"/>
</filter>
<linearGradient id="paint0_linear_25198_36011" x1="184.924" y1="-16.6786" x2="184.924" y2="225" gradientUnits="userSpaceOnUse">
<stop stop-color="#6B6282"/>
<stop offset="1" stop-color="#1D2340"/>
</linearGradient>
</defs>
</svg>
