<svg xmlns="http://www.w3.org/2000/svg" width="24" height="24" viewBox="0 0 24 24">
  <g class="ic-briefcase">
    <path fill-rule="evenodd" d="M10.5 3A1.5 1.5 0 0 0 9 4.5h6A1.5 1.5 0 0 0 13.5 3h-3Zm0-1.5a3 3 0 0 0-3 3h-3a3 3 0 0 0-3 3v12a3 3 0 0 0 3 3h15a3 3 0 0 0 3-3v-12a3 3 0 0 0-3-3h-3a3 3 0 0 0-3-3h-3ZM9 6h10.5A1.5 1.5 0 0 1 21 7.5V9a3 3 0 0 1-3 3H6a3 3 0 0 1-3-3V7.5A1.5 1.5 0 0 1 4.5 6H9Zm0 7.5H6a4.484 4.484 0 0 1-3-1.146V19.5A1.5 1.5 0 0 0 4.5 21h15a1.5 1.5 0 0 0 1.5-1.5v-7.146a4.484 4.484 0 0 1-3 1.146h-3a2.25 2.25 0 0 1-2.25 2.25h-1.5A2.25 2.25 0 0 1 9 13.5Zm4.5 0h-3c0 .414.336.75.75.75h1.5a.75.75 0 0 0 .75-.75Z" class="Icon"/>
  </g>
</svg>
