<svg xmlns="http://www.w3.org/2000/svg" width="24" height="24" viewBox="0 0 24 24">
  <g class="ic-buildings">
    <path fill-rule="evenodd" d="M12 4.5H3V21h3v-2.25a.75.75 0 0 1 .75-.75h1.5a.75.75 0 0 1 .75.75V21h3V4.5Zm-10.5 18h21v-9A1.5 1.5 0 0 0 21 12h-7.5V4.5A1.5 1.5 0 0 0 12 3H3a1.5 1.5 0 0 0-1.5 1.5v18ZM21 21h-7.5v-7.5H21V21ZM4.95 6a.45.45 0 0 0-.45.45v.6c0 .249.201.45.45.45h.6A.45.45 0 0 0 6 7.05v-.6A.45.45 0 0 0 5.55 6h-.6ZM4.5 9.45A.45.45 0 0 1 4.95 9h.6a.45.45 0 0 1 .45.45v.6a.45.45 0 0 1-.45.45h-.6a.45.45 0 0 1-.45-.45v-.6ZM4.95 12a.45.45 0 0 0-.45.45v.6c0 .248.201.45.45.45h.6a.45.45 0 0 0 .45-.45v-.6a.45.45 0 0 0-.45-.45h-.6Zm-.45 3.45a.45.45 0 0 1 .45-.45h.6a.45.45 0 0 1 .45.45v.6a.45.45 0 0 1-.45.45h-.6a.45.45 0 0 1-.45-.45v-.6ZM9.45 6a.45.45 0 0 0-.45.45v.6c0 .249.201.45.45.45h.6a.45.45 0 0 0 .45-.45v-.6a.45.45 0 0 0-.45-.45h-.6ZM9 9.45A.45.45 0 0 1 9.45 9h.6a.45.45 0 0 1 .45.45v.6a.45.45 0 0 1-.45.45h-.6a.45.45 0 0 1-.45-.45v-.6ZM9.45 12a.45.45 0 0 0-.45.45v.6c0 .248.201.45.45.45h.6a.45.45 0 0 0 .45-.45v-.6a.45.45 0 0 0-.45-.45h-.6ZM9 15.45a.45.45 0 0 1 .45-.45h.6a.45.45 0 0 1 .45.45v.6a.45.45 0 0 1-.45.45h-.6a.45.45 0 0 1-.45-.45v-.6Zm6.45-.45a.45.45 0 0 0-.45.45v.6c0 .248.201.45.45.45h.6a.45.45 0 0 0 .45-.45v-.6a.45.45 0 0 0-.45-.45h-.6ZM15 18.45a.45.45 0 0 1 .45-.45h.6a.45.45 0 0 1 .45.45v.6a.45.45 0 0 1-.45.45h-.6a.45.45 0 0 1-.45-.45v-.6ZM18.45 15a.45.45 0 0 0-.45.45v.6c0 .248.201.45.45.45h.6a.45.45 0 0 0 .45-.45v-.6a.45.45 0 0 0-.45-.45h-.6ZM18 18.45a.45.45 0 0 1 .45-.45h.6a.45.45 0 0 1 .45.45v.6a.45.45 0 0 1-.45.45h-.6a.45.45 0 0 1-.45-.45v-.6Z" class="Icon"/>
  </g>
</svg>
