<svg xmlns="http://www.w3.org/2000/svg" width="24" height="24" viewBox="0 0 24 24">
  <g class="ic-star-filled">
    <path d="M11.252 2.682c.323-.576 1.173-.576 1.496 0l2.773 4.943a.85.85 0 0 0 .59.418l5.693 1.036c.663.121.926.907.462 1.383l-3.978 4.092a.814.814 0 0 0-.226.675l.745 5.585c.087.65-.6 1.136-1.21.855l-5.232-2.415a.873.873 0 0 0-.73 0l-5.232 2.415c-.61.28-1.297-.205-1.21-.855l.745-5.585a.813.813 0 0 0-.226-.675l-3.978-4.092c-.464-.476-.2-1.262.462-1.383l5.692-1.036a.85.85 0 0 0 .591-.418l2.773-4.943Z" class="Icon"/>
  </g>
</svg>
