<svg xmlns="http://www.w3.org/2000/svg" width="24" height="24" viewBox="0 0 24 24">
  <g class="ic-lock-open-filled-2">
    <path fill-rule="evenodd" d="M6 1.5a6 6 0 0 0-6 6v.75a.75.75 0 0 0 1.5 0V7.5a4.5 4.5 0 0 1 9 0c-1.483.001-2.26.02-2.862.327a3 3 0 0 0-1.311 1.311C6 9.78 6 10.62 6 12.3v5.4c0 1.68 0 2.52.327 3.162a3 3 0 0 0 1.311 1.311c.642.327 1.482.327 3.162.327h8.4c1.68 0 2.52 0 3.162-.327a3 3 0 0 0 1.311-1.311C24 20.22 24 19.38 24 17.7v-5.4c0-1.68 0-2.52-.327-3.162a3 3 0 0 0-1.311-1.311C21.72 7.5 20.88 7.5 19.2 7.5H12a6 6 0 0 0-6-6Zm9.706 13.324a1.5 1.5 0 1 0-1.412 0l-.654 2.617a.45.45 0 0 0 .436.559h1.848a.45.45 0 0 0 .436-.56l-.654-2.616Z" class="Icon"/>
  </g>
</svg>
