<svg xmlns="http://www.w3.org/2000/svg" width="24" height="24" viewBox="0 0 24 24">
  <g class="ic-eye-slash">
    <path fill-rule="evenodd" d="M3.22 3.22a.75.75 0 0 0 0 1.06l16.5 16.5a.75.75 0 1 0 1.06-1.06l-2.399-2.4c1.511-1.122 2.868-2.679 3.954-4.67.22-.404.22-.896 0-1.3C18.74 4.757 12.162 2.923 6.907 5.846L4.28 3.22a.75.75 0 0 0-1.06 0Zm4.8 3.74 3.564 3.564C11.849 10.077 12 9.556 12 9c0-.54-.142-1.046-.392-1.483a4.5 4.5 0 0 1 4.06 7.09l1.634 1.634c1.374-.98 2.634-2.383 3.657-4.241-2.268-4.119-5.7-6-8.959-6a8.867 8.867 0 0 0-3.979.96Zm1.389 5.012a3.026 3.026 0 0 1-1.893-.364 4.5 4.5 0 0 0 6.114 4.587l-4.22-4.223Zm-7.745-.623c.868-1.59 1.91-2.904 3.064-3.94l1.078 1.06C4.78 9.38 3.838 10.553 3.041 12c2.268 4.119 5.7 6 8.959 6 .983 0 1.98-.171 2.958-.523l1.171 1.153c-5.073 2.207-11.087.214-14.464-5.98a1.363 1.363 0 0 1 0-1.3Z" class="Icon"/>
  </g>
</svg>
