<svg xmlns="http://www.w3.org/2000/svg" width="24" height="24" viewBox="0 0 24 24">
  <g class="ic-calendar-cells">
    <path fill-rule="evenodd" d="M4.5 2.25v1.006a4.502 4.502 0 0 0-3 4.244V18A4.5 4.5 0 0 0 6 22.5h12a4.5 4.5 0 0 0 4.5-4.5V7.5a4.502 4.502 0 0 0-3-4.244V2.25a.75.75 0 0 0-1.5 0V3H6v-.75a.75.75 0 0 0-1.5 0ZM18 4.5H6a3 3 0 0 0-3 3h18a3 3 0 0 0-3-3ZM3 18V9h18v9a3 3 0 0 1-3 3H6a3 3 0 0 1-3-3Zm8.25-4.5a.75.75 0 0 0 0 1.5h1.5a.75.75 0 0 0 0-1.5h-1.5Zm4.5.75a.75.75 0 0 1 .75-.75H18a.75.75 0 0 1 0 1.5h-1.5a.75.75 0 0 1-.75-.75ZM6 13.5A.75.75 0 0 0 6 15h1.5a.75.75 0 0 0 0-1.5H6Z" class="Icon"/>
  </g>
</svg>
