<svg width="48" height="50" viewBox="0 0 48 50" fill="none" xmlns="http://www.w3.org/2000/svg">
<path d="M3.39001 7.825C3.39001 4.03081 6.46582 0.955002 10.26 0.955002H27.9481C29.7183 0.955002 31.4202 1.63833 32.6989 2.86251L42.4909 12.2369C43.8445 13.5328 44.61 15.3254 44.61 17.1993V42.175C44.61 45.9692 41.5342 49.045 37.74 49.045H10.26C6.46582 49.045 3.39001 45.9692 3.39001 42.175V7.825Z" fill="#DADBE0"/>
<path d="M44.4742 15.84H35.45C32.2881 15.84 29.725 13.2768 29.725 10.115V1.18877C30.8322 1.48526 31.8572 2.05672 32.6989 2.86251L42.4908 12.2369C43.5121 13.2146 44.1987 14.4751 44.4742 15.84Z" fill="#EBECF0"/>
<path d="M44.6099 17.5575H35.4499C31.3396 17.5575 28.0074 14.2254 28.0074 10.115V0.955246C28.5921 0.960299 29.1689 1.03985 29.7249 1.18876V10.115C29.7249 13.2768 32.2881 15.84 35.4499 15.84H44.4742C44.5638 16.2841 44.6099 16.7393 44.6099 17.1993V17.5575Z" fill="#BABBC5"/>
<path fill-rule="evenodd" clip-rule="evenodd" d="M23 7C22.4477 7 22 7.44772 22 8C22 8.55228 22.4477 9 23 9H25C25.5523 9 26 8.55228 26 8C26 7.44772 25.5523 7 25 7H23ZM23 11C22.4477 11 22 11.4477 22 12C22 12.5523 22.4477 13 23 13H25C25.5523 13 26 12.5523 26 12C26 11.4477 25.5523 11 25 11H23ZM22 16C22 15.4477 22.4477 15 23 15H25C25.5523 15 26 15.4477 26 16C26 16.5523 25.5523 17 25 17H23C22.4477 17 22 16.5523 22 16ZM23 19C22.4477 19 22 19.4477 22 20C22 20.5523 22.4477 21 23 21H25C25.5523 21 26 20.5523 26 20C26 19.4477 25.5523 19 25 19H23ZM22 24C22 23.4477 22.4477 23 23 23H25C25.5523 23 26 23.4477 26 24C26 24.5523 25.5523 25 25 25H23C22.4477 25 22 24.5523 22 24ZM21.9985 27H25.9985C25.9985 27.9559 26.8448 31.2804 27.6385 34.1884C28.2962 36.5981 26.4968 39 23.999 39C21.5015 39 19.7022 36.5985 20.3594 34.1891C21.1527 31.2809 21.9985 27.9559 21.9985 27ZM21.999 35.5C21.999 34.6716 22.6706 34 23.499 34H24.499C25.3274 34 25.999 34.6716 25.999 35.5C25.999 36.3284 25.3274 37 24.499 37H23.499C22.6706 37 21.999 36.3284 21.999 35.5Z" fill="#3A3F4A"/>
</svg>
