<svg xmlns="http://www.w3.org/2000/svg" width="24" height="24" viewBox="0 0 24 24">
  <g class="ic-switch-on-lock">
    <path fill-rule="evenodd" d="M7.173 20.25h6.704l-1.325.75H5.849l1.325-.75Zm-1.382-.942L3 14.191v6.697l2.791-1.58Zm11.798-.672c.39.614.052 1.394-.598 1.575l-3.803 2.153a1.05 1.05 0 0 1-.517.136H2.55c-.58 0-1.05-.47-1.05-1.05v-10.2h.012a1.499 1.499 0 0 1-.012-.191V3A1.5 1.5 0 0 1 3 1.5h8.25a1.5 1.5 0 0 1 1.5 1.5v8.032l4.84 7.604Zm-1.705.114H7.195L3 11.059V3h8.25v8.032c0 .285.081.564.235.805l4.399 6.913ZM7.5 6a.75.75 0 0 1 .75.75V9a.75.75 0 0 1-1.5 0V6.75A.75.75 0 0 1 7.5 6Zm1.701 9.75a1.031 1.031 0 0 1-.15-.619c.02-.16.081-.207.1-.218.018-.011.09-.04.239.023s.327.207.46.439c.134.232.17.457.15.618-.019.16-.08.208-.1.219-.018.01-.09.04-.238-.023a1.031 1.031 0 0 1-.461-.44Zm-.8-2.136c-.52.3-.777.824-.84 1.338a2.54 2.54 0 0 0 .34 1.548 2.53 2.53 0 0 0 1.172 1.068c.475.203 1.058.243 1.578-.057.519-.3.777-.825.839-1.338a2.525 2.525 0 0 0-.34-1.548 2.525 2.525 0 0 0-1.171-1.069c-.475-.203-1.059-.242-1.578.058ZM15 5.7a1.2 1.2 0 0 1 1.2-1.2h.15v-.375a2.4 2.4 0 1 1 4.8 0V4.5h.15a1.2 1.2 0 0 1 1.2 1.2v3.6a1.2 1.2 0 0 1-1.2 1.2h-5.1A1.2 1.2 0 0 1 15 9.3V5.7Zm5.1-1.2v-.375a1.35 1.35 0 1 0-2.7 0V4.5h2.7Z" class="Icon"/>
  </g>
</svg>
