<svg width="24" height="24" viewBox="0 0 24 24" fill="none" xmlns="http://www.w3.org/2000/svg">
<g id="ic-tag-filled">
<path id="Icon" fill-rule="evenodd" clip-rule="evenodd" d="M15.1978 22.6227C14.6121 23.2085 13.6623 23.2085 13.0765 22.6227L3.43958 12.9858C3.15828 12.7045 3.00024 12.3229 3.00024 11.9251V4.50049C3.00024 3.67206 3.67182 3.00049 4.50024 3.00049H11.9249C12.3227 3.00049 12.7042 3.15852 12.9855 3.43983L22.6225 13.0768C23.2082 13.6625 23.2082 14.6123 22.6225 15.1981L15.1978 22.6227ZM8.24997 9.74977C9.0784 9.74977 9.74997 9.0782 9.74997 8.24977C9.74997 7.42134 9.0784 6.74977 8.24997 6.74977C7.42154 6.74977 6.74997 7.42134 6.74997 8.24977C6.74997 9.0782 7.42154 9.74977 8.24997 9.74977Z" fill="#0F0F0F"/>
</g>
</svg>
