<svg xmlns="http://www.w3.org/2000/svg" width="24" height="24" viewBox="0 0 24 24">
  <g class="ic-money-bills">
    <g class="Icon">
      <path fill-rule="evenodd" d="M13.5 13.5a3 3 0 1 0 0-6 3 3 0 0 0 0 6Zm0-1.5a1.5 1.5 0 1 0 0-3 1.5 1.5 0 0 0 0 3Z"/>
      <path fill-rule="evenodd" d="M6.75 4.5A2.25 2.25 0 0 0 4.5 6.75v7.5a2.25 2.25 0 0 0 2.25 2.25h13.5a2.25 2.25 0 0 0 2.25-2.25v-7.5a2.25 2.25 0 0 0-2.25-2.25H6.75ZM20.25 6h-1.5A2.25 2.25 0 0 0 21 8.25v-1.5a.75.75 0 0 0-.75-.75ZM9.75 6h7.5A3.75 3.75 0 0 0 21 9.75v1.5A3.75 3.75 0 0 0 17.25 15h-7.5A3.75 3.75 0 0 0 6 11.25v-1.5A3.75 3.75 0 0 0 9.75 6Zm-1.5 0h-1.5a.75.75 0 0 0-.75.75v1.5A2.25 2.25 0 0 0 8.25 6ZM6 12.75A2.25 2.25 0 0 1 8.25 15h-1.5a.75.75 0 0 1-.75-.75v-1.5ZM18.75 15h1.5a.75.75 0 0 0 .75-.75v-1.5A2.25 2.25 0 0 0 18.75 15Z"/>
      <path d="M3 8.25a.75.75 0 0 0-1.5 0v7.5a3.75 3.75 0 0 0 3.75 3.75h15a.75.75 0 0 0 0-1.5h-15A2.25 2.25 0 0 1 3 15.75v-7.5Z"/>
    </g>
  </g>
</svg>
