<svg width="48" height="50" viewBox="0 0 48 50" fill="none" xmlns="http://www.w3.org/2000/svg">
<path d="M3.39001 7.82496C3.39001 4.03076 6.46582 0.954956 10.26 0.954956H27.9481C29.7183 0.954956 31.4202 1.63829 32.6989 2.86247L42.4909 12.2368C43.8445 13.5327 44.61 15.3253 44.61 17.1993V42.175C44.61 45.9692 41.5342 49.045 37.74 49.045H10.26C6.46582 49.045 3.39001 45.9692 3.39001 42.175V7.82496Z" fill="#DADBE0"/>
<path d="M44.4742 15.84H35.45C32.2881 15.84 29.725 13.2768 29.725 10.115V1.18872C30.8322 1.48522 31.8572 2.05667 32.6989 2.86246L42.4908 12.2368C43.5121 13.2146 44.1987 14.4751 44.4742 15.84Z" fill="#EBECF0"/>
<path d="M44.61 17.5574H35.45C31.3396 17.5574 28.0075 14.2253 28.0075 10.1149V0.9552C28.5922 0.960253 29.169 1.03981 29.725 1.18871V10.1149C29.725 13.2768 32.2882 15.8399 35.45 15.8399H44.4742C44.5639 16.2841 44.61 16.7392 44.61 17.1993V17.5574Z" fill="#BABBC5"/>
<path fill-rule="evenodd" clip-rule="evenodd" d="M23.3536 35.915C23.6162 36.1204 24 35.9333 24 35.5999V22.4007C24 22.0674 23.6162 21.8803 23.3536 22.0857L18.3185 26.0234H15.4C15.1791 26.0234 15 26.2024 15 26.4234V31.5773C15 31.7982 15.1791 31.9773 15.4 31.9773H18.3185V31.9773L23.3536 35.915Z" fill="#3A3F4A"/>
<path fill-rule="evenodd" clip-rule="evenodd" d="M31.7974 29.0099C31.7974 25.7926 29.1953 23.2043 26 23.2043V22C29.8571 22 33 25.1251 33 29.0099C33 32.8972 29.8546 36 26 36V34.7957C29.1978 34.7957 31.7974 32.2248 31.7974 29.0099Z" fill="#3A3F4A"/>
<path fill-rule="evenodd" clip-rule="evenodd" d="M28.598 29C28.598 27.5687 27.4383 26.4082 26 26.4082V25.2039C28.0989 25.2039 29.8006 26.9 29.8006 29C29.8006 31.095 28.1038 32.8159 26 32.8159V31.6116C27.4334 31.6116 28.598 30.4361 28.598 29Z" fill="#3A3F4A"/>
</svg>
