<svg xmlns="http://www.w3.org/2000/svg" width="24" height="24" viewBox="0 0 24 24">
  <g class="ic-envelope-arrow-up-and-right">
    <path fill-rule="evenodd" d="M5.819 3h12.362c.604 0 1.102 0 1.508.033.421.035.809.109 1.173.294a3 3 0 0 1 1.311 1.311c.186.364.26.752.294 1.173.033.406.033.904.033 1.508V10.5H21V8.058l-7.829 4.585a2.25 2.25 0 0 1-2.342 0L3 8.058v7.092c0 .642 0 1.08.028 1.417.027.328.076.497.135.614a1.5 1.5 0 0 0 .656.655c.117.06.285.109.614.136.338.027.775.028 1.417.028H12v1.5H5.819c-.604 0-1.102 0-1.508-.033-.421-.035-.809-.108-1.173-.294a3 3 0 0 1-1.311-1.311c-.185-.364-.26-.752-.294-1.173-.033-.406-.033-.904-.033-1.508V7.319c0-.604 0-1.102.033-1.508.035-.421.109-.809.294-1.173a3 3 0 0 1 1.311-1.311c.364-.185.752-.26 1.173-.294C4.717 3 5.215 3 5.82 3Zm-2.81 3.325 8.584 5.028.014.008a.75.75 0 0 0 .786 0l.014-.008 8.585-5.028a7.467 7.467 0 0 0-.02-.392c-.027-.329-.076-.497-.136-.614a1.5 1.5 0 0 0-.655-.656c-.117-.06-.286-.108-.614-.135-.338-.027-.775-.028-1.417-.028H5.85c-.642 0-1.08 0-1.417.028-.329.027-.497.076-.614.135a1.5 1.5 0 0 0-.656.656c-.06.117-.108.285-.135.614-.01.117-.016.246-.02.392Zm17.855 5.891a.75.75 0 1 0-1.053 1.068L21.549 15h-5.79a2.25 2.25 0 0 0-2.25 2.25V21h1.5v-3.75a.75.75 0 0 1 .75-.75h5.79l-1.738 1.716a.75.75 0 1 0 1.053 1.068l2.823-2.787a1.05 1.05 0 0 0 0-1.494l-2.823-2.787Z" class="Icon"/>
  </g>
</svg>
