<svg width="48" height="50" viewBox="0 0 48 50" fill="none" xmlns="http://www.w3.org/2000/svg">
<path d="M3.38989 7.82496C3.38989 4.03076 6.4657 0.954956 10.2599 0.954956H27.948C29.7182 0.954956 31.4201 1.63829 32.6988 2.86247L42.4907 12.2368C43.8444 13.5327 44.6099 15.3253 44.6099 17.1993V42.175C44.6099 45.9692 41.5341 49.045 37.7399 49.045H10.2599C6.4657 49.045 3.38989 45.9692 3.38989 42.175V7.82496Z" fill="#24B0FF"/>
<path d="M44.4743 15.84H35.4501C32.2883 15.84 29.7251 13.2768 29.7251 10.115V1.18872C30.8323 1.48522 31.8573 2.05667 32.699 2.86246L42.491 12.2368C43.5123 13.2146 44.1988 14.4751 44.4743 15.84Z" fill="#52D4FF"/>
<path d="M44.6101 17.5574H35.4501C31.3397 17.5574 28.0076 14.2253 28.0076 10.1149V0.9552C28.5922 0.960253 29.169 1.03981 29.7251 1.18871V10.1149C29.7251 13.2768 32.2882 15.8399 35.4501 15.8399H44.4743C44.5639 16.2841 44.6101 16.7392 44.6101 17.1993V17.5574Z" fill="#0093FF"/>
<path d="M16 24C16 23.4477 16.4477 23 17 23H31C31.5523 23 32 23.4477 32 24V31H16V24Z" fill="white"/>
<path d="M23 34H25V38H23V34Z" fill="white"/>
<rect x="28" y="38" width="1" height="8" rx="0.5" transform="rotate(90 28 38)" fill="white"/>
<rect x="32" y="32" width="1" height="16" rx="0.5" transform="rotate(90 32 32)" fill="white"/>
</svg>
