<svg width="48" height="50" viewBox="0 0 48 50" fill="none" xmlns="http://www.w3.org/2000/svg">
<path d="M3.38989 7.82502C3.38989 4.03082 6.4657 0.955017 10.2599 0.955017H27.948C29.7182 0.955017 31.4201 1.63835 32.6988 2.86253L42.4907 12.2369C43.8444 13.5328 44.6099 15.3254 44.6099 17.1994V42.175C44.6099 45.9692 41.5341 49.045 37.7399 49.045H10.2599C6.4657 49.045 3.38989 45.9692 3.38989 42.175V7.82502Z" fill="#29A349"/>
<path d="M44.4743 15.84H35.4501C32.2883 15.84 29.7251 13.2768 29.7251 10.115V1.18878C30.8323 1.48528 31.8573 2.05674 32.699 2.86252L42.491 12.2369C43.5123 13.2146 44.1988 14.4751 44.4743 15.84Z" fill="#44D273"/>
<path d="M44.6101 17.5575H35.4501C31.3397 17.5575 28.0076 14.2254 28.0076 10.115V0.955261C28.5922 0.960314 29.169 1.03987 29.7251 1.18877V10.115C29.7251 13.2768 32.2882 15.84 35.4501 15.84H44.4743C44.5639 16.2841 44.6101 16.7393 44.6101 17.1993V17.5575Z" fill="#008216"/>
<path d="M31 26.2105C31 25.8472 30.7055 25.5526 30.3421 25.5526H20.8684V22.6579C20.8684 22.2945 20.5739 22 20.2105 22C19.8472 22 19.5526 22.2945 19.5526 22.6579V25.5526H16.6579C16.2945 25.5526 16 25.8472 16 26.2105C16 26.5739 16.2945 26.8684 16.6579 26.8684H19.5526V36.3421C19.5526 36.7055 19.8472 37 20.2105 37C20.5739 37 20.8684 36.7055 20.8684 36.3421V26.8684H30.3421C30.7055 26.8684 31 26.5739 31 26.2105Z" fill="white"/>
</svg>
