<svg width="129" height="128" viewBox="0 0 129 128" fill="none" xmlns="http://www.w3.org/2000/svg">
<g clip-path="url(#clip0_8489_53300)">
<g filter="url(#filter0_f_8489_53300)">
<ellipse cx="64.5" cy="105" rx="52" ry="4" fill="#7A7F99" fill-opacity="0.2"/>
</g>
<path fill-rule="evenodd" clip-rule="evenodd" d="M10.5 67.5259V69V99C10.5 102.314 13.1863 105 16.5 105H112.5C115.814 105 118.5 102.314 118.5 99V69V67.6144C118.5 66.5787 118.098 65.5834 117.379 64.8379L93.2696 39.8352C92.1388 38.6625 90.5797 38 88.9506 38H38.1864C36.4772 38 34.8492 38.7289 33.7108 40.0039L11.5162 64.8618C10.8618 65.5948 10.5 66.5432 10.5 67.5259ZM47.6875 70.7812C46.9456 69.6684 45.6967 69 44.3593 69H43.5H15.4218C13.7012 69 12.7837 66.9715 13.9199 65.6793L34.708 42.038C35.8471 40.7425 37.4887 40 39.2138 40H87.9209C89.5675 40 91.1417 40.6767 92.2747 41.8715L114.798 65.6238C116.007 66.8982 115.104 69 113.347 69H84.6407C83.3033 69 82.0544 69.6684 81.3125 70.7812L77.6875 76.2188C76.9456 77.3316 75.6967 78 74.3593 78H54.6407C53.3033 78 52.0544 77.3316 51.3125 76.2188L47.6875 70.7812Z" fill="url(#paint0_linear_8489_53300)"/>
<path fill-rule="evenodd" clip-rule="evenodd" d="M13.9199 65.6793L34.708 42.038C35.8471 40.7425 37.4888 40 39.2138 40H87.9209C89.5675 40 91.1417 40.6767 92.2747 41.8715L114.798 65.6238C116.007 66.8982 115.104 69 113.347 69H99.5L92.9478 61.9236C91.8122 60.6972 90.2166 60 88.5452 60H40.4549C38.7835 60 37.1878 60.6972 36.0523 61.9235L29.5 69H15.4219C13.7012 69 12.7837 66.9715 13.9199 65.6793Z" fill="url(#paint1_linear_8489_53300)"/>
<path d="M36.0523 61.9235L29.5 69H44.3593C45.6967 69 46.9456 69.6684 47.6875 70.7812L51.3125 76.2188C52.0544 77.3316 53.3033 78 54.6407 78H74.3593C75.6967 78 76.9456 77.3316 77.6875 76.2188L81.3125 70.7812C82.0544 69.6684 83.3033 69 84.6407 69H99.5L92.9477 61.9236C91.8122 60.6972 90.2166 60 88.5452 60H40.4548C38.7835 60 37.1878 60.6972 36.0523 61.9235Z" fill="#7A7F99"/>
<g filter="url(#filter1_f_8489_53300)">
<path d="M37 33.5H89L113.114 65.8036C114.099 67.1227 113.157 69 111.511 69H84.6407C83.3033 69 82.0544 69.6684 81.3125 70.7812L77.6875 76.2188C76.9456 77.3316 75.6967 78 74.3593 78H54.6407C53.3033 78 52.0544 77.3316 51.3125 76.2188L47.6875 70.7812C46.9456 69.6684 45.6967 69 44.3593 69H17.2224C15.628 69 14.6746 67.2256 15.5547 65.896L37 33.5Z" fill="url(#paint2_linear_8489_53300)" fill-opacity="0.1"/>
</g>
<path opacity="0.5" d="M111.031 36.2673C111.192 35.8319 111.808 35.8319 111.969 36.2673L112.771 38.4339C112.821 38.5708 112.929 38.6787 113.066 38.7293L115.233 39.5311C115.668 39.6922 115.668 40.3078 115.233 40.4689L113.066 41.2707C112.929 41.3213 112.821 41.4292 112.771 41.5661L111.969 43.7327C111.808 44.1681 111.192 44.1681 111.031 43.7327L110.229 41.5661C110.179 41.4292 110.071 41.3213 109.934 41.2707L107.767 40.4689C107.332 40.3078 107.332 39.6922 107.767 39.5311L109.934 38.7293C110.071 38.6787 110.179 38.5708 110.229 38.4339L111.031 36.2673Z" fill="#B8BBCC"/>
<path opacity="0.5" d="M89.0311 18.2673C89.1922 17.8319 89.8078 17.8319 89.9689 18.2673L90.7707 20.4339C90.8213 20.5708 90.9292 20.6787 91.0661 20.7293L93.2327 21.5311C93.6681 21.6922 93.6681 22.3078 93.2327 22.4689L91.0661 23.2707C90.9292 23.3213 90.8213 23.4292 90.7707 23.5661L89.9689 25.7327C89.8078 26.1681 89.1922 26.1681 89.0311 25.7327L88.2293 23.5661C88.1787 23.4292 88.0708 23.3213 87.9339 23.2707L85.7673 22.4689C85.3319 22.3078 85.3319 21.6922 85.7673 21.5311L87.9339 20.7293C88.0708 20.6787 88.1787 20.5708 88.2293 20.4339L89.0311 18.2673Z" fill="#B8BBCC"/>
<path opacity="0.5" d="M16.0311 8.26725C16.1922 7.83194 16.8078 7.83194 16.9689 8.26725L19.1211 14.0835C19.1718 14.2203 19.2797 14.3282 19.4165 14.3789L25.2327 16.5311C25.6681 16.6922 25.6681 17.3078 25.2327 17.4689L19.4165 19.6211C19.2797 19.6718 19.1718 19.7797 19.1211 19.9165L16.9689 25.7327C16.8078 26.1681 16.1922 26.1681 16.0311 25.7327L13.8789 19.9165C13.8282 19.7797 13.7203 19.6718 13.5835 19.6211L7.76725 17.4689C7.33194 17.3078 7.33194 16.6922 7.76725 16.5311L13.5835 14.3789C13.7203 14.3282 13.8282 14.2203 13.8789 14.0835L16.0311 8.26725Z" fill="#B8BBCC"/>
</g>
<defs>
<filter id="filter0_f_8489_53300" x="0.5" y="89" width="128" height="32" filterUnits="userSpaceOnUse" color-interpolation-filters="sRGB">
<feFlood flood-opacity="0" result="BackgroundImageFix"/>
<feBlend mode="normal" in="SourceGraphic" in2="BackgroundImageFix" result="shape"/>
<feGaussianBlur stdDeviation="6" result="effect1_foregroundBlur_8489_53300"/>
</filter>
<filter id="filter1_f_8489_53300" x="-0.78125" y="17.5" width="130.296" height="76.5" filterUnits="userSpaceOnUse" color-interpolation-filters="sRGB">
<feFlood flood-opacity="0" result="BackgroundImageFix"/>
<feBlend mode="normal" in="SourceGraphic" in2="BackgroundImageFix" result="shape"/>
<feGaussianBlur stdDeviation="8" result="effect1_foregroundBlur_8489_53300"/>
</filter>
<linearGradient id="paint0_linear_8489_53300" x1="118.5" y1="17.5298" x2="15.9941" y2="152.881" gradientUnits="userSpaceOnUse">
<stop stop-color="#F5F6FC"/>
<stop offset="1" stop-color="#B8BBCC"/>
</linearGradient>
<linearGradient id="paint1_linear_8489_53300" x1="115.351" y1="40" x2="101.971" y2="91.8511" gradientUnits="userSpaceOnUse">
<stop stop-color="#D3D6E5"/>
<stop offset="1" stop-color="#7A7F99"/>
</linearGradient>
<linearGradient id="paint2_linear_8489_53300" x1="65" y1="4" x2="65" y2="69" gradientUnits="userSpaceOnUse">
<stop stop-color="#F5F6FC"/>
<stop offset="1" stop-color="#EDEFF7"/>
</linearGradient>
<clipPath id="clip0_8489_53300">
<rect width="128" height="128" fill="white" transform="translate(0.5)"/>
</clipPath>
</defs>
</svg>
