<svg xmlns="http://www.w3.org/2000/svg" width="24" height="24" viewBox="0 0 24 24">
  <g class="ic-inbox">
    <path fill-rule="evenodd" d="M1.532 12.969a3 3 0 0 1 .244-.817l3.42-7.41A3 3 0 0 1 7.92 3h8.16a3 3 0 0 1 2.724 1.743l3.42 7.409.012.027a3.002 3.002 0 0 1 .264 1.23V18a3 3 0 0 1-3 3h-15a3 3 0 0 1-3-3v-4.591a3 3 0 0 1 .032-.44ZM21 13.5V18a1.5 1.5 0 0 1-1.5 1.5h-15A1.5 1.5 0 0 1 3 18v-4.5h3.879a.75.75 0 0 1 .53.22l1.371 1.37a2.25 2.25 0 0 0 1.591.659h3.258a2.25 2.25 0 0 0 1.59-.659l1.372-1.371a.75.75 0 0 1 .53-.22H21Zm-.498-1.5h-3.38a2.25 2.25 0 0 0-1.592.659l-1.37 1.371a.75.75 0 0 1-.53.22h-3.26a.75.75 0 0 1-.53-.22l-1.37-1.37A2.25 2.25 0 0 0 6.879 12h-3.38l3.059-6.629A1.5 1.5 0 0 1 7.92 4.5h8.16a1.5 1.5 0 0 1 1.362.871L20.502 12Z" class="Icon"/>
  </g>
</svg>
