<svg xmlns="http://www.w3.org/2000/svg" width="24" height="24" viewBox="0 0 24 24">
  <g class="ic-folder-plus">
    <path fill-rule="evenodd" d="M21 18V8.25a1.5 1.5 0 0 0-1.5-1.5h-6.65a1.8 1.8 0 0 1-1.08-.36L9.65 4.8a1.5 1.5 0 0 0-.9-.3H4.5A1.5 1.5 0 0 0 3 6v12a1.5 1.5 0 0 0 1.5 1.5h15A1.5 1.5 0 0 0 21 18ZM4.5 3a3 3 0 0 0-3 3v12a3 3 0 0 0 3 3h15a3 3 0 0 0 3-3V8.25a3 3 0 0 0-3-3h-6.65a.3.3 0 0 1-.18-.06L10.55 3.6a3 3 0 0 0-1.8-.6H4.5ZM12 9a.75.75 0 0 1 .75.75V12H15a.75.75 0 0 1 0 1.5h-2.25v2.25a.75.75 0 0 1-1.5 0V13.5H9A.75.75 0 0 1 9 12h2.25V9.75A.75.75 0 0 1 12 9Z" class="Icon"/>
  </g>
</svg>
