<svg width="44" height="41" viewBox="0 0 44 41" fill="none" xmlns="http://www.w3.org/2000/svg">
<path fill-rule="evenodd" clip-rule="evenodd" d="M7.91676 12.57C6.9312 11.8078 5.5 12.5103 5.5 13.7562V25.7442C5.5 27.4005 6.84269 28.7432 8.49898 28.7432H23.501C25.1573 28.7432 26.5 27.4005 26.5 25.7442V13.7562C26.5 12.5103 25.0688 11.8078 24.0832 12.57L16.4586 18.4659C16.1885 18.6748 15.8115 18.6748 15.5414 18.4659L7.91676 12.57ZM6.99949 13.7562L14.6241 19.6521C14.8935 19.8605 15.1984 19.9995 15.5152 20.0693L14.739 20.7638C14.2465 21.2044 13.5074 21.2236 12.9927 20.8092L6.99949 15.9832V13.7562ZM6.99949 17.9084V25.7442C6.99949 26.5724 7.67084 27.2437 8.49898 27.2437H20.8753V17.2857L15.7388 21.8813C14.6992 22.8115 13.1388 22.8521 12.0523 21.9771L6.99949 17.9084ZM23.501 27.2437H22.2748V15.8639L25.0005 13.7562V25.7442C25.0005 26.5724 24.3292 27.2437 23.501 27.2437ZM35.25 23.7539C35.25 24.1681 34.9142 24.5039 34.5 24.5039C34.0858 24.5039 33.75 24.1681 33.75 23.7539V21.2539H31.25C30.8358 21.2539 30.5 20.9181 30.5 20.5039C30.5 20.0897 30.8358 19.7539 31.25 19.7539H33.75V17.2539C33.75 16.8397 34.0858 16.5039 34.5 16.5039C34.9142 16.5039 35.25 16.8397 35.25 17.2539V19.7539L37.75 19.7539C38.1642 19.7539 38.5 20.0897 38.5 20.5039C38.5 20.9181 38.1642 21.2539 37.75 21.2539H35.25V23.7539Z" fill="url(#paint0_linear_12835_52760)"/>
<defs>
<linearGradient id="paint0_linear_12835_52760" x1="5.5" y1="20.7047" x2="24.3759" y2="27.0367" gradientUnits="userSpaceOnUse">
<stop offset="0.0048148" stop-color="#2A7FFF"/>
<stop offset="0.302896" stop-color="#B144F8"/>
<stop offset="1" stop-color="#FF4FD8"/>
</linearGradient>
</defs>
</svg>
