<svg xmlns="http://www.w3.org/2000/svg" width="24" height="24" viewBox="0 0 24 24">
  <g class="ic-arrow-out-from-rectangle">
    <g class="Icon">
      <path d="M14.256 7.5v-3a1.5 1.5 0 0 0-1.5-1.5H4.5A1.5 1.5 0 0 0 3 4.5v15A1.5 1.5 0 0 0 4.5 21h8.256a1.5 1.5 0 0 0 1.5-1.5v-3h1.5v3a3 3 0 0 1-3 3H4.5a3 3 0 0 1-3-3v-15a3 3 0 0 1 3-3h8.256a3 3 0 0 1 3 3v3h-1.5Z"/>
      <path d="M17.469 7.728a.75.75 0 0 1 1.06-.017l3.648 3.535a1.05 1.05 0 0 1 0 1.508L18.53 16.29a.75.75 0 1 1-1.043-1.078l2.54-2.461H9.761a.75.75 0 0 1 0-1.5h10.265l-2.54-2.461a.75.75 0 0 1-.017-1.06Z"/>
    </g>
  </g>
</svg>
