<svg xmlns="http://www.w3.org/2000/svg" width="24" height="24" viewBox="0 0 24 24">
  <g class="ic-folder-arrow-up">
    <path fill-rule="evenodd" d="M4.5 3a3 3 0 0 0-3 3v12a3 3 0 0 0 3 3h5.25v-1.5H4.5A1.5 1.5 0 0 1 3 18V6a1.5 1.5 0 0 1 1.5-1.5H9c.325 0 .64.105.9.3l2.2 1.65c.26.195.575.3.9.3h6.5a1.5 1.5 0 0 1 1.5 1.5V18a1.5 1.5 0 0 1-1.5 1.5h-5.25V21h5.25a3 3 0 0 0 3-3V8.25a3 3 0 0 0-3-3H13L10.8 3.6A3 3 0 0 0 9 3H4.5Zm3.97 11.03a.75.75 0 0 1 0-1.06l2.787-2.788a1.05 1.05 0 0 1 1.486 0l2.787 2.788a.75.75 0 1 1-1.06 1.06l-1.72-1.72V21h-1.5v-8.69l-1.72 1.72a.75.75 0 0 1-1.06 0Z" class="Icon"/>
  </g>
</svg>
