<svg width="24" height="24" viewBox="0 0 24 24" fill="none" xmlns="http://www.w3.org/2000/svg">
<g id="ic-clock-filled">
<path id="Icon" fill-rule="evenodd" clip-rule="evenodd" d="M22.5 12C22.5 17.799 17.799 22.5 12 22.5C6.20101 22.5 1.5 17.799 1.5 12C1.5 6.20101 6.20101 1.5 12 1.5C17.799 1.5 22.5 6.20101 22.5 12ZM15.2197 16.2803C15.5126 16.5732 15.9874 16.5732 16.2803 16.2803C16.5732 15.9874 16.5732 15.5126 16.2803 15.2197L12.75 11.6893V6C12.75 5.58579 12.4142 5.25 12 5.25C11.5858 5.25 11.25 5.58578 11.25 6V12C11.25 12.1989 11.329 12.3897 11.4697 12.5303L15.2197 16.2803Z" fill="#0F0F0F"/>
</g>
</svg>
