<svg xmlns="http://www.w3.org/2000/svg" width="24" height="24" viewBox="0 0 24 24">
  <g class="ic-lock-layers">
    <g class="Icon">
      <path d="M14.625 11.625c0 .43-.241.803-.595.993l.49 1.963a.338.338 0 0 1-.327.419h-1.386a.338.338 0 0 1-.327-.42l.49-1.962a1.125 1.125 0 1 1 1.655-.993Z"/>
      <path fill-rule="evenodd" d="M9 6v.029c-.588.036-1.006.116-1.362.298a3 3 0 0 0-1.311 1.311c-.184.362-.265.786-.3 1.39-.603.034-1.027.115-1.389.299a3 3 0 0 0-1.311 1.311C3 11.28 3 12.12 3 13.8v1.98c0 2.352 0 3.528.458 4.427a4.2 4.2 0 0 0 1.835 1.835c.899.458 2.075.458 4.427.458h3.48c1.68 0 2.52 0 3.162-.327a3 3 0 0 0 1.311-1.311c.184-.362.265-.786.3-1.39.603-.034 1.027-.115 1.389-.299a3 3 0 0 0 1.311-1.311C21 17.22 21 16.38 21 14.7v-3.9c0-1.68 0-2.52-.327-3.162a3 3 0 0 0-1.311-1.311c-.356-.182-.774-.262-1.362-.298V6a4.5 4.5 0 1 0-9 0Zm1.5 0h6a3 3 0 1 0-6 0ZM8.952 7.536C9.377 7.5 9.935 7.5 10.8 7.5h5.4c.865 0 1.423.001 1.848.036.408.033.559.09.633.127a1.5 1.5 0 0 1 .655.656c.038.074.095.225.128.633.035.425.036.983.036 1.848v3.9c0 .865-.001 1.423-.036 1.848-.033.408-.09.559-.127.633a1.5 1.5 0 0 1-.656.655c-.074.038-.225.095-.633.128-.425.035-.983.036-1.848.036h-5.4c-.865 0-1.423-.001-1.848-.036-.408-.033-.559-.09-.633-.127a1.5 1.5 0 0 1-.656-.656c-.037-.074-.094-.225-.127-.633-.035-.425-.036-.983-.036-1.848v-3.9c0-.865.001-1.423.036-1.848.033-.408.09-.559.127-.633a1.5 1.5 0 0 1 .656-.656c.074-.037.225-.094.633-.127ZM6 10.532l-.048.004c-.408.033-.559.09-.633.128a1.5 1.5 0 0 0-.656.655c-.037.074-.094.225-.127.633-.035.425-.036.983-.036 1.848v1.98c0 1.2.001 2.011.052 2.636.05.608.14.907.242 1.11a2.7 2.7 0 0 0 1.18 1.18c.203.103.502.192 1.11.242.625.05 1.435.052 2.636.052h3.48c.865 0 1.423-.001 1.848-.036.408-.033.559-.09.633-.127a1.5 1.5 0 0 0 .656-.656c.037-.074.094-.225.127-.633l.004-.048H10.8c-1.68 0-2.52 0-3.162-.327a3 3 0 0 1-1.311-1.311C6 17.22 6 16.38 6 14.7v-4.168Z"/>
    </g>
  </g>
</svg>
