<svg xmlns="http://www.w3.org/2000/svg" width="24" height="24" viewBox="0 0 24 24">
  <g class="ic-file-lines">
    <path fill-rule="evenodd" d="M19.5 9h-3.75a2.25 2.25 0 0 1-2.25-2.25V3H6a1.5 1.5 0 0 0-1.5 1.5v15A1.5 1.5 0 0 0 6 21h12a1.5 1.5 0 0 0 1.5-1.5V9ZM15 3.621 18.879 7.5H15.75a.75.75 0 0 1-.75-.75V3.621ZM6 1.5a3 3 0 0 0-3 3v15a3 3 0 0 0 3 3h12a3 3 0 0 0 3-3V8.743a3 3 0 0 0-.879-2.122L15.88 2.38a3 3 0 0 0-2.122-.879H6Zm1.5 9a.75.75 0 0 0 0 1.5h8.25a.75.75 0 0 0 0-1.5H7.5Zm-.75 3.75a.75.75 0 0 1 .75-.75h5.25a.75.75 0 0 1 0 1.5H7.5a.75.75 0 0 1-.75-.75Zm.75 2.25a.75.75 0 0 0 0 1.5h8.25a.75.75 0 0 0 0-1.5H7.5Z" class="Icon"/>
  </g>
</svg>
