<svg width="24" height="24" viewBox="0 0 24 24" fill="none" xmlns="http://www.w3.org/2000/svg">
<path d="M11.9123 6C12.7617 6 13.4188 6.74443 13.3135 7.58723L12.6565 12.843C12.6096 13.2183 12.2905 13.5 11.9123 13.5C11.5341 13.5 11.215 13.2183 11.1681 12.843L10.5111 7.58723C10.4058 6.74443 11.0629 6 11.9123 6Z" fill="#0F0F0F"/>
<path d="M11.9122 17.1C12.4921 17.1 12.9622 16.6299 12.9622 16.05C12.9622 15.4701 12.4921 15 11.9122 15C11.3323 15 10.8622 15.4701 10.8622 16.05C10.8622 16.6299 11.3323 17.1 11.9122 17.1Z" fill="#0F0F0F"/>
<path fill-rule="evenodd" clip-rule="evenodd" d="M8.12132 21H15.8787L21 15.8787V8.12132L15.8787 3L8.12132 3L3 8.12132L3 15.8787L8.12132 21ZM8.12132 1.5C7.7235 1.5 7.34196 1.65804 7.06066 1.93934L1.93934 7.06066C1.65804 7.34196 1.5 7.7235 1.5 8.12132V15.8787C1.5 16.2765 1.65804 16.658 1.93934 16.9393L7.06066 22.0607C7.34196 22.342 7.7235 22.5 8.12132 22.5H15.8787C16.2765 22.5 16.658 22.342 16.9393 22.0607L22.0607 16.9393C22.342 16.658 22.5 16.2765 22.5 15.8787V8.12132C22.5 7.7235 22.342 7.34196 22.0607 7.06066L16.9393 1.93934C16.658 1.65804 16.2765 1.5 15.8787 1.5H8.12132Z" fill="#0F0F0F"/>
</svg>
