<svg width="20" height="20" viewBox="0 0 20 20" fill="none" xmlns="http://www.w3.org/2000/svg">
<path d="M9.92691 5C10.6347 5 11.1824 5.62036 11.0946 6.3227L10.5471 10.7025C10.508 11.0153 10.2421 11.25 9.92691 11.25C9.61171 11.25 9.34583 11.0153 9.30674 10.7025L8.75926 6.3227C8.67147 5.62036 9.21911 5 9.92691 5Z" fill="#0F0F0F"/>
<path d="M9.92684 14.25C10.4101 14.25 10.8018 13.8582 10.8018 13.375C10.8018 12.8918 10.4101 12.5 9.92684 12.5C9.44359 12.5 9.05184 12.8918 9.05184 13.375C9.05184 13.8582 9.44359 14.25 9.92684 14.25Z" fill="#0F0F0F"/>
<path fill-rule="evenodd" clip-rule="evenodd" d="M6.76777 17.5H13.2322L17.5 13.2322V6.76777L13.2322 2.5L6.76777 2.5L2.5 6.76777L2.5 13.2322L6.76777 17.5ZM6.76777 1.25C6.43625 1.25 6.1183 1.3817 5.88388 1.61612L1.61612 5.88388C1.3817 6.1183 1.25 6.43625 1.25 6.76777V13.2322C1.25 13.5638 1.3817 13.8817 1.61612 14.1161L5.88388 18.3839C6.1183 18.6183 6.43625 18.75 6.76777 18.75H13.2322C13.5638 18.75 13.8817 18.6183 14.1161 18.3839L18.3839 14.1161C18.6183 13.8817 18.75 13.5638 18.75 13.2322V6.76777C18.75 6.43625 18.6183 6.1183 18.3839 5.88388L14.1161 1.61612C13.8817 1.3817 13.5638 1.25 13.2322 1.25H6.76777Z" fill="#0F0F0F"/>
</svg>
