<svg xmlns="http://www.w3.org/2000/svg" width="24" height="24" viewBox="0 0 24 24">
  <g class="ic-map">
    <path fill-rule="evenodd" d="M3 5.715v14.88l5.25-2.332V3.273l-.032.014c-.5.202-1.132.482-1.795.788A148.457 148.457 0 0 0 3 5.715Zm6.75-2.441c.103.041.214.087.33.136.654.275 1.463.645 2.257 1.019A155.266 155.266 0 0 1 15 5.715v15.023a35.13 35.13 0 0 1-1.595-.726c-.366-.175-.757-.364-1.16-.56-.816-.395-1.68-.815-2.495-1.187V3.274ZM8.998 19.57l-5.39 2.396a1.5 1.5 0 0 1-2.108-1.37V5.714c0-.567.319-1.088.832-1.342.687-.34 2.12-1.042 3.464-1.66a46 46 0 0 1 1.86-.816c.265-.107.51-.2.714-.267.17-.055.415-.129.63-.129.146 0 .289.032.387.057.112.03.236.069.365.114.257.09.57.213.91.357a65.66 65.66 0 0 1 2.314 1.043 156.932 156.932 0 0 1 2.773 1.341l4.58-2.29A1.5 1.5 0 0 1 22.5 3.464v14.85c0 .536-.285 1.036-.759 1.303-.61.344-1.868 1.045-3.054 1.662-.593.308-1.176.6-1.657.816a8.76 8.76 0 0 1-.657.27c-.161.057-.4.135-.623.135a2.18 2.18 0 0 1-.619-.114 8.173 8.173 0 0 1-.666-.246 35.668 35.668 0 0 1-1.706-.774c-.385-.183-.787-.378-1.196-.577-.852-.413-1.735-.842-2.565-1.218ZM16.5 5.714v14.974a34.64 34.64 0 0 0 1.495-.74c1.16-.603 2.397-1.293 3.005-1.635V3.463l-4.5 2.25Z" class="Icon"/>
  </g>
</svg>
