<svg xmlns="http://www.w3.org/2000/svg" width="24" height="24" viewBox="0 0 24 24">
  <g class="ic-calendar-grid">
    <path fill-rule="evenodd" d="M4.5 2.25v1.006a4.502 4.502 0 0 0-3 4.244V18A4.5 4.5 0 0 0 6 22.5h12a4.5 4.5 0 0 0 4.5-4.5V7.5a4.502 4.502 0 0 0-3-4.244V2.25a.75.75 0 0 0-1.5 0V3H6v-.75a.75.75 0 0 0-1.5 0ZM6 4.5h12a3 3 0 0 1 3 3H3a3 3 0 0 1 3-3ZM15 9H9v3h6V9Zm0 4.5H9v3h6v-3Zm1.5 3v-3H21v3h-4.5ZM15 18H9v3h6v-3Zm1.5 3v-3H21a3 3 0 0 1-3 3h-1.5Zm0-9V9H21v3h-4.5ZM3 9h4.5v3H3V9Zm0 4.5h4.5v3H3v-3ZM3 18h4.5v3H6a3 3 0 0 1-3-3Z" class="Icon"/>
  </g>
</svg>
