<svg xmlns="http://www.w3.org/2000/svg" width="24" height="24" viewBox="0 0 24 24">
  <g class="ic-users-plus">
    <path fill-rule="evenodd" d="M9.75 10.5a2.25 2.25 0 1 0 0-4.5 2.25 2.25 0 0 0 0 4.5Zm0 1.5a3.75 3.75 0 1 0 0-7.5 3.75 3.75 0 0 0 0 7.5Zm-2.814 3h5.628c.503 0 .976.261 1.249.7l1.138 1.836a.296.296 0 0 1 .008.314.267.267 0 0 1-.247.15H4.788a.267.267 0 0 1-.247-.15.296.296 0 0 1 .008-.314L5.687 15.7c.273-.439.746-.7 1.249-.7Zm-2.524-.09a2.97 2.97 0 0 1 2.524-1.41h5.628a2.97 2.97 0 0 1 2.524 1.41l1.138 1.836c.743 1.199-.112 2.754-1.514 2.754H4.788c-1.402 0-2.257-1.555-1.514-2.754l1.138-1.836Zm13.641-1.41H16.5V15h1.553c.637 0 1.247.29 1.663.802l1.178 1.452c.261.322.006.746-.315.746h-2.618v1.5h2.618c1.66 0 2.488-1.949 1.48-3.19l-1.179-1.453a3.642 3.642 0 0 0-2.827-1.357ZM18.75 9a1.5 1.5 0 1 1-3 0 1.5 1.5 0 0 1 3 0Zm1.5 0a3 3 0 1 1-6 0 3 3 0 0 1 6 0Zm-18 1.5V9a.75.75 0 0 1 1.5 0v1.5h1.5a.75.75 0 0 1 0 1.5h-1.5v1.5a.75.75 0 0 1-1.5 0V12H.75a.75.75 0 0 1 0-1.5h1.5Z" class="Icon"/>
  </g>
</svg>
