<svg width="24" height="24" viewBox="0 0 24 24" fill="none" xmlns="http://www.w3.org/2000/svg">
<path d="M13.7011 18.6556L14.2976 17.0649L15.4627 18.23L14.787 20.0321C14.5531 20.6556 13.7531 20.8289 13.2823 20.358L9.05922 16.135L3.92626 21.2679C3.5687 21.6255 2.989 21.6255 2.63145 21.2679C2.27389 20.9104 2.27389 20.3307 2.63145 19.9731L7.76441 14.8402L3.63983 10.7156C3.16898 10.2447 3.34227 9.4447 3.96575 9.21089L5.76783 8.53511L6.93293 9.70021L5.34227 10.2967L13.7011 18.6556Z" fill="#0C0C14"/>
<path fill-rule="evenodd" clip-rule="evenodd" d="M16.5069 15.4457L21.0308 19.9697C21.3237 20.2626 21.3237 20.7374 21.0308 21.0303C20.7379 21.3232 20.2631 21.3232 19.9702 21.0303L2.97016 4.03033C2.67726 3.73744 2.67726 3.26256 2.97016 2.96967C3.26305 2.67678 3.73793 2.67678 4.03082 2.96967L8.55215 7.491L11.8047 6.27129C12.5194 6.00328 12.9929 5.32004 12.9929 4.55674V2.85686C12.9929 2.04117 13.9791 1.63268 14.5559 2.20945L21.7884 9.44199C22.3652 10.0188 21.9567 11.005 21.141 11.005H19.4411C18.6778 11.005 17.9946 11.4784 17.7266 12.1931L16.5069 15.4457ZM9.71724 8.65609L12.3314 7.67578C13.6315 7.18822 14.4929 5.94531 14.4929 4.55674V4.2678L19.73 9.50496H19.4411C18.0525 9.50496 16.8096 10.3663 16.3221 11.6665L15.3418 14.2806L9.71724 8.65609Z" fill="#0C0C14"/>
</svg>
