<svg xmlns="http://www.w3.org/2000/svg" width="24" height="24" viewBox="0 0 24 24">
  <g class="ic-exclamation-triangle-filled">
    <path fill-rule="evenodd" d="M22.349 22.5H1.65c-1.266 0-2.06-1.341-1.431-2.42l10.35-17.765c.632-1.087 2.23-1.087 2.862 0l10.35 17.765c.627 1.079-.166 2.42-1.432 2.42ZM12 7.135c.934 0 1.656.803 1.54 1.712l-.722 5.667a.819.819 0 0 1-.818.708.82.82 0 0 1-.818-.708l-.722-5.667c-.116-.909.606-1.712 1.54-1.712Zm1.154 10.513c0 .625-.517 1.132-1.154 1.132a1.143 1.143 0 0 1-1.154-1.133c0-.625.517-1.132 1.154-1.132.637 0 1.154.507 1.154 1.133Z" class="Icon"/>
  </g>
</svg>
