<svg xmlns="http://www.w3.org/2000/svg" width="24" height="24" viewBox="0 0 24 24">
  <g class="ic-pencil">
    <path fill-rule="evenodd" d="m16.256 5.445 2.28 2.28 1.699-1.69c.02-.02.02-.05 0-.07l-2.206-2.197a.056.056 0 0 0-.02-.013.068.068 0 0 0-.025-.005.068.068 0 0 0-.025.005.056.056 0 0 0-.02.013l-1.683 1.677Zm-1.063 1.058L4.815 16.837c-.231.23-.386.525-.445.844l-.437 2.368 2.332-.48a1.61 1.61 0 0 0 .819-.439l10.39-10.346-2.281-2.28Zm3.894-3.798a1.564 1.564 0 0 0-2.206 0L3.757 15.774a3.102 3.102 0 0 0-.862 1.635l-.632 3.424a.778.778 0 0 0 .925.9l3.38-.694a3.124 3.124 0 0 0 1.574-.846L21.293 7.098c.61-.607.61-1.59 0-2.197l-2.206-2.196Z" class="Icon"/>
  </g>
</svg>
