<svg xmlns="http://www.w3.org/2000/svg" width="24" height="24" viewBox="0 0 24 24">
  <g class="ic-moon">
    <path fill-rule="evenodd" d="M13.612 3C8.59 3 4.516 7.03 4.516 12s4.073 9 9.096 9a9.13 9.13 0 0 0 3.731-.79c-4.221-.405-7.52-3.927-7.52-8.21 0-4.283 3.299-7.804 7.52-8.21a9.145 9.145 0 0 0-3.73-.79ZM3 12C3 6.201 7.751 1.5 13.612 1.5a10.64 10.64 0 0 1 7.14 2.732c.26.234.324.615.152.919a.761.761 0 0 1-.87.357 6.895 6.895 0 0 0-1.873-.258c-3.768 0-6.823 3.022-6.823 6.75s3.055 6.75 6.822 6.75c.651 0 1.28-.09 1.874-.258a.762.762 0 0 1 .87.357.744.744 0 0 1-.152.92 10.64 10.64 0 0 1-7.14 2.731C7.752 22.5 3 17.799 3 12Z" class="Icon"/>
  </g>
</svg>
