<svg width="24" height="24" viewBox="0 0 24 24" fill="none" xmlns="http://www.w3.org/2000/svg">
<g id="ic-calendar-month">
<path id="Icon" fill-rule="evenodd" clip-rule="evenodd" d="M16.5 4.5H7.5V2.25C7.5 1.83579 7.16421 1.5 6.75 1.5C6.33579 1.5 6 1.83579 6 2.25V4.5C3.51472 4.5 1.5 6.51472 1.5 9V18C1.5 20.4853 3.51472 22.5 6 22.5H18C20.4853 22.5 22.5 20.4853 22.5 18V9C22.5 6.51472 20.4853 4.5 18 4.5V2.25C18 1.83579 17.6642 1.5 17.25 1.5C16.8358 1.5 16.5 1.83579 16.5 2.25V4.5ZM6 6H7.5V9H3C3 7.34315 4.34315 6 6 6ZM7.5 10.5H3V16.5H7.5L7.5 10.5ZM9 16.5L9 10.5H15V16.5H9ZM7.5 18H3C3 19.6569 4.34315 21 6 21H7.5V18ZM9 21H15V18H9V21ZM9 9V6H15V9H9ZM16.5 9V6H18C19.6569 6 21 7.34315 21 9H16.5ZM16.5 10.5V16.5H21V10.5H16.5ZM21 18C21 19.6569 19.6569 21 18 21H16.5V18H21Z" fill="#0F0F0F"/>
</g>
</svg>
