<svg xmlns="http://www.w3.org/2000/svg" width="24" height="24" viewBox="0 0 24 24">
  <g class="ic-squares">
    <path fill-rule="evenodd" d="M10.227 1.5A2.727 2.727 0 0 0 7.5 4.227V6H9V4.227C9 3.55 9.55 3 10.227 3H19.5A1.5 1.5 0 0 1 21 4.5v9a1.5 1.5 0 0 1-1.5 1.5H18v1.5h1.5a3 3 0 0 0 3-3v-9a3 3 0 0 0-3-3h-9.273ZM3 10.5A1.5 1.5 0 0 1 4.5 9h9a1.5 1.5 0 0 1 1.5 1.5v9a1.5 1.5 0 0 1-1.5 1.5h-9A1.5 1.5 0 0 1 3 19.5v-9Zm-1.5 0a3 3 0 0 1 3-3h9a3 3 0 0 1 3 3v9a3 3 0 0 1-3 3h-9a3 3 0 0 1-3-3v-9Z" class="Icon"/>
  </g>
</svg>
