<svg width="24" height="24" viewBox="0 0 24 24" fill="none" xmlns="http://www.w3.org/2000/svg">
<path d="M0 2.5C0 1.11929 1.11929 0 2.5 0H21.5C22.8807 0 24 1.11929 24 2.5V21.5C24 22.8807 22.8807 24 21.5 24H2.5C1.11929 24 0 22.8807 0 21.5V2.5Z" fill="#DADBE0"/>
<path fill-rule="evenodd" clip-rule="evenodd" d="M11.5319 8.23293C12.6676 7.09721 14.509 7.09721 15.6447 8.23293C16.7804 9.36865 16.7804 11.21 15.6447 12.3457C14.8379 13.1525 13.6743 13.3871 12.6591 13.0459L12.2993 12.925L12.0309 13.1934L11.6749 13.5494H10.8222C10.6597 13.5494 10.5039 13.6139 10.3891 13.7288C10.2742 13.8437 10.2097 13.9995 10.2097 14.1619L10.2097 14.6559H9.71571C9.37743 14.6559 9.10321 14.9301 9.10321 15.2684L9.10321 15.7623H8.11531L8.11531 14.4156L10.6842 11.8467L10.9526 11.5783L10.8317 11.2185C10.4905 10.2033 10.7251 9.03972 11.5319 8.23293ZM10.8222 15.8809H10.3282V15.9836C10.3282 16.5379 9.87884 16.9873 9.32452 16.9873H7.50281C7.16453 16.9873 6.89031 16.7131 6.89031 16.3748L6.89031 14.3239C6.89031 14.0578 6.99605 13.8025 7.18428 13.6142L9.5641 11.2344C9.24961 9.88977 9.61592 8.41647 10.6657 7.36673C12.2798 5.75261 14.8968 5.75261 16.5109 7.36673C18.125 8.98084 18.125 11.5978 16.5109 13.212C15.4611 14.2617 13.9878 14.628 12.6432 14.3135L12.3617 14.595C12.2468 14.7099 12.0911 14.7744 11.9286 14.7744H11.4347L11.4347 15.2684C11.4347 15.4308 11.3701 15.5866 11.2553 15.7015C11.1404 15.8163 10.9846 15.8809 10.8222 15.8809ZM14.327 10.25C14.7698 10.25 15.1288 9.89101 15.1288 9.44822C15.1288 9.00542 14.7698 8.64647 14.327 8.64647C13.8842 8.64647 13.5253 9.00542 13.5253 9.44822C13.5253 9.89101 13.8842 10.25 14.327 10.25Z" fill="#3A3F4A"/>
</svg>
