<svg width="16" height="16" viewBox="0 0 16 16" fill="none" xmlns="http://www.w3.org/2000/svg">
<path fill-rule="evenodd" clip-rule="evenodd" d="M7.16516 0.556942C7.47402 -0.185647 8.52598 -0.185647 8.83484 0.556942L10.5959 4.79093L15.1668 5.15738C15.9685 5.22165 16.2936 6.22213 15.6828 6.74534L12.2002 9.72854L13.2642 14.189C13.4508 14.9713 12.5997 15.5897 11.9134 15.1704L8 12.7802L4.08663 15.1704C3.40027 15.5897 2.54922 14.9713 2.73583 14.189L3.79982 9.72854L0.317237 6.74534C-0.293565 6.22213 0.0315088 5.22165 0.833196 5.15738L5.40414 4.79093L7.16516 0.556942ZM8 2.30681L6.60999 5.6488C6.47978 5.96186 6.18537 6.17576 5.8474 6.20285L2.23944 6.4921L4.98833 8.84682C5.24582 9.06739 5.35828 9.41349 5.27961 9.74329L4.43978 13.2641L7.5287 11.3773C7.81805 11.2006 8.18195 11.2006 8.4713 11.3773L11.5602 13.2641L10.7204 9.74329C10.6417 9.41349 10.7542 9.06739 11.0117 8.84682L13.7606 6.4921L10.1526 6.20285C9.81463 6.17576 9.52022 5.96186 9.39001 5.6488L8 2.30681Z" fill="#989BA2"/>
</svg>
