<svg width="328" height="115" viewBox="0 0 328 115" fill="none" xmlns="http://www.w3.org/2000/svg">
<path d="M114 16C114 7.16344 121.163 0 130 0H186C194.837 0 202 7.16344 202 16V141C202 149.837 194.837 157 186 157H130C121.163 157 114 149.837 114 141V16Z" fill="url(#paint0_linear_24588_3395)"/>
<rect x="118" y="4" width="80" height="148" rx="12.56" fill="#E0DBD0"/>
<mask id="mask0_24588_3395" style="mask-type:alpha" maskUnits="userSpaceOnUse" x="118" y="4" width="80" height="149">
<rect x="118" y="4" width="80" height="148.467" rx="12.56" fill="#E0DBD0"/>
</mask>
<g mask="url(#mask0_24588_3395)">
<path fill-rule="evenodd" clip-rule="evenodd" d="M215.759 21H106.995C107.017 15.1443 107.194 11.9198 108.593 9.42292C109.725 7.40192 111.393 5.73327 113.414 4.60145C116.274 3 120.088 3 127.715 3H195.039C202.666 3 206.48 3 209.34 4.60145C211.361 5.73327 213.029 7.40192 214.161 9.42292C215.56 11.9198 215.737 15.1443 215.759 21Z" fill="white"/>
</g>
<path d="M140.84 3.46993H174.97L171.934 8.32828C171.169 9.55238 169.827 10.296 168.383 10.296H147.426C145.983 10.296 144.641 9.55238 143.876 8.32828L140.84 3.46993Z" fill="#585472"/>
<g filter="url(#filter0_dd_24588_3395)">
<path fill-rule="evenodd" clip-rule="evenodd" d="M168.435 29.7454C168 30.5224 168 31.5588 168 33.6315V84.3685C168 86.4412 168 87.4776 168.435 88.2546C168.743 88.8038 169.196 89.2573 169.745 89.5648C170.522 90 171.559 90 173.632 90H198V28H173.632C171.559 28 170.522 28 169.745 28.4352C169.196 28.7427 168.743 29.1962 168.435 29.7454ZM202 28V90H237.368C239.441 90 240.478 90 241.255 89.5648C241.804 89.2573 242.257 88.8038 242.565 88.2546C243 87.4776 243 86.4412 243 84.3685V33.6315C243 31.5588 243 30.5224 242.565 29.7454C242.257 29.1962 241.804 28.7427 241.255 28.4352C240.478 28 239.441 28 237.368 28H202Z" fill="white"/>
<rect x="171.774" y="32.2661" width="8.53261" height="8.53261" rx="1.70652" fill="#D8D3CF"/>
<path d="M185 36.5C185 35.6716 185.672 35 186.5 35H198V38H186.5C185.672 38 185 37.3284 185 36.5Z" fill="#D8D3CF"/>
<path d="M202 35H215.5C216.328 35 217 35.6716 217 36.5C217 37.3284 216.328 38 215.5 38H202V35Z" fill="#D8D3CF"/>
<rect x="172" y="52" width="20" height="3" rx="1.5" fill="#D8D3CF"/>
<rect x="229" y="35" width="10" height="3" rx="1.5" fill="#D8D3CF"/>
<path opacity="0.5" d="M202 45H243V46H202V45Z" fill="#D8D3CF"/>
<path opacity="0.5" d="M168 45H198V46H168V45Z" fill="#D8D3CF"/>
</g>
<g filter="url(#filter1_dd_24588_3395)">
<path d="M2 33.6315C2 31.5588 2 30.5224 2.43518 29.7454C2.74274 29.1962 3.19617 28.7427 3.74536 28.4352C4.52242 28 5.55879 28 7.63152 28H71.3685C73.4412 28 74.4776 28 75.2546 28.4352C75.8038 28.7427 76.2573 29.1962 76.5648 29.7454C77 30.5224 77 31.5588 77 33.6315V84.3685C77 86.4412 77 87.4776 76.5648 88.2546C76.2573 88.8038 75.8038 89.2573 75.2546 89.5648C74.4776 90 73.4412 90 71.3685 90H7.63152C5.55879 90 4.52242 90 3.74536 89.5648C3.19617 89.2573 2.74274 88.8038 2.43518 88.2546C2 87.4776 2 86.4412 2 84.3685V33.6315Z" fill="white"/>
<rect x="5.77441" y="32.2661" width="8.53261" height="8.53261" rx="1.70652" fill="#D8D3CF"/>
<path d="M19 36.5C19 35.6716 19.6716 35 20.5 35H32.5C33.3284 35 34 35.6716 34 36.5C34 37.3284 33.3284 38 32.5 38H20.5C19.6716 38 19 37.3284 19 36.5Z" fill="#D8D3CF"/>
<rect x="6" y="53" width="50" height="17" rx="2" fill="#F5F4F2"/>
<rect x="63" y="35" width="10" height="3" rx="1.5" fill="#D8D3CF"/>
<path opacity="0.5" d="M2 45H77V46H2V45Z" fill="#D8D3CF"/>
</g>
<g filter="url(#filter2_dd_24588_3395)">
<path d="M251 33.6315C251 31.5588 251 30.5224 251.435 29.7454C251.743 29.1962 252.196 28.7427 252.745 28.4352C253.522 28 254.559 28 256.632 28H320.368C322.441 28 323.478 28 324.255 28.4352C324.804 28.7427 325.257 29.1962 325.565 29.7454C326 30.5224 326 31.5588 326 33.6315V84.3685C326 86.4412 326 87.4776 325.565 88.2546C325.257 88.8038 324.804 89.2573 324.255 89.5648C323.478 90 322.441 90 320.368 90H256.632C254.559 90 253.522 90 252.745 89.5648C252.196 89.2573 251.743 88.8038 251.435 88.2546C251 87.4776 251 86.4412 251 84.3685V33.6315Z" fill="white"/>
<rect x="254.774" y="32.2661" width="8.53261" height="8.53261" rx="1.70652" fill="#D8D3CF"/>
<path d="M268 36.5C268 35.6716 268.672 35 269.5 35H284.5C285.328 35 286 35.6716 286 36.5C286 37.3284 285.328 38 284.5 38H269.5C268.672 38 268 37.3284 268 36.5Z" fill="#D8D3CF"/>
<path d="M288 36.5C288 35.6716 288.672 35 289.5 35H293.5C294.328 35 295 35.6716 295 36.5C295 37.3284 294.328 38 293.5 38H289.5C288.672 38 288 37.3284 288 36.5Z" fill="#D8D3CF"/>
<rect x="255" y="52" width="20" height="3" rx="1.5" fill="#D8D3CF"/>
<path d="M255 61.5C255 60.6716 255.672 60 256.5 60H282.5C283.328 60 284 60.6716 284 61.5C284 62.3284 283.328 63 282.5 63H256.5C255.672 63 255 62.3284 255 61.5Z" fill="#D8D3CF"/>
<path d="M255 72C255 70.8954 255.895 70 257 70H320C321.105 70 322 70.8954 322 72V80C322 81.1046 321.105 82 320 82H257C255.895 82 255 81.1046 255 80V72Z" fill="#F5F4F2"/>
<rect x="312" y="35" width="10" height="3" rx="1.5" fill="#D8D3CF"/>
<path opacity="0.5" d="M251 45H326V46H251V45Z" fill="#D8D3CF"/>
</g>
<g filter="url(#filter3_dd_24588_3395)">
<path d="M85 33.6315C85 31.5588 85 30.5224 85.4352 29.7454C85.7427 29.1962 86.1962 28.7427 86.7454 28.4352C87.5224 28 88.5588 28 90.6315 28H154.368C156.441 28 157.478 28 158.255 28.4352C158.804 28.7427 159.257 29.1962 159.565 29.7454C160 30.5224 160 31.5588 160 33.6315V84.3685C160 86.4412 160 87.4776 159.565 88.2546C159.257 88.8038 158.804 89.2573 158.255 89.5648C157.478 90 156.441 90 154.368 90H90.6315C88.5588 90 87.5224 90 86.7454 89.5648C86.1962 89.2573 85.7427 88.8038 85.4352 88.2546C85 87.4776 85 86.4412 85 84.3685V33.6315Z" fill="white"/>
<rect x="88.7744" y="32.2661" width="8.53261" height="8.53261" rx="1.70652" fill="#D8D3CF"/>
<path d="M102 36.5C102 35.6716 102.672 35 103.5 35H126.5C127.328 35 128 35.6716 128 36.5C128 37.3284 127.328 38 126.5 38H103.5C102.672 38 102 37.3284 102 36.5Z" fill="#D8D3CF"/>
<rect x="89" y="52" width="20" height="3" rx="1.5" fill="#D8D3CF"/>
<path d="M89 61.5C89 60.6716 89.6716 60 90.5 60H116.5C117.328 60 118 60.6716 118 61.5C118 62.3284 117.328 63 116.5 63H90.5C89.6716 63 89 62.3284 89 61.5Z" fill="#D8D3CF"/>
<path d="M123 60.921C123 60.4123 123.412 60 123.921 60H136.5C137.328 60 138 60.6716 138 61.5C138 62.3284 137.328 63 136.5 63H123.921C123.412 63 123 62.5877 123 62.079V60.921Z" fill="#D8D3CF"/>
<rect x="146" y="35" width="10" height="3" rx="1.5" fill="#D8D3CF"/>
<path opacity="0.5" d="M85 45H160V46H85V45Z" fill="#D8D3CF"/>
</g>
<rect x="202" y="28" width="31" height="62" fill="url(#paint1_linear_24588_3395)"/>
<path d="M173 74C173 72.8954 173.895 72 175 72H183C184.105 72 185 72.8954 185 74V82C185 83.1046 184.105 84 183 84H175C173.895 84 173 83.1046 173 82V74Z" fill="#F5F4F2"/>
<defs>
<filter id="filter0_dd_24588_3395" x="166" y="27" width="79" height="66" filterUnits="userSpaceOnUse" color-interpolation-filters="sRGB">
<feFlood flood-opacity="0" result="BackgroundImageFix"/>
<feColorMatrix in="SourceAlpha" type="matrix" values="0 0 0 0 0 0 0 0 0 0 0 0 0 0 0 0 0 0 127 0" result="hardAlpha"/>
<feOffset/>
<feGaussianBlur stdDeviation="0.5"/>
<feColorMatrix type="matrix" values="0 0 0 0 0 0 0 0 0 0 0 0 0 0 0 0 0 0 0.05 0"/>
<feBlend mode="normal" in2="BackgroundImageFix" result="effect1_dropShadow_24588_3395"/>
<feColorMatrix in="SourceAlpha" type="matrix" values="0 0 0 0 0 0 0 0 0 0 0 0 0 0 0 0 0 0 127 0" result="hardAlpha"/>
<feOffset dy="1"/>
<feGaussianBlur stdDeviation="1"/>
<feColorMatrix type="matrix" values="0 0 0 0 0 0 0 0 0 0 0 0 0 0 0 0 0 0 0.1 0"/>
<feBlend mode="normal" in2="effect1_dropShadow_24588_3395" result="effect2_dropShadow_24588_3395"/>
<feBlend mode="normal" in="SourceGraphic" in2="effect2_dropShadow_24588_3395" result="shape"/>
</filter>
<filter id="filter1_dd_24588_3395" x="0" y="27" width="79" height="66" filterUnits="userSpaceOnUse" color-interpolation-filters="sRGB">
<feFlood flood-opacity="0" result="BackgroundImageFix"/>
<feColorMatrix in="SourceAlpha" type="matrix" values="0 0 0 0 0 0 0 0 0 0 0 0 0 0 0 0 0 0 127 0" result="hardAlpha"/>
<feOffset/>
<feGaussianBlur stdDeviation="0.5"/>
<feColorMatrix type="matrix" values="0 0 0 0 0 0 0 0 0 0 0 0 0 0 0 0 0 0 0.05 0"/>
<feBlend mode="normal" in2="BackgroundImageFix" result="effect1_dropShadow_24588_3395"/>
<feColorMatrix in="SourceAlpha" type="matrix" values="0 0 0 0 0 0 0 0 0 0 0 0 0 0 0 0 0 0 127 0" result="hardAlpha"/>
<feOffset dy="1"/>
<feGaussianBlur stdDeviation="1"/>
<feColorMatrix type="matrix" values="0 0 0 0 0 0 0 0 0 0 0 0 0 0 0 0 0 0 0.1 0"/>
<feBlend mode="normal" in2="effect1_dropShadow_24588_3395" result="effect2_dropShadow_24588_3395"/>
<feBlend mode="normal" in="SourceGraphic" in2="effect2_dropShadow_24588_3395" result="shape"/>
</filter>
<filter id="filter2_dd_24588_3395" x="249" y="27" width="79" height="66" filterUnits="userSpaceOnUse" color-interpolation-filters="sRGB">
<feFlood flood-opacity="0" result="BackgroundImageFix"/>
<feColorMatrix in="SourceAlpha" type="matrix" values="0 0 0 0 0 0 0 0 0 0 0 0 0 0 0 0 0 0 127 0" result="hardAlpha"/>
<feOffset/>
<feGaussianBlur stdDeviation="0.5"/>
<feColorMatrix type="matrix" values="0 0 0 0 0 0 0 0 0 0 0 0 0 0 0 0 0 0 0.05 0"/>
<feBlend mode="normal" in2="BackgroundImageFix" result="effect1_dropShadow_24588_3395"/>
<feColorMatrix in="SourceAlpha" type="matrix" values="0 0 0 0 0 0 0 0 0 0 0 0 0 0 0 0 0 0 127 0" result="hardAlpha"/>
<feOffset dy="1"/>
<feGaussianBlur stdDeviation="1"/>
<feColorMatrix type="matrix" values="0 0 0 0 0 0 0 0 0 0 0 0 0 0 0 0 0 0 0.1 0"/>
<feBlend mode="normal" in2="effect1_dropShadow_24588_3395" result="effect2_dropShadow_24588_3395"/>
<feBlend mode="normal" in="SourceGraphic" in2="effect2_dropShadow_24588_3395" result="shape"/>
</filter>
<filter id="filter3_dd_24588_3395" x="83" y="27" width="79" height="66" filterUnits="userSpaceOnUse" color-interpolation-filters="sRGB">
<feFlood flood-opacity="0" result="BackgroundImageFix"/>
<feColorMatrix in="SourceAlpha" type="matrix" values="0 0 0 0 0 0 0 0 0 0 0 0 0 0 0 0 0 0 127 0" result="hardAlpha"/>
<feOffset/>
<feGaussianBlur stdDeviation="0.5"/>
<feColorMatrix type="matrix" values="0 0 0 0 0 0 0 0 0 0 0 0 0 0 0 0 0 0 0.05 0"/>
<feBlend mode="normal" in2="BackgroundImageFix" result="effect1_dropShadow_24588_3395"/>
<feColorMatrix in="SourceAlpha" type="matrix" values="0 0 0 0 0 0 0 0 0 0 0 0 0 0 0 0 0 0 127 0" result="hardAlpha"/>
<feOffset dy="1"/>
<feGaussianBlur stdDeviation="1"/>
<feColorMatrix type="matrix" values="0 0 0 0 0 0 0 0 0 0 0 0 0 0 0 0 0 0 0.1 0"/>
<feBlend mode="normal" in2="effect1_dropShadow_24588_3395" result="effect2_dropShadow_24588_3395"/>
<feBlend mode="normal" in="SourceGraphic" in2="effect2_dropShadow_24588_3395" result="shape"/>
</filter>
<linearGradient id="paint0_linear_24588_3395" x1="154.924" y1="-61.6786" x2="154.924" y2="180" gradientUnits="userSpaceOnUse">
<stop stop-color="#6B6282"/>
<stop offset="1" stop-color="#1D2340"/>
</linearGradient>
<linearGradient id="paint1_linear_24588_3395" x1="197.441" y1="59" x2="223.882" y2="59" gradientUnits="userSpaceOnUse">
<stop stop-color="#D9D9D9"/>
<stop offset="1" stop-color="#D9D9D9" stop-opacity="0"/>
</linearGradient>
</defs>
</svg>
