<svg xmlns="http://www.w3.org/2000/svg" width="24" height="24" viewBox="0 0 24 24">
  <g class="ic-locks-filled">
    <g class="Icon">
      <path fill-rule="evenodd" d="M9 6.001c-.874.006-1.373.041-1.771.244a2.25 2.25 0 0 0-.984.984C6 7.709 6 8.339 6 9.6v6.3c0 1.26 0 1.89.245 2.371.216.424.56.768.984.984.48.245 1.11.245 2.371.245h7.8c1.26 0 1.89 0 2.372-.245.423-.216.767-.56.983-.983C21 17.79 21 17.16 21 15.9V9.6c0-1.26 0-1.89-.245-2.371a2.25 2.25 0 0 0-.983-.984c-.398-.203-.898-.238-1.772-.244a4.501 4.501 0 1 0-9 0ZM10.286 6h6.428a3.214 3.214 0 0 0-6.428 0Zm3.92 6.574a1.5 1.5 0 1 0-1.412 0l-.654 2.617a.45.45 0 0 0 .436.559h1.848a.45.45 0 0 0 .436-.56l-.654-2.616Z"/>
      <path d="M4.5 9.75a3.75 3.75 0 0 0-1.091 1.297C3 11.85 3 12.9 3 15v1.5c0 2.1 0 3.15.409 3.953a3.75 3.75 0 0 0 1.639 1.638C5.85 22.5 6.9 22.5 9 22.5h3c2.1 0 3.15 0 3.953-.409A3.75 3.75 0 0 0 17.25 21H9.3c-1.68 0-2.52 0-3.162-.327a3 3 0 0 1-1.311-1.311C4.5 18.72 4.5 17.88 4.5 16.2V9.75Z"/>
    </g>
  </g>
</svg>
