<svg xmlns="http://www.w3.org/2000/svg" width="24" height="24" viewBox="0 0 24 24">
  <g class="ic-fire">
    <path fill-rule="evenodd" d="M7.45 10.146a8.758 8.758 0 0 0 2.843-4.11c.29-.897.429-1.828.413-2.758 2.932.821 4.651 3.2 4.651 5.95 0 1.646-.93 3.316-2.22 4.431l-.014.013c-.058.05-.18.154-.28.263-.09.097-.45.49-.456 1.114a1.656 1.656 0 0 0 .938 1.502 1.652 1.652 0 0 0 1.175.089c.147-.042.297-.107.356-.133l.014-.006c1.16-.495 2.697-1.518 3.877-3.52.04 1.6-.251 3.243-1.133 4.63l-.024.037-.021.039a6.307 6.307 0 0 1-1.838 2.055 6.705 6.705 0 0 1-2.603 1.126 6.87 6.87 0 0 1-2.867-.04 6.682 6.682 0 0 1-2.567-1.196 6.28 6.28 0 0 1-1.774-2.104 5.957 5.957 0 0 1-.668-2.6c-.021-.9.164-1.796.546-2.625.378-.82.94-1.558 1.652-2.157Zm-1.177-.964a7.72 7.72 0 0 0-1.838 2.494 7.439 7.439 0 0 0-.683 3.287 7.457 7.457 0 0 0 .836 3.255 7.78 7.78 0 0 0 2.196 2.607 8.183 8.183 0 0 0 3.143 1.466 8.371 8.371 0 0 0 3.494.048 8.203 8.203 0 0 0 3.185-1.379 7.808 7.808 0 0 0 2.274-2.545c1.688-2.655 1.531-5.91 1.029-8.213-.09-.412-.191-.794-.295-1.137a12.313 12.313 0 0 0-.352-1.006 8.117 8.117 0 0 0-.055-.13c-.053-.126-.08-.189-.137-.212a.16.16 0 0 0-.148.02c-.049.037-.06.112-.081.261a12.76 12.76 0 0 1-.074.459c-.042.239-.088.47-.139.693a12.619 12.619 0 0 1-.372 1.312c-.755 2.18-1.938 3.414-2.962 4.105a6.132 6.132 0 0 1-.886.499l-.04.018-.087.038c-.165.07-.247.105-.309.076a.157.157 0 0 1-.085-.136c0-.068.078-.135.231-.268a2.457 2.457 0 0 0 .082-.071c.243-.216.477-.45.699-.7.957-1.08 1.684-2.454 1.896-3.926.04-.287.062-.577.062-.87 0-3.658-2.452-6.712-6.327-7.536a10.708 10.708 0 0 0-.567-.103 10.181 10.181 0 0 0-.692-.08c-.11-.01-.166-.014-.205.006a.149.149 0 0 0-.072.084c-.014.041 0 .098.026.213a6.996 6.996 0 0 1-.154 3.762A7.24 7.24 0 0 1 6.51 8.978l-.001.001v-.001c-.08.067-.158.135-.235.204Z" class="Icon"/>
  </g>
</svg>
