<svg width="16" height="16" viewBox="0 0 16 16" fill="none" xmlns="http://www.w3.org/2000/svg">
<path d="M7.14551 1.27905C7.6974 1.07836 8.3026 1.07836 8.85449 1.27905L13.6709 3.03003C13.8684 3.10185 13.9999 3.28962 14 3.49976V9.12573C13.9999 10.7723 13.1007 12.2874 11.6553 13.0759L8.23926 14.9392C8.09013 15.0205 7.90987 15.0205 7.76074 14.9392L4.34473 13.0759C2.89934 12.2874 2.00008 10.7723 2 9.12573V3.49976C2.00012 3.28962 2.1316 3.10185 2.3291 3.03003L7.14551 1.27905ZM8.5127 2.21851C8.18156 2.09809 7.81844 2.09809 7.4873 2.21851L3 3.85034V9.12573C3.00008 10.4065 3.69987 11.5847 4.82422 12.198L8 13.9304L11.1758 12.198C12.3001 11.5847 12.9999 10.4065 13 9.12573V3.85034L8.5127 2.21851ZM10.3965 5.64624C10.5917 5.45113 10.9083 5.45111 11.1035 5.64624C11.2987 5.84146 11.2987 6.158 11.1035 6.35327L7.60352 9.85327C7.40825 10.0485 7.09175 10.0485 6.89648 9.85327L5.39648 8.35327C5.20131 8.158 5.20125 7.84147 5.39648 7.64624C5.59173 7.45113 5.90829 7.45111 6.10352 7.64624L7.25 8.79272L10.3965 5.64624Z" fill="black"/>
</svg>
