<svg xmlns="http://www.w3.org/2000/svg" width="24" height="24" viewBox="0 0 24 24">
  <g class="ic-tags">
    <path fill-rule="evenodd" d="m20.727 11.32-6.347 6.307L6 9.3V2.99h6.348l8.38 8.328Zm-5.286 7.361a1.507 1.507 0 0 1-2.121 0l-8.38-8.328a1.486 1.486 0 0 1-.44-1.054V2.99c0-.823.673-1.49 1.5-1.49h6.348c.397 0 .779.157 1.06.437l8.38 8.328a1.484 1.484 0 0 1 0 2.108l-6.347 6.308ZM10.5 5.973c0 .823-.672 1.49-1.5 1.49s-1.5-.667-1.5-1.49.672-1.49 1.5-1.49 1.5.667 1.5 1.49ZM5.78 12.9a.753.753 0 0 0-1.06 0 .742.742 0 0 0 0 1.054l7.939 7.891a2.26 2.26 0 0 0 3.182 0l6.44-6.4a.742.742 0 0 0 0-1.054.753.753 0 0 0-1.061 0l-6.44 6.4a.753.753 0 0 1-1.06 0L5.78 12.9Z" class="Icon"/>
  </g>
</svg>
