<svg xmlns="http://www.w3.org/2000/svg" width="24" height="24" viewBox="0 0 24 24">
  <g class="ic-trash-cross-filled">
    <path fill-rule="evenodd" d="M9.08 1.915a.75.75 0 0 1 .67-.415h4.5a.75.75 0 0 1 .67.415L16.214 4.5H21A.75.75 0 0 1 21 6h-1.565l-1.316 15.13a1.5 1.5 0 0 1-1.494 1.37h-9.25a1.5 1.5 0 0 1-1.494-1.37L4.565 6H3a.75.75 0 0 1 0-1.5h4.786L9.08 1.915ZM13.786 3l.75 1.5H9.463l.75-1.5h3.572ZM8.47 9.97a.75.75 0 0 1 1.06 0L12 12.44l2.47-2.47a.75.75 0 1 1 1.06 1.06l-2.47 2.47 2.47 2.47a.75.75 0 1 1-1.06 1.06L12 14.56l-2.47 2.47a.75.75 0 0 1-1.06-1.06l2.47-2.47-2.47-2.47a.75.75 0 0 1 0-1.06Z" class="Icon"/>
  </g>
</svg>
