<svg width="24" height="24" viewBox="0 0 24 24" fill="none" xmlns="http://www.w3.org/2000/svg">
<g id="ic-sliders">
<g id="Icon">
<path fill-rule="evenodd" clip-rule="evenodd" d="M19.4056 3.75C19.0727 2.45508 17.8981 1.5 16.5 1.5C15.1019 1.5 13.9273 2.45508 13.5944 3.75H2.25C1.99374 3.75 1.76747 3.87891 1.6322 4.0752C1.54884 4.19531 1.5 4.3418 1.5 4.5C1.5 4.91309 1.83577 5.25 2.25 5.25H13.5944C13.9273 6.54492 15.1019 7.5 16.5 7.5C17.8981 7.5 19.0727 6.54492 19.4056 5.25H21.75C22.1642 5.25 22.5 4.91309 22.5 4.5C22.5 4.08691 22.1642 3.75 21.75 3.75H19.4056ZM18 4.5C18 5.3291 17.3284 6 16.5 6C15.6716 6 15 5.3291 15 4.5C15 3.6709 15.6716 3 16.5 3C17.3284 3 18 3.6709 18 4.5Z" fill="#0F0F0F"/>
<path fill-rule="evenodd" clip-rule="evenodd" d="M2.25 18.75C1.83577 18.75 1.5 19.0869 1.5 19.5C1.5 19.8193 1.7005 20.0918 1.98271 20.2002C2.06575 20.2324 2.15584 20.25 2.25 20.25H13.5944C13.9273 21.5449 15.1019 22.5 16.5 22.5C17.8981 22.5 19.0727 21.5449 19.4056 20.25H21.75C22.1642 20.25 22.5 19.9131 22.5 19.5C22.5 19.0869 22.1642 18.75 21.75 18.75H19.4056C19.0727 17.4551 17.8981 16.5 16.5 16.5C15.1019 16.5 13.9273 17.4551 13.5944 18.75H2.25ZM16.5 18C17.3284 18 18 18.6709 18 19.5C18 20.3291 17.3284 21 16.5 21C15.6716 21 15 20.3291 15 19.5C15 18.6709 15.6716 18 16.5 18Z" fill="#0F0F0F"/>
<path fill-rule="evenodd" clip-rule="evenodd" d="M4.59439 11.25H2.25C2.00999 11.25 1.79631 11.3643 1.65903 11.54C1.58253 11.6367 1.5298 11.7539 1.50938 11.8828L1.5 12C1.5 12.167 1.55457 12.3193 1.64685 12.4453C1.76234 12.6006 1.93689 12.7119 2.13748 12.7412L2.25 12.75H4.59439C4.92728 14.0449 6.10194 15 7.5 15C8.89806 15 10.0727 14.0449 10.4056 12.75H21.75C21.8717 12.75 21.9867 12.7207 22.0883 12.668L22.15 12.6328C22.1855 12.6123 22.219 12.5889 22.2502 12.5596C22.4035 12.4219 22.5 12.2227 22.5 12C22.5 11.7803 22.4054 11.584 22.2547 11.4463C22.1974 11.3936 22.132 11.3496 22.0607 11.3174C21.9661 11.2734 21.8608 11.25 21.75 11.25H10.4056C10.0727 9.95508 8.89806 9 7.5 9C6.10194 9 4.92728 9.95508 4.59439 11.25ZM9 12C9 11.1709 8.32841 10.5 7.5 10.5C6.67159 10.5 6 11.1709 6 12C6 12.8291 6.67159 13.5 7.5 13.5C8.32841 13.5 9 12.8291 9 12Z" fill="#0F0F0F"/>
</g>
</g>
</svg>
