<svg xmlns="http://www.w3.org/2000/svg" width="24" height="24" viewBox="0 0 24 24">
  <g class="ic-language">
    <path fill-rule="evenodd" d="M13.628 16.51H21a1.5 1.5 0 0 0 1.5-1.502V4.502A1.5 1.5 0 0 0 21 3H3a1.5 1.5 0 0 0-1.5 1.502v10.506A1.5 1.5 0 0 0 3 16.51h7.5v3.13l2.689-2.69.44-.44ZM10.5 21.762l-.016.016-.18.18-.382.383A.54.54 0 0 1 9 21.959V18.01H3a3 3 0 0 1-3-3.002V4.502A3 3 0 0 1 3 1.5h18a3 3 0 0 1 3 3.002v10.506a3 3 0 0 1-3 3.002h-6.75l-3.75 3.752ZM6.75 5.25a.75.75 0 0 1 .697.471l3 7.5a.75.75 0 0 1-1.393.557L8.342 12H5.158l-.712 1.779a.75.75 0 1 1-1.392-.558l3-7.5a.75.75 0 0 1 .697-.471Zm-.992 5.25h1.984L6.75 8.02l-.992 2.48ZM16.5 5.25a.75.75 0 0 0-1.5 0V6h-2.25a.75.75 0 0 0 0 1.5h4.444c-.162 1.07-.669 2.042-1.444 2.909a6.59 6.59 0 0 1-.77-1.041.75.75 0 1 0-1.29.764c.272.46.596.894.963 1.3-.65.513-1.404.98-2.239 1.397a.75.75 0 1 0 .671 1.342 14.242 14.242 0 0 0 2.664-1.7 14.235 14.235 0 0 0 2.665 1.7.75.75 0 1 0 .671-1.342 12.948 12.948 0 0 1-2.238-1.398c1.001-1.108 1.69-2.415 1.86-3.931h.793a.75.75 0 0 0 0-1.5h-3v-.75Z" class="Icon"/>
  </g>
</svg>
