<svg width="48" height="50" viewBox="0 0 48 50" fill="none" xmlns="http://www.w3.org/2000/svg">
<path d="M3.38989 7.82499C3.38989 4.03079 6.4657 0.954987 10.2599 0.954987H27.948C29.7182 0.954987 31.4201 1.63832 32.6988 2.8625L42.4907 12.2368C43.8444 13.5327 44.6099 15.3254 44.6099 17.1993V42.175C44.6099 45.9692 41.5341 49.045 37.7399 49.045H10.2599C6.4657 49.045 3.38989 45.9692 3.38989 42.175V7.82499Z" fill="#5C8DFF"/>
<path d="M44.4743 15.84H35.4501C32.2883 15.84 29.7251 13.2768 29.7251 10.115V1.18875C30.8323 1.48525 31.8573 2.05671 32.699 2.86249L42.491 12.2368C43.5123 13.2146 44.1988 14.4751 44.4743 15.84Z" fill="#8BB7FF"/>
<path d="M44.6101 17.5575H35.4501C31.3397 17.5575 28.0076 14.2254 28.0076 10.115V0.955231C28.5922 0.960284 29.169 1.03984 29.7251 1.18874V10.115C29.7251 13.2768 32.2882 15.84 35.4501 15.84H44.4743C44.5639 16.2841 44.6101 16.7393 44.6101 17.1993V17.5575Z" fill="#2965FF"/>
<path d="M30.144 23.4C29.9389 23.4 29.761 23.5418 29.7152 23.7417L27.4013 33.8329L24.9779 23.7373C24.9304 23.5395 24.7535 23.4 24.55 23.4H23.4846C23.2822 23.4 23.106 23.538 23.0574 23.7344L20.561 33.8329L18.2836 23.7431C18.2383 23.5425 18.06 23.4 17.8544 23.4H16.8506C16.5684 23.4 16.3591 23.662 16.4215 23.9372L19.2124 36.2572C19.2579 36.4577 19.436 36.6 19.6416 36.6H21.4862C21.6891 36.6 21.8656 36.4613 21.9137 36.2642L23.9998 27.7003L26.0496 36.2625C26.097 36.4604 26.2739 36.6 26.4775 36.6H28.3216C28.5267 36.6 28.7046 36.4583 28.7505 36.2584L31.5763 23.9384C31.6395 23.6628 31.4302 23.4 31.1475 23.4H30.144Z" fill="white"/>
</svg>
