<svg xmlns="http://www.w3.org/2000/svg" width="24" height="24" viewBox="0 0 24 24">
  <g class="ic-reply-all">
    <path fill-rule="evenodd" d="M12.198 3.22a.75.75 0 0 1 1.28.53v4.533c.733.053 1.933.19 3.245.549 1.599.436 3.442 1.221 4.784 2.656 1.489 1.59 2.095 3.708 2.337 5.414.245 1.72.134 3.123.11 3.383a.761.761 0 0 1-.69.688.769.769 0 0 1-.684-.306c-3.305-4.429-7.491-4.93-9.101-4.947v4.53a.75.75 0 0 1-1.281.53l-8.229-8.25a.75.75 0 0 1 0-1.06l8.229-8.25Zm-.22 5.48V5.564L5.56 12l6.42 6.436v-3.171c0-.524.4-1.005.975-1.034 1.188-.061 5.645.01 9.518 3.999a14.087 14.087 0 0 0-.113-1.117c-.223-1.573-.762-3.334-1.947-4.6-1.072-1.146-2.611-1.832-4.084-2.234a15.795 15.795 0 0 0-3.335-.521A1.06 1.06 0 0 1 11.98 8.7Zm-3.53-5.48A.75.75 0 1 1 9.51 4.28L1.81 12l7.7 7.72a.75.75 0 1 1-1.062 1.06L.219 12.53a.75.75 0 0 1 0-1.06l8.229-8.25Z" class="Icon"/>
  </g>
</svg>
