<svg xmlns="http://www.w3.org/2000/svg" width="24" height="24" viewBox="0 0 24 24">
  <g class="ic-tag-plus">
    <path fill-rule="evenodd" d="M20.25 1.5a.75.75 0 0 0-1.5 0v2.25H16.5a.75.75 0 0 0 0 1.5h2.25V7.5a.75.75 0 0 0 1.5 0V5.25h2.25a.75.75 0 0 0 0-1.5h-2.25V1.5Zm.085 12.638-7.425 7.424-9.637-9.637V4.501h7.425l9.637 9.637Zm-6.364 8.485a1.5 1.5 0 0 1-2.121 0l-9.637-9.637a1.5 1.5 0 0 1-.44-1.06V4.5a1.5 1.5 0 0 1 1.5-1.5h7.425a1.5 1.5 0 0 1 1.06.44l9.638 9.636a1.5 1.5 0 0 1 0 2.121l-7.425 7.425ZM8.523 8.25a1.5 1.5 0 1 1-3 0 1.5 1.5 0 0 1 3 0Z" class="Icon"/>
  </g>
</svg>
