<svg xmlns="http://www.w3.org/2000/svg" width="24" height="24" viewBox="0 0 24 24">
  <g class="ic-arrow-up-circle-line">
    <g class="Icon">
      <path d="m14.5 8.06 1.577 1.576a.75.75 0 1 0 1.06-1.06L14.492 5.93a1.05 1.05 0 0 0-1.485 0l-2.644 2.645a.75.75 0 0 0 1.06 1.06L13 8.06v6.19a.75.75 0 1 0 1.5 0V8.06Z"/>
      <path fill-rule="evenodd" d="M13.75 2.25a8 8 0 1 1 0 16 8 8 0 0 1 0-16Zm0 1.5a6.5 6.5 0 1 1 0 13 6.5 6.5 0 0 1 0-13Z"/>
      <path d="M3 2.253a.75.75 0 0 1 .75.75v15A2.25 2.25 0 0 0 6 20.253h15a.75.75 0 0 1 0 1.5H6a3.75 3.75 0 0 1-3.75-3.75v-15a.75.75 0 0 1 .75-.75Z"/>
    </g>
  </g>
</svg>
