<svg xmlns="http://www.w3.org/2000/svg" width="24" height="24" viewBox="0 0 24 24">
  <g class="ic-pin-filled">
    <path d="M11.247 18H3.692c-.417 0-.763-.34-.68-.746.449-2.162 2.752-3.444 3.587-3.843a.646.646 0 0 0 .363-.463l1.474-8.151a.597.597 0 0 0-.154-.517L6.61 2.51a.6.6 0 0 1 .441-1.01h9.902a.6.6 0 0 1 .441 1.01l-1.671 1.77a.597.597 0 0 0-.154.517l1.473 8.15a.646.646 0 0 0 .363.464c.836.4 3.134 1.676 3.582 3.839.084.406-.262.746-.679.746l-7.55.004v5.25c0 .414-.339.75-.756.75a.753.753 0 0 1-.755-.75V18Z" class="Icon"/>
  </g>
</svg>
