<svg xmlns="http://www.w3.org/2000/svg" width="24" height="24" viewBox="0 0 24 24">
  <g class="ic-sun">
    <path fill-rule="evenodd" d="M12 0a.75.75 0 0 1 .75.75V3a.75.75 0 0 1-1.5 0V.75A.75.75 0 0 1 12 0Zm0 6.75a5.25 5.25 0 1 0 0 10.5 5.25 5.25 0 0 0 0-10.5ZM5.25 12a6.75 6.75 0 1 1 13.5 0 6.75 6.75 0 0 1-13.5 0Zm7.5 9a.75.75 0 0 0-1.5 0v2.25a.75.75 0 0 0 1.5 0V21Zm7.735-17.486a.75.75 0 0 1 0 1.06l-1.59 1.592a.75.75 0 0 1-1.061-1.06l1.59-1.592a.75.75 0 0 1 1.061 0ZM6.166 18.894a.75.75 0 1 0-1.06-1.061l-1.591 1.59a.75.75 0 0 0 1.06 1.062l1.591-1.591ZM24 12a.75.75 0 0 1-.75.75H21a.75.75 0 0 1 0-1.5h2.25A.75.75 0 0 1 24 12Zm-21 .75a.75.75 0 0 0 0-1.5H.75a.75.75 0 0 0 0 1.5H3Zm17.485 7.736a.75.75 0 0 1-1.06 0l-1.591-1.591a.75.75 0 0 1 1.06-1.06l1.591 1.59a.75.75 0 0 1 0 1.06ZM5.105 6.167a.75.75 0 0 0 1.061-1.06l-1.59-1.592a.75.75 0 1 0-1.061 1.061l1.59 1.591Z" class="Icon"/>
  </g>
</svg>
