<svg width="40" height="40" viewBox="0 0 40 40" fill="none" xmlns="http://www.w3.org/2000/svg">
<g clip-path="url(#clip0_12758_35772)">
<path fill-rule="evenodd" clip-rule="evenodd" d="M11 13C11 12.4477 11.4477 12 12 12H28C28.5523 12 29 12.4477 29 13C29 13.5523 28.5523 14 28 14H12C11.4477 14 11 13.5523 11 13ZM11 20C11 19.4477 11.4477 19 12 19H22C22.5523 19 23 19.4477 23 20C23 20.5523 22.5523 21 22 21H12C11.4477 21 11 20.5523 11 20ZM12 26C11.4477 26 11 26.4477 11 27C11 27.5523 11.4477 28 12 28H28C28.5523 28 29 27.5523 29 27C29 26.4477 28.5523 26 28 26H12Z" fill="#0F0F0F"/>
</g>
<defs>
<clipPath id="clip0_12758_35772">
<rect width="40" height="40" rx="20" fill="white"/>
</clipPath>
</defs>
</svg>
