<svg xmlns="http://www.w3.org/2000/svg" width="24" height="24" viewBox="0 0 24 24">
  <g class="ic-chevron-square-left">
    <g class="Icon">
      <path fill-rule="evenodd" d="M12.53 17.03a.75.75 0 0 1-1.06 0l-4.5-4.5a.75.75 0 0 1 0-1.06l4.5-4.5a.75.75 0 1 1 1.06 1.06L8.56 12l3.97 3.97a.75.75 0 0 1 0 1.06Z"/>
      <path fill-rule="evenodd" d="M19.5 1.5a3 3 0 0 1 3 3v15a3 3 0 0 1-3 3h-15a3 3 0 0 1-3-3v-15a3 3 0 0 1 3-3h15ZM18 3h1.5A1.5 1.5 0 0 1 21 4.5v15a1.5 1.5 0 0 1-1.5 1.5H18V3Zm-1.5 18h-12A1.5 1.5 0 0 1 3 19.5v-15A1.5 1.5 0 0 1 4.5 3h12v18Z"/>
    </g>
  </g>
</svg>
