<svg xmlns="http://www.w3.org/2000/svg" width="24" height="24" viewBox="0 0 24 24">
  <g class="ic-hourglass">
    <path fill-rule="evenodd" d="M4.5 1.5a.75.75 0 0 0 0 1.5h.75v1.729c0 1.292 0 1.938.167 2.533a4.5 4.5 0 0 0 .715 1.463c.368.497.878.894 1.898 1.687l1.023.796c.418.325.754.586 1.042.792-.288.206-.624.467-1.042.792l-1.023.796c-1.02.794-1.53 1.19-1.898 1.687a4.5 4.5 0 0 0-.715 1.463c-.167.595-.167 1.241-.167 2.533V21H4.5a.75.75 0 0 0 0 1.5h15a.75.75 0 0 0 0-1.5h-.75v-1.729c0-1.292 0-1.938-.167-2.533a4.498 4.498 0 0 0-.715-1.463c-.367-.497-.877-.893-1.898-1.687l-1.023-.796c-.418-.325-.753-.586-1.042-.792.289-.206.624-.467 1.042-.792l1.023-.796c1.02-.793 1.53-1.19 1.898-1.687.325-.44.568-.936.715-1.463.167-.595.167-1.241.167-2.533V3h.75a.75.75 0 0 0 0-1.5h-15ZM17.25 21v-1.729c0-1.377-.013-1.779-.111-2.129a3 3 0 0 0-.477-.975c-.216-.292-.525-.55-1.612-1.395l-1.024-.796c-1.163-.905-1.414-1.064-1.634-1.123a1.5 1.5 0 0 0-.784 0c-.22.06-.47.218-1.634 1.123l-1.023.796c-1.088.846-1.397 1.103-1.613 1.395a3 3 0 0 0-.477.975c-.098.35-.111.752-.111 2.13V21h10.5Zm0-18H6.75v1.729c0 1.377.013 1.779.111 2.129a3 3 0 0 0 .477.975c.216.292.525.55 1.613 1.395l1.023.796c1.163.905 1.414 1.064 1.634 1.123.257.07.527.07.784 0 .22-.06.47-.218 1.634-1.123l1.024-.796c1.087-.846 1.396-1.103 1.612-1.395a3 3 0 0 0 .477-.975c.098-.35.111-.752.111-2.13V3Z" class="Icon"/>
  </g>
</svg>
