<svg fill="none" height="20" viewBox="0 0 36 20" width="36" xmlns="http://www.w3.org/2000/svg" xmlns:xlink="http://www.w3.org/1999/xlink"><radialGradient id="a" cx="0" cy="0" gradientTransform="matrix(28.21621684 4.50000082 -4.89349575 30.68353603 7.78378 7.5)" gradientUnits="userSpaceOnUse" r="1"><stop offset="0" stop-color="#6e4bff"/><stop offset=".355428" stop-color="#fd4baf"/><stop offset="1" stop-color="#22d8ff"/></radialGradient><rect fill="#f1f3fd" height="19" rx="5.5" width="35" x=".5" y=".5"/><g fill="#6d4aff"><path clip-rule="evenodd" d="m8.60928 4.71102c-.65726-.50825-1.61172-.03978-1.61172.79107v7.99471c0 1.1046.89543 2 2 2h10.00474c1.1046 0 2-.8954 2-2v-7.99471c0-.83085-.9545-1.29932-1.6117-.79107l-5.0848 3.93198c-.1801.13928-.4316.13928-.6117 0zm-.61172.79107 5.08474 3.93198c.1797.13894.3831.23168.5943.27822l-.5176.46311c-.3285.2939-.8214.3067-1.1646.0303l-3.99684-3.2184zm11.00474 8.99471h-.8177v-7.58908l1.8177-1.40563v7.99471c0 .5523-.4477 1-1 1z" fill-rule="evenodd"/><path d="m23 10.5c0-.2761.2239-.5.5-.5h6c.2761 0 .5.2239.5.5s-.2239.5-.5.5h-6c-.2761 0-.5-.2239-.5-.5z"/><path d="m26.5 7c.2761 0 .5.22386.5.5v6c0 .2761-.2239.5-.5.5s-.5-.2239-.5-.5v-6c0-.27614.2239-.5.5-.5z"/></g><rect height="19" rx="5.5" stroke="url(#a)" width="35" x=".5" y=".5"/></svg>