<svg xmlns="http://www.w3.org/2000/svg" width="24" height="24" viewBox="0 0 24 24">
  <g class="ic-lock-open-check-filled">
    <path fill-rule="evenodd" d="M11.418 3.095a4.035 4.035 0 0 1 4.084 1.504l.4.528a.75.75 0 0 0 1.196-.905l-.4-.528A5.535 5.535 0 0 0 6.75 7.036v.476c-1.013.013-1.62.072-2.112.322a3 3 0 0 0-1.311 1.311C3 9.787 3 10.627 3 12.307v5.394c0 1.68 0 2.52.327 3.162a3 3 0 0 0 1.311 1.31c.642.328 1.482.328 3.162.328h8.4c1.68 0 2.52 0 3.162-.328a3 3 0 0 0 1.311-1.31C21 20.22 21 19.38 21 17.7v-5.394c0-1.68 0-2.52-.327-3.162a3 3 0 0 0-1.311-1.31c-.642-.328-1.482-.328-3.162-.328H8.25v-.471a4.035 4.035 0 0 1 3.168-3.941Zm6.363 8.38a.75.75 0 0 1 0 1.06l-5.789 5.786a1.05 1.05 0 0 1-1.484 0L7.72 15.534a.75.75 0 0 1 1.06-1.06l2.47 2.468 5.47-5.467a.75.75 0 0 1 1.06 0Z" class="Icon"/>
  </g>
</svg>
