<svg width="48" height="50" viewBox="0 0 48 50" fill="none" xmlns="http://www.w3.org/2000/svg">
<path d="M3.39001 7.82499C3.39001 4.03079 6.46582 0.954987 10.26 0.954987H27.9481C29.7183 0.954987 31.4202 1.63832 32.6989 2.8625L42.4909 12.2368C43.8445 13.5327 44.61 15.3254 44.61 17.1993V42.175C44.61 45.9692 41.5342 49.045 37.74 49.045H10.26C6.46582 49.045 3.39001 45.9692 3.39001 42.175V7.82499Z" fill="#DADBE0"/>
<path d="M44.4742 15.84H35.45C32.2881 15.84 29.725 13.2768 29.725 10.115V1.18875C30.8322 1.48525 31.8572 2.05671 32.6989 2.86249L42.4908 12.2368C43.5121 13.2146 44.1987 14.4751 44.4742 15.84Z" fill="#EBECF0"/>
<path d="M44.6099 17.5575H35.4499C31.3396 17.5575 28.0074 14.2254 28.0074 10.115V0.955231C28.5921 0.960284 29.1689 1.03984 29.7249 1.18874V10.115C29.7249 13.2768 32.2881 15.84 35.4499 15.84H44.4742C44.5638 16.2841 44.6099 16.7393 44.6099 17.1993V17.5575Z" fill="#BABBC5"/>
<path fill-rule="evenodd" clip-rule="evenodd" d="M20.3912 23.4241C20.2792 23.1666 20.0251 23 19.7443 23C19.4634 23 19.2094 23.1666 19.0974 23.4241L14.0587 35.0131C13.9033 35.3704 14.067 35.786 14.4243 35.9413C14.7816 36.0967 15.1972 35.933 15.3525 35.5757L17.1398 31.4649L22.3488 31.4649L24.1361 35.5757C24.2914 35.933 24.707 36.0967 25.0642 35.9413C25.4215 35.786 25.5852 35.3704 25.4299 35.0131L20.3912 23.4241ZM21.7354 30.0541L19.7443 25.4746L17.7532 30.0541H21.7354ZM32.4341 32.2711C32.4341 33.4399 31.4866 34.3874 30.3178 34.3874C29.149 34.3874 28.2016 33.4399 28.2016 32.2711C28.2016 31.1024 29.149 30.1549 30.3178 30.1549C31.4866 30.1549 32.4341 31.1024 32.4341 32.2711ZM30.3178 28.7441C31.1118 28.7441 31.8446 29.0064 32.4341 29.4492C32.4342 29.0597 32.75 28.7441 33.1395 28.7441C33.5291 28.7441 33.8449 29.0599 33.8449 29.4495V32.2711V35.0928C33.8449 35.4824 33.5291 35.7982 33.1395 35.7982C32.75 35.7982 32.4342 35.4825 32.4341 35.0931C31.8446 35.5358 31.1118 35.7982 30.3178 35.7982C28.3699 35.7982 26.7907 34.2191 26.7907 32.2711C26.7907 30.3232 28.3699 28.7441 30.3178 28.7441Z" fill="#3A3F4A"/>
</svg>
