<svg xmlns="http://www.w3.org/2000/svg" width="24" height="24" viewBox="0 0 24 24">
  <g class="ic-link">
    <path fill-rule="evenodd" d="M13.537 3.04a5.25 5.25 0 1 1 7.424 7.424l-3.656 3.656a.75.75 0 0 1-1.06-1.06L19.9 9.403A3.75 3.75 0 0 0 14.597 4.1l-3.656 3.656a.75.75 0 1 1-1.06-1.06l3.656-3.656Zm1.647 5.777a.75.75 0 0 1 0 1.061L9.88 15.181a.75.75 0 0 1-1.06-1.06l5.303-5.304a.75.75 0 0 1 1.06 0ZM3.046 20.955a5.25 5.25 0 0 0 7.424 0l3.66-3.66a.75.75 0 0 0-1.061-1.06l-3.66 3.66a3.75 3.75 0 1 1-5.303-5.304l3.66-3.66a.75.75 0 1 0-1.061-1.06l-3.66 3.66a5.25 5.25 0 0 0 0 7.424Z" class="Icon"/>
  </g>
</svg>
