<svg width="48" height="50" viewBox="0 0 48 50" fill="none" xmlns="http://www.w3.org/2000/svg">
<path d="M3.39001 7.82496C3.39001 4.03076 6.46582 0.954956 10.26 0.954956H27.9481C29.7183 0.954956 31.4202 1.63829 32.6989 2.86247L42.4909 12.2368C43.8445 13.5327 44.61 15.3253 44.61 17.1993V42.175C44.61 45.9692 41.5342 49.045 37.74 49.045H10.26C6.46582 49.045 3.39001 45.9692 3.39001 42.175V7.82496Z" fill="#DADBE0"/>
<path d="M44.4742 15.84H35.45C32.2881 15.84 29.725 13.2768 29.725 10.115V1.18872C30.8322 1.48522 31.8572 2.05667 32.6989 2.86246L42.4908 12.2368C43.5121 13.2146 44.1987 14.4751 44.4742 15.84Z" fill="#EBECF0"/>
<path d="M44.6099 17.5574H35.4499C31.3396 17.5574 28.0074 14.2253 28.0074 10.1149V0.9552C28.5921 0.960253 29.1689 1.03981 29.7249 1.18871V10.1149C29.7249 13.2768 32.2881 15.8399 35.4499 15.8399H44.4742C44.5638 16.2841 44.6099 16.7392 44.6099 17.1993V17.5574Z" fill="#BABBC5"/>
<path d="M29 24L33 27.5L29 31" stroke="#3A3F4A" stroke-width="2" stroke-linecap="round" stroke-linejoin="round"/>
<path d="M19 24L15 27.5L19 31" stroke="#3A3F4A" stroke-width="2" stroke-linecap="round" stroke-linejoin="round"/>
<rect x="21.25" y="33.5974" width="13.6513" height="2" rx="1" transform="rotate(-75 21.25 33.5974)" fill="#3A3F4A"/>
</svg>
