<svg xmlns="http://www.w3.org/2000/svg" width="24" height="24" viewBox="0 0 24 24">
  <g class="ic-lock-open-filled">
    <path fill-rule="evenodd" d="M12 0a6 6 0 0 0-6 6v1.529c-.588.036-1.006.116-1.362.298a3 3 0 0 0-1.311 1.311C3 9.78 3 10.62 3 12.3v5.4c0 1.68 0 2.52.327 3.162a3 3 0 0 0 1.311 1.311c.642.327 1.482.327 3.162.327h8.4c1.68 0 2.52 0 3.162-.327a3 3 0 0 0 1.311-1.311C21 20.22 21 19.38 21 17.7v-5.4c0-1.68 0-2.52-.327-3.162a3 3 0 0 0-1.311-1.311C18.72 7.5 17.88 7.5 16.2 7.5H7.5V6a4.5 4.5 0 0 1 8.358-2.319.75.75 0 0 0 1.284-.774A5.997 5.997 0 0 0 12 0Zm.706 14.824a1.5 1.5 0 1 0-1.412 0l-.654 2.617a.45.45 0 0 0 .436.559h1.848a.45.45 0 0 0 .436-.56l-.654-2.616Z" class="Icon"/>
  </g>
</svg>
