<svg xmlns="http://www.w3.org/2000/svg" width="24" height="24" viewBox="0 0 24 24">
  <g class="ic-locks">
    <path fill-rule="evenodd" d="M6.75 6h6a3 3 0 1 0-6 0Zm-1.5 0v.113a2.523 2.523 0 0 0-.612.214 3 3 0 0 0-1.311 1.311c-.185.364-.26.752-.294 1.173C3 9.217 3 9.715 3 10.32v4.861c0 .604 0 1.102.033 1.508.035.421.109.809.294 1.173a3 3 0 0 0 1.311 1.311c.364.186.752.26 1.173.294.406.033.904.033 1.508.033h.182c.006.874.041 1.373.244 1.771.216.424.56.768.984.984.48.245 1.11.245 2.371.245h6.3c1.26 0 1.89 0 2.372-.245.423-.216.767-.56.983-.983C21 20.79 21 20.16 21 18.9v-4.8c0-1.26 0-1.89-.245-2.371a2.252 2.252 0 0 0-.983-.984c-.268-.136-.58-.196-1.022-.223V10.5a4.5 4.5 0 0 0-4.5-4.5 4.5 4.5 0 1 0-9 0Zm.683 1.528c.338-.027.775-.028 1.417-.028h3.546a4.484 4.484 0 0 0-1.146 3v.022c-.441.027-.754.087-1.021.223a2.25 2.25 0 0 0-.984.984c-.245.48-.245 1.11-.245 2.371V18h-.15c-.642 0-1.08 0-1.417-.028-.329-.027-.497-.076-.614-.136a1.5 1.5 0 0 1-.656-.655c-.06-.117-.108-.286-.135-.614-.027-.338-.028-.775-.028-1.417v-4.8c0-.642 0-1.08.028-1.417.027-.329.076-.497.135-.614a1.5 1.5 0 0 1 .656-.656c.117-.06.285-.108.614-.135ZM11.25 10.5a3 3 0 1 1 6 0h-6ZM17.4 12h-6.3c-.655 0-1.056.001-1.356.026a1.92 1.92 0 0 0-.275.037.461.461 0 0 0-.06.019.75.75 0 0 0-.332.34.447.447 0 0 0-.013.047 1.924 1.924 0 0 0-.038.275C9 13.044 9 13.445 9 14.1v4.8c0 .655.001 1.056.026 1.356.011.14.025.224.038.275a.444.444 0 0 0 .018.06.75.75 0 0 0 .34.332.461.461 0 0 0 .047.014c.051.012.136.026.275.037.3.025.701.026 1.356.026h6.3c.655 0 1.056-.001 1.356-.026.14-.011.224-.025.275-.038a.458.458 0 0 0 .048-.013l.005-.002.006-.003a.75.75 0 0 0 .328-.328l.002-.003.003-.008a.454.454 0 0 0 .014-.048c.012-.051.026-.136.037-.275.025-.3.026-.701.026-1.356v-4.8c0-.655-.001-1.056-.026-1.356a1.922 1.922 0 0 0-.038-.275.458.458 0 0 0-.013-.048l-.003-.008-.002-.004a.75.75 0 0 0-.34-.332.458.458 0 0 0-.047-.014 1.922 1.922 0 0 0-.275-.037C18.456 12 18.055 12 17.4 12Zm-2.025 3.375c0 .43-.241.803-.595.993l.49 1.963a.338.338 0 0 1-.327.419h-1.386a.338.338 0 0 1-.327-.42l.49-1.962a1.125 1.125 0 1 1 1.655-.993Z" class="Icon"/>
  </g>
</svg>
