<svg width="24" height="24" viewBox="0 0 24 24" fill="none" xmlns="http://www.w3.org/2000/svg">
<path fill-rule="evenodd" clip-rule="evenodd" d="M13.7011 18.6556L16.3221 11.6665C16.8096 10.3663 18.0525 9.50496 19.4411 9.50496H19.73L14.4929 4.2678V4.55674C14.4929 5.94531 13.6315 7.18822 12.3314 7.67578L5.34227 10.2967L13.7011 18.6556ZM13.2823 20.358C13.7531 20.8289 14.5531 20.6556 14.787 20.0321L17.7266 12.1931C17.9946 11.4784 18.6778 11.005 19.4411 11.005H21.141C21.9567 11.005 22.3652 10.0188 21.7884 9.44199L14.5559 2.20945C13.9791 1.63268 12.9929 2.04117 12.9929 2.85686V4.55674C12.9929 5.32004 12.5194 6.00328 11.8047 6.27129L3.96575 9.21089C3.34227 9.4447 3.16898 10.2447 3.63983 10.7156L7.76441 14.8402L2.63145 19.9731C2.27389 20.3307 2.27389 20.9104 2.63145 21.2679C2.989 21.6255 3.5687 21.6255 3.92626 21.2679L9.05922 16.135L13.2823 20.358Z" fill="#0C0C14"/>
</svg>
