<svg xmlns="http://www.w3.org/2000/svg" width="24" height="24" viewBox="0 0 24 24">
  <g class="ic-link-pen">
    <path fill-rule="evenodd" d="m16.77 3.003 1.583 1.592-7.204 7.24-1.653.192.184-1.69 7.09-7.334Zm-1.07-1.05a1.488 1.488 0 0 1 2.128-.014L19.41 3.53a1.512 1.512 0 0 1 0 2.13l-7.205 7.238c-.238.24-.55.391-.884.43l-2.585.302a.75.75 0 0 1-.829-.83l.287-2.628c.036-.333.182-.645.414-.885L15.7 1.953Zm6.8 17.518a4.524 4.524 0 0 0-4.524-4.524H14.25a.75.75 0 0 0 0 1.5h3.726a3.024 3.024 0 1 1 0 6.048H14.25a.75.75 0 0 0 0 1.5h3.726a4.524 4.524 0 0 0 4.524-4.524Zm-6.75 0a.75.75 0 0 1-.75.75H9a.75.75 0 0 1 0-1.5h6a.75.75 0 0 1 .75.75Zm-14.25 0a4.524 4.524 0 0 0 4.524 4.524H9.75a.75.75 0 0 0 0-1.5H6.024a3.024 3.024 0 1 1 0-6.048H9.75a.75.75 0 0 0 0-1.5H6.024A4.524 4.524 0 0 0 1.5 19.47Z" class="Icon"/>
  </g>
</svg>
