<svg width="24" height="24" viewBox="0 0 24 24" fill="none" xmlns="http://www.w3.org/2000/svg">
<path fill-rule="evenodd" clip-rule="evenodd" d="M19.0076 3.95428L3.99221 8.96882L10.1456 12.8049L19.0076 3.95428ZM11.2003 13.8715L11.3084 14.0441C11.0106 14.5948 10.7872 15.1916 10.6515 15.8211L9.87832 14.5866C9.75632 14.3919 9.59155 14.2273 9.39651 14.1054L1.85645 9.40499C1.31327 9.06565 1.40988 8.24866 2.01704 8.04701L21.5018 1.53988C22.0933 1.34343 22.6568 1.90613 22.4601 2.49689L19.6492 10.9388C19.1859 10.7626 18.6982 10.6359 18.1926 10.5653L20.0269 5.05626L13.2953 11.7792C12.7154 12.1991 12.205 12.7089 11.7844 13.2882L11.2003 13.8715ZM22.5 17.25C22.5 20.1495 20.1495 22.5 17.25 22.5C14.3505 22.5 12 20.1495 12 17.25C12 14.3505 14.3505 12 17.25 12C20.1495 12 22.5 14.3505 22.5 17.25ZM17.25 13.5C17.6642 13.5 18 13.8358 18 14.25V16.9393L19.2803 18.2197C19.5732 18.5126 19.5732 18.9874 19.2803 19.2803C18.9874 19.5732 18.5126 19.5732 18.2197 19.2803L16.5 17.5607V14.25C16.5 13.8358 16.8358 13.5 17.25 13.5Z" fill="#A7A4B5"/>
</svg>
