<svg xmlns="http://www.w3.org/2000/svg" width="24" height="24" viewBox="0 0 24 24">
  <g class="ic-users-merge">
    <path fill-rule="evenodd" d="M6 4.55c.398 0 .75-.33.75-.775A.763.763 0 0 0 6 3a.763.763 0 0 0-.75.775c0 .444.352.775.75.775Zm0 1.5c1.243 0 2.25-1.018 2.25-2.275C8.25 2.52 7.243 1.5 6 1.5S3.75 2.519 3.75 3.775C3.75 5.032 4.757 6.05 6 6.05ZM4.422 8.31h2.735c.24 0 .472.12.615.332l.8 1.186a.088.088 0 0 1 .006.01v.002h.001v-.001.001l-.001.004a.056.056 0 0 1-.005.013l-.002.003H3.007l-.001-.003A.057.057 0 0 1 3 9.843v-.004.001-.002l.007-.01.8-1.186a.743.743 0 0 1 .615-.332Zm-1.86-.507a2.243 2.243 0 0 1 1.86-.993h2.735c.744 0 1.44.372 1.859.993l.8 1.186c.678 1.007-.035 2.371-1.24 2.371H3.003c-1.206 0-1.919-1.364-1.24-2.371l.8-1.186Zm1.86 11.648h2.735c.24 0 .472.12.615.332l.8 1.185a.085.085 0 0 1 .006.01v.003h.001v-.001l-.001.005a.055.055 0 0 1-.005.013L8.57 21H3.007l-.001-.003A.056.056 0 0 1 3 20.984v-.005.001-.002l.007-.01.8-1.186a.743.743 0 0 1 .615-.332Zm-1.86-.507a2.243 2.243 0 0 1 1.86-.994h2.735c.744 0 1.44.372 1.859.994l.8 1.186c.678 1.007-.035 2.371-1.24 2.371H3.003c-1.206 0-1.919-1.364-1.24-2.371l.8-1.186Zm4.188-3.792a.763.763 0 0 1-.75.776.763.763 0 0 1-.75-.776c0-.444.352-.775.75-.775s.75.331.75.775Zm1.5 0c0 1.257-1.007 2.276-2.25 2.276s-2.25-1.02-2.25-2.276c0-1.256 1.007-2.275 2.25-2.275s2.25 1.019 2.25 2.275Zm3 3.042h2.25a.75.75 0 0 0 .75-.75V6.792a.75.75 0 0 0-.75-.75h-2.25v-1.5h2.25a2.25 2.25 0 0 1 2.25 2.25v4.576h3.125A2.253 2.253 0 0 1 21 9.843c1.243 0 2.25 1.018 2.25 2.275 0 1.256-1.007 2.275-2.25 2.275a2.253 2.253 0 0 1-2.125-1.525H15.75v4.575a2.25 2.25 0 0 1-2.25 2.25h-2.25v-1.5Zm9.75-6.85c.398 0 .75.33.75.775a.763.763 0 0 1-.75.775.763.763 0 0 1-.75-.775c0-.444.352-.776.75-.776Z" class="Icon"/>
  </g>
</svg>
