<svg width="20" height="20" viewBox="0 0 20 20" fill="none" xmlns="http://www.w3.org/2000/svg">
<rect width="20" height="20" rx="2" fill="#DADBE0"/>
<path fill-rule="evenodd" clip-rule="evenodd" d="M12.6292 6.7471C12.014 6.15419 11.0115 6.15419 10.3963 6.7471L7.32507 9.70696C6.37776 10.6199 6.37776 12.0947 7.32507 13.0077C8.27951 13.9275 9.83201 13.9275 10.7865 13.0077L13.4891 10.403C13.6238 10.2732 13.8381 10.2773 13.9678 10.412C14.0975 10.5467 14.0935 10.7611 13.9588 10.8909L11.2562 13.4956C10.0395 14.6681 8.07199 14.6681 6.85534 13.4956C5.63155 12.3162 5.63155 10.3985 6.85534 9.21908L9.92652 6.25921C10.8039 5.4136 12.2215 5.4136 13.0989 6.25921C13.9834 7.1117 13.9834 8.49929 13.0989 9.35178L10.0277 12.3116C9.48952 12.8303 8.622 12.8303 8.08381 12.3116C7.5385 11.7861 7.53849 10.9286 8.08381 10.403L10.7865 7.79834C10.9211 7.66857 11.1354 7.67258 11.2651 7.8073C11.3949 7.94203 11.3908 8.15645 11.2562 8.28623L8.55354 10.8909C8.2847 11.15 8.2847 11.5647 8.55354 11.8238C8.82951 12.0897 9.28201 12.0897 9.55798 11.8238L12.6292 8.86389C13.2372 8.27785 13.2372 7.33314 12.6292 6.7471Z" fill="#3A3F4A"/>
</svg>
