<svg xmlns="http://www.w3.org/2000/svg" width="24" height="24" viewBox="0 0 24 24">
  <g class="ic-emoji">
    <path fill-rule="evenodd" d="M21 12a9 9 0 1 1-18 0 9 9 0 0 1 18 0Zm1.5 0c0 5.799-4.701 10.5-10.5 10.5S1.5 17.799 1.5 12 6.201 1.5 12 1.5 22.5 6.201 22.5 12Zm-6.75 0a1.5 1.5 0 1 0 0-3 1.5 1.5 0 0 0 0 3Zm-6-1.5a1.5 1.5 0 1 1-3 0 1.5 1.5 0 0 1 3 0Zm-2.758 4.625c-.161-.443.196-.875.667-.875h8.682c.471 0 .828.432.668.875-.769 2.12-2.721 3.625-5.009 3.625-2.288 0-4.24-1.506-5.008-3.625Z" class="Icon"/>
  </g>
</svg>
