<svg width="48" height="50" viewBox="0 0 48 50" fill="none" xmlns="http://www.w3.org/2000/svg">
<path d="M3.38989 7.82502C3.38989 4.03082 6.4657 0.955017 10.2599 0.955017H27.948C29.7182 0.955017 31.4201 1.63835 32.6988 2.86253L42.4907 12.2369C43.8444 13.5328 44.6099 15.3254 44.6099 17.1994V42.175C44.6099 45.9692 41.5341 49.045 37.7399 49.045H10.2599C6.4657 49.045 3.38989 45.9692 3.38989 42.175V7.82502Z" fill="#FFA733"/>
<path d="M44.4743 15.84H35.4501C32.2883 15.84 29.7251 13.2768 29.7251 10.115V1.18878C30.8323 1.48528 31.8573 2.05674 32.699 2.86252L42.491 12.2369C43.5123 13.2146 44.1988 14.4751 44.4743 15.84Z" fill="#FFD466"/>
<path d="M44.6101 17.5575H35.4501C31.3397 17.5575 28.0076 14.2254 28.0076 10.115V0.955261C28.5922 0.960314 29.169 1.03987 29.7251 1.18877V10.115C29.7251 13.2768 32.2882 15.84 35.4501 15.84H44.4743C44.5639 16.2841 44.6101 16.7393 44.6101 17.1993V17.5575Z" fill="#F2860D"/>
<path d="M28.4569 22.5037L18.7319 32.2287C18.5902 32.3703 18.4825 32.546 18.4438 32.7434L17.9021 34.9172C17.8516 35.1264 18.0329 35.3078 18.2535 35.2686L20.4273 34.7269C20.6133 34.6768 20.8003 34.5805 20.942 34.4388L30.667 24.7138C30.974 24.4068 30.9721 23.9327 30.6888 23.6493L29.5214 22.4819C29.238 22.1986 28.7521 22.2085 28.4569 22.5037Z" fill="white"/>
<path d="M16 37.5C16 37.2239 16.2239 37 16.5 37H30.5C30.7761 37 31 37.2239 31 37.5C31 37.7761 30.7761 38 30.5 38H16.5C16.2239 38 16 37.7761 16 37.5Z" fill="white"/>
</svg>
