<svg xmlns="http://www.w3.org/2000/svg" width="24" height="24" viewBox="0 0 24 24">
  <g class="ic-code">
    <path fill-rule="evenodd" d="M14.244 6.182a.756.756 0 0 0-1.466-.364l-3.022 12a.756.756 0 0 0 1.466.364l3.022-12Zm-6.927.269a.746.746 0 0 0-.152-1.05.759.759 0 0 0-1.057.15l-4.396 5.82a1.044 1.044 0 0 0 0 1.26l4.396 5.82a.759.759 0 0 0 1.057.15.746.746 0 0 0 .152-1.05L3.124 12l4.193-5.55Zm10.575-.9a.759.759 0 0 0-1.058-.15.746.746 0 0 0-.15 1.05L20.875 12l-4.193 5.55a.746.746 0 0 0 .151 1.05.759.759 0 0 0 1.058-.15l4.396-5.82a1.044 1.044 0 0 0 0-1.26l-4.396-5.82Z" class="Icon"/>
  </g>
</svg>
