<svg xmlns="http://www.w3.org/2000/svg" width="24" height="24" viewBox="0 0 24 24">
  <g class="ic-notepad-checklist">
    <path fill-rule="evenodd" d="M10.5 1.5a1.5 1.5 0 0 1 3 0h2.25a1.5 1.5 0 0 1 1.5 1.5H18a3 3 0 0 1 3 3v13.5a3 3 0 0 1-3 3H6a3 3 0 0 1-3-3V6a3 3 0 0 1 3-3h.75a1.5 1.5 0 0 1 1.5-1.5h2.25ZM12 3H8.25v1.5h7.5V3H12Zm6 1.5h-.75a1.5 1.5 0 0 1-1.5 1.5h-7.5a1.5 1.5 0 0 1-1.5-1.5H6A1.5 1.5 0 0 0 4.5 6v13.5A1.5 1.5 0 0 0 6 21h12a1.5 1.5 0 0 0 1.5-1.5V6A1.5 1.5 0 0 0 18 4.5ZM9.22 7.72a.75.75 0 1 1 1.06 1.06l-1.5 1.5a.75.75 0 0 1-1.06 0l-.75-.75a.75.75 0 0 1 1.06-1.06l.22.22.97-.97ZM12 9a.75.75 0 0 0 0 1.5h4.5a.75.75 0 0 0 0-1.5H12Zm-.75 4.5a.75.75 0 0 1 .75-.75h4.5a.75.75 0 0 1 0 1.5H12a.75.75 0 0 1-.75-.75Zm0 3.75a.75.75 0 0 1 .75-.75h4.5a.75.75 0 0 1 0 1.5H12a.75.75 0 0 1-.75-.75Zm-3-4.5a.75.75 0 0 0 0 1.5h.015a.75.75 0 0 0 0-1.5H8.25Zm-.75 4.5a.75.75 0 0 1 .75-.75h.015a.75.75 0 0 1 0 1.5H8.25a.75.75 0 0 1-.75-.75Z" class="Icon"/>
  </g>
</svg>
