<svg xmlns="http://www.w3.org/2000/svg" width="24" height="24" viewBox="0 0 24 24">
  <g class="ic-bell">
    <path fill-rule="evenodd" d="m19.772 16.02 1.972 1.974.01.01.042.042c.456.456.684.684.7.88a.532.532 0 0 1-.186.446c-.149.128-.471.128-1.117.128H2.785c-.636 0-.954 0-1.1-.126a.525.525 0 0 1-.183-.44c.015-.193.24-.418.69-.868l.058-.059.013-.012 1.973-1.974a.925.925 0 0 0 .27-.654v-6.37a7.497 7.497 0 1 1 14.995 0v6.37c0 .245.098.48.27.654Zm-1.061 1.061.918.919H4.38l.918-.919c.454-.454.71-1.071.71-1.714v-6.37a5.997 5.997 0 1 1 11.994 0v6.37c0 .643.255 1.26.71 1.714ZM12.004 22.5a1.5 1.5 0 0 1-1.5-1.5h3a1.5 1.5 0 0 1-1.5 1.5Z" class="Icon"/>
  </g>
</svg>
