<svg xmlns="http://www.w3.org/2000/svg" width="24" height="24" viewBox="0 0 24 24">
  <g class="ic-life-ring">
    <path fill-rule="evenodd" d="M17.812 18.872A8.964 8.964 0 0 1 12 21c-2.215 0-4.244-.8-5.812-2.128l3.205-3.204A4.48 4.48 0 0 0 12 16.5a4.48 4.48 0 0 0 2.607-.832l3.205 3.204Zm-7.918-4.735a1.198 1.198 0 0 0-.03-.031 3 3 0 1 1 4.274 0l-.017.015-.015.016A2.99 2.99 0 0 1 12 15a2.99 2.99 0 0 1-2.106-.863Zm-1.562.47-3.204 3.205A8.964 8.964 0 0 1 3 12c0-2.215.8-4.243 2.127-5.811l3.205 3.204A4.48 4.48 0 0 0 7.5 12c0 .972.308 1.872.832 2.607Zm10.54 3.205A8.964 8.964 0 0 0 21 12c0-2.215-.8-4.243-2.127-5.811l-3.205 3.204A4.48 4.48 0 0 1 16.5 12a4.48 4.48 0 0 1-.832 2.607l3.204 3.205Zm-4.264-9.48 3.204-3.204A8.964 8.964 0 0 0 12 3c-2.215 0-4.244.8-5.812 2.128l3.204 3.204A4.48 4.48 0 0 1 12 7.5a4.48 4.48 0 0 1 2.608.832ZM12 1.5a10.467 10.467 0 0 1 7.445 3.096A10.467 10.467 0 0 1 22.5 12c0 5.799-4.701 10.5-10.5 10.5S1.5 17.799 1.5 12a10.467 10.467 0 0 1 3.096-7.445A10.467 10.467 0 0 1 12 1.5Z" class="Icon"/>
  </g>
</svg>
