<svg xmlns="http://www.w3.org/2000/svg" width="24" height="24" viewBox="0 0 24 24">
  <g class="ic-lock-exclamation-filled">
    <path fill-rule="evenodd" d="M6.3 7.5H6v-.75a3.75 3.75 0 1 1 7.5 0v.75H6.3Zm-3.162.327c.356-.182.774-.262 1.362-.298V6.75a5.25 5.25 0 0 1 10.5 0v.779c.588.036 1.006.116 1.362.298a3 3 0 0 1 1.25 1.197 2.7 2.7 0 0 0-2.706 1.334l-5.509 9.367c-.509.865-.498 1.926-.077 2.775H6.3c-1.68 0-2.52 0-3.162-.327a3 3 0 0 1-1.311-1.311C1.5 20.22 1.5 19.38 1.5 17.7v-5.4c0-1.68 0-2.52.327-3.162a3 3 0 0 1 1.311-1.311Zm15.163 3.292a1.202 1.202 0 0 0-2.102 0l-5.509 9.366c-.515.877.078 2.015 1.051 2.015H22.76c.973 0 1.567-1.138 1.05-2.015l-5.508-9.366ZM18 14.25a.75.75 0 0 0-1.5 0V18a.75.75 0 0 0 1.5 0v-3.75Zm-.75 5.25a.75.75 0 0 1 .75.75v.007a.75.75 0 0 1-1.5 0v-.007a.75.75 0 0 1 .75-.75Z" class="Icon"/>
  </g>
</svg>
