<svg xmlns="http://www.w3.org/2000/svg" width="24" height="24" viewBox="0 0 24 24">
  <g class="ic-lock-check-filled">
    <path fill-rule="evenodd" d="M7.8 7.5h-.3a4.5 4.5 0 0 1 9 0H7.8ZM6 7.529V7.5a6 6 0 1 1 12 0v.029c.588.036 1.006.116 1.362.298a3 3 0 0 1 1.311 1.311C21 9.78 21 10.62 21 12.3v5.4c0 1.68 0 2.52-.327 3.162a3 3 0 0 1-1.311 1.311c-.642.327-1.482.327-3.162.327H7.8c-1.68 0-2.52 0-3.162-.327a3 3 0 0 1-1.311-1.311C3 20.22 3 19.38 3 17.7v-5.4c0-1.68 0-2.52.327-3.162a3 3 0 0 1 1.311-1.311c.356-.182.774-.262 1.362-.298Zm11.78 3.94a.75.75 0 0 1 0 1.061l-5.788 5.788a1.05 1.05 0 0 1-1.485 0L7.72 15.53a.75.75 0 1 1 1.06-1.06l2.47 2.47 5.47-5.47a.75.75 0 0 1 1.06 0Z" class="Icon"/>
  </g>
</svg>
