<svg xmlns="http://www.w3.org/2000/svg" width="24" height="24" viewBox="0 0 24 24">
  <g class="ic-shield-filled">
    <path fill-rule="evenodd" d="M12 3.043 4.606 5.585c-.241 2.675-.115 5.49.88 8.104 1.006 2.642 2.938 5.184 6.516 7.202 3.577-2.018 5.508-4.56 6.514-7.201.995-2.616 1.12-5.43.88-8.105L12 3.043Zm-.242-1.503L3.66 4.324a.743.743 0 0 0-.499.623c-.627 5.876.256 13.038 8.495 17.467a.733.733 0 0 0 .688 0c8.24-4.429 9.122-11.591 8.495-17.467a.743.743 0 0 0-.499-.623L12.243 1.54a.746.746 0 0 0-.485 0ZM6.333 6.305l5.506-1.988a.465.465 0 0 1 .323 0l5.506 1.988A.524.524 0 0 1 18 6.75c.418 4.197-.278 9.313-5.77 12.476a.46.46 0 0 1-.459 0C6.278 16.063 5.582 10.946 6 6.75a.525.525 0 0 1 .333-.445Z" class="Icon"/>
  </g>
</svg>
