<svg xmlns="http://www.w3.org/2000/svg" width="24" height="24" viewBox="0 0 24 24">
  <g class="ic-lock-open-pen-filled">
    <path fill-rule="evenodd" d="M12.358 4.402A3.538 3.538 0 0 0 6 6.538V7.5h7.2c1.68 0 2.52 0 3.162.327a3 3 0 0 1 1.037.871l-5.55 5.527a3.17 3.17 0 0 0-.874 1.633l-.41 1.782-.007.032a1.919 1.919 0 0 0 2.275 2.226l.027-.005 1.768-.432a3.181 3.181 0 0 0 1.573-.855L18 16.815v.885c0 1.68 0 2.52-.327 3.162a3 3 0 0 1-1.311 1.311c-.642.327-1.482.327-3.162.327H6.3c-1.68 0-2.52 0-3.162-.327a3 3 0 0 1-1.311-1.311C1.5 20.22 1.5 19.38 1.5 17.7v-5.4c0-1.68 0-2.52.327-3.162a3 3 0 0 1 1.311-1.311c.356-.182.774-.262 1.362-.298v-.991a5.037 5.037 0 0 1 9.054-3.04l.544.718a.75.75 0 0 1-1.196.905l-.544-.719ZM19.99 8.19a.846.846 0 0 1 1.194 0l1.068 1.066a.84.84 0 0 1 0 1.19l-7.12 7.097a1.69 1.69 0 0 1-.852.458l-1.773.433a.422.422 0 0 1-.5-.488l.41-1.787c.062-.336.225-.645.467-.887L19.99 8.19Z" class="Icon"/>
  </g>
</svg>
