<svg xmlns="http://www.w3.org/2000/svg" width="24" height="24" viewBox="0 0 24 24">
  <g class="ic-arrow-out-square">
    <g class="Icon">
      <path d="M18 7.087v5.663a.75.75 0 0 1-1.5 0V8.56l-8.47 8.47a.75.75 0 0 1-1.06-1.06l8.47-8.47h-4.19a.75.75 0 0 1 0-1.5h5.664c.062 0 .151 0 .235.007a.749.749 0 0 1 .844.844c.007.084.007.173.007.236Z"/>
      <path fill-rule="evenodd" d="M4.5 1.5a3 3 0 0 0-3 3v15a3 3 0 0 0 3 3h15a3 3 0 0 0 3-3v-15a3 3 0 0 0-3-3h-15Zm15 1.5h-15A1.5 1.5 0 0 0 3 4.5v15A1.5 1.5 0 0 0 4.5 21h15a1.5 1.5 0 0 0 1.5-1.5v-15A1.5 1.5 0 0 0 19.5 3Z"/>
    </g>
  </g>
</svg>
