<svg xmlns="http://www.w3.org/2000/svg" width="24" height="24" viewBox="0 0 24 24">
  <g class="ic-arrows-up-and-left">
    <path fill-rule="evenodd" d="m8.488 11.25 4.04-3.968a.745.745 0 0 0 .005-1.058.755.755 0 0 0-1.063-.006l-5.128 5.037a1.043 1.043 0 0 0 0 1.49l5.128 5.037a.755.755 0 0 0 1.063-.007.745.745 0 0 0-.006-1.057L8.488 12.75h10.256a2.25 2.25 0 0 1 2.25 2.25v3.75a.75.75 0 0 0 1.5 0V15a3.75 3.75 0 0 0-3.75-3.75H8.488ZM3.201 12l4.825-4.717c.296-.29.3-.763.009-1.058a.755.755 0 0 0-1.064-.008l-5.152 5.036c-.42.41-.42 1.083 0 1.493l5.152 5.037a.755.755 0 0 0 1.064-.009.745.745 0 0 0-.01-1.057L3.202 12Z" class="Icon"/>
  </g>
</svg>
