<svg xmlns="http://www.w3.org/2000/svg" width="24" height="24" viewBox="0 0 24 24">
  <g class="ic-presentation-screen">
    <path fill-rule="evenodd" d="M1.5 2.25a.75.75 0 0 1 .75-.75h19.5a.75.75 0 0 1 0 1.5H2.25a.75.75 0 0 1-.75-.75Zm7.626 19.916a.75.75 0 0 1 .208-1.04l1.916-1.277V16.5H4.5a2.25 2.25 0 0 1-2.25-2.25V4.5h1.5v9.75c0 .414.336.75.75.75h15a.75.75 0 0 0 .75-.75V4.5h1.5v9.75a2.25 2.25 0 0 1-2.25 2.25h-6.75v3.349l1.916 1.277a.75.75 0 1 1-.832 1.248L12 21.151l-1.834 1.223a.75.75 0 0 1-1.04-.208Z" class="Icon"/>
  </g>
</svg>
