<svg xmlns="http://www.w3.org/2000/svg" width="24" height="24" viewBox="0 0 24 24">
  <g class="ic-window-image">
    <path fill-rule="evenodd" d="M4.5 4.5h15A1.5 1.5 0 0 1 21 6v.75H3V6a1.5 1.5 0 0 1 1.5-1.5Zm-3 3.75V6a3 3 0 0 1 3-3h15a3 3 0 0 1 3 3v12a3 3 0 0 1-3 3h-15a3 3 0 0 1-3-3V8.25Zm1.5 0h18V18a1.5 1.5 0 0 1-1.5 1.5h-15A1.5 1.5 0 0 1 3 18V8.25Zm14.335 10.201c.542 0 .855-.58.538-.994l-3.723-4.85a.412.412 0 0 0-.645 0l-2.707 3.527-1.505-1.961a.412.412 0 0 0-.645 0l-2.52 3.284c-.318.414-.005.994.537.994h10.67Zm-7.135-6a1.2 1.2 0 1 0 0-2.4 1.2 1.2 0 0 0 0 2.4Z" class="Icon"/>
  </g>
</svg>
