<svg width="129" height="129" viewBox="0 0 129 129" fill="none" xmlns="http://www.w3.org/2000/svg">
<path d="M97.059 2.73013C98.9336 0.855582 101.973 0.85558 103.847 2.73013L127.606 26.4893L118.832 35.2639C119.55 35.607 120.223 36.076 120.818 36.6709C123.63 39.4827 123.63 44.0416 120.818 46.8534C118.006 49.6653 113.447 49.6653 110.636 46.8534C110.041 46.2586 109.572 45.5855 109.229 44.8673L100.453 53.6427L91.6778 44.8673C92.3964 44.5241 93.0698 44.0549 93.665 43.4597C96.4768 40.6479 96.4768 36.089 93.665 33.2772C90.8532 30.4654 86.2943 30.4654 83.4825 33.2772C82.8874 33.8724 82.4182 34.5458 82.075 35.2644L73.3 26.4893L97.059 2.73013Z" fill="url(#paint0_linear_16442_3576)" fill-opacity="0.25"/>
<path d="M61.3 51.6992H29.3C26.649 51.6992 24.5 53.8483 24.5 56.4992V88.4992H34.936C34.9122 88.2355 34.9 87.9687 34.9 87.6992C34.9 82.8391 38.8399 78.8992 43.7 78.8992C48.5601 78.8992 52.5 82.8391 52.5 87.6992C52.5 87.9687 52.4878 88.2355 52.464 88.4992H61.3V76.8868C61.7936 77.2172 62.3304 77.4882 62.9 77.6895C63.6507 77.9548 64.4585 78.0992 65.3 78.0992C69.2765 78.0992 72.5 74.8757 72.5 70.8992C72.5 66.9228 69.2765 63.6992 65.3 63.6992C64.4585 63.6992 63.6507 63.8436 62.9 64.1089C62.3304 64.3103 61.7936 64.5812 61.3 64.9117V51.6992Z" fill="url(#paint1_linear_16442_3576)" fill-opacity="0.3"/>
<path d="M24.5 91.6992L24.5 123.699C24.5 126.35 26.649 128.499 29.3 128.499H61.3V118.063C61.0363 118.087 60.7695 118.099 60.5 118.099C55.6399 118.099 51.7 114.159 51.7 109.299C51.7 104.439 55.6399 100.499 60.5 100.499C60.7695 100.499 61.0363 100.511 61.3 100.535V91.6992L48.2278 91.6992L48.9818 89.566C49.1874 88.9842 49.3 88.3566 49.3 87.6992C49.3 84.6064 46.7928 82.0992 43.7 82.0992C40.6072 82.0992 38.1 84.6064 38.1 87.6992C38.1 88.3566 38.2126 88.9842 38.4182 89.566L39.1722 91.6992H24.5Z" fill="url(#paint2_linear_16442_3576)" fill-opacity="0.3"/>
<path d="M64.5 91.6992V104.771L62.3668 104.017C61.785 103.812 61.1574 103.699 60.5 103.699C57.4072 103.699 54.9 106.206 54.9 109.299C54.9 112.392 57.4072 114.899 60.5 114.899C61.1574 114.899 61.785 114.787 62.3668 114.581L64.5 113.827V128.499H96.5C99.151 128.499 101.3 126.35 101.3 123.699V91.6992H89.2561C89.2851 91.9619 89.3 92.2288 89.3 92.4992C89.3 96.4757 86.0764 99.6992 82.1 99.6992C78.1235 99.6992 74.9 96.4757 74.9 92.4992C74.9 92.2288 74.9149 91.9619 74.9439 91.6992H64.5Z" fill="url(#paint3_linear_16442_3576)" fill-opacity="0.3"/>
<defs>
<linearGradient id="paint0_linear_16442_3576" x1="125.665" y1="8.50078" x2="90.2701" y2="43.4596" gradientUnits="userSpaceOnUse">
<stop stop-color="#E6E8F2"/>
<stop offset="1" stop-color="#7A7F99"/>
</linearGradient>
<linearGradient id="paint1_linear_16442_3576" x1="101.3" y1="51.6992" x2="27.9024" y2="131.624" gradientUnits="userSpaceOnUse">
<stop stop-color="#E6E8F2"/>
<stop offset="1" stop-color="#7A7F99"/>
</linearGradient>
<linearGradient id="paint2_linear_16442_3576" x1="101.3" y1="51.6992" x2="27.9024" y2="131.624" gradientUnits="userSpaceOnUse">
<stop stop-color="#E6E8F2"/>
<stop offset="1" stop-color="#7A7F99"/>
</linearGradient>
<linearGradient id="paint3_linear_16442_3576" x1="101.3" y1="51.6992" x2="27.9024" y2="131.624" gradientUnits="userSpaceOnUse">
<stop stop-color="#E6E8F2"/>
<stop offset="1" stop-color="#7A7F99"/>
</linearGradient>
</defs>
</svg>
