<svg width="68" height="66" viewBox="0 0 68 66" fill="none" xmlns="http://www.w3.org/2000/svg">
<path d="M51.1358 57.0231H44.2273V10.8867H51.1358C52.7806 10.8867 54.1137 12.2198 54.1137 13.8646V54.0453C54.1029 55.6901 52.7699 57.0231 51.1358 57.0231Z" fill="url(#paint0_linear_26090_8918)"/>
<path d="M53.1249 54.0568C53.1249 55.1488 52.12 56.0341 50.8805 56.0341H43.2385V11.875H50.8805C52.12 11.875 53.1249 12.7603 53.1249 13.8523V54.0568Z" fill="white"/>
<path d="M48.1699 57.0231H15.2273V10.8867H48.1699C49.8147 10.8867 51.1478 12.2198 51.1478 13.8646V54.0453C51.1478 55.6901 49.8147 57.0231 48.1699 57.0231Z" fill="url(#paint1_linear_26090_8918)"/>
<path d="M35.0973 32.5782C36.5371 32.5782 37.7043 31.411 37.7043 29.9712C37.7043 28.5314 36.5371 27.3643 35.0973 27.3643C33.6575 27.3643 32.4904 28.5314 32.4904 29.9712C32.4904 31.411 33.6575 32.5782 35.0973 32.5782Z" fill="white"/>
<path d="M31.478 39.887C29.9301 39.887 28.8943 38.2227 29.6508 36.8611C30.7099 34.9524 32.7582 33.6489 35.0975 33.6489C37.4367 33.6489 39.4851 34.9408 40.5441 36.8611C41.3006 38.2111 40.2648 39.887 38.7169 39.887H31.478Z" fill="white"/>
<path d="M18.5227 10.8867H15.2273V57.0231H18.5227V10.8867Z" fill="url(#paint2_linear_26090_8918)"/>
<mask id="mask0_26090_8918" style="mask-type:alpha" maskUnits="userSpaceOnUse" x="15" y="10" width="29" height="27">
<rect width="28.1585" height="25.8929" transform="matrix(-1 0 0 1 43.3855 10.8867)" fill="#C4C4C4"/>
</mask>
<g mask="url(#mask0_26090_8918)">
<g opacity="0.3" filter="url(#filter0_f_26090_8918)">
<path d="M26.2314 3.28125L15.227 10.8873V28.8505L20.8476 25.6268C24.1777 23.717 26.2314 20.1715 26.2314 16.3327V3.28125Z" fill="#221548"/>
</g>
</g>
<path d="M25.7727 12.8639C25.7727 7.40382 21.3464 2.97754 15.8863 2.97754C10.4263 2.97754 5.99998 7.40382 5.99998 12.8639C5.99998 18.324 10.4263 22.7503 15.8863 22.7503C21.3464 22.7503 25.7727 18.324 25.7727 12.8639Z" fill="url(#paint3_linear_26090_8918)"/>
<path d="M18.9018 9.72262C17.1829 8.20003 14.5525 8.2611 12.9068 9.90582C12.0874 10.7246 11.661 11.7863 11.627 12.8593C11.6194 13.1007 11.4173 13.2903 11.1757 13.2826C10.9342 13.275 10.7445 13.0731 10.7522 12.8316C10.7929 11.5451 11.305 10.2695 12.2878 9.2873C14.2789 7.29749 17.471 7.23932 19.5323 9.11279V8.23559C19.5323 7.99396 19.7282 7.79809 19.9698 7.79809C20.2115 7.79809 20.4073 7.99396 20.4073 8.23559V9.98512C20.4073 10.3234 20.1331 10.5976 19.7948 10.5976H18.0441C17.8024 10.5976 17.6066 10.4017 17.6066 10.1601C17.6066 9.91849 17.8024 9.72262 18.0441 9.72262H18.9018Z" fill="white"/>
<path d="M21.2535 12.9462C21.2511 12.7047 21.0532 12.5108 20.8115 12.5132C20.5698 12.5156 20.3758 12.7134 20.3782 12.9549C20.3895 14.0896 19.9623 15.2263 19.0965 16.0916C17.4507 17.7363 14.8202 17.7973 13.1013 16.2746H13.8428C14.0844 16.2746 14.2803 16.0788 14.2803 15.8371C14.2803 15.5955 14.0844 15.3996 13.8428 15.3996H12.092C11.7537 15.3996 11.4795 15.6739 11.4795 16.0121L11.4795 17.7617C11.4795 18.0033 11.6754 18.1992 11.917 18.1992C12.1586 18.1992 12.3545 18.0033 12.3545 17.7617L12.3545 16.7755C14.4104 18.7596 17.6864 18.7377 19.7154 16.7101C20.7543 15.6719 21.267 14.3062 21.2535 12.9462Z" fill="white"/>
<defs>
<filter id="filter0_f_26090_8918" x="12.1913" y="0.245536" width="17.0758" height="31.6408" filterUnits="userSpaceOnUse" color-interpolation-filters="sRGB">
<feFlood flood-opacity="0" result="BackgroundImageFix"/>
<feBlend mode="normal" in="SourceGraphic" in2="BackgroundImageFix" result="shape"/>
<feGaussianBlur stdDeviation="1.51786" result="effect1_foregroundBlur_26090_8918"/>
</filter>
<linearGradient id="paint0_linear_26090_8918" x1="49.1705" y1="10.8867" x2="49.1705" y2="57.0231" gradientUnits="userSpaceOnUse">
<stop stop-color="#FF9A61"/>
<stop offset="1" stop-color="#E36425"/>
</linearGradient>
<linearGradient id="paint1_linear_26090_8918" x1="33.2883" y1="10.8867" x2="33.2883" y2="57.0231" gradientUnits="userSpaceOnUse">
<stop stop-color="#FFB341"/>
<stop offset="1" stop-color="#EE7C3E"/>
</linearGradient>
<linearGradient id="paint2_linear_26090_8918" x1="16.875" y1="10.8867" x2="16.875" y2="57.0231" gradientUnits="userSpaceOnUse">
<stop stop-color="#614B37"/>
<stop offset="1" stop-color="#651B30"/>
</linearGradient>
<linearGradient id="paint3_linear_26090_8918" x1="7.52096" y1="-2.91625" x2="14.1752" y2="20.849" gradientUnits="userSpaceOnUse">
<stop stop-color="#4CFED3"/>
<stop offset="1" stop-color="#00C1FE"/>
</linearGradient>
</defs>
</svg>
