<svg width="120" height="45" viewBox="0 0 120 45" fill="none" xmlns="http://www.w3.org/2000/svg">
<path d="M0 26.5738V31.155H3.19882V26.7739C3.19882 26.3486 3.36588 25.9377 3.66799 25.6375C3.96654 25.3373 4.37528 25.1658 4.79824 25.1658H8.07881C9.60714 25.1658 11.075 24.5547 12.1555 23.4648C13.236 22.3785 13.8438 20.9026 13.8438 19.366C13.8438 17.8294 13.236 16.3535 12.1555 15.2636C11.075 14.1772 9.60714 13.5662 8.07526 13.5662H0V19.2909H3.19882V16.5929H7.862C8.58707 16.5929 9.28014 16.8824 9.79196 17.397C10.3038 17.9116 10.5917 18.6084 10.5917 19.3374C10.5917 20.0664 10.3038 20.7632 9.79196 21.2778C9.28014 21.7924 8.58707 22.0819 7.862 22.0819H4.4748C3.88835 22.0819 3.30545 22.1962 2.76521 22.4249C2.22141 22.6501 1.73092 22.9824 1.31507 23.4005C0.899225 23.8186 0.572237 24.3153 0.344765 24.8585C0.117293 25.3981 0 25.9841 0 26.5738Z" fill="#DBDBDE"/>
<path d="M14.3379 31.155V24.1759C14.3379 21.3278 15.9906 19.0622 19.2996 19.0622C19.8292 19.0551 20.3588 19.1123 20.8777 19.2373V22.1069C20.5009 22.0819 20.1775 22.0819 20.0247 22.0819C18.2724 22.0819 17.5189 22.8895 17.5189 24.5261V31.155H14.3379Z" fill="#DBDBDE"/>
<path d="M21.8301 25.2373C21.8301 21.7353 24.4602 19.0659 28.1211 19.0659C31.782 19.0659 34.4121 21.7353 34.4121 25.2373C34.4121 28.7394 31.782 31.4338 28.1211 31.4338C24.4602 31.4338 21.8301 28.7358 21.8301 25.2373ZM31.2773 25.2373C31.2773 23.2469 29.948 21.8353 28.1211 21.8353C26.2907 21.8353 24.965 23.2433 24.965 25.2373C24.965 27.2528 26.2942 28.6393 28.1211 28.6393C29.9516 28.6393 31.2773 27.2492 31.2773 25.2373Z" fill="#DBDBDE"/>
<path d="M44.5845 25.2373C44.5845 21.7353 47.2146 19.0659 50.8755 19.0659C54.5328 19.0659 57.163 21.7353 57.163 25.2373C57.163 28.7394 54.5328 31.4338 50.8755 31.4338C47.2146 31.4338 44.5845 28.7358 44.5845 25.2373ZM54.0281 25.2373C54.0281 23.2469 52.6989 21.8353 50.872 21.8353C49.0451 21.8353 47.7158 23.2433 47.7158 25.2373C47.7158 27.2528 49.0451 28.6393 50.872 28.6393C52.6989 28.6393 54.0281 27.2492 54.0281 25.2373Z" fill="#DBDBDE"/>
<path d="M58.8158 31.1551V24.4297C58.8158 21.3065 60.7955 19.0623 64.3284 19.0623C67.8365 19.0623 69.8162 21.3029 69.8162 24.4297V31.1551H66.66V24.6799C66.66 22.9431 65.8816 21.8568 64.3284 21.8568C62.7752 21.8568 61.9968 22.9396 61.9968 24.6799V31.1551H58.8158Z" fill="#DBDBDE"/>
<path d="M43.632 21.8602H40.1986V26.2699C40.1986 27.8065 40.7495 28.5105 42.3276 28.5105C42.4768 28.5105 42.8536 28.5105 43.3299 28.4855V31.0799C42.6794 31.255 42.1036 31.3586 41.4745 31.3586C38.8195 31.3586 37.014 29.7469 37.014 26.6987V21.8602H34.8814V19.3158H35.4145C35.6242 19.3158 35.8339 19.2729 36.0259 19.1943C36.2214 19.1121 36.3955 18.9942 36.5448 18.8441C36.6941 18.694 36.8114 18.5189 36.8931 18.3224C36.9749 18.1258 37.014 17.9186 37.014 17.7077V15.3099H40.195V19.3158H43.6284V21.8602H43.632Z" fill="#DBDBDE"/>
<path d="M76.1029 14.02H80.5714L84.76 24.2989C85.1332 25.1602 85.4527 26.0394 85.7218 26.9365H85.7649C86.0341 26.0394 86.3535 25.1566 86.7268 24.2989L90.9154 14.02H95.3839V31.1609H92.1464V19.6777C92.1429 19.2988 92.1608 18.92 92.2003 18.5447H92.1464C92.0459 18.9486 91.9131 19.3453 91.7445 19.7277L87.1037 30.9608H84.419L79.7638 19.7277C79.5952 19.3417 79.4516 18.9486 79.3367 18.5447H79.2865C79.3224 18.92 79.3403 19.2988 79.3367 19.6777V31.1645H76.1029V14.02Z" fill="#DBDBDE"/>
<path d="M106.456 19.8528C107.393 20.3425 108.168 21.093 108.689 22.0115C109.245 23.0087 109.525 24.1381 109.504 25.2782V31.161H106.668L106.467 29.3954C106.097 30.0352 105.556 30.557 104.902 30.9072C104.202 31.2682 103.42 31.4505 102.63 31.4326C101.622 31.4433 100.631 31.1753 99.7662 30.6571C98.8905 30.1281 98.1798 29.3704 97.706 28.4698C97.1892 27.4762 96.9308 26.3718 96.9523 25.2532C96.938 24.1524 97.2215 23.0694 97.7706 22.1116C98.309 21.1824 99.0879 20.4175 100.032 19.8993C101.008 19.3596 102.106 19.0809 103.223 19.0952C104.346 19.0737 105.459 19.3346 106.456 19.8528ZM105.419 27.7657C106.036 27.1795 106.342 26.354 106.342 25.2532C106.381 24.3525 106.062 23.4733 105.459 22.805C105.171 22.5048 104.827 22.2689 104.443 22.1045C104.059 21.9401 103.65 21.8579 103.233 21.8579C102.817 21.8579 102.404 21.9401 102.024 22.1045C101.64 22.2689 101.295 22.5048 101.008 22.805C100.434 23.4912 100.118 24.3561 100.118 25.2496C100.118 26.1431 100.434 27.008 101.008 27.6942C101.292 28.0016 101.636 28.241 102.024 28.4054C102.408 28.5663 102.824 28.6485 103.241 28.6377C103.642 28.6449 104.044 28.5698 104.421 28.4197C104.791 28.2732 105.132 28.048 105.419 27.7657Z" fill="#DBDBDE"/>
<path d="M111.252 16.9007C111.061 16.7256 110.911 16.5147 110.806 16.2788C110.702 16.0429 110.652 15.7892 110.656 15.5319C110.652 15.2745 110.706 15.0172 110.806 14.7777C110.911 14.5383 111.061 14.3239 111.252 14.1487C111.628 13.777 112.138 13.5662 112.669 13.5662C113.2 13.5662 113.71 13.777 114.087 14.1487C114.277 14.3274 114.428 14.5419 114.528 14.7777C114.629 15.0172 114.683 15.271 114.679 15.5319C114.683 15.7892 114.633 16.0429 114.528 16.2788C114.428 16.5147 114.277 16.7256 114.087 16.9007C113.707 17.2653 113.197 17.469 112.669 17.469C112.138 17.469 111.632 17.2653 111.252 16.9007ZM114.266 31.161H111.079V19.3489H114.266V31.161Z" fill="#DBDBDE"/>
<path d="M119.779 31.1609H116.589V14.02H119.779V31.1609Z" fill="#DBDBDE"/>
</svg>
