<svg xmlns="http://www.w3.org/2000/svg" width="24" height="24" viewBox="0 0 24 24">
  <g class="ic-question-circle">
    <path fill-rule="evenodd" d="M12 21a9 9 0 1 0 0-18 9 9 0 0 0 0 18Zm0 1.5c5.799 0 10.5-4.701 10.5-10.5S17.799 1.5 12 1.5 1.5 6.201 1.5 12 6.201 22.5 12 22.5Zm-.75-5.25a.75.75 0 0 1 .75-.75h.015a.75.75 0 1 1 0 1.5H12a.75.75 0 0 1-.75-.75Zm-1.5-7.277A2.25 2.25 0 0 1 12 7.723h.222c1.12 0 2.028.908 2.028 2.027 0 .376-.177.73-.478.956l-1.022.767a3.75 3.75 0 0 0-1.5 3 .75.75 0 0 0 1.5 0c0-.709.333-1.375.9-1.8l1.022-.767A2.695 2.695 0 0 0 15.75 9.75a3.528 3.528 0 0 0-3.528-3.527H12a3.75 3.75 0 0 0-3.75 3.75.75.75 0 1 0 1.5 0Z" class="Icon"/>
  </g>
</svg>
