<svg width="24" height="24" viewBox="0 0 24 24" fill="none" xmlns="http://www.w3.org/2000/svg">
<g id="ic-brand-proton-mail-filled">
<path id="Icon" fill-rule="evenodd" clip-rule="evenodd" d="M3.91392 4.06653C2.92803 3.30415 1.49634 4.00687 1.49634 5.25314V17.2453C1.49634 18.9021 2.83948 20.2453 4.49634 20.2453H19.5034C21.1603 20.2453 22.5034 18.9021 22.5034 17.2453V5.25313C22.5034 4.00686 21.0718 3.30416 20.0859 4.06653L12.4587 9.9645C12.1885 10.1734 11.8113 10.1734 11.5411 9.96449L3.91392 4.06653ZM2.99634 5.25314L10.6235 11.1511C10.893 11.3595 11.198 11.4986 11.5149 11.5684L10.7384 12.2632C10.2458 12.7039 9.50646 12.7231 8.9916 12.3086L2.99634 7.48095V5.25314ZM19.5034 18.7453H18.2768V7.36158L21.0034 5.25314V17.2453C21.0034 18.0737 20.3319 18.7453 19.5034 18.7453Z" fill="#0F0F0F"/>
</g>
</svg>
