<svg width="24" height="24" viewBox="0 0 24 24" fill="none" xmlns="http://www.w3.org/2000/svg">
<path d="M0 2.5C0 1.11929 1.11929 0 2.5 0H21.5C22.8807 0 24 1.11929 24 2.5V21.5C24 22.8807 22.8807 24 21.5 24H2.5C1.11929 24 0 22.8807 0 21.5V2.5Z" fill="#5C8DFF"/>
<path d="M16.4684 7.20001C16.3192 7.20001 16.1899 7.30309 16.1565 7.44849L14.4737 14.7875L12.7112 7.44532C12.6767 7.30145 12.548 7.20001 12.4001 7.20001H11.6252C11.478 7.20001 11.3499 7.30037 11.3145 7.44322L9.49893 14.7875L7.84264 7.44956C7.8097 7.30364 7.68007 7.20001 7.53049 7.20001H6.8005C6.59524 7.20001 6.44306 7.39053 6.48841 7.59071L8.51818 16.5507C8.55121 16.6965 8.68078 16.8 8.83028 16.8H10.1718C10.3194 16.8 10.4478 16.6991 10.4827 16.5557L11.9999 10.3275L13.4906 16.5545C13.5251 16.6985 13.6538 16.8 13.8019 16.8H15.143C15.2922 16.8 15.4216 16.6969 15.4549 16.5516L17.5101 7.59155C17.5561 7.39114 17.4038 7.20001 17.1982 7.20001H16.4684Z" fill="white"/>
</svg>
