<svg xmlns="http://www.w3.org/2000/svg" width="24" height="24" viewBox="0 0 24 24">
  <g class="ic-link-slash">
    <path fill-rule="evenodd" d="M22.283 22.195a.754.754 0 0 1-1.063 0l-9.75-9.71-9.75-9.71a.746.746 0 0 1 0-1.058.754.754 0 0 1 1.063 0l9.218 9.18 2.12-2.11a.754.754 0 0 1 1.063 0 .746.746 0 0 1 0 1.058l-2.12 2.111 9.219 9.181a.746.746 0 0 1 0 1.058ZM13.535 3.033a5.267 5.267 0 0 1 7.427 0 5.215 5.215 0 0 1 0 7.396l-3.656 3.64a.754.754 0 0 1-1.063 0 .746.746 0 0 1 0-1.058l3.656-3.64a3.722 3.722 0 0 0 0-5.28 3.76 3.76 0 0 0-5.301 0l-3.656 3.641a.754.754 0 0 1-1.063 0 .746.746 0 0 1 0-1.058l3.656-3.641Zm-2.72 11.164-.532.53-.403.4a.754.754 0 0 1-1.063 0 .746.746 0 0 1 0-1.058l.403-.401.532-.53 1.062 1.06ZM3.138 20.97a5.265 5.265 0 0 0 7.313.107l3.18-2.985.547-.514-1.031-1.089-.547.513-3.18 2.986a3.757 3.757 0 0 1-5.22-.077 3.72 3.72 0 0 1 .08-5.353l2.987-2.804.547-.513-1.031-1.09-.547.514-2.987 2.804a5.213 5.213 0 0 0-.111 7.5Z" class="Icon"/>
  </g>
</svg>
