<svg xmlns="http://www.w3.org/2000/svg" width="24" height="24" viewBox="0 0 24 24">
  <g class="ic-vault">
    <path fill-rule="evenodd" d="M4.5 4.5H21v15H4.5v-15ZM3 4.5A1.5 1.5 0 0 1 4.5 3H21a1.5 1.5 0 0 1 1.5 1.5v15A1.5 1.5 0 0 1 21 21H4.5A1.5 1.5 0 0 1 3 19.5h-.75a.75.75 0 0 1 0-1.5H3V6h-.75a.75.75 0 0 1 0-1.5H3ZM15 15a3 3 0 1 0 0-6 3 3 0 0 0 0 6Zm0 1.5a4.5 4.5 0 1 0 0-9 4.5 4.5 0 0 0 0 9Zm1.5-4.5a1.5 1.5 0 1 1-3 0 1.5 1.5 0 0 1 3 0Zm-8.25-.2a1.5 1.5 0 1 0-1.5 0v2.45a.75.75 0 0 0 1.5 0V11.8Z" class="Icon"/>
  </g>
</svg>
