<svg width="48" height="50" viewBox="0 0 48 50" fill="none" xmlns="http://www.w3.org/2000/svg">
<path d="M3.39001 7.82496C3.39001 4.03076 6.46582 0.954956 10.26 0.954956H27.9481C29.7183 0.954956 31.4202 1.63829 32.6989 2.86247L42.4909 12.2368C43.8445 13.5327 44.61 15.3253 44.61 17.1993V42.175C44.61 45.9692 41.5342 49.045 37.74 49.045H10.26C6.46582 49.045 3.39001 45.9692 3.39001 42.175V7.82496Z" fill="#DADBE0"/>
<path d="M44.4742 15.84H35.45C32.2881 15.84 29.725 13.2768 29.725 10.115V1.18872C30.8322 1.48522 31.8572 2.05667 32.6989 2.86246L42.4908 12.2368C43.5121 13.2146 44.1987 14.4751 44.4742 15.84Z" fill="#EBECF0"/>
<path d="M44.6099 17.5574H35.4499C31.3396 17.5574 28.0074 14.2253 28.0074 10.1149V0.9552C28.5921 0.960253 29.1689 1.03981 29.7249 1.18871V10.1149C29.7249 13.2768 32.2881 15.8399 35.4499 15.8399H44.4742C44.5638 16.2841 44.6099 16.7392 44.6099 17.1993V17.5574Z" fill="#BABBC5"/>
<path fill-rule="evenodd" clip-rule="evenodd" d="M16.5 19.25V20.2561C14.7522 20.8738 13.5 22.5407 13.5 24.5V35C13.5 37.4853 15.5147 39.5 18 39.5H30C32.4853 39.5 34.5 37.4853 34.5 35V24.5C34.5 22.5407 33.2478 20.8738 31.5 20.2561V19.25C31.5 18.8358 31.1642 18.5 30.75 18.5C30.3358 18.5 30 18.8358 30 19.25V20H18V19.25C18 18.8358 17.6642 18.5 17.25 18.5C16.8358 18.5 16.5 18.8358 16.5 19.25ZM30 21.5H18C16.3431 21.5 15 22.8431 15 24.5L33 24.5C33 22.8431 31.6569 21.5 30 21.5ZM15 35V26H33V35C33 36.6569 31.6569 38 30 38H18C16.3431 38 15 36.6569 15 35ZM18.75 30.5C18.3358 30.5 18 30.1642 18 29.75C18 29.3358 18.3358 29 18.75 29C19.1642 29 19.5 29.3358 19.5 29.75C19.5 30.1642 19.1642 30.5 18.75 30.5ZM16.5 29.75C16.5 28.5074 17.5074 27.5 18.75 27.5C19.9926 27.5 21 28.5074 21 29.75C21 30.9926 19.9926 32 18.75 32C17.5074 32 16.5 30.9926 16.5 29.75Z" fill="#3A3F4A"/>
</svg>
