<svg xmlns="http://www.w3.org/2000/svg" width="24" height="24" viewBox="0 0 24 24">
  <g class="ic-brand-proton-mail">
    <path fill-rule="evenodd" d="M3.914 4.066c-.986-.762-2.418-.06-2.418 1.187v11.992a3 3 0 0 0 3 3h15.007a3 3 0 0 0 3-3V5.253c0-1.247-1.431-1.95-2.417-1.187l-7.628 5.898a.75.75 0 0 1-.917 0L3.914 4.066Zm-.918 1.187 7.627 5.898c.27.208.575.347.892.417l-.777.695a1.35 1.35 0 0 1-1.747.045L2.996 7.481V5.253Zm16.507 13.492h-1.226V7.36l2.726-2.108v11.992a1.5 1.5 0 0 1-1.5 1.5Z" class="Icon"/>
  </g>
</svg>
