<svg width="75" height="128" viewBox="0 0 75 128" fill="none" xmlns="http://www.w3.org/2000/svg">
<path d="M31.6659 68.6831C19.9903 70.0886 9.55943 75.5514 1.8345 83.6111C0.000418901 85.5246 0.0648426 88.5627 1.9784 90.3968C3.89195 92.2309 6.93001 92.1664 8.76409 90.2529C14.7464 84.0113 22.7204 79.7096 31.6659 78.3683V68.6831Z" fill="url(#paint0_linear_10495_51213)" fill-opacity="0.3"/>
<path d="M44.2115 78.4582C52.9248 79.8939 60.6867 84.144 66.5413 90.252C68.3755 92.1655 71.4135 92.2298 73.327 90.3956C75.2405 88.5615 75.3048 85.5234 73.4707 83.6099C66.6695 76.5145 57.7709 71.4318 47.7722 69.3587L44.2115 78.4582Z" fill="url(#paint1_linear_10495_51213)" fill-opacity="0.3"/>
<path d="M37.6532 99.863C32.1869 99.863 27.2241 101.974 23.5184 105.434C21.5811 107.243 18.5441 107.139 16.7352 105.201C14.9262 103.264 15.0304 100.227 16.9677 98.418C22.3804 93.3642 29.6602 90.2644 37.6532 90.2644C45.6432 90.2644 52.9205 93.3618 58.3325 98.4122C60.2704 100.221 60.3754 103.258 58.567 105.195C56.7586 107.133 53.7217 107.238 51.7838 105.43C48.0786 101.972 43.1175 99.863 37.6532 99.863Z" fill="url(#paint2_linear_10495_51213)" fill-opacity="0.3"/>
<path d="M46.3661 119.287C46.3661 124.099 42.4652 128 37.6532 128C32.8412 128 28.9403 124.099 28.9403 119.287C28.9403 114.475 32.8412 110.574 37.6532 110.574C42.4652 110.574 46.3661 114.475 46.3661 119.287Z" fill="url(#paint3_linear_10495_51213)" fill-opacity="0.3"/>
<path d="M12.4868 50.3448L36.4605 0V31.9649H58.0369L36.4605 84.7071V50.3448H12.4868Z" fill="url(#paint4_linear_10495_51213)" fill-opacity="0.3"/>
<defs>
<linearGradient id="paint0_linear_10495_51213" x1="66.0281" y1="68.7245" x2="37.6527" y2="128" gradientUnits="userSpaceOnUse">
<stop stop-color="#E6E8F2"/>
<stop offset="1" stop-color="#7A7F99"/>
</linearGradient>
<linearGradient id="paint1_linear_10495_51213" x1="66.0281" y1="68.7245" x2="37.6527" y2="128" gradientUnits="userSpaceOnUse">
<stop stop-color="#E6E8F2"/>
<stop offset="1" stop-color="#7A7F99"/>
</linearGradient>
<linearGradient id="paint2_linear_10495_51213" x1="66.0281" y1="68.7245" x2="37.6527" y2="128" gradientUnits="userSpaceOnUse">
<stop stop-color="#E6E8F2"/>
<stop offset="1" stop-color="#7A7F99"/>
</linearGradient>
<linearGradient id="paint3_linear_10495_51213" x1="66.0281" y1="68.7245" x2="37.6527" y2="128" gradientUnits="userSpaceOnUse">
<stop stop-color="#E6E8F2"/>
<stop offset="1" stop-color="#7A7F99"/>
</linearGradient>
<linearGradient id="paint4_linear_10495_51213" x1="62.0325" y1="-1.59824" x2="35.2619" y2="86.3053" gradientUnits="userSpaceOnUse">
<stop stop-color="#E6E8F2"/>
<stop offset="1" stop-color="#7A7F99"/>
</linearGradient>
</defs>
</svg>
