<svg width="24" height="24" viewBox="0 0 24 24" fill="none" xmlns="http://www.w3.org/2000/svg">
<g id="ic-pen-square">
<path id="Icon" fill-rule="evenodd" clip-rule="evenodd" d="M19.7744 3.00048L21.002 4.22808L11.1201 14.1099C10.908 14.322 10.6373 14.4656 10.3428 14.5223L9.2747 14.7277L9.48016 13.6597C9.53681 13.3652 9.68044 13.0944 9.89249 12.8823L19.7744 3.00048ZM22.0627 3.16743L20.8351 1.93983C20.2493 1.35404 19.2995 1.35404 18.7138 1.93983L8.83183 11.8217C8.40771 12.2458 8.12046 12.7873 8.00716 13.3763L7.59253 15.5317C7.49233 16.0526 7.94979 16.5101 8.47071 16.4099L10.6261 15.9953C11.2151 15.882 11.7566 15.5947 12.1808 15.1706L22.0627 5.28874C22.6485 4.70295 22.6485 3.75321 22.0627 3.16743ZM3.00146 6.75049C3.00146 5.50785 4.00882 4.50049 5.25146 4.50049H14.0917V3.00049H5.25146C3.1804 3.00049 1.50146 4.67942 1.50146 6.75049L1.50146 18.7488C1.50146 20.8199 3.1804 22.4988 5.25147 22.4988H17.0851C19.1562 22.4988 20.8351 20.8199 20.8351 18.7488V9.90862H19.3351V18.7488C19.3351 19.9915 18.3277 20.9988 17.0851 20.9988H5.25147C4.00883 20.9988 3.00146 19.9915 3.00146 18.7488V6.75049Z" fill="#0F0F0F"/>
</g>
</svg>
