<svg width="201" height="172" viewBox="0 0 201 172" fill="none" xmlns="http://www.w3.org/2000/svg">
<path d="M100.5 3C139.16 3 170.5 34.3401 170.5 73C170.5 99.1154 156.198 121.889 135 133.92V90C135 84.4771 130.523 80 125 80H76C70.4772 80 66 84.4771 66 90V133.92C44.802 121.889 30.5 99.1154 30.5 73C30.5 34.3401 61.8401 3 100.5 3Z" fill="url(#paint0_linear_19137_220)"/>
<mask id="mask0_19137_220" style="mask-type:alpha" maskUnits="userSpaceOnUse" x="30" y="3" width="141" height="140">
<circle cx="100.5" cy="73" r="70" fill="#FF0000"/>
</mask>
<g mask="url(#mask0_19137_220)">
<path d="M76.5 80H124.5C130.023 80 134.5 84.4772 134.5 90V153H66.5V90C66.5 84.4772 70.9772 80 76.5 80Z" fill="url(#paint1_linear_19137_220)" fill-opacity="0.05" stroke="url(#paint2_linear_19137_220)" stroke-width="4"/>
<path d="M117 131C117.828 131 118.5 131.672 118.5 132.5C118.5 133.328 117.828 134 117 134H85C84.1716 134 83.5 133.328 83.5 132.5C83.5 131.672 84.1716 131 85 131H117ZM78.5 125C79.6046 125 80.5 125.895 80.5 127V129C80.5 130.105 79.6046 131 78.5 131H76.5C75.3954 131 74.5 130.105 74.5 129V127C74.5 125.895 75.3954 125 76.5 125H78.5ZM125 125C125.828 125 126.5 125.672 126.5 126.5C126.5 127.328 125.828 128 125 128H85C84.1716 128 83.5 127.328 83.5 126.5C83.5 125.672 84.1716 125 85 125H125ZM117 116C117.828 116 118.5 116.672 118.5 117.5C118.5 118.328 117.828 119 117 119H85C84.1716 119 83.5 118.328 83.5 117.5C83.5 116.672 84.1716 116 85 116H117ZM78.5 110C79.6046 110 80.5 110.895 80.5 112V114C80.5 115.105 79.6046 116 78.5 116H76.5C75.3954 116 74.5 115.105 74.5 114V112C74.5 110.895 75.3954 110 76.5 110H78.5ZM125 110C125.828 110 126.5 110.672 126.5 111.5C126.5 112.328 125.828 113 125 113H85C84.1716 113 83.5 112.328 83.5 111.5C83.5 110.672 84.1716 110 85 110H125ZM117 101C117.828 101 118.5 101.672 118.5 102.5C118.5 103.328 117.828 104 117 104H85C84.1716 104 83.5 103.328 83.5 102.5C83.5 101.672 84.1716 101 85 101H117ZM78.5 95C79.6046 95 80.5 95.8954 80.5 97V99C80.5 100.105 79.6046 101 78.5 101H76.5C75.3954 101 74.5 100.105 74.5 99V97C74.5 95.8954 75.3954 95 76.5 95H78.5ZM125 95C125.828 95 126.5 95.6716 126.5 96.5C126.5 97.3284 125.828 98 125 98H85C84.1716 98 83.5 97.3284 83.5 96.5C83.5 95.6716 84.1716 95 85 95H125Z" fill="#B893E1" fill-opacity="0.2"/>
<rect x="94.5" y="85" width="12" height="3" rx="1.5" fill="#7462BF"/>
</g>
<circle cx="100.5" cy="42" r="22" fill="url(#paint3_linear_19137_220)"/>
<path d="M95.0002 31.366L106.047 50.5001" stroke="white" stroke-width="2" stroke-linecap="round"/>
<path d="M100.5 48C101.605 48.0001 102.5 48.8955 102.5 50C102.5 51.1045 101.605 51.9999 100.5 52C99.3957 51.9999 98.5002 51.1045 98.5002 50C98.5002 48.8955 99.3957 48.0001 100.5 48ZM99.718 45.0615C98.4774 45.2563 97.3882 45.9065 96.6262 46.8389C96.2768 47.2664 95.6466 47.3298 95.219 46.9805C94.7914 46.631 94.728 46.0009 95.0774 45.5732C95.9867 44.4605 97.2345 43.6339 98.6633 43.2461L99.718 45.0615ZM100.839 43.0098C102.889 43.1076 104.708 44.0859 105.923 45.5732C106.272 46.0009 106.209 46.631 105.781 46.9805C105.354 47.3298 104.724 47.2664 104.374 46.8389C103.798 46.1333 103.034 45.5888 102.158 45.2812L100.839 43.0098ZM97.1194 40.5859C95.4057 41.2013 93.9085 42.2715 92.7727 43.6523C92.422 44.0787 91.792 44.1404 91.3655 43.79C90.939 43.4392 90.877 42.8084 91.2278 42.3818C92.5128 40.8195 94.1863 39.5868 96.1008 38.832L97.1194 40.5859ZM100.5 38C104.236 38 107.573 39.7079 109.773 42.3818C110.123 42.8084 110.061 43.4392 109.635 43.79C109.208 44.1404 108.578 44.0787 108.228 43.6523C106.392 41.4206 103.612 40 100.5 40C100.041 40 99.588 40.0308 99.1448 40.0908L98.0735 38.2451C98.8572 38.0841 99.669 38 100.5 38ZM94.5803 36.2139C92.4077 37.1481 90.4998 38.5806 89.0002 40.3691C88.6454 40.7923 88.0143 40.8479 87.5911 40.4932C87.1679 40.1383 87.1123 39.5072 87.467 39.084C89.1141 37.1195 91.1979 35.5317 93.5696 34.4717L94.5803 36.2139ZM100.5 33C105.734 33 110.417 35.3664 113.533 39.084C113.888 39.5072 113.833 40.1383 113.409 40.4932C112.986 40.8478 112.355 40.7923 112 40.3691C109.247 37.0855 105.118 35 100.5 35C99.1157 35 97.775 35.188 96.5022 35.5391L95.468 33.7578C97.0583 33.2657 98.7484 33 100.5 33Z" fill="white"/>
<ellipse cx="101" cy="160" rx="100" ry="12" fill="url(#paint4_radial_19137_220)" fill-opacity="0.2"/>
<path d="M147.5 72L145.5 59.5L195.5 43L147.5 72Z" fill="url(#paint5_linear_19137_220)"/>
<path d="M147.5 72L151.5 64L195.5 43L147.5 72Z" fill="#7A62E9"/>
<path d="M174.2 76.3379C173.276 77.7851 171.327 78.1623 169.929 77.1641L151.5 64L195.5 43L174.2 76.3379ZM145.5 59.5L136.503 52.957C135.776 52.4278 136.063 51.2826 136.953 51.1582L195.5 43L145.5 59.5Z" fill="url(#paint6_linear_19137_220)"/>
<defs>
<linearGradient id="paint0_linear_19137_220" x1="139" y1="13" x2="56" y2="134" gradientUnits="userSpaceOnUse">
<stop stop-color="#C990FF" stop-opacity="0.04"/>
<stop offset="1" stop-color="#6D4AFF" stop-opacity="0.15"/>
</linearGradient>
<linearGradient id="paint1_linear_19137_220" x1="97.5411" y1="93" x2="90.4462" y2="157.479" gradientUnits="userSpaceOnUse">
<stop stop-color="#DDD7FF"/>
<stop offset="1" stop-color="#BBB0F9"/>
</linearGradient>
<linearGradient id="paint2_linear_19137_220" x1="124.5" y1="57" x2="62.9968" y2="177.231" gradientUnits="userSpaceOnUse">
<stop stop-color="#A792FF"/>
<stop offset="1" stop-color="#2C1E66"/>
</linearGradient>
<linearGradient id="paint3_linear_19137_220" x1="118.131" y1="21.4211" x2="82.2536" y2="63.7178" gradientUnits="userSpaceOnUse">
<stop stop-color="#FFD7B3"/>
<stop offset="1" stop-color="#FAA58B"/>
</linearGradient>
<radialGradient id="paint4_radial_19137_220" cx="0" cy="0" r="1" gradientUnits="userSpaceOnUse" gradientTransform="translate(101 160) rotate(90) scale(8.4 70)">
<stop stop-color="#6633F1" stop-opacity="0.8"/>
<stop offset="1" stop-color="#6633F1" stop-opacity="0"/>
</radialGradient>
<linearGradient id="paint5_linear_19137_220" x1="184.5" y1="39" x2="136" y2="88" gradientUnits="userSpaceOnUse">
<stop stop-color="#C8BBFF"/>
<stop offset="1" stop-color="#6F60E2"/>
</linearGradient>
<linearGradient id="paint6_linear_19137_220" x1="192.056" y1="39.5658" x2="153.261" y2="78.5681" gradientUnits="userSpaceOnUse">
<stop stop-color="#E4D9FF"/>
<stop offset="1" stop-color="#C4B5FF"/>
</linearGradient>
</defs>
</svg>
