<svg xmlns="http://www.w3.org/2000/svg" width="24" height="24" viewBox="0 0 24 24">
  <g class="ic-brand-chrome">
    <g class="Icon">
      <path d="M7.312 2.602A10.522 10.522 0 0 0 3.77 5.46l3.546 6.14a4.7 4.7 0 0 1 4.615-4.258h9.493C18.836 2.138 12.518.015 7.312 2.602Z"/>
      <path d="M15.879 12.04a3.853 3.853 0 1 1-7.706 0 3.853 3.853 0 0 1 7.706 0Z"/>
      <path d="M14.6 8.188h7.194c.561 1.455.794 3.02.676 4.582-.435 5.753-5.42 10.074-11.164 9.708l4.607-7.977c.045-.074.089-.149.13-.225l.04-.069-.003-.001a4.698 4.698 0 0 0-1.48-6.018Z"/>
      <path d="M7.815 14.154a4.702 4.702 0 0 0 6.12 2.08l-3.547 6.142a10.528 10.528 0 0 1-4.222-1.654c-4.8-3.216-6.103-9.694-2.94-14.513l4.589 7.945Z"/>
    </g>
  </g>
</svg>
