<svg xmlns="http://www.w3.org/2000/svg" width="24" height="24" viewBox="0 0 24 24">
  <g class="ic-brand-linux">
    <path d="M19.883 18.168c-.48-.39-.294-1.252-.793-1.677.484-2.945-.873-5.54-2.49-7.204-1.357-1.395-.92-2.753-.92-3.928 0-1.878-.77-3.859-3.105-3.859-2.497 0-3.181 2.083-3.206 3.27-.06 2.855.577 3.597-1.093 5.674-1.966 2.444-2.255 4.882-1.812 6.175-.207.242-.487.51-1.01.73-1.446.63-.386 1.685-.786 2.433a1.374 1.374 0 0 0-.168.648c0 .656.521 1.224 1.47 1.139 1.277-.114 2.457.792 3.22.792.674 0 1.227-.383 1.484-.911 1.205-.297 2.692-.259 3.896.052.216.604.803.998 1.455.998 1.427 0 1.702-1.618 3.339-2.166.59-.197.886-.769.886-1.302 0-.34-.122-.666-.367-.864ZM11.88 9.01c-.28 0-.51-.226-.875-.497-.462-.343-.932-.54-.927-.901 0-.248.332-.324.76-.596.46-.292.64-.587 1.093-.587.464 0 .604.234 1.234.506.62.269 1.051.374 1.051.677 0 .31-.648.533-1.013.76-.537.33-.812.638-1.323.638Zm1.457-4.563c.771.123.858 1.48.489 2.147l-.31-.127c.16-.475.158-1.257-.382-1.307-.342-.031-.562.42-.61.807a1.476 1.476 0 0 0-.457-.111c.054-.808.576-1.52 1.27-1.41Zm-2.978.29c.591-.148.94.54.943 1.255l-.271.166c-.037-.3-.17-.784-.507-.681-.36.112-.3.947-.1 1.119l-.268.149c-.367-.619-.367-1.867.203-2.009Zm-1.85 16.837c-1.718-.781-2.302-.604-2.63-.604-.68 0-.902-.506-.647-.986.217-.407.15-.833.097-1.175-.083-.524-.098-.695.418-.92.713-.303 1.03-.692 1.266-.984.663-.82 1.333.47 1.881 1.619.356.745 1.057 1.122 1.273 1.947.199.762-.62 1.576-1.659 1.103Zm6.113-1.64c-1.211.59-2.754.86-3.908.262-.17-.493-.443-.811-.737-1.131.471-.125.821-.713.402-1.303-.447-.631-1.36-1.071-2.284-1.785-.863-.668-1.136-2.314.04-4.153-.573 1.63-.238 3.13.05 3.56.06-.864.127-2.308 1.309-4.038.595-.873.604-2.026.617-2.747l.543.37c.399.296.733.62 1.213.62.708 0 1.1-.408 1.646-.746.214-.131.537-.264.808-.449.455 2.167 2.34 4.772 2.446 6.256.438-.903-.125-3.075-.125-3.075.737 1.125.796 2.062.828 3.212.515.21 1.069.76 1.12 1.484l-.215-.025c-.11-.804-2.281-1.985-2.476-.471-1.042.158-.663 1.807-.873 2.877-.096.489-.274.876-.404 1.282Zm4.24-.035c-.862.332-1.443 1.038-1.843 1.477-.77.845-1.789.44-1.897-.351-.115-.846.315-1.307.5-2.253.169-.863-.02-2.192.377-2.334.258 1.534 1.808.889 2.161.47.575 0 .623.195.752.733.08.337.192.62.506.954.366.39.254.991-.556 1.303Zm-7-11.38c-.57 0-.995-.38-1.342-.674-.178-.15.044-.426.221-.275.339.287.68.59 1.121.59.531 0 1-.454 1.634-.704.216-.085.34.25.125.334-.616.243-1.11.728-1.759.728Z" class="Icon"/>
  </g>
</svg>
