<svg xmlns="http://www.w3.org/2000/svg" width="24" height="24" viewBox="0 0 24 24">
  <g class="ic-brand-tor">
    <path fill-rule="evenodd" d="M12 1.5a.75.75 0 0 1 .696.471c.674 1.685 1.888 2.815 3.177 3.776a38.033 38.033 0 0 0 1.069.763c.282.197.565.394.831.59.59.432 1.165.9 1.577 1.45A8.216 8.216 0 0 1 21 13.5c0 2.314-1.14 4.557-2.791 6.209C16.557 21.359 14.314 22.5 12 22.5c-2.314 0-4.557-1.14-6.209-2.791C4.141 18.057 3 15.814 3 13.5c0-1.856.614-3.572 1.65-4.95.412-.55.987-1.018 1.577-1.45.266-.196.549-.393.832-.59l.103-.072c.32-.224.643-.451.965-.691 1.289-.961 2.503-2.091 3.177-3.776A.75.75 0 0 1 12 1.5ZM7.114 8.309c-.57.418-.993.78-1.265 1.141A6.717 6.717 0 0 0 4.5 13.5c0 1.829.914 3.71 2.352 5.148a8.664 8.664 0 0 0 2.139 1.574 7.049 7.049 0 0 1-.723-.962c-.927-1.47-1.518-3.487-1.518-5.76 0-1.745.676-3.067 1.33-4.345.084-.164.168-.327.25-.49a21.42 21.42 0 0 1 1.117-1.953l.107-.172c-.177.142-.355.278-.53.41a39.366 39.366 0 0 1-1.107.79 39.18 39.18 0 0 0-.803.569Zm4.136-1.675c-.2.357-.403.685-.611 1.018-.316.508-.64 1.029-.968 1.683l-.254.503C8.755 11.14 8.25 12.137 8.25 13.5c0 2.024.529 3.757 1.287 4.961.534.848 1.138 1.377 1.713 1.623V6.634Zm1.5 14.316c1.584-.21 3.156-1.06 4.398-2.302 1.438-1.438 2.352-3.32 2.352-5.148 0-1.52-.502-2.921-1.35-4.05-.271-.362-.694-.723-1.264-1.141-.251-.184-.518-.37-.803-.57a39.545 39.545 0 0 1-1.106-.79c-.752-.56-1.536-1.215-2.227-2.033V20.95Z" class="Icon"/>
  </g>
</svg>
