<svg width="24" height="24" viewBox="0 0 24 24" fill="none" xmlns="http://www.w3.org/2000/svg">
<g id="ic-link">
<path id="Icon" fill-rule="evenodd" clip-rule="evenodd" d="M13.5347 3.04062C15.5849 0.990368 18.909 0.990365 20.9593 3.04062C23.0095 5.09087 23.0095 8.41499 20.9593 10.4652L17.3034 14.1211C17.0105 14.414 16.5357 14.414 16.2428 14.1211C15.9499 13.8282 15.9499 13.3533 16.2428 13.0604L19.8986 9.40458C21.3631 7.94011 21.3631 5.56574 19.8986 4.10128C18.4342 2.63681 16.0598 2.63681 14.5953 4.10128L10.9395 7.75714C10.6466 8.05004 10.1717 8.05004 9.8788 7.75714C9.58591 7.46425 9.58591 6.98938 9.8788 6.69648L13.5347 3.04062ZM15.1817 8.81835C15.4746 9.11125 15.4746 9.58612 15.1817 9.87901L9.8784 15.1823C9.5855 15.4752 9.11063 15.4752 8.81774 15.1823C8.52484 14.8894 8.52484 14.4145 8.81774 14.1217L14.121 8.81835C14.4139 8.52546 14.8888 8.52546 15.1817 8.81835ZM3.04355 20.9558C5.0938 23.0061 8.41792 23.0061 10.4682 20.9558L14.1274 17.2965C14.4203 17.0037 14.4203 16.5288 14.1274 16.2359C13.8346 15.943 13.3597 15.943 13.0668 16.2359L9.40751 19.8952C7.94305 21.3596 5.56867 21.3596 4.10421 19.8952C2.63974 18.4307 2.63974 16.0563 4.10421 14.5919L7.76349 10.9326C8.05638 10.6397 8.05638 10.1648 7.76349 9.87192C7.47059 9.57903 6.99572 9.57903 6.70283 9.87192L3.04355 13.5312C0.993297 15.5815 0.993296 18.9056 3.04355 20.9558Z" fill="#0F0F0F"/>
</g>
</svg>
